<svg width="7" height="11" viewBox="0 0 7 11" fill="none" xmlns="http://www.w3.org/2000/svg">
<path d="M0.684664 9.89081C0.525096 9.73125 0.445313 9.52816 0.445313 9.28156C0.445313 9.03495 0.525096 8.83186 0.684664 8.6723L4.07911 5.27785L0.684664 1.88341C0.525096 1.72384 0.445313 1.52075 0.445313 1.27415C0.445313 1.02754 0.525096 0.824457 0.684664 0.664889C0.844232 0.505321 1.04732 0.425537 1.29392 0.425537C1.54053 0.425537 1.74362 0.505321 1.90318 0.664889L5.90689 4.66859C5.99392 4.75563 6.05572 4.84992 6.09228 4.95146C6.12825 5.05301 6.14624 5.1618 6.14624 5.27785C6.14624 5.3939 6.12825 5.5027 6.09228 5.60424C6.05572 5.70578 5.99392 5.80007 5.90689 5.88711L1.90318 9.89081C1.74362 10.0504 1.54053 10.1302 1.29392 10.1302C1.04732 10.1302 0.844232 10.0504 0.684664 9.89081Z" fill="#161616"/>
</svg>
