<?xml version="1.0" encoding="utf-8"?>
<!-- Generator: Adobe Illustrator 27.3.1, SVG Export Plug-In . SVG Version: 6.00 Build 0)  -->
<svg version="1.1" id="Layer_1" xmlns="http://www.w3.org/2000/svg" xmlns:xlink="http://www.w3.org/1999/xlink" x="0px" y="0px"
	 viewBox="0 0 170 111" style="enable-background:new 0 0 170 111;" xml:space="preserve">
<style type="text/css">
	.st0{fill:#FFFFFD;}
</style>
<g id="XMLID_1904_">
	<path id="XMLID_1923_" class="st0" d="M156.3,42c1.4,2.2,2.7,4.5,3.9,6.8c0.8,1.5,1.3,3.2,2,4.7c0.6,1.4,1.3,2.7,1.7,4.2
		c0.3,1.2,1,2.2,1.2,3.4c0,0.2,0.2,0.4,0.4,0.5c0.1,0.1,0.4-0.1,0.5-0.2c0.1-0.1,0.1-0.3,0.1-0.5c-0.4-1-0.7-2-1.2-3
		c-0.4-0.9-0.9-1.8-1.2-2.7c-0.2-0.6-0.6-1.2-0.7-1.7c-0.1-0.7-0.5-1.2-0.8-1.7c-0.1-0.2-0.2-0.5-0.3-0.7c-0.2-0.9-0.8-1.5-1.1-2.3
		c-0.3-0.8-0.7-1.4-1.1-2.1c-0.6-0.9-1-1.9-1.5-2.8c-0.5-1-1.1-1.9-1.6-2.9c-0.1-0.2-0.2-0.3-0.5-0.1c-0.1,0.1-0.2,0.2-0.3,0.2
		c0-0.5,0.4-0.9,0.3-1.4c0.4,0.3,0.9,0.5,1.3,0.9c0.3,0.2,0.5,0.5,0.6,0.8c0.6,1.5,1.7,2.7,2.4,4.1c0.9,1.8,1.9,3.6,2.8,5.5
		c1.1,2.2,2.3,4.5,3,6.9c0.5,1.4,1.2,2.8,1.4,4.3c0.2,1.7,0.3,1.7-1.3,2.4c0-0.2,0-0.3,0.1-0.5c-0.2,0-0.4,0-0.5,0.1
		c-0.2,0.3-0.3,0.6-0.3,0.9c-0.1,0.4-0.4,0.7-0.8,0.7c-1.1-0.1-2.3,0.2-3.4,0c-1.6-0.3-3.3-0.4-5-0.6c-0.4-0.1-0.8-0.2-1.3-0.3
		c-1.6-0.1-3.3,0.1-4.8-0.7c-0.1,0-0.2,0.1-0.2,0.1c0,0-0.1,0.1-0.1,0.1c-1,0.2-1.9,0.2-2.9,0c-0.9-0.2-2-0.5-2.8-0.3
		c-0.7,0.2-1.3,0-1.9,0c-0.7,0.1-1.4,0.1-2.1,0.1c-1,0-2-0.1-3.1-0.1c-1.7,0.1-3.4-0.3-5.2-0.5c-0.5-0.1-1.1-1.3-0.9-1.8
		c0-0.1,0.1-0.2,0.2-0.2c1.1-0.3,1.8-1.3,3-1.4c0.5,0,0.9-0.2,1.4-0.2c0.4,0,0.8-0.2,1.2-0.2c0.5,0,1.1,0.3,1.5,0.1
		c1.4-0.5,2.9,0.3,4.3-0.1c0.9-0.2,2,0.1,3.1,0c1.6-0.1,3.2,0.5,4.9,0.2c0.5-0.1,1,0.1,1.5,0.1c0.5,0.1,1,0,1.5,0.2
		c0.5,0.2,0.9-0.3,1.3,0c0.1,0.1,0.4,0,0.5-0.2c0.1-0.1,0-0.4-0.1-0.5c-0.7-0.6-1.6-1-2.3-1.7c-1.6-1.5-3.6-2.4-5-4.1
		c-0.1-0.1-0.2,0-0.3-0.1c-1.1-0.4-2-1.1-2.6-2c0.1-0.1,0.2-0.1,0.3-0.2c-0.1,0-0.2-0.1-0.2-0.1c-0.1,0.1-0.1,0.2-0.1,0.2
		c0,0,0.1,0,0.1,0c-1-0.2-2.1-0.3-1.9-1.7c-0.1,0-0.3,0-0.3,0c-0.1,0.8-0.7,0.5-1,0.3c-1.1-0.8-2.3-1.4-3.5-2.1
		c-0.2-0.1-1.4-0.3-0.4-1.1c-0.1-0.1-0.2-0.2-0.3-0.2c-0.3,0-0.6,0-1,0c-0.2,0-0.5,0.2-0.6,0.1c-0.5-0.6-1.3-0.8-2-0.9
		c0-0.4-0.8-0.1-0.7-0.7c0.1-0.4-0.2-0.2-0.4-0.1c-0.2,0.1-0.7,0.1-0.8,0c-0.5-0.8-1.5-0.7-2.2-1.2c-0.6-0.4-1.4-0.7-2.1-1
		c-0.4-0.1-0.8-0.1-1.2-0.4c-0.3-0.3-0.9-0.2-1.3-0.5c-0.7-0.5-1.6-0.8-2.5-1c-1.4-0.2-2.5-1.3-4-1.2c-0.4-0.7-1.3-0.2-1.8-0.7
		c-0.6-0.5-1.3-0.3-1.9-0.4c-0.2-0.1-0.5,0-0.6-0.1c-0.5-0.2-0.9-0.5-1.3-0.7c-0.7,0.7-1.1-0.2-1.6-0.3c-1.3-0.2-2.7-0.5-4-0.8
		c-0.3-0.1-0.6-0.2-0.9-0.3c-0.6-0.3-1.4,0-2-0.6c-0.8,0.5-1.7,0.1-2.6,0c-0.7-0.1-1.4-0.6-2.2-0.6c-2.1-0.1-4.1-0.5-6.3-0.4
		c-2.2,0.1-4.3-0.6-6.6-0.4c-1,0.1-1.9-0.2-2.9,0c-1.3,0.2-2.7,0-4.1-0.1c-0.2,0-0.5-0.1-0.7-0.1c-1.5,0.5-3,0.2-4.5,0.5
		c-0.4,0.1-0.7,0.2-1.1,0.2c-1.3-0.1-2.6,0.5-3.9,0.4c-1.2-0.1-2.3,0.4-3.4,0.5c-0.9,0.1-1.9,0.2-2.8,0.5c-1,0.4-2.2,0.2-3.2,0.8
		c-2.6,0.3-5,1.4-7.5,1.9c-0.9,0.2-1.9,0.3-2.7,0.7c-0.7,0.4-1.4,0.4-2.1,0.7c-0.6,0.4-1.3,0.7-2,0.9c-0.9,0.2-1.7,0.5-2.4,1
		c-0.1,0.1-0.2,0.2-0.3,0.2c-1.6,0.1-2.9,1.2-4.3,1.7c-1.3,0.5-2.6,1.1-3.9,1.8c-1.3,0.7-2.5,1.5-3.8,2.1c-0.8,0.4-1.3,1.1-2,1.3
		c-0.9,0.2-1.5,0.8-2.2,1.2c-0.4,0.2-0.7,0.6-1.1,0.8c-0.4,0.3-0.8,0.5-1.2,0.7c-0.4,0.2-0.8,0.8-1.1,0.7c-0.8-0.2-0.5,0.6-0.7,0.6
		c-0.6,0-0.9,0.6-1.4,0.9c-0.4,0.3-0.8,0.6-1.2,0.9c-0.4,0.3-0.9,0.4-1.2,0.9c-0.2,0.5-0.8,0.5-1.2,0.9c-0.4,0.3-0.7,0.7-1.1,1
		c-0.4,0.3-0.9,0.7-1.3,1c-1.5,1.3-2.9,2.5-4.4,3.8c-0.1,0.1-0.2,0.1-0.3,0.2c-0.6,0.7-1.1,1.4-1.8,2c-0.7,0.6-1.4,1.3-2.2,1.8
		c-0.4,0.2-0.8,0.8-1.2,0.8c-0.4,0-0.8-0.4-1.2-0.7c-0.1-0.1-0.2-0.1-0.3-0.1c-0.4,0.2-0.8,0.5-1.1-0.1c-0.4,0.2-0.8,0.3-1.1,0.6
		c-0.5,0.4-0.8,0.2-1-0.2c-0.2-0.3-0.3-0.7-0.5-1c-0.3-0.5-0.2-0.8,0.2-1.1c1.3-0.9,2.4-2,3.4-3.3c0.4-0.6,1.1-1,1.6-1.4
		c0.5-0.4,1-0.8,1.5-1.2c0.5-0.4,1-0.9,1.5-1.3c0.6-0.5,1.3-1.2,2-1.5c0.8-0.4,1.2-1.1,1.9-1.6c1.9-1.3,3.8-2.7,5.6-4.1
		c0.3-0.3,1-0.2,1-0.8c1-0.1,1.5-1.1,2.3-1.5c0.8-0.4,1.6-0.9,2.4-1.4c1.5-0.9,3.1-1.7,4.6-2.5c1.9-1.1,4-1.9,5.9-2.9
		c3.2-1.7,6.6-2.8,9.9-4.2c1.1-0.4,2.2-0.6,3.3-1.1c1.3-0.6,2.6-1,4-1.4c1.5-0.4,2.9-0.9,4.4-1.1c0.9-0.1,1.8-0.7,2.7-0.8
		c1-0.1,1.9-0.4,2.9-0.6c2-0.3,4.1-0.9,6.1-1.2c1.5-0.2,3-0.3,4.5-0.6c1.9-0.3,3.8-0.4,5.6-0.6c0.6-0.1,1.3-0.2,1.9-0.1
		c1,0.1,1.9-0.4,2.9,0c0.5-0.5,1.2-0.1,1.7-0.1c0.6,0,1.2-0.1,1.7-0.1c0.9,0,1.7,0.2,2.6,0c0.8-0.2,1.7,0.2,2.5,0.2
		c0.8,0,1.6,0,2.4-0.1c0.7-0.1,1.2,0.4,1.9,0.3c0.7-0.1,1.6,0.1,2.3,0.2c0.6,0.1,1.3,0,1.8,0.5c1.7-0.4,3.3,0.3,4.9,0.3
		c0.3,0,0.5,0.1,0.5,0.5c0,0.4,0.3,0.3,0.6,0.2c1.1-0.3,2.3-0.2,3.3,0.3c0.6,0.3,1,0.4,1.6,0.4c0.7,0,1.5,0,2.2,0.6
		c0.6-0.5,1.1,0.3,1.7,0.2c0.5-0.1,1,0.4,1.5,0.4c0.5,0,0.6,0.8,1.1,0.4c0.5-0.4,0.8,0.3,1.3,0.3c0.9,0,1.9,0.2,2.6,0.7
		c1.5,0.9,3.3,1,4.9,1.8c1.4,0.7,2.9,1.1,4.4,1.7c0.6,0.3,1.2,0.7,1.8,0.9c0.6,0.3,1.2,0.6,1.8,0.8c2,0.7,3.7,1.8,5.6,2.7
		c2.2,1.1,4.3,2.4,6.5,3.7c1.9,1.1,3.7,2.4,5.4,3.7c0.4,0.3,0.8,0.4,1.2,0.7c1.2,1.1,2.6,2.2,4,3c0.1,0.1,0.1,0.2,0.2,0.3
		c0-0.1,0.1-0.2,0.1-0.2c-0.1-0.1-0.2-0.1-0.2-0.1c0,0,0,0.1,0,0.1c0-1.1-0.6-1.9-0.9-2.9c0-0.2-0.3-0.3-0.5-0.4
		c-0.2-0.9-0.2-1.9-1.1-2.5c0-0.3,0.2-0.6-0.3-0.7c0.1-0.5,0-0.9-0.6-1.1c0.1-0.5,0-0.9-0.6-1.1c0-0.3,0.2-0.6-0.3-0.7
		c0.1-0.5,0-0.9-0.6-1.1c0-0.3,0.2-0.6-0.3-0.7c0.1-0.8-0.5-1.3-0.6-2.1c0-0.2,0-0.4-0.1-0.6c0.2,0.1,0.3,0.2,0.5,0.3
		c0.2,0,0.4-0.1,0.5-0.2c0.5-0.4,1-0.8,1.4-1.2c0.4,0.4,0.8,0.8,1.1,1.1c0,0,0.1,0,0.2,0.1C156,41.3,156.1,41.7,156.3,42z
		 M153.7,43.6c0-0.1,0.1-0.2,0.1-0.2c-0.1-0.1-0.2-0.1-0.2-0.1c0,0,0,0.1,0,0.1c-0.2-0.4-0.3-0.4-0.3-0.4c0,0.1,0.1,0.1,0.1,0.2
		c0.1,0,0.1-0.1,0.2-0.1c-0.1-0.1-0.1-0.1-0.2-0.2C153.6,43.5,153.6,43.5,153.7,43.6z M158.8,55c0-0.1,0.1-0.2,0.1-0.2
		c-0.1-0.1-0.2-0.1-0.2-0.1c0,0,0,0.1,0,0.1c-0.2-0.7-0.3-0.5-0.3-0.4c0,0.1,0.2,0.2,0.3,0.3c0-0.1,0-0.2,0-0.3
		c0-0.1-0.1-0.2-0.1-0.5C158.7,54.9,158.8,54.9,158.8,55z M156.3,49.1c0,0.1,0.1,0.1,0.1,0.2c0.1,0,0.1-0.1,0.2-0.1
		c-0.1-0.1-0.1-0.1-0.2-0.2c0.2,0.8,0.2,0.9,0.3,1c0.1-0.1,0.2-0.3,0.2-0.4c0-0.1-0.1-0.2-0.1-0.2c-0.1,0.1-0.2,0.2-0.3,0.3
		C156.4,49.1,156.3,49.1,156.3,49.1z M157.1,50.9c0,0.1,0.1,0.1,0.1,0.2c0.1,0,0.1-0.1,0.2-0.1c-0.1-0.1-0.1-0.1-0.2-0.2
		c0.2,0.9,0.3,1.2,0.4,1.6c0,0.1,0.1,0.1,0.2,0.1c0,0,0.1-0.1,0.1-0.1c0.1-0.4-0.1-1-0.4-1.2c0,0-0.1,0.1-0.2,0.1
		C157.2,50.8,157.1,50.9,157.1,50.9z M115.3,34c-0.1,0-0.2-0.1-0.3-0.1c-0.1,0-0.2,0.1-0.3,0.2c0.1,0,0.2,0.1,0.4,0.2
		C115.1,34.2,115.2,34.1,115.3,34z M160.6,54.2c0.1-0.1,0.2-0.3,0.2-0.4c0-0.1-0.1-0.2-0.1-0.3c-0.1,0.1-0.2,0.2-0.2,0.4
		C160.5,54,160.5,54.1,160.6,54.2z M154.3,40.6c0,0-0.1,0.1-0.1,0.1c0,0.1,0.1,0.2,0.1,0.2c0,0,0.1-0.1,0.1-0.1
		C154.4,40.8,154.4,40.7,154.3,40.6z M153,42.3c0.1,0,0.1,0.1,0.2,0.1c0,0,0.1-0.1,0.1-0.1c-0.1,0-0.1-0.1-0.2-0.1
		C153,42.3,153,42.3,153,42.3z M155.7,43.8c0-0.1,0.1-0.1,0.1-0.2c0,0-0.1-0.1-0.1-0.1c0,0.1-0.1,0.1-0.1,0.2
		C155.6,43.8,155.6,43.8,155.7,43.8z M154.7,45.2c-0.1,0-0.1-0.1-0.2-0.1c0,0-0.1,0.1-0.1,0.1c0.1,0,0.1,0.1,0.2,0.1
		C154.6,45.3,154.6,45.3,154.7,45.2z M155.2,46.3c0,0-0.1-0.1-0.1-0.1c-0.1,0-0.2,0.1-0.2,0.1c0,0,0.1,0.1,0.1,0.1
		C155.1,46.4,155.1,46.4,155.2,46.3z M155.8,47.4c-0.1,0-0.1-0.1-0.2-0.1c0,0-0.1,0.1-0.1,0.1c0.1,0,0.1,0.1,0.2,0.1
		C155.7,47.5,155.7,47.4,155.8,47.4z M155.7,48.1c0.1,0,0.1,0.1,0.2,0.1c0,0,0.1-0.1,0.1-0.1c-0.1,0-0.1-0.1-0.2-0.1
		C155.8,48,155.7,48,155.7,48.1z M159.5,50.5c0,0-0.1-0.1-0.1-0.1c-0.1,0-0.2,0.1-0.2,0.1c0,0,0.1,0.1,0.1,0.1
		C159.3,50.6,159.4,50.6,159.5,50.5z M158.3,53.6c0,0,0.1-0.1,0.1-0.1c-0.1,0-0.1-0.1-0.2-0.1c0,0-0.1,0.1-0.1,0.1
		C158.2,53.5,158.3,53.5,158.3,53.6z M146.8,52.5c0,0,0.1,0.1,0.1,0.1c0-0.1,0.1-0.1,0.1-0.2c0,0-0.1-0.1-0.1-0.1
		C146.9,52.4,146.8,52.5,146.8,52.5z M159.1,55.4c0,0-0.1,0.1-0.1,0.1c0,0.1,0.1,0.2,0.1,0.2c0,0,0.1-0.1,0.1-0.1
		C159.2,55.6,159.1,55.5,159.1,55.4z M159.5,56.3c-0.1,0-0.1-0.1-0.2-0.1c0,0-0.1,0.1-0.1,0.1c0.1,0,0.1,0.1,0.2,0.1
		C159.4,56.4,159.5,56.3,159.5,56.3z M151.4,55.7c0,0-0.1-0.1-0.1-0.1c-0.1,0-0.2,0.1-0.2,0.1c0,0,0.1,0.1,0.1,0.1
		C151.3,55.8,151.4,55.7,151.4,55.7z M162.2,57.8c0-0.1,0.1-0.1,0.1-0.2c0,0-0.1-0.1-0.1-0.1c0,0.1-0.1,0.1-0.1,0.2
		C162.1,57.7,162.2,57.7,162.2,57.8z M152.8,57.1c0,0,0.1-0.1,0.1-0.1c0-0.1-0.1-0.2-0.1-0.2c0,0-0.1,0.1-0.1,0.1
		C152.7,56.9,152.8,57,152.8,57.1z M162.8,59.7c0,0,0.1,0.1,0.1,0.1c0.1,0,0.2-0.1,0.2-0.1c0,0-0.1-0.1-0.1-0.1
		C163,59.6,162.9,59.7,162.8,59.7z M164.3,64.3c0.1,0,0.1,0.1,0.2,0.1c0,0,0.1-0.1,0.1-0.1c-0.1,0-0.1-0.1-0.2-0.1
		C164.4,64.2,164.4,64.3,164.3,64.3z M16.9,57.1c0,0-0.1-0.1-0.1-0.1c-0.1,0-0.2,0.1-0.2,0.1c0,0,0.1,0.1,0.1,0.1
		C16.8,57.1,16.8,57.1,16.9,57.1z"/>
	<path id="XMLID_1922_" class="st0" d="M154.7,48.1c0,0.3-0.2,0.6,0.3,0.7c0-0.2,0.1-0.4,0.1-0.7C154.9,48.2,154.8,48.1,154.7,48.1z
		"/>
	<path id="XMLID_1921_" class="st0" d="M154.4,47.1c-0.1,0-0.2,0-0.3,0c0,0.3-0.2,0.6,0.3,0.7C154.4,47.5,154.4,47.3,154.4,47.1z"/>
	<path id="XMLID_1920_" class="st0" d="M152.1,42.4c0,0.1-0.1,0.1-0.1,0.2c0,0,0.1,0.1,0.1,0.1c0-0.1,0.1-0.1,0.1-0.2
		C152.2,42.5,152.1,42.5,152.1,42.4z"/>
	<path id="XMLID_1919_" class="st0" d="M152.3,43.2c0,0-0.1,0.1-0.1,0.1c0,0.1,0.1,0.1,0.1,0.2c0.1,0,0.1-0.1,0.2-0.1
		C152.4,43.3,152.4,43.2,152.3,43.2z"/>
	<path id="XMLID_1918_" class="st0" d="M152.5,43.5c0.1,0.1,0.1,0.2,0.2,0.3c0-0.1,0.1-0.2,0.1-0.3
		C152.7,43.5,152.6,43.5,152.5,43.5z"/>
	<path id="XMLID_1917_" class="st0" d="M152.7,44.4c0,0,0.1,0.1,0.1,0.1c0.1,0,0.1-0.1,0.2-0.1c0-0.1-0.1-0.1-0.1-0.2
		C152.9,44.3,152.8,44.3,152.7,44.4z"/>
	<path id="XMLID_1916_" class="st0" d="M153.3,45.5c0,0,0.1,0.1,0.1,0.1c0.1,0,0.1-0.1,0.2-0.1c0-0.1-0.1-0.1-0.1-0.2
		C153.4,45.3,153.4,45.4,153.3,45.5z"/>
	<path id="XMLID_1915_" class="st0" d="M153.6,46.2c0,0,0.1,0.1,0.1,0.1c0.1,0,0.1-0.1,0.2-0.1c0-0.1-0.1-0.1-0.1-0.2
		C153.7,46.1,153.6,46.1,153.6,46.2z"/>
	<path id="XMLID_1914_" class="st0" d="M154,46.7c0,0-0.1,0.1-0.1,0.1c0,0.1,0.1,0.1,0.1,0.2c0.1,0,0.1-0.1,0.2-0.1
		C154.1,46.8,154,46.8,154,46.7z"/>
	<path id="XMLID_1913_" class="st0" d="M154.4,47.8c0.1,0.1,0.2,0.2,0.3,0.4C154.6,48,154.5,47.9,154.4,47.8z"/>
	<path id="XMLID_1912_" class="st0" d="M154.9,48.8c0.1,0.1,0.1,0.2,0.2,0.3c0-0.1,0.1-0.2,0.1-0.3C155.1,48.9,155,48.8,154.9,48.8z
		"/>
	<path id="XMLID_1911_" class="st0" d="M137.2,47.4c0,0,0.1,0.1,0.1,0.1c0-0.1,0.1-0.1,0.1-0.2c0,0-0.1-0.1-0.1-0.1
		C137.3,47.2,137.2,47.3,137.2,47.4z"/>
	<path id="XMLID_1910_" class="st0" d="M155.3,49.6c0,0-0.1,0.1-0.1,0.1c0.1,0,0.1,0.1,0.2,0.1c0,0,0.1-0.1,0.1-0.1
		C155.4,49.7,155.4,49.6,155.3,49.6z"/>
	<path id="XMLID_1909_" class="st0" d="M155.5,50.5c0,0,0.1,0.1,0.1,0.1c0-0.1,0.1-0.1,0.1-0.2c0,0-0.1-0.1-0.1-0.1
		C155.6,50.3,155.5,50.4,155.5,50.5z"/>
	<path id="XMLID_1908_" class="st0" d="M156,51.5c0,0,0.1,0.1,0.1,0.1c0.1,0,0.1-0.1,0.2-0.1c0-0.1-0.1-0.1-0.1-0.2
		C156.1,51.4,156.1,51.5,156,51.5z"/>
	<path id="XMLID_1907_" class="st0" d="M156.2,52.2c0.1,0,0.1,0.1,0.2,0.1c0,0,0.1-0.1,0.1-0.1c-0.1,0-0.1-0.1-0.2-0.1
		C156.3,52.1,156.3,52.2,156.2,52.2z"/>
	<path id="XMLID_1906_" class="st0" d="M156.6,53c0.1,0,0.2-0.1,0.2-0.1c0,0-0.1-0.1-0.1-0.1c-0.1,0-0.2,0.1-0.2,0.1
		C156.5,52.9,156.6,53,156.6,53z"/>
	<path id="XMLID_1905_" class="st0" d="M166,64.5c0,0,0.1,0.1,0.1,0.1c0.1,0,0.1-0.1,0.2-0.1c0-0.1-0.1-0.1-0.1-0.2
		C166.2,64.4,166.1,64.4,166,64.5z"/>
</g>
</svg>
