<?xml version="1.0" encoding="utf-8"?>
<!-- Generator: Adobe Illustrator 27.3.1, SVG Export Plug-In . SVG Version: 6.00 Build 0)  -->
<svg version="1.1" id="uuid-dbad0ede-cc1f-4fbd-8956-be17c3255237"
	 xmlns="http://www.w3.org/2000/svg" xmlns:xlink="http://www.w3.org/1999/xlink" x="0px" y="0px" viewBox="0 0 200 200"
	 style="enable-background:new 0 0 200 200;" xml:space="preserve">
<style type="text/css">
	.st0{fill:#1A1A1A;}
</style>
<g>
	<path class="st0" d="M45.4,78h24.3v79.1H45.4C45.4,157.1,45.4,78,45.4,78z M57.4,38.9c7.8,0,14.2,6.4,14.2,14.2
		s-6.4,14.2-14.2,14.2S43.2,61,43.2,53.1S49.6,38.9,57.4,38.9"/>
	<path class="st0" d="M85.2,78h23.4v10.8h0.3c3.3-6.2,11.3-12.8,23.2-12.8c24.8,0,29.4,16.4,29.4,37.7v43.4h-24.3v-38.4
		c0-9.2-0.2-20.9-12.8-20.9s-14.8,10-14.8,20.3v39H85.2L85.2,78L85.2,78z"/>
</g>
</svg>
