<?xml version="1.0" encoding="utf-8"?>
<!-- Generator: Adobe Illustrator 28.3.0, SVG Export Plug-In . SVG Version: 6.00 Build 0)  -->
<svg version="1.1" id="Layer_1" xmlns="http://www.w3.org/2000/svg" xmlns:xlink="http://www.w3.org/1999/xlink" x="0px" y="0px"
	 viewBox="0 0 60 60" style="enable-background:new 0 0 60 60;" xml:space="preserve">
<style type="text/css">
	.st0{fill:#1D1D1B;}
</style>
<g>
	<g>
		<path class="st0" d="M44.7,31.5c-3.6,0-7-1.4-9.5-3.9s-3.9-5.9-3.9-9.5s1.4-7,3.9-9.5c3.2-3.2,7.7-4.6,12.2-3.7
			c0.5,0.1,1,0.5,1.1,1c0.2,0.5,0,1.1-0.4,1.5c-1.8,1.8-4.8,6.5-6.1,8.5l4.2,4.2c1.7-1.1,5.4-3.5,8.5-6.4c0.4-0.4,1-0.5,1.5-0.3
			s0.9,0.6,1,1.2c0.7,4,0.2,9.8-3,13C51.7,30.1,48.3,31.5,44.7,31.5z M44,7.6c-2.5,0.2-4.9,1.2-6.7,3c-2,2-3.1,4.6-3.1,7.4
			s1.1,5.4,3.1,7.4c4.1,4.1,10.7,4.1,14.8,0c1.7-1.7,2.4-4.7,2.4-7.6c-3.8,3.1-7.6,5.3-7.8,5.4c-0.6,0.3-1.3,0.2-1.8-0.2L39,17.1
			c-0.5-0.5-0.6-1.2-0.2-1.8C39,15.1,41.7,10.8,44,7.6z"/>
	</g>
	<g>
		<path class="st0" d="M10.2,57.9c-1.2,0-2.7-0.3-3.8-1.3C4.5,54.7,5,51.2,5,50.8c0-0.3,0.2-0.6,0.4-0.8l27.1-27.1
			c0.6-0.6,1.6-0.6,2.1,0l5.2,5.2c0.6,0.6,0.6,1.5,0,2.1l-27,27.1c-0.2,0.2-0.4,0.3-0.7,0.4C12,57.7,11.2,57.9,10.2,57.9z
			 M11.8,56.2L11.8,56.2L11.8,56.2z M8,51.7c-0.1,1,0.1,2.2,0.6,2.7s1.6,0.5,2.5,0.4l25.7-25.7L33.7,26L8,51.7z"/>
	</g>
	<g>
		<path class="st0" d="M45.7,56.4c-0.7,0-1.2-0.1-1.4-0.1c-0.3,0-0.6-0.2-0.8-0.4L30.9,43.3c-0.6-0.6-0.6-1.5,0-2.1s1.5-0.6,2.1,0
			l12.2,12.2c1,0.1,2.2-0.1,2.7-0.6s0.5-1.7,0.4-2.5L36.1,38c-0.6-0.6-0.6-1.5,0-2.1s1.5-0.6,2.1,0l12.6,12.6
			c0.2,0.2,0.3,0.4,0.4,0.7c0.1,0.4,0.8,3.7-1.1,5.7C48.9,56.1,47,56.4,45.7,56.4z"/>
	</g>
</g>
<g>
	<g>
		<path class="st0" d="M11.3,24.7c-0.5,0-0.9-0.2-1.2-0.6L1.3,11.4C0.9,10.8,0.9,10,1.5,9.5l4.7-4.6c0.5-0.5,1.3-0.6,1.9-0.1
			L21,14.1c0.4,0.3,0.7,0.9,0.6,1.4l-0.9,7c-0.1,0.7-0.6,1.2-1.3,1.3l-7.9,0.9C11.4,24.7,11.4,24.7,11.3,24.7z M19.2,22.3L19.2,22.3
			L19.2,22.3z M4.5,10.8l7.6,10.8l5.8-0.6l0.6-4.9L7.4,8L4.5,10.8z"/>
	</g>
	<g>
		<path class="st0" d="M23.8,28.8c-0.4,0-0.7-0.1-1-0.4l-4.9-4.7c-0.6-0.6-0.6-1.5,0-2.1s1.5-0.6,2.1,0l4.9,4.7
			c0.6,0.6,0.6,1.5,0,2.1C24.6,28.6,24.2,28.8,23.8,28.8z"/>
	</g>
</g>
</svg>
