<?xml version="1.0" encoding="utf-8"?>
<!-- Generator: Adobe Illustrator 27.3.1, SVG Export Plug-In . SVG Version: 6.00 Build 0)  -->
<svg version="1.1" id="Layer_1" xmlns="http://www.w3.org/2000/svg" xmlns:xlink="http://www.w3.org/1999/xlink" x="0px" y="0px"
	 viewBox="0 0 60 60" style="enable-background:new 0 0 60 60;" xml:space="preserve">
<style type="text/css">
	.st0{fill:#FFFFFF;}
	.st1{fill-rule:evenodd;clip-rule:evenodd;fill:none;stroke:#000000;stroke-width:3;stroke-miterlimit:10;}
	
		.st2{fill-rule:evenodd;clip-rule:evenodd;fill:none;stroke:#000000;stroke-width:3;stroke-linecap:round;stroke-linejoin:round;stroke-miterlimit:10;}
	.st3{fill-rule:evenodd;clip-rule:evenodd;fill:#FFFFFF;}
	.st4{fill-rule:evenodd;clip-rule:evenodd;}
</style>
<g>
	<g>
		<path class="st0" d="M41,59c-0.3,0-0.5-0.1-0.8-0.2l-15.7-9.4C13.5,46.9,5.5,36.9,5.5,25.5C5.5,12,16.5,1,30,1s24.5,11,24.5,24.5
			c0,9.7-5.6,18.3-14.4,22.3l2.3,9.3c0.1,0.6-0.1,1.2-0.6,1.6C41.6,58.9,41.3,59,41,59z M30,4C18.1,4,8.5,13.6,8.5,25.5
			c0,10.1,7.1,18.9,16.9,21c0.2,0,0.3,0.1,0.5,0.2l12.8,7.7l-1.8-7.1c-0.2-0.7,0.2-1.5,0.9-1.8c8.3-3.2,13.7-11.1,13.7-20
			C51.5,13.6,41.9,4,30,4z"/>
	</g>
	<g>
		<g>
			<circle class="st3" cx="19" cy="26" r="4"/>
		</g>
		<g>
			<circle class="st3" cx="30" cy="26" r="4"/>
		</g>
		<g>
			<circle class="st3" cx="41" cy="26" r="4"/>
		</g>
	</g>
</g>
</svg>
