<?xml version="1.0" encoding="utf-8"?>
<!-- Generator: Adobe Illustrator 28.2.0, SVG Export Plug-In . SVG Version: 6.00 Build 0)  -->
<svg version="1.1" id="Layer_1" xmlns="http://www.w3.org/2000/svg" xmlns:xlink="http://www.w3.org/1999/xlink" x="0px" y="0px"
	 viewBox="0 0 60 60" style="enable-background:new 0 0 60 60;" xml:space="preserve">
<g>
	<path d="M18.4,57.5c-0.1,0-0.1,0-0.2,0c-0.6-0.1-1.2-0.6-1.3-1.2L6,4.3C5.9,3.7,6.1,3.1,6.6,2.8s1.1-0.4,1.6-0.1l48.5,28.4
		c0.6,0.3,0.9,1,0.7,1.7s-0.8,1.1-1.4,1.1L30.5,34L19.8,56.6C19.5,57.2,19,57.5,18.4,57.5z M9.7,7L19,51.3l9.2-19.5
		c0.2-0.5,0.8-0.9,1.3-0.9l21-0.1L9.7,7z"/>
</g>
</svg>
