<?xml version="1.0" encoding="utf-8"?>
<!-- Generator: Adobe Illustrator 27.3.1, SVG Export Plug-In . SVG Version: 6.00 Build 0)  -->
<svg version="1.1" id="uuid-52254bfb-9eea-4338-af04-a6992cfa566f"
	 xmlns="http://www.w3.org/2000/svg" xmlns:xlink="http://www.w3.org/1999/xlink" x="0px" y="0px" viewBox="0 0 200 200"
	 style="enable-background:new 0 0 200 200;" xml:space="preserve">
<style type="text/css">
	.st0{fill:#1A1A1A;}
</style>
<g>
	<path class="st0" d="M36.3,97.3c0,12,3.1,23.7,9.1,34l-9.7,35.3l36.1-9.5c9.9,5.4,21.1,8.3,32.5,8.3h0c37.5,0,68.1-30.5,68.1-68.1
		c0-18.2-7.1-35.3-19.9-48.2s-29.9-20-48.2-20C66.9,29.2,36.3,59.7,36.3,97.3 M57.8,129.6l-1.3-2.1c-5.7-9-8.7-19.4-8.7-30.1
		c0-31.2,25.4-56.6,56.6-56.6c15.1,0,29.3,5.9,40,16.6s16.6,24.9,16.6,40c0,31.2-25.4,56.6-56.6,56.6h0c-10.2,0-20.1-2.7-28.8-7.9
		l-2.1-1.2l-21.4,5.6L57.8,129.6L57.8,129.6z M104.4,165.4L104.4,165.4h0.2"/>
	<path class="st0" d="M87.4,68.7c-1.3-2.8-2.6-2.9-3.8-2.9c-1,0-2.1,0-3.3,0s-3,0.4-4.5,2.1s-6,5.8-6,14.2s6.1,16.5,6.9,17.6
		c0.8,1.1,11.8,18.9,29.1,25.7c14.4,5.7,17.3,4.5,20.4,4.3s10.1-4.1,11.5-8.1s1.4-7.4,1-8.1s-1.6-1.1-3.3-2s-10.1-5-11.6-5.5
		c-1.6-0.6-2.7-0.8-3.8,0.8c-1.1,1.7-4.4,5.5-5.4,6.7s-2,1.3-3.7,0.4c-1.7-0.8-7.2-2.7-13.7-8.4c-5.1-4.5-8.5-10.1-9.5-11.8
		s-0.1-2.6,0.8-3.5c0.8-0.8,1.7-2,2.6-3c0.8-1,1.1-1.7,1.7-2.8s0.3-2.1-0.1-3C92.2,80.5,88.9,72.1,87.4,68.7"/>
</g>
</svg>
