<?xml version="1.0" encoding="utf-8"?>
<!-- Generator: Adobe Illustrator 27.3.1, SVG Export Plug-In . SVG Version: 6.00 Build 0)  -->
<svg version="1.1" id="uuid-da4636f2-a380-4ea8-b27e-538dc2e1f3a5"
	 xmlns="http://www.w3.org/2000/svg" xmlns:xlink="http://www.w3.org/1999/xlink" x="0px" y="0px" viewBox="0 0 200 200"
	 style="enable-background:new 0 0 200 200;" xml:space="preserve">
<style type="text/css">
	.st0{fill:#1A1A1A;}
</style>
<g>
	<path class="st0" d="M137.3,38.5H67.1c-13.8,0-25,11.2-25,25v70.1c0,13.8,11.2,25.1,25,25.1h70.1c13.8,0,25.1-11.2,25.1-25.1V63.5
		C162.3,49.7,151.1,38.5,137.3,38.5z M137.3,148.7H67.1c-8.3,0-15-6.8-15-15V63.5c0-8.3,6.8-15,15-15h70.1c8.3,0,15,6.8,15,15v70.1
		C152.3,142,145.5,148.7,137.3,148.7L137.3,148.7z"/>
	<path class="st0" d="M101.9,61.8c-19.3,0-35.1,15.7-35.1,35.1s15.7,35.1,35.1,35.1S137,116.2,137,96.9S121.3,61.8,101.9,61.8z
		 M101.9,121.9c-13.8,0-25.1-11.2-25.1-25.1s11.2-25.1,25.1-25.1S127,83,127,96.9S115.8,121.9,101.9,121.9z"/>
	<circle class="st0" cx="137" cy="61.8" r="5"/>
</g>
</svg>
