<?xml version="1.0" encoding="utf-8"?>
<!-- Generator: Adobe Illustrator 28.2.0, SVG Export Plug-In . SVG Version: 6.00 Build 0)  -->
<svg version="1.1" id="Layer_1" xmlns="http://www.w3.org/2000/svg" xmlns:xlink="http://www.w3.org/1999/xlink" x="0px" y="0px"
	 viewBox="0 0 60 60" style="enable-background:new 0 0 60 60;" xml:space="preserve">
<g>
	<g>
		<path d="M30,46.5c-0.8,0-1.5-0.7-1.5-1.5V13c0-0.8,0.7-1.5,1.5-1.5s1.5,0.7,1.5,1.5v32C31.5,45.8,30.8,46.5,30,46.5z"/>
	</g>
	<g>
		<path d="M46,30.5H14c-0.8,0-1.5-0.7-1.5-1.5s0.7-1.5,1.5-1.5h32c0.8,0,1.5,0.7,1.5,1.5S46.8,30.5,46,30.5z"/>
	</g>
</g>
<g>
	<path d="M30,55C15.9,55,4.5,43.6,4.5,29.5S15.9,4,30,4s25.5,11.4,25.5,25.5S44.1,55,30,55z M30,7C17.6,7,7.5,17.1,7.5,29.5
		S17.6,52,30,52s22.5-10.1,22.5-22.5S42.4,7,30,7z"/>
</g>
</svg>
