<?xml version="1.0" encoding="utf-8"?>
<!-- Generator: Adobe Illustrator 28.2.0, SVG Export Plug-In . SVG Version: 6.00 Build 0)  -->
<svg version="1.1" id="Layer_1" xmlns="http://www.w3.org/2000/svg" xmlns:xlink="http://www.w3.org/1999/xlink" x="0px" y="0px"
	 viewBox="0 0 400 206" style="enable-background:new 0 0 400 206;" xml:space="preserve">
<g>
	<polygon points="148.3,8.3 116.9,88.9 116.9,8.3 75.2,8.3 75.2,196.4 116.9,196.4 190.1,8.3 	"/>
	<rect x="12.5" y="8.3" width="41.8" height="188"/>
	<polygon points="138.6,196.4 180.4,196.4 211.7,115.8 211.7,196.4 253.5,196.4 253.5,8.3 211.7,8.3 	"/>
	<polygon points="385.1,194.3 385.1,8.3 343.3,8.3 343.3,86.9 312.8,8.3 271,8.3 271,196.4 312.8,196.4 312.8,115.8 343.3,194.3 
		343.3,196.4 344.1,196.4 385.1,196.4 385.9,196.4 	"/>
</g>
</svg>
