<?xml version="1.0" encoding="utf-8"?>
<!-- Generator: Adobe Illustrator 27.3.1, SVG Export Plug-In . SVG Version: 6.00 Build 0)  -->
<svg version="1.1" id="Layer_1" xmlns="http://www.w3.org/2000/svg" xmlns:xlink="http://www.w3.org/1999/xlink" x="0px" y="0px"
	 viewBox="0 0 350 260" style="enable-background:new 0 0 350 260;" xml:space="preserve">
<style type="text/css">
	.st0{fill:#E75653;stroke:#1A1A1A;stroke-width:0.5;stroke-linecap:round;stroke-linejoin:round;}
	.st1{fill:#FFFFFF;stroke:#000000;stroke-width:0.5;stroke-linecap:round;stroke-linejoin:round;stroke-miterlimit:10;}
	.st2{fill:#FFFFFF;stroke:#000000;stroke-width:0.5;stroke-miterlimit:10;}
	.st3{fill:none;stroke:#000000;stroke-width:0.5;stroke-miterlimit:10;}
	.st4{fill:#F9F7F7;stroke:#000000;stroke-width:0.5;stroke-miterlimit:10;}
	.st5{opacity:0.3;}
	
		.st6{clip-path:url(#XMLID_00000080893899783540125300000017731196351538870684_);fill:#FFFFFF;stroke:#000000;stroke-width:0.5;stroke-linecap:round;stroke-linejoin:round;stroke-miterlimit:10;}
	
		.st7{clip-path:url(#XMLID_00000072981319543276516710000005506054638076356773_);fill:#FFFFFF;stroke:#000000;stroke-width:0.5;stroke-linecap:round;stroke-linejoin:round;stroke-miterlimit:10;}
	
		.st8{clip-path:url(#XMLID_00000036210139416695749370000011140067294995527087_);fill:#FFFFFF;stroke:#000000;stroke-width:0.5;stroke-linecap:round;stroke-linejoin:round;stroke-miterlimit:10;}
	
		.st9{clip-path:url(#XMLID_00000159454639227397189910000018399710769697456260_);fill:#FFFFFF;stroke:#000000;stroke-width:0.5;stroke-linecap:round;stroke-linejoin:round;stroke-miterlimit:10;}
	
		.st10{clip-path:url(#XMLID_00000144303798653435648930000005768325336505323418_);fill:#FFFFFF;stroke:#000000;stroke-width:0.5;stroke-linecap:round;stroke-linejoin:round;stroke-miterlimit:10;}
	
		.st11{opacity:0.48;fill:#FFFFFF;stroke:#000000;stroke-width:0.5;stroke-linecap:round;stroke-linejoin:round;stroke-miterlimit:10;}
</style>
<path class="st1" d="M54.8,90.7v112.5c0,9.3,7.1,16.8,16,17.1c39.6,1.1,178.1,3.6,215.8,3.1c6.5-0.1,11.7-5.5,11.9-12.2
	c0.7-26.1,1.9-89-2.5-118.2c-0.9-6.1-5.9-10.7-11.9-10.9c-33.2-1.1-180-4.6-217.7-3.7C60,78.5,54.8,84,54.8,90.7z"/>
<path class="st1" d="M61.6,90.2v106.9c0,5.4,4.2,9.8,9.4,9.9l210.3,2.7c5.2,0.1,9.4-4.2,9.4-9.6L291,94.1c0-3.8-2.9-7-6.6-7.1
	L69.1,82.6C65,82.5,61.6,85.9,61.6,90.2z"/>
<path class="st1" d="M292.2,214.1C292.2,214.1,292.2,214.1,292.2,214.1L61.6,210c-0.2,0-0.3-0.2-0.3-0.3c0-0.2,0.1-0.3,0.3-0.3
	l230.6,4.1c0.2,0,0.3,0.2,0.3,0.3C292.6,213.9,292.4,214.1,292.2,214.1z"/>
<path class="st1" d="M308,220.9c0,3.2-2.6,5.8-5.8,5.8H52.5c-3.2,0-5.8-2.6-5.8-5.8l0,0c0-3.2,2.6-5.8,5.8-5.8h249.7
	C305.4,215.2,308,217.8,308,220.9L308,220.9z"/>
<path class="st1" d="M141.8,98.2c-0.9-0.9-2.1-1.4-3.4-1.4H77.7c-2.6,0-4.6,2.2-4.6,4.8v8.3c0,1.3,0.4,2.5,1.3,3.4
	c0.9,0.9,2.1,1.4,3.3,1.4l60.7-0.9c2.6,0,4.6-2.1,4.6-4.7l0-7.4C143.2,100.3,142.7,99.1,141.8,98.2z"/>
<path class="st1" d="M142,122.5c-0.8-0.8-1.9-1.2-3.1-1.2l-59.7,1.4c-1.2,0-2.2,0.5-3,1.4c-0.8,0.8-1.2,2-1.1,3.1l3.8,64
	c0.1,2.3,2,4,4.3,4l55.9-0.8c2.3,0,4.2-1.9,4.2-4.2v-64.6C143.3,124.4,142.8,123.3,142,122.5z"/>
<path class="st1" d="M279.5,101.3c-1.6-2.7-17-1.7-21.2-2.1c-5.9-0.5-7.9,1.1-7.8,6.4c0,0,2.1,77.1,2.1,77.1c0.2,6,7.4,4.7,11.9,4.2
	c4.9-0.5,13.2,1.2,13.4-5.3c0,0,2.4-76,2.5-76.4C280.3,103.8,280.1,102.4,279.5,101.3z"/>
<path class="st1" d="M168.2,186.3c-0.6,0-1.2-0.5-1.2-1.1c0-0.7-0.4-18.3,11.7-20.2c2.6-0.4,4.9,0.2,6.8,1.8
	c6,4.9,6.5,17.7,6.6,18.3c0,0.6-0.5,1.2-1.1,1.2c-0.7,0-1.2-0.5-1.2-1.1c0-0.1-0.5-12.3-5.7-16.6c-1.4-1.2-3.1-1.6-5-1.3
	c-10.1,1.6-9.7,17.6-9.7,17.8C169.4,185.7,168.9,186.3,168.2,186.3C168.2,186.3,168.2,186.3,168.2,186.3z"/>
<path class="st1" d="M161.2,186.2c-0.6,0-1.2-0.5-1.2-1.1c0-0.7-0.4-18.3,11.7-20.2c2.6-0.4,4.9,0.2,6.8,1.8
	c6,4.9,6.5,17.7,6.6,18.3c0,0.6-0.5,1.2-1.1,1.2c-0.6,0-1.2-0.5-1.2-1.1c0-0.1-0.5-12.3-5.7-16.6c-1.4-1.2-3.1-1.6-5-1.3
	c-10.1,1.6-9.7,17.6-9.7,17.8C162.4,185.6,161.9,186.1,161.2,186.2C161.2,186.2,161.2,186.2,161.2,186.2z"/>
<path class="st1" d="M245.9,71.6v23.3c0,1.9-1.2,3.4-2.6,3.4h-84.9c-1.2,0-2.2,1.1-2.5,2.6l-1.5,8.1c-0.2,1.1-1.3,1.2-1.6,0.1
	l-2-6.9c-0.4-1.3-1.3-2.2-2.4-2.2h-3.6c-1.4,0-2.6-1.5-2.6-3.4v-24c0-1.9,1.1-3.4,2.6-3.4l98.6-1.1
	C244.7,68.1,245.9,69.7,245.9,71.6z"/>
<ellipse class="st1" cx="155.3" cy="83.4" rx="10.4" ry="10.7"/>
<path class="st1" d="M159,79c0,1.9-1.6,4-3.5,4c-1.9,0-3.5-2.1-3.5-4c0-1.9,1.6-3.3,3.5-3.3C157.5,75.8,159,77.1,159,79z"/>
<path class="st1" d="M151.2,90.4h8.5c0.9,0,1.7-0.6,2-1.4l0.5-1.4c0.3-1-0.2-2.2-1.2-2.6c-3.5-1.3-7-1.1-10.7,0.1
	c-1,0.3-1.6,1.4-1.3,2.5l0.4,1.3C149.5,89.8,150.3,90.4,151.2,90.4z"/>
<path class="st1" d="M235.1,86.2c0,1.1-0.9,2-2,2h-59.4c-1.1,0-2-0.9-2-2l0,0c0-1.1,0.9-2,2-2H233C234.2,84.1,235.1,85,235.1,86.2
	L235.1,86.2z"/>
<path class="st1" d="M207.4,92.8c0,1.1-0.9,2-2,2h-31.8c-1.1,0-2-0.9-2-2v-0.1c0-1.1,0.9-2,2-2h31.8
	C206.6,90.8,207.4,91.7,207.4,92.8L207.4,92.8z"/>
<path class="st1" d="M235.6,92.8c0,1.1-0.9,1.9-1.9,1.9h-23.2c-1.1,0-1.9-0.9-1.9-1.9v-0.1c0-1.1,0.9-1.9,1.9-1.9h23.2
	C234.7,90.8,235.6,91.7,235.6,92.8L235.6,92.8z"/>
<path class="st0" d="M180,76c0.1-0.1,0.1-0.3,0.1-0.4c0-0.1-0.2-0.2-0.3-0.3l-3.1-0.5l-1.4-2.8c-0.1-0.1-0.2-0.2-0.4-0.2
	c-0.1,0-0.3,0.1-0.4,0.2l-1.3,2.6c-0.1,0.1-0.2,0.2-0.3,0.2l-2.9,0.4c-0.1,0-0.3,0.1-0.3,0.3c0,0.1,0,0.3,0.1,0.4l2.1,2
	c0.1,0.1,0.1,0.2,0.1,0.3l-0.5,2.9c0,0.1,0,0.3,0.2,0.4c0.1,0.1,0.3,0.1,0.4,0l2.6-1.4c0.1-0.1,0.3-0.1,0.4,0l2.6,1.4
	c0.1,0.1,0.3,0.1,0.4,0c0.1-0.1,0.2-0.2,0.2-0.4l-0.5-2.9c0-0.1,0-0.3,0.1-0.3L180,76z"/>
<path class="st0" d="M193.9,76c0.1-0.1,0.1-0.3,0.1-0.4c0-0.1-0.2-0.2-0.3-0.3l-3.1-0.5l-1.4-2.8c-0.1-0.1-0.2-0.2-0.4-0.2
	c-0.1,0-0.3,0.1-0.4,0.2l-1.3,2.6c-0.1,0.1-0.2,0.2-0.3,0.2l-2.9,0.4c-0.1,0-0.3,0.1-0.3,0.3c0,0.1,0,0.3,0.1,0.4l2.1,2
	c0.1,0.1,0.1,0.2,0.1,0.3l-0.5,2.9c0,0.1,0,0.3,0.2,0.4c0.1,0.1,0.3,0.1,0.4,0l2.6-1.4c0.1-0.1,0.3-0.1,0.4,0l2.6,1.4
	c0.1,0.1,0.3,0.1,0.4,0c0.1-0.1,0.2-0.2,0.2-0.4l-0.5-2.9c0-0.1,0-0.3,0.1-0.3L193.9,76z"/>
<path class="st0" d="M207.8,76c0.1-0.1,0.1-0.3,0.1-0.4c0-0.1-0.2-0.2-0.3-0.3l-3.1-0.5L203,72c-0.1-0.1-0.2-0.2-0.4-0.2
	s-0.3,0.1-0.4,0.2l-1.3,2.6c-0.1,0.1-0.2,0.2-0.3,0.2l-2.9,0.4c-0.1,0-0.3,0.1-0.3,0.3c0,0.1,0,0.3,0.1,0.4l2.1,2
	c0.1,0.1,0.1,0.2,0.1,0.3l-0.5,2.9c0,0.1,0,0.3,0.2,0.4c0.1,0.1,0.3,0.1,0.4,0l2.6-1.4c0.1-0.1,0.3-0.1,0.4,0l2.6,1.4
	c0.1,0.1,0.3,0.1,0.4,0c0.1-0.1,0.2-0.2,0.2-0.4l-0.5-2.9c0-0.1,0-0.3,0.1-0.3L207.8,76z"/>
<path class="st0" d="M221.6,76c0.1-0.1,0.1-0.3,0.1-0.4c0-0.1-0.2-0.2-0.3-0.3l-3.1-0.5l-1.4-2.8c-0.1-0.1-0.2-0.2-0.4-0.2
	c-0.1,0-0.3,0.1-0.4,0.2l-1.3,2.6c-0.1,0.1-0.2,0.2-0.3,0.2l-2.9,0.4c-0.1,0-0.3,0.1-0.3,0.3c0,0.1,0,0.3,0.1,0.4l2.1,2
	c0.1,0.1,0.1,0.2,0.1,0.3l-0.5,2.9c0,0.1,0,0.3,0.2,0.4c0.1,0.1,0.3,0.1,0.4,0l2.6-1.4c0.1-0.1,0.3-0.1,0.4,0l2.6,1.4
	c0.1,0.1,0.3,0.1,0.4,0c0.1-0.1,0.2-0.2,0.2-0.4l-0.5-2.9c0-0.1,0-0.3,0.1-0.3L221.6,76z"/>
<path class="st0" d="M235.5,76c0.1-0.1,0.1-0.3,0.1-0.4c0-0.1-0.2-0.2-0.3-0.3l-3.1-0.5l-1.4-2.8c-0.1-0.1-0.2-0.2-0.4-0.2
	c-0.1,0-0.3,0.1-0.4,0.2l-1.3,2.6c-0.1,0.1-0.2,0.2-0.3,0.2l-2.9,0.4c-0.1,0-0.3,0.1-0.3,0.3c0,0.1,0,0.3,0.1,0.4l2.1,2
	c0.1,0.1,0.1,0.2,0.1,0.3l-0.5,2.9c0,0.1,0,0.3,0.2,0.4c0.1,0.1,0.3,0.1,0.4,0l2.6-1.4c0.1-0.1,0.3-0.1,0.4,0l2.6,1.4
	c0.1,0.1,0.3,0.1,0.4,0c0.1-0.1,0.2-0.2,0.2-0.4l-0.5-2.9c0-0.1,0-0.3,0.1-0.3L235.5,76z"/>
<path class="st1" d="M245.9,117.6v23.3c0,1.9-1.2,3.4-2.6,3.4h-84.9c-1.2,0-2.2,1.1-2.5,2.6l-1.5,8.1c-0.2,1.1-1.3,1.2-1.6,0.1
	l-2-6.9c-0.4-1.3-1.3-2.2-2.4-2.2h-3.6c-1.4,0-2.6-1.5-2.6-3.4v-24c0-1.9,1.1-3.4,2.6-3.4l98.6-1.1
	C244.7,114.1,245.9,115.7,245.9,117.6z"/>
<path class="st1" d="M144.8,129.4c0,5.9,4.7,10.7,10.4,10.7c5.7,0,10.4-4.8,10.4-10.7c0-5.9-4.7-10.7-10.4-10.7
	C149.5,118.7,144.8,123.5,144.8,129.4z"/>
<path class="st1" d="M159,125c0,1.9-1.6,4-3.5,4c-1.9,0-3.5-2.1-3.5-4c0-1.9,1.6-3.3,3.5-3.3C157.5,121.7,159,123.1,159,125z"/>
<path class="st1" d="M151.2,136.4h8.5c0.9,0,1.7-0.6,2-1.4l0.5-1.4c0.3-1-0.2-2.2-1.2-2.6c-3.5-1.3-7-1.1-10.7,0.1
	c-1,0.3-1.6,1.4-1.3,2.5l0.4,1.3C149.5,135.8,150.3,136.4,151.2,136.4z"/>
<path class="st1" d="M171.7,132.1c0,1.1,0.9,2,2,2h59.4c1.1,0,2-0.9,2-2l0,0c0-1.1-0.9-2-2-2h-59.4
	C172.6,130.1,171.7,131,171.7,132.1L171.7,132.1z"/>
<path class="st1" d="M235.6,139.1c0-1.1-0.9-2-2-2h-31.8c-1.1,0-2,0.9-2,2v0.1c0,1.1,0.9,2,2,2h31.8
	C234.7,141.1,235.6,140.2,235.6,139.1L235.6,139.1z"/>
<path class="st1" d="M198.8,139.1c0-1.1-0.9-1.9-1.9-1.9h-23.2c-1.1,0-1.9,0.9-1.9,1.9v0.1c0,1.1,0.9,1.9,1.9,1.9h23.2
	C198,141.1,198.8,140.2,198.8,139.1L198.8,139.1z"/>
<path class="st0" d="M180,122c0.1-0.1,0.1-0.3,0.1-0.4c0-0.1-0.2-0.2-0.3-0.3l-3.1-0.5l-1.4-2.8c-0.1-0.1-0.2-0.2-0.4-0.2
	c-0.1,0-0.3,0.1-0.4,0.2l-1.3,2.6c-0.1,0.1-0.2,0.2-0.3,0.2l-2.9,0.4c-0.1,0-0.3,0.1-0.3,0.3c0,0.1,0,0.3,0.1,0.4l2.1,2
	c0.1,0.1,0.1,0.2,0.1,0.3l-0.5,2.9c0,0.1,0,0.3,0.2,0.4c0.1,0.1,0.3,0.1,0.4,0l2.6-1.4c0.1-0.1,0.3-0.1,0.4,0l2.6,1.4
	c0.1,0.1,0.3,0.1,0.4,0c0.1-0.1,0.2-0.2,0.2-0.4l-0.5-2.9c0-0.1,0-0.3,0.1-0.3L180,122z"/>
<path class="st0" d="M193.9,122c0.1-0.1,0.1-0.3,0.1-0.4c0-0.1-0.2-0.2-0.3-0.3l-3.1-0.5l-1.4-2.8c-0.1-0.1-0.2-0.2-0.4-0.2
	c-0.1,0-0.3,0.1-0.4,0.2l-1.3,2.6c-0.1,0.1-0.2,0.2-0.3,0.2l-2.9,0.4c-0.1,0-0.3,0.1-0.3,0.3c0,0.1,0,0.3,0.1,0.4l2.1,2
	c0.1,0.1,0.1,0.2,0.1,0.3l-0.5,2.9c0,0.1,0,0.3,0.2,0.4c0.1,0.1,0.3,0.1,0.4,0l2.6-1.4c0.1-0.1,0.3-0.1,0.4,0l2.6,1.4
	c0.1,0.1,0.3,0.1,0.4,0c0.1-0.1,0.2-0.2,0.2-0.4l-0.5-2.9c0-0.1,0-0.3,0.1-0.3L193.9,122z"/>
<path class="st0" d="M207.8,122c0.1-0.1,0.1-0.3,0.1-0.4c0-0.1-0.2-0.2-0.3-0.3l-3.1-0.5L203,118c-0.1-0.1-0.2-0.2-0.4-0.2
	s-0.3,0.1-0.4,0.2l-1.3,2.6c-0.1,0.1-0.2,0.2-0.3,0.2l-2.9,0.4c-0.1,0-0.3,0.1-0.3,0.3c0,0.1,0,0.3,0.1,0.4l2.1,2
	c0.1,0.1,0.1,0.2,0.1,0.3l-0.5,2.9c0,0.1,0,0.3,0.2,0.4c0.1,0.1,0.3,0.1,0.4,0l2.6-1.4c0.1-0.1,0.3-0.1,0.4,0l2.6,1.4
	c0.1,0.1,0.3,0.1,0.4,0c0.1-0.1,0.2-0.2,0.2-0.4l-0.5-2.9c0-0.1,0-0.3,0.1-0.3L207.8,122z"/>
<path class="st0" d="M221.6,122c0.1-0.1,0.1-0.3,0.1-0.4c0-0.1-0.2-0.2-0.3-0.3l-3.1-0.5l-1.4-2.8c-0.1-0.1-0.2-0.2-0.4-0.2
	c-0.1,0-0.3,0.1-0.4,0.2l-1.3,2.6c-0.1,0.1-0.2,0.2-0.3,0.2l-2.9,0.4c-0.1,0-0.3,0.1-0.3,0.3c0,0.1,0,0.3,0.1,0.4l2.1,2
	c0.1,0.1,0.1,0.2,0.1,0.3l-0.5,2.9c0,0.1,0,0.3,0.2,0.4c0.1,0.1,0.3,0.1,0.4,0l2.6-1.4c0.1-0.1,0.3-0.1,0.4,0l2.6,1.4
	c0.1,0.1,0.3,0.1,0.4,0c0.1-0.1,0.2-0.2,0.2-0.4l-0.5-2.9c0-0.1,0-0.3,0.1-0.3L221.6,122z"/>
<path class="st0" d="M235.5,122c0.1-0.1,0.1-0.3,0.1-0.4c0-0.1-0.2-0.2-0.3-0.3l-3.1-0.5l-1.4-2.8c-0.1-0.1-0.2-0.2-0.4-0.2
	c-0.1,0-0.3,0.1-0.4,0.2l-1.3,2.6c-0.1,0.1-0.2,0.2-0.3,0.2l-2.9,0.4c-0.1,0-0.3,0.1-0.3,0.3c0,0.1,0,0.3,0.1,0.4l2.1,2
	c0.1,0.1,0.1,0.2,0.1,0.3l-0.5,2.9c0,0.1,0,0.3,0.2,0.4c0.1,0.1,0.3,0.1,0.4,0l2.6-1.4c0.1-0.1,0.3-0.1,0.4,0l2.6,1.4
	c0.1,0.1,0.3,0.1,0.4,0c0.1-0.1,0.2-0.2,0.2-0.4l-0.5-2.9c0-0.1,0-0.3,0.1-0.3L235.5,122z"/>
<path class="st1" d="M245.9,163.4v23.3c0,1.9-1.2,3.4-2.6,3.4h-84.9c-1.2,0-2.2,1.1-2.5,2.6l-1.5,8.1c-0.2,1.1-1.3,1.2-1.6,0.1
	l-2-6.9c-0.4-1.3-1.3-2.2-2.4-2.2h-3.6c-1.4,0-2.6-1.5-2.6-3.4v-24c0-1.9,1.1-3.4,2.6-3.4l98.6-1.1
	C244.7,160,245.9,161.5,245.9,163.4z"/>
<ellipse class="st1" cx="155.3" cy="175.2" rx="10.4" ry="10.7"/>
<path class="st1" d="M159,170.9c0,1.9-1.6,4-3.5,4c-1.9,0-3.5-2.1-3.5-4c0-1.9,1.6-3.3,3.5-3.3C157.5,167.6,159,169,159,170.9z"/>
<path class="st1" d="M151.2,182.3h8.5c0.9,0,1.7-0.6,2-1.4l0.5-1.4c0.3-1-0.2-2.2-1.2-2.6c-3.5-1.3-7-1.1-10.7,0.1
	c-1,0.3-1.6,1.4-1.3,2.5l0.4,1.3C149.5,181.7,150.3,182.3,151.2,182.3z"/>
<path class="st1" d="M235.1,178c0,1.1-0.9,2-2,2h-59.4c-1.1,0-2-0.9-2-2l0,0c0-1.1,0.9-2,2-2H233C234.2,176,235.1,176.9,235.1,178
	L235.1,178z"/>
<path class="st1" d="M207.4,184.8c0,1.1-0.9,2-2,2h-31.8c-1.1,0-2-0.9-2-2v-0.1c0-1.1,0.9-2,2-2h31.8
	C206.6,182.7,207.4,183.6,207.4,184.8L207.4,184.8z"/>
<path class="st1" d="M235.6,184.8c0,1.1-0.9,1.9-1.9,1.9h-23.2c-1.1,0-1.9-0.9-1.9-1.9v-0.1c0-1.1,0.9-1.9,1.9-1.9h23.2
	C234.7,182.7,235.6,183.6,235.6,184.8L235.6,184.8z"/>
<path class="st0" d="M180,167.8c0.1-0.1,0.1-0.3,0.1-0.4c0-0.1-0.2-0.2-0.3-0.3l-3.1-0.5l-1.4-2.8c-0.1-0.1-0.2-0.2-0.4-0.2
	c-0.1,0-0.3,0.1-0.4,0.2l-1.3,2.6c-0.1,0.1-0.2,0.2-0.3,0.2l-2.9,0.4c-0.1,0-0.3,0.1-0.3,0.3c0,0.1,0,0.3,0.1,0.4l2.1,2
	c0.1,0.1,0.1,0.2,0.1,0.3l-0.5,2.9c0,0.1,0,0.3,0.2,0.4c0.1,0.1,0.3,0.1,0.4,0l2.6-1.4c0.1-0.1,0.3-0.1,0.4,0l2.6,1.4
	c0.1,0.1,0.3,0.1,0.4,0c0.1-0.1,0.2-0.2,0.2-0.4l-0.5-2.9c0-0.1,0-0.3,0.1-0.3L180,167.8z"/>
<path class="st0" d="M193.9,167.8c0.1-0.1,0.1-0.3,0.1-0.4c0-0.1-0.2-0.2-0.3-0.3l-3.1-0.5l-1.4-2.8c-0.1-0.1-0.2-0.2-0.4-0.2
	c-0.1,0-0.3,0.1-0.4,0.2l-1.3,2.6c-0.1,0.1-0.2,0.2-0.3,0.2l-2.9,0.4c-0.1,0-0.3,0.1-0.3,0.3c0,0.1,0,0.3,0.1,0.4l2.1,2
	c0.1,0.1,0.1,0.2,0.1,0.3l-0.5,2.9c0,0.1,0,0.3,0.2,0.4c0.1,0.1,0.3,0.1,0.4,0l2.6-1.4c0.1-0.1,0.3-0.1,0.4,0l2.6,1.4
	c0.1,0.1,0.3,0.1,0.4,0c0.1-0.1,0.2-0.2,0.2-0.4l-0.5-2.9c0-0.1,0-0.3,0.1-0.3L193.9,167.8z"/>
<path class="st0" d="M207.8,167.8c0.1-0.1,0.1-0.3,0.1-0.4c0-0.1-0.2-0.2-0.3-0.3l-3.1-0.5l-1.4-2.8c-0.1-0.1-0.2-0.2-0.4-0.2
	s-0.3,0.1-0.4,0.2l-1.3,2.6c-0.1,0.1-0.2,0.2-0.3,0.2l-2.9,0.4c-0.1,0-0.3,0.1-0.3,0.3c0,0.1,0,0.3,0.1,0.4l2.1,2
	c0.1,0.1,0.1,0.2,0.1,0.3l-0.5,2.9c0,0.1,0,0.3,0.2,0.4c0.1,0.1,0.3,0.1,0.4,0l2.6-1.4c0.1-0.1,0.3-0.1,0.4,0l2.6,1.4
	c0.1,0.1,0.3,0.1,0.4,0c0.1-0.1,0.2-0.2,0.2-0.4l-0.5-2.9c0-0.1,0-0.3,0.1-0.3L207.8,167.8z"/>
<path class="st0" d="M221.6,167.8c0.1-0.1,0.1-0.3,0.1-0.4c0-0.1-0.2-0.2-0.3-0.3l-3.1-0.5l-1.4-2.8c-0.1-0.1-0.2-0.2-0.4-0.2
	c-0.1,0-0.3,0.1-0.4,0.2l-1.3,2.6c-0.1,0.1-0.2,0.2-0.3,0.2l-2.9,0.4c-0.1,0-0.3,0.1-0.3,0.3c0,0.1,0,0.3,0.1,0.4l2.1,2
	c0.1,0.1,0.1,0.2,0.1,0.3l-0.5,2.9c0,0.1,0,0.3,0.2,0.4c0.1,0.1,0.3,0.1,0.4,0l2.6-1.4c0.1-0.1,0.3-0.1,0.4,0l2.6,1.4
	c0.1,0.1,0.3,0.1,0.4,0c0.1-0.1,0.2-0.2,0.2-0.4l-0.5-2.9c0-0.1,0-0.3,0.1-0.3L221.6,167.8z"/>
<path class="st1" d="M235.5,167.8c0.1-0.1,0.1-0.3,0.1-0.4c0-0.1-0.2-0.2-0.3-0.3l-3.1-0.5l-1.4-2.8c-0.1-0.1-0.2-0.2-0.4-0.2
	c-0.1,0-0.3,0.1-0.4,0.2l-1.3,2.6c-0.1,0.1-0.2,0.2-0.3,0.2l-2.9,0.4c-0.1,0-0.3,0.1-0.3,0.3c0,0.1,0,0.3,0.1,0.4l2.1,2
	c0.1,0.1,0.1,0.2,0.1,0.3l-0.5,2.9c0,0.1,0,0.3,0.2,0.4c0.1,0.1,0.3,0.1,0.4,0l2.6-1.4c0.1-0.1,0.3-0.1,0.4,0l2.6,1.4
	c0.1,0.1,0.3,0.1,0.4,0c0.1-0.1,0.2-0.2,0.2-0.4l-0.5-2.9c0-0.1,0-0.3,0.1-0.3L235.5,167.8z"/>
<path class="st1" d="M100.1,130.4c-2,0.2-4,1-5.6,2.3c-2.8,2.3-3,5.8-4,9c-0.6,1.8-1.6,3.9-3.1,5.1c-2.9,2.4-6.5,2.6-8.6,5.9
	c-5.6,8.4-2.2,22.8,9.2,23.6c7,0.4,16-2.9,16.3-11.1C104.8,153.9,103.8,129.3,100.1,130.4z"/>
<path class="st1" d="M121.7,183.1l10.9-2c0.2,0,0.3,0.1,0.3,0.2l3.8,16.4c0,0.1,0,0.2,0,0.2c0,0.1-0.1,0.1-0.2,0.1l-14.7,2.2
	c-0.1,0-0.2,0-0.2-0.1c-0.1-0.1-0.1-0.1-0.1-0.2v-16.6C121.4,183.3,121.5,183.1,121.7,183.1z"/>
<path class="st1" d="M129.7,182.5c0,0.2,0.2,0.4,0.4,0.4c0.2,0,0.4-0.2,0.4-0.4c0-0.2-0.2-0.4-0.4-0.4
	C129.9,182.1,129.7,182.3,129.7,182.5z"/>
<path class="st1" d="M124.4,183.6c0,0.2,0.2,0.4,0.4,0.4c0.2,0,0.4-0.2,0.4-0.4c0-0.2-0.2-0.4-0.4-0.4
	C124.5,183.2,124.4,183.4,124.4,183.6z"/>
<path class="st1" d="M124.7,183.8L124.7,183.8c0.1,0,0.1-0.1,0.1-0.1c0-1.9,0.3-6.8,1.6-7c1.6-0.2,3.4,5.5,3.5,5.9
	c0,0.1,0.1,0.1,0.1,0.1c0.1,0,0.1-0.1,0.1-0.1c0-0.1-1.3-4.4-2.8-5.7c-0.3-0.3-0.7-0.4-1-0.4c-0.8,0.1-1.4,1.3-1.7,3.7
	c-0.2,1.7-0.2,3.5-0.2,3.5C124.6,183.7,124.7,183.8,124.7,183.8z"/>
<path class="st1" d="M109.9,156.6c0,0,5.9,13.6,14.4,15.7c1.6,0.3,3.6,0.2,4.4,0.7c1,0.6-0.2,2.2-0.7,3.5c-0.5,1.2-0.7,0.7-0.9,0.3
	c-0.2-0.4,0.7-1.6-0.5-2.1c-1.2-0.5-0.8,0.3-0.3,0.9c0.5,0.7,0.5,1.7,0.5,1.7c0,0.1-0.9-0.4-1.7-0.8c-0.7-0.3-1.1-1.2-1.2-1.5
	c-1.7-0.2-12.2-1.8-16.6-12.9C107.4,162.1,107,151.1,109.9,156.6z"/>
<path class="st1" d="M85.2,188.7c0.1,0,0.1,0,0.1-0.1c0,0,0.7-4.5,2.1-5.2c0.2-0.1,0.4-0.1,0.7,0c1.8,0.7,0.9,4.9,0.9,4.9
	c0,0.1,0,0.1,0.1,0.2c0.1,0,0.1,0,0.2-0.1c0-0.2,1-4.4-1-5.2c-0.3-0.1-0.6-0.1-0.9,0.1c-1.5,0.8-2.2,5.2-2.2,5.4
	C85.1,188.7,85.1,188.7,85.2,188.7C85.2,188.7,85.2,188.7,85.2,188.7z"/>
<polygon class="st1" points="83.3,188.3 90.4,187.7 91.9,188.5 90.6,190.2 84.2,189.5 "/>
<path class="st1" d="M84.3,231.1l-0.1,2.7c0,0.5-0.4,0.9-0.9,1c-0.8,0.2-2.2,0.4-3.6,0.3c-0.6,0-1-0.6-0.9-1.2
	c0.2-1.1,0.7-2.6,1.5-3.6l3-0.2C83.9,230.1,84.4,230.5,84.3,231.1z"/>
<path class="st1" d="M105,198.1l0.7,2.9c0,0-0.4,17-0.1,23.8c0,1.1,0.4,2.1,1,3l3.3,4.5l-7.7-3.8l-0.2-0.9l1.1-1.8L100,207
	c-0.2-1.1,0-2.2,0.4-3.3l1.3-3L105,198.1z"/>
<path class="st1" d="M110.5,232.9l-2.4,0.2c-0.4,0-0.9-0.1-1.2-0.5c-0.8-0.9-2.5-2.6-3.2-2.6c-1,0-0.6,3.5-0.6,3.5l-0.5,0l-1-4.3
	c-0.3-1.1,0.2-2.2,1.1-2.8l0,0c0,0,0.4,1.6,1.6,2.3c1.3,0.6,5.2,3,5.2,3s0.5-0.1,1,0C111.2,231.7,111.2,232.8,110.5,232.9z"/>
<path class="st1" d="M95,200.3c0,0-8.3,19.3-9.6,23.7c-1.2,4.4-1.5,7.9-1.5,8.3c0,0.5-0.6,1.1-2.4,1.2c-0.9,0.1-1.4-0.3-1.7-0.6
	c-0.2-0.3-0.3-0.7-0.1-1c0.5-1.2,2-5,2.5-6.7c0.6-2,1.6-11.2,2.3-14.3c0.7-3.2,1.5-6.7,5.3-10.1C90,200.7,92.6,197.7,95,200.3z"/>
<path class="st0" d="M98.9,169.4c1.7-10.9-5.2-16.4-5.2-16.4c2-2.3,5.2-4,7.5-5.1c2.1-1,4.7-0.6,6.5,0.9c2,1.7,4.1,4.1,3.8,6.4
	c-0.3,2.4-3.8,14.5-3.8,14.5S103.7,171.8,98.9,169.4z"/>
<path class="st1" d="M93.7,175.1c0.8-3.2,5.2-5.7,5.2-5.7c4.9,2.4,8.8,0.2,8.8,0.2s1.2,3.4,0.8,6.8c-0.4,3.3-2.7,24.7-2.7,24.7
	c-6.2,1.8-16,0-16,0C93.2,193.5,92.9,178.3,93.7,175.1z"/>
<path class="st1" d="M101.6,141.1l-1.1,7.7c-0.1,0.8,0.4,0.9,1.2,1c1.3,0.1,3,0.1,3.5-1c0.1-0.1,0.1-0.2,0.1-0.4l0.4-6.5
	c0-0.5-0.3-1-0.8-1.2l-1.8-0.6C102.4,139.9,101.7,140.4,101.6,141.1z"/>
<polygon class="st1" points="79.9,205.1 77.5,203.7 83.3,188.3 84.7,189.2 "/>
<path class="st1" d="M86.5,190.4C86.5,190.4,86.5,190.4,86.5,190.4c0.1,0,0.1-0.1,0.1-0.1c0,0-0.3-4.5,1-6c0.2-0.3,0.5-0.4,0.8-0.4
	c0.3,0,0.6,0.1,0.8,0.3c1.4,1.3,1.4,5.7,1.4,5.7c0,0.1,0.1,0.1,0.1,0.1c0.1,0,0.1-0.1,0.1-0.1c0-0.2-0.1-4.6-1.5-5.9
	c-0.3-0.3-0.7-0.4-1-0.4c-0.4,0-0.7,0.2-1,0.5c-1.4,1.6-1,6.1-1,6.2C86.3,190.4,86.4,190.4,86.5,190.4z"/>
<path class="st1" d="M97,157.2c-0.3,0.5-5.6,6.7-7.1,13.6c-1.5,6.9-1,11.6-1,11.6s1.5,1.1,1,1.9c-0.5,0.8-0.4,1.3-1.1,1.5
	c-0.7,0.2-1.6,0.4-1.5-1c0.1-1.4-1.5-1.7-1.3-2.5c0.3-0.8-1.6-23.2,7.4-29.3c0,0,0.1-0.1,0.1-0.1C97.5,154.3,97.6,156.5,97,157.2z"
	/>
<polygon class="st1" points="91.9,188.6 84.7,189.2 79.9,205.1 90.3,205.4 "/>
<path class="st1" d="M79.8,204.9C79.8,204.9,79.8,204.8,79.8,204.9c0.1,0,0.1-0.1,0.1-0.1l-0.5-1.8l3.6-11.3c0-0.1,0-0.1-0.1-0.1
	c-0.1,0-0.1,0-0.1,0.1l-3.7,11.3c0,0,0,0,0,0.1L79.8,204.9C79.7,204.8,79.7,204.9,79.8,204.9z"/>
<path class="st1" d="M77.7,203.7C77.7,203.7,77.7,203.7,77.7,203.7l1.3-0.6c0,0,0.1-0.1,0-0.1c0,0-0.1-0.1-0.1,0l-1.2,0.6
	C77.6,203.6,77.6,203.6,77.7,203.7C77.6,203.7,77.7,203.7,77.7,203.7z"/>
<path class="st1" d="M103,133.7c0,0,2.9,0.8,5.2,4.4c2.4,3.7,1.2,5.6-0.5,6.1c-1.7,0.5-4.3,0.8-7.3-1.4
	C97.4,140.7,99.4,132.8,103,133.7z"/>
<path class="st1" d="M101.5,141.2c0,0-1.4-2.8-2.6-1.4c-1.2,1.4,1.5,2.6,2.5,2.9L101.5,141.2z"/>
<path class="st1" d="M102,140.5c0,0-2.8-5.4,2.2-6.2l1.3,0.7c0,0,1.4-3.4-1.8-4.5c-3.2-1.1-7.6,0.9-8.4,5.1
	c-0.7,4.3,0.4,6.8,2.8,8.5c2.4,1.7,3-0.7,3-0.7s-1.4-1.7-1.1-2.7c0.3-1,1.6,0,1.6,0L102,140.5z"/>
<path class="st1" d="M78.7,162.7C78.7,162.7,78.8,162.7,78.7,162.7c0.1,0,0.1-0.1,0.1-0.1c-1.4-5.1,2.5-8.1,6-10.7c0,0,0-0.1,0-0.1
	c0,0-0.1,0-0.1,0C81.2,154.5,77.2,157.5,78.7,162.7C78.7,162.7,78.7,162.7,78.7,162.7z"/>
<path class="st1" d="M90.5,146.6C90.5,146.6,90.6,146.6,90.5,146.6c0.9-1.4,1.3-3.1,1.7-4.6c0.4-1.6,0.8-3.2,1.6-4.6
	c0.7-1.2,1.6-2.1,2.5-3.1c0.2-0.2,0.4-0.4,0.5-0.6c0,0,0-0.1,0-0.1c0,0-0.1,0-0.1,0c-0.2,0.2-0.4,0.4-0.5,0.6c-0.9,1-1.8,2-2.6,3.2
	c-0.9,1.4-1.3,3.1-1.7,4.6c-0.4,1.6-0.8,3.2-1.6,4.6C90.4,146.5,90.4,146.6,90.5,146.6C90.5,146.6,90.5,146.6,90.5,146.6z"/>
<path class="st1" d="M289.6,231c0,0,0.4,2.2,0.6,4.4c0.1,0.9-0.6,1.6-1.5,1.6c-2.9,0.1-9.2,0.4-11.5,0.3c-0.3,0-0.6-0.4-0.4-0.7l0,0
	c0.1-0.3,0.3-0.5,0.6-0.6l10.4-4.8L289.6,231z"/>
<path class="st1" d="M289.9,229.7l-0.3,2.7c0,0-1.8,0.8-3.1-0.1l0.8-3L289.9,229.7z"/>
<path class="st0" d="M289.7,179.7c0.1,0.7,0.7,34.7-2.9,49.9c-0.1,0.2,0.1,0.5,0.3,0.6c0.6,0.2,1.6,0.6,3,0.6c0.4,0,0.8-0.2,0.9-0.6
	c1-3.5,6-21.2,6.7-38.1c0.7-18.9,0-0.6,0-0.6l-0.4-11.7L289.7,179.7z"/>
<path class="st1" d="M301.5,232.2c0,0,0.6,1.1,1.2,4.1c0.1,0.5-0.3,1.1-0.8,1.1c-1,0.1-2.5,0.2-3.7,0.2c-0.6,0-1-0.5-0.9-1
	c0.1-1.1,0.5-2.9,1.8-4.3L301.5,232.2z"/>
<path class="st1" d="M302.1,228.8l-0.7,4c0,0-0.7,0.5-2.2,0.1l0.4-4.3L302.1,228.8z"/>
<path class="st0" d="M304.1,180.8c3,17.9-0.6,44.3-1.9,49.5c-0.1,0.3-0.3,0.6-0.6,0.6c-0.5,0.1-1.4,0.2-2.3-0.1
	c-0.3-0.1-0.5-0.4-0.5-0.7c-0.2-4.2,0.1-29.8-2.6-39.9c-0.1-0.5-0.5-1-0.9-1.3l-5.4-3.8l-0.4-6.2L304.1,180.8z"/>
<path class="st1" d="M285.1,146.8c8.9-0.1,18.7,2.3,18.7,2.3c2.7,15.5,0.5,33.3,0.5,33.3c-6.9,1.8-14.7-1.1-14.7-1.1
	c-1.1-6.5-6.5-24.7-6.5-24.7c-4.3-0.5-7.9-1.8-10.9-3.5c2.2-2.6,3.3-5.9,3.8-7.9C279.2,146.3,282.4,146.9,285.1,146.8z"/>
<path class="st1" d="M258.9,133.7c0.9-1.1,2-0.6,2-0.6c1.3,5.5,8.2,10,15.2,12.2c-0.5,2-1.5,5.3-3.8,7.9
	C260.6,146.7,258.9,133.7,258.9,133.7z"/>
<path class="st1" d="M259.1,134c-0.1,0.3,1,0.7,1.6-0.5c0-0.6,0.4-3,0-3.5c-1.8-2.5-5.3-5.6-5.3-5.6c-0.6,0.6-0.1,1.2-0.1,1.2
	l1.7,1.8c-0.4,0.6-0.8,1.2-1,2c-0.2,0.6-0.1,1.2,0.2,1.8c0.3,0.5,0.7,1.2,1.1,1.8C258,134,259.1,134,259.1,134z"/>
<path class="st1" d="M257.7,128.6l1.6,1.3l0.5,1.3l-1.4,1.5c0,0-0.5-2.6-0.8-3.2C257.2,129,257.4,128.7,257.7,128.6z"/>
<path class="st1" d="M300.4,157.8l3.4-8.6c0,0,8.3,5.6,9.7,12.8c-1.6,0.1-4.2,0.6-7,2C305.3,161.1,300.4,157.8,300.4,157.8z"/>
<path class="st1" d="M294.1,139.6l2.8,8.2c0,0.1,0,0.3-0.1,0.4c-0.8,0.4-3.6,1.7-6.9-0.5c-0.3-0.2-0.6-0.6-0.6-1l-0.9-7.1H294.1z"/>
<path class="st1" d="M288,132c0,0-3.1,5.9-2.7,8.2c0.4,2.4,4.3,2.2,7.6,0.3l2.4-6.3L288,132z"/>
<path class="st1" d="M292.7,137.4c-0.1-0.1-0.2-0.2-0.1-0.4c0.2-0.4,0.7-1.2,0.9-1.8c0,0,0.6-0.4-1.4-0.8c-2-0.5-4.9-1.2-5.6-2.9
	c-0.6-1.6,1-5.8,3.5-2.5c0.1,0.1,0.3,0.1,0.4,0c0.4-0.5,1.5-1.7,3-1c1.4,0.6,1.6,1.7,1.6,2.2c0,0.2,0.1,0.3,0.3,0.2
	c0.7-0.1,2.4-0.3,3.2,1.5c0.7,1.5,0.2,2.3-0.2,2.7c-0.1,0.1-0.1,0.3,0.1,0.4c0.5,0.1,1.1,0.5,1,1.7c-0.1,1.5-1.8,1.4-2.3,1.3
	c-0.1,0-0.2,0-0.2,0.1c-0.4,0.5-2.3,2.4-4.3,2.7c-0.2,0-0.3-0.2-0.3-0.3l0.9-2.6c0-0.1,0-0.2-0.1-0.3L292.7,137.4z"/>
<path class="st1" d="M292.4,137.8c0,0,2.2-1.5,2.4-0.2c0.2,1.3-2,1.9-3.1,1.4L292.4,137.8z"/>
<path class="st1" d="M275,210.1c0.3,0,0.6-0.2,0.6-0.5l4-21.7c0.1-0.3-0.2-0.7-0.5-0.7c-0.3-0.1-0.7,0.2-0.7,0.5l-4,21.7
	c-0.1,0.3,0.2,0.7,0.5,0.7C275,210.1,275,210.1,275,210.1z"/>
<path class="st1" d="M246.4,210.9h33.2c0.7,0,1.2-0.6,1.2-1.2c0-0.7-0.6-1.2-1.2-1.2h-32.4l-8.4-19.4h47.9c0.7,0,1.2-0.6,1.2-1.2
	s-0.6-1.2-1.2-1.2h-49.7c-0.4,0-0.8,0.2-1,0.6c-0.2,0.3-0.3,0.8-0.1,1.2l9.5,21.9C245.4,210.6,245.9,210.9,246.4,210.9z"/>
<path class="st1" d="M248.6,232.6h26.1c0.6,0,1.1-0.4,1.2-0.9l15.6-51.9h10.9c0.7,0,1.3-0.6,1.3-1.3c0-0.7-0.6-1.3-1.3-1.3h-11.8
	c-0.6,0-1.1,0.4-1.2,0.9L273.8,230h-25.2c-0.7,0-1.3,0.6-1.3,1.3C247.3,232,247.9,232.6,248.6,232.6z"/>
<ellipse transform="matrix(0.9975 -7.110437e-02 7.110437e-02 0.9975 -15.9819 20.124)" class="st1" cx="274.7" cy="234.5" rx="3.2" ry="3.2"/>
<path class="st1" d="M272.4,234.5c0,1.3,1,2.3,2.3,2.3s2.3-1,2.3-2.3c0-1.3-1-2.3-2.3-2.3S272.4,233.3,272.4,234.5z"/>
<ellipse transform="matrix(0.9932 -0.1166 0.1166 0.9932 -25.6422 30.7818)" class="st1" cx="250.3" cy="234.5" rx="3.2" ry="3.2"/>
<path class="st1" d="M248,234.5c0,1.3,1,2.3,2.3,2.3c1.3,0,2.3-1,2.3-2.3c0-1.3-1-2.3-2.3-2.3C249.1,232.2,248,233.3,248,234.5z"/>
<path class="st1" d="M269.5,210.2c0.3,0,0.6-0.3,0.6-0.6l0.4-21.5c0-0.3-0.3-0.6-0.6-0.6c-0.3,0-0.6,0.3-0.6,0.6l-0.4,21.5
	C268.9,209.9,269.2,210.2,269.5,210.2C269.5,210.2,269.5,210.2,269.5,210.2z"/>
<path class="st1" d="M263.2,210.1c0.3,0,0.6-0.3,0.6-0.6v-21.4c0-0.3-0.3-0.6-0.6-0.6s-0.6,0.3-0.6,0.6v21.4
	C262.6,209.8,262.9,210.1,263.2,210.1z"/>
<path class="st1" d="M255.8,210C255.8,210,255.8,210,255.8,210c0.3,0,0.6-0.3,0.6-0.6l-0.1-21.3c0-0.3-0.3-0.6-0.6-0.6c0,0,0,0,0,0
	c-0.3,0-0.6,0.3-0.6,0.6l0.1,21.3C255.2,209.7,255.5,210,255.8,210z"/>
<path class="st1" d="M251,209.8c0,0,0.1,0,0.1,0c0.3-0.1,0.6-0.4,0.5-0.7l-4-20.8c-0.1-0.3-0.4-0.6-0.7-0.5
	c-0.3,0.1-0.6,0.4-0.5,0.7l4,20.8C250.5,209.6,250.7,209.8,251,209.8z"/>
<path class="st1" d="M239.2,193.8H285c0.3,0,0.6-0.3,0.6-0.6c0-0.3-0.3-0.6-0.6-0.6h-45.8c-0.3,0-0.6,0.3-0.6,0.6
	C238.6,193.5,238.9,193.8,239.2,193.8z"/>
<path class="st1" d="M242,200.1h40.9c0.3,0,0.6-0.3,0.6-0.6c0-0.3-0.3-0.6-0.6-0.6H242c-0.3,0-0.6,0.3-0.6,0.6
	C241.3,199.8,241.6,200.1,242,200.1z"/>
<path class="st1" d="M244.7,205.9h36.6c0.3,0,0.6-0.3,0.6-0.6c0-0.3-0.3-0.6-0.6-0.6h-36.6c-0.3,0-0.6,0.3-0.6,0.6
	C244.1,205.6,244.4,205.9,244.7,205.9z"/>
<path class="st1" d="M313.5,162c0,0,5.7,12.9-8.2,14.8l-1.9-1.6c0,0,6.9-3.8,3.2-11.4C306.5,163.9,310.6,160.4,313.5,162z"/>
<path class="st1" d="M303.4,175.3h-5c0,0-3.2,4.1-2.8,5c0.3,0.9,3.4,0.2,3.4,0.2l1.6-2.7c0,0,4.7,0.3,4.7-0.9
	C305.3,175.6,303.4,175.3,303.4,175.3z"/>
<path class="st1" d="M287.9,131.8C287.9,131.8,287.9,131.8,287.9,131.8c-0.5-0.4-0.8-0.8-0.8-1.3c-0.1-1,0.7-2,0.7-2
	c0,0,0.1,0,0.1,0c0,0,0,0.1,0,0.1c0,0-0.8,0.9-0.7,1.9c0,0.4,0.3,0.8,0.7,1.1C288,131.7,288,131.7,287.9,131.8
	C288,131.8,288,131.8,287.9,131.8z"/>
</svg>
