<?xml version="1.0" encoding="utf-8"?>
<!-- Generator: Adobe Illustrator 27.3.1, SVG Export Plug-In . SVG Version: 6.00 Build 0)  -->
<svg version="1.1" id="Layer_1" xmlns="http://www.w3.org/2000/svg" xmlns:xlink="http://www.w3.org/1999/xlink" x="0px" y="0px"
	 viewBox="0 0 350 260" style="enable-background:new 0 0 350 260;" xml:space="preserve">
<style type="text/css">
	.st0{fill:#E75653;stroke:#1A1A1A;stroke-width:0.5;stroke-linecap:round;stroke-linejoin:round;}
	.st1{fill:#FFFFFF;stroke:#000000;stroke-width:0.5;stroke-linecap:round;stroke-linejoin:round;stroke-miterlimit:10;}
	.st2{fill:#FFFFFF;stroke:#000000;stroke-width:0.5;stroke-miterlimit:10;}
	.st3{fill:none;stroke:#000000;stroke-width:0.5;stroke-miterlimit:10;}
	.st4{fill:#F9F7F7;stroke:#000000;stroke-width:0.5;stroke-miterlimit:10;}
	.st5{opacity:0.3;}
	
		.st6{clip-path:url(#XMLID_00000068648973493771053080000003855671739567710095_);fill:#FFFFFF;stroke:#000000;stroke-width:0.5;stroke-linecap:round;stroke-linejoin:round;stroke-miterlimit:10;}
	
		.st7{clip-path:url(#XMLID_00000174570148214023110860000007042837696394394020_);fill:#FFFFFF;stroke:#000000;stroke-width:0.5;stroke-linecap:round;stroke-linejoin:round;stroke-miterlimit:10;}
	
		.st8{clip-path:url(#XMLID_00000000214870186760546200000014026007977852903563_);fill:#FFFFFF;stroke:#000000;stroke-width:0.5;stroke-linecap:round;stroke-linejoin:round;stroke-miterlimit:10;}
	
		.st9{clip-path:url(#XMLID_00000152951920714942288980000013259366135333623701_);fill:#FFFFFF;stroke:#000000;stroke-width:0.5;stroke-linecap:round;stroke-linejoin:round;stroke-miterlimit:10;}
	
		.st10{clip-path:url(#XMLID_00000133521660512845318800000002660986320118044557_);fill:#FFFFFF;stroke:#000000;stroke-width:0.5;stroke-linecap:round;stroke-linejoin:round;stroke-miterlimit:10;}
	
		.st11{opacity:0.48;fill:#FFFFFF;stroke:#000000;stroke-width:0.5;stroke-linecap:round;stroke-linejoin:round;stroke-miterlimit:10;}
</style>
<path class="st1" d="M145.9,42.3c0.4-3.6-8-4.5-8-4.5s1.9-3.5-3.1-5.4c-5-1.9-10.4-0.4-10.4-0.4s-1.7-3.4-10.1-3.5
	c-8.5-0.1-10.5,4.5-10.5,4.5s-8.9,0.2-9.4,2.9c-0.5,2.7,5.5,4.8,5.5,4.8s-4.7,1.3-5.4,2.6c-0.7,1.3,0.7,4.2,8.2,4.6
	c7.5,0.4,10.7-1.5,10.7-1.5s2.1,4.2,12.2,4.1c10.1-0.1,8.9-6,8.9-6S145.5,45.9,145.9,42.3z"/>
<path class="st1" d="M213.5,40.9c2.2-2.6,8.6-1,8.6-1s-0.1-2.4,6.2-3.4c6.2-1,10.2,3.5,10.2,3.5s9.8-0.7,11.9,4.8
	c0.9,2.4-3.9,3.9-3.9,3.9s2.4,1.8-2.3,3.5c-4.7,1.8-13.1-2.9-13.1-2.9s-3.7,2.5-11.1,1.1c-7.4-1.4-1.4-5.5-1.4-5.5
	S211.3,43.4,213.5,40.9z"/>
<ellipse class="st1" cx="182.5" cy="217.3" rx="54.5" ry="15.7"/>
<path class="st1" d="M129.4,178.5c-0.8,4.9,2.8,8.7,4.5,9.9c1.7,1.2,13.3,5.7,13.3,5.7l-0.9-32.4l-10.1-2.3
	C136.2,159.3,130.2,173.5,129.4,178.5z"/>
<path class="st1" d="M207.8,159.3c0,0-1.5,14.7-1.2,18c0.3,3.3,2.5,14.6,2.5,14.6s16-8,16.3-10.5c0.3-2.5-0.3-5.9-2.5-12.9
	c-2.2-7-6.3-13.8-6.3-13.8L207.8,159.3z"/>
<path class="st1" d="M145.6,196.3c0,0,10.1,9.2,18.9,13.7c8.8,4.6,13.1,2.1,22.1-0.8s17.2-12,17.2-12s-18-3-31.9-2.7
	C158,194.9,145.6,196.3,145.6,196.3z"/>
<path class="st1" d="M165.9,133.9c0,0,2,3.6,7.4,4.8c5.4,1.2,11.9-2.1,11.9-2.1s-2.5-2.2-3.5-5c-1-2.8-0.1-10.1-0.1-10.1l-11.6,3
	c0,0,0.3,2.8,0.1,5.4C169.9,132.5,165.9,133.9,165.9,133.9z"/>
<path class="st1" d="M164.3,105.6c-0.4,4.8,0.7,10.2,0.7,10.2s0.6,4.2,2.8,7.4c2.2,3.3,3.5,4.2,6.3,4.9c2.9,0.7,5.6-1.6,7.4-4.6
	c1.8-3,3.2-8.8,3.4-12c0.2-3.2-7.3-10.9-10.9-10.8S164.7,100.8,164.3,105.6z"/>
<path class="st1" d="M183.5,136.2c3.8,1.6,7.1-3.1,11.6-1.7c4.5,1.4,8.7,2.2,11.6-1.2c2.9-3.5,3.2-10.6-3.3-10.9
	c-6.5-0.3-8.6-2.9-6.4-6.3c2.2-3.4,1.8-8.1-4.2-8.3c-6-0.2-5.2-2.9-6.4-7.6c-1.2-4.7-9.6-5.9-12.4-3.2c-2.8,2.7-4.4-3.8-10.1-1.9
	c-5.8,1.9-8.9,8.9-5.8,13.1c3,4.2-7.6,4.5-5.9,10.7c1.7,6.2,8.2,6.3,6.5,8.3c-1.8,2-6.7,6.3-3.7,7.5c3,1.3,12,1,14-0.6
	c2-1.6,2.8-6.3,1.9-7.5c-1-1.2-1.1-4.2-3.5-6.4c-2.3-2.2-2-1.8-1-5.4c1-3.6-3.2-4.2,0-5.9c3.2-1.8,5.4-3.6,5.4-3.6s-0.8,4.1,2.3,4.5
	c3.1,0.4,6.7-2.3,8-0.5c1.4,1.8-2.6,4.5-0.6,7.5c2,2.9,0.9,3.8,0.1,7C180.8,127,179.7,134.6,183.5,136.2z"/>
<path class="st0" d="M204,135.2c-4.8-1.7-15.6-1.6-15.6-1.6s-7.3,4.6-14.1,3.6c-6.8-1-8.4-3.3-8.4-3.3s-2.8-0.2-9.5,0.8
	c-6.7,1.1-11.2,4.8-15.4,11.3c-3.4,5.2-7,12.6-7,13c0,0.3,8.2,2,12,4.8c12.9,9.5,61.7-0.6,64-2.5c4.7-3.9,8.7-6.9,8.7-6.9
	s-3.5-8.4-5.6-11.7C211,139.3,208.8,136.9,204,135.2z"/>
<path class="st1" d="M218.6,154.1c0,0-4,3-8.7,6.9c-1.1,0.9-13.9,3.9-27.9,5.5c-10.3,1.1-28.6,2.3-35.8-3c-2.7-1.9-7.5-3.4-10.1-4.2
	c-0.8-0.2-1.6-0.5-1.8-0.6c-0.1-0.1-0.1-0.1-0.2-0.1c-0.2,0-0.3,0.1-0.3,0.3c0,0.3,0.2,0.4,2.1,0.9c2.6,0.8,7.4,2.2,10,4.1
	c4.2,3.1,11.9,4.1,20.1,4.1c5.4,0,11.1-0.4,16.1-1c13.7-1.5,26.9-4.5,28.2-5.6c4.6-3.9,8.6-6.9,8.7-6.9c0.1-0.1,0.2-0.3,0.1-0.4
	C218.9,154,218.7,154,218.6,154.1z M134.3,159C134.3,159,134.3,159,134.3,159C134.3,159,134.3,159,134.3,159z M134.3,159L134.3,159
	L134.3,159z"/>
<path class="st1" d="M154.8,150.3c-0.2,0.6-3.7,9.1-5.5,13.5c-0.1,0.1,0,0.3,0.2,0.4c0,0,0.1,0,0.1,0c0.1,0,0.2-0.1,0.3-0.2
	c0.2-0.5,5.3-12.8,5.5-13.6c0-0.2,0-0.3-0.2-0.4C155.1,150.1,154.9,150.2,154.8,150.3z"/>
<path class="st1" d="M200.3,149c-0.1,0.1-0.2,0.2-0.2,0.4l5.2,13.1c0,0.1,0.2,0.2,0.3,0.2c0,0,0.1,0,0.1,0c0.1-0.1,0.2-0.2,0.2-0.4
	l-5.2-13.1C200.6,149,200.4,149,200.3,149z"/>
<path class="st1" d="M229.9,185.6c-5.1,0.2-9.6,0.8-19.8,5.6c-10.2,4.8-16,8-21.6,11.3c-5.5,3.3-10.7,5-11.9,5.6
	c-0.6,7.5,7.2,13.6,7.2,13.6s25.2-3.3,36.5-9.7c11.4-6.4,16.4-10.5,18.4-14.7c2-4.1,1.3-7.5,0.2-8.9
	C236.9,185.6,232.3,185.5,229.9,185.6z"/>
<path class="st1" d="M229.9,185.3c-4.8,0.2-9.4,0.7-19.9,5.7c-10.4,4.9-16.2,8-21.6,11.3c-3.9,2.4-7.7,3.9-10,4.8
	c-0.9,0.4-1.6,0.6-1.9,0.8c-0.1,0-0.1,0.1-0.1,0.2c-0.6,7.5,7,13.6,7.3,13.8c0.1,0,0.1,0.1,0.2,0.1c0,0,0,0,0,0
	c0.3,0,25.4-3.4,36.6-9.7c11-6.2,16.4-10.5,18.5-14.8c2-4,1.5-7.5,0.2-9.2C237.2,185.6,233,185.2,229.9,185.3z M229.9,185.6
	L229.9,185.6L229.9,185.6z M238.6,197.3c-2,4.2-7.3,8.4-18.3,14.5c-10.8,6-34.4,9.4-36.3,9.6c-0.9-0.7-7.4-6.4-7-13.1
	c0.4-0.2,1-0.4,1.7-0.7c2.3-0.9,6.1-2.5,10-4.8c5.4-3.2,11.2-6.4,21.5-11.2c10.4-4.9,14.7-5.4,19.6-5.6c3-0.1,7,0.3,8.9,2.8
	C239.7,189.8,240.7,192.9,238.6,197.3z"/>
<path class="st1" d="M211.4,215.1c-5.7,0.5-8.2,1.2-11.9,1.4c-3.7,0.2-5-4.1-10.8-2.2c-1.8,0.6-5.2,1.2-8.9,1.5
	c-3.7,0.2-5.9-3.6-5.9-3.6l-6.2,5.6l6.3,4.4c0,0,0.7,3.2,12.9,4.4c12.3,1.2,18.6-1.2,23.6-3.8C219.4,218,217.1,214.6,211.4,215.1z"
	/>
<path class="st1" d="M149.2,195.3c-10.1-4.7-14.5-5.4-19.6-5.6c-2.4-0.1-6.9,0.1-9,2.8c-1.1,1.4-1.8,4.7,0.2,8.8
	c2,4.1,6.9,8.2,18.2,14.5c11.3,6.3,36.2,9.6,36.2,9.6s7.7-6.1,7.2-13.5c-1.2-0.7-6.3-2.3-11.8-5.6
	C165.1,203.2,159.3,200.1,149.2,195.3z"/>
<path class="st1" d="M182.5,211.8c-0.4-0.2-1-0.5-1.9-0.8c-2.2-0.9-6-2.4-9.9-4.7c-5.4-3.2-11.1-6.3-21.4-11.2
	c-10.4-4.9-14.9-5.4-19.7-5.6c-3.1-0.1-7.2,0.3-9.3,3c-1.3,1.7-1.8,5.2,0.2,9.1c2.1,4.3,7.4,8.5,18.3,14.6c11.2,6.3,36,9.6,36.3,9.6
	c0,0,0,0,0,0c0.1,0,0.1,0,0.2-0.1c0.3-0.3,7.8-6.3,7.3-13.7C182.6,211.9,182.5,211.8,182.5,211.8z M175.1,225.2
	c-1.9-0.3-25.3-3.5-36-9.5c-10.8-6.1-16.1-10.2-18.1-14.4c-2.1-4.3-1.1-7.4-0.2-8.5c1.7-2.2,5.1-2.8,7.9-2.8c0.3,0,0.6,0,0.9,0
	c4.9,0.2,9.1,0.7,19.5,5.6c10.3,4.8,16,7.9,21.3,11.1c3.9,2.4,7.7,3.9,9.9,4.8c0.7,0.3,1.4,0.5,1.7,0.7
	C182.4,218.9,175.9,224.5,175.1,225.2z"/>
<path class="st1" d="M215.2,173.9c-1.6,0-2.5,0.2-2.9,0.7c-0.1,0.2-0.1,0.3-0.1,0.5c0,0.1,0.1,0.2,0.3,0.2c0,0,0,0,0.1,0
	c0.1,0,0.2-0.2,0.2-0.3c0-0.1,0.4-0.5,2.4-0.5c2.8,0,4.6,0.6,4.6,0.6c0.1,0.1,0.3,0,0.4-0.2c0.1-0.1,0-0.3-0.2-0.4
	C220,174.5,218.2,173.9,215.2,173.9z"/>
<path class="st1" d="M210.4,222.5c-0.1,0.1-0.2,0.2-0.1,0.4c0.1,0.1,0.1,0.2,0.3,0.2c0,0,0.1,0,0.1,0c4.4-2.3,6.5-4.6,6-6.3
	c-0.4-1.4-2.4-2.1-5.3-1.8c-2.9,0.2-4.9,0.5-6.7,0.8c-1.8,0.3-3.4,0.5-5.2,0.6c-1.4,0.1-2.4-0.6-3.5-1.2c-1.8-1-3.8-2.2-7.4-1
	l-0.4,0.1c-1.6,0.6-2.9,1-6.3,1.2c-0.2,0-0.3,0.1-0.3,0.3c0,0.2,0.1,0.3,0.3,0.3c3.4-0.2,4.8-0.7,6.4-1.2l0.4-0.1
	c3.4-1.1,5.2-0.1,6.9,0.9c1.2,0.7,2.3,1.3,3.8,1.3c1.9-0.1,3.4-0.3,5.2-0.6c1.8-0.3,3.8-0.6,6.7-0.8c2.5-0.2,4.4,0.4,4.7,1.4
	C216.5,218.2,214.4,220.3,210.4,222.5z"/>
<path class="st1" d="M145.5,153.7c-0.9,0-1.6,0.7-1.6,1.6v40.9c0,0.9,0.7,1.6,1.6,1.6h65.3c0.9,0,1.6-0.7,1.6-1.6v-40.9
	c0-0.9-0.7-1.6-1.6-1.6H145.5z"/>
<rect x="172.8" y="170" class="st1" width="10.6" height="4.7"/>
<path class="st1" d="M212.1,195.7c0,1-0.8,1.8-1.8,1.8h-64.4c-1,0-1.8-0.8-1.8-1.8c0-0.2-0.1-0.3-0.3-0.3c-0.2,0-0.3,0.1-0.3,0.3
	c0,1.3,1.1,2.4,2.4,2.4h64.4c1.3,0,2.4-1.1,2.4-2.4c0-0.2-0.1-0.3-0.3-0.3C212.2,195.5,212.1,195.6,212.1,195.7z"/>
<path class="st1" d="M111.3,60.4c0,0.7,0.6,1.2,1.3,1.2c0.7,0,1.2-0.6,1.2-1.3c-0.5-7.7,2.9-14.4,7.4-14.8c4.6-0.3,8.8,5.9,9.4,13.6
	c0,0.7,0.6,1.2,1.3,1.2c0.7,0,1.2-0.6,1.2-1.3c-0.6-9.3-5.9-16.3-12-15.9C114.9,43.4,110.6,51.1,111.3,60.4z"/>
<path class="st1" d="M211.1,52.9c0,0.7,0.6,1.2,1.3,1.2c0.7,0,1.2-0.6,1.2-1.3c-0.5-7.3,2.7-13.8,7-14c4.3-0.3,8.4,5.6,8.9,13
	c0,0.7,0.6,1.2,1.3,1.2c0.7,0,1.2-0.6,1.2-1.3c-0.6-9-5.7-15.7-11.5-15.3C214.6,36.6,210.5,43.9,211.1,52.9z"/>
<path class="st1" d="M156,42.8c0,0.7,0.6,1.2,1.3,1.2c0.7,0,1.2-0.6,1.2-1.3c-0.9-12.8,4.7-23.7,12.5-24.2
	c7.8-0.5,14.8,9.5,15.6,22.3c0,0.7,0.6,1.2,1.3,1.2c0.7,0,1.2-0.6,1.2-1.3c-1-14.2-9.2-25.2-18.3-24.6C161.6,16.6,155,28.6,156,42.8
	z"/>
<rect x="105.3" y="106" class="st1" width="0.7" height="8.6"/>
<rect x="108" y="106" class="st1" width="0.7" height="8.6"/>
<rect x="116" y="106" class="st1" width="0.7" height="8.6"/>
<rect x="113.3" y="106" class="st1" width="0.7" height="8.6"/>
<path class="st1" d="M122.5,178.2c-0.2,0-0.4,0-0.6,0l-22.2,0.1c-2.9,0-5.3-2.2-5.3-5V160c0-2.8,2.4-5.1,5.3-5.1l22.2-0.1
	c2.9,0,5.3,2.2,5.3,5v13.4c0,0.4-0.1,0.9-0.2,1.3l7,11.3L122.5,178.2z"/>
<path class="st1" d="M108.3,163.1c1,0,1.7,0.8,1.7,1.7v0.3c0,1-0.8,1.7-1.7,1.7h-3.6c-1,0-1.7-0.8-1.7-1.7v-0.3c0-1,0.8-1.7,1.7-1.7
	H108.3z M103.9,164.8v0.3c0,0.4,0.4,0.8,0.8,0.8h3.6c0.4,0,0.8-0.4,0.8-0.8v-0.3c0-0.4-0.4-0.8-0.8-0.8h-3.6
	C104.2,164,103.9,164.4,103.9,164.8z"/>
<path class="st1" d="M108.4,168.8c1,0,1.7,0.8,1.7,1.7v0.3c0,1-0.8,1.7-1.7,1.7h-3.6c-1,0-1.7-0.8-1.7-1.7v-0.3c0-1,0.8-1.7,1.7-1.7
	H108.4z M104,170.5v0.3c0,0.4,0.4,0.8,0.8,0.8h3.6c0.4,0,0.8-0.4,0.8-0.8v-0.3c0-0.4-0.4-0.8-0.8-0.8h-3.6
	C104.3,169.7,104,170.1,104,170.5z"/>
<path class="st1" d="M107.9,171.7c1,0,1.7,0.8,1.7,1.7v0.3c0,1-0.8,1.7-1.7,1.7h-2.7c-1,0-1.7-0.8-1.7-1.7v-0.3c0-1,0.8-1.7,1.7-1.7
	H107.9z M104.4,173.4v0.3c0,0.4,0.4,0.8,0.8,0.8h2.7c0.4,0,0.8-0.4,0.8-0.8v-0.3c0-0.4-0.4-0.8-0.8-0.8h-2.7
	C104.8,172.6,104.4,173,104.4,173.4z"/>
<path class="st1" d="M108.8,166c1,0,1.7,0.8,1.7,1.7v0.3c0,1-0.8,1.7-1.7,1.7h-5.1c-1,0-1.7-0.8-1.7-1.7v-0.3c0-1,0.8-1.7,1.7-1.7
	H108.8z M102.9,167.7v0.3c0,0.4,0.4,0.8,0.8,0.8h5.1c0.4,0,0.8-0.4,0.8-0.8v-0.3c0-0.4-0.4-0.8-0.8-0.8h-5.1
	C103.2,166.9,102.9,167.3,102.9,167.7z"/>
<path class="st1" d="M107.9,162.7c0.3,0.4,0.3,0.5,0.3,0.6c0.1,0.3-0.1,0.5-0.3,0.6c-0.2,0.1-0.5-0.1-0.6-0.3c0-0.1-0.1-0.2-0.2-0.4
	c-0.3-0.5-0.9-1.5-1.3-2.4c-0.3-0.7-0.6-2.1-0.3-3.1c0.2-0.6,0.6-1,1.1-1.1c0.3-0.1,0.7,0,1.2,0.4c0.2,0.2,0.5,0.5,0.8,0.9
	c0.6,0.9,1.5,2.1,2.9,3c1,0.6,1.7,1.2,2.2,1.6c0.6,0.5,1.1,0.8,1.5,0.9c0.9,0.3,3.7,1,3.7,1c0.2,0.1,0.3,0.2,0.3,0.4l0.1,6.7
	c0,0.1-0.1,0.3-0.2,0.4c-0.1,0.1-0.2,0.1-0.4,0.1c-0.5,0-1.8-0.1-2.5,0.2c-0.4,0.2-0.9,0.6-1.3,1.1c-0.5,0.4-0.9,0.9-1.5,1.2
	c-1.1,0.6-1.6,0.7-2.8,0.7c-1.1,0-2.8,0.1-2.8,0.1c0,0,0,0,0,0c-0.2,0-0.5-0.2-0.5-0.4c0-0.3,0.2-0.5,0.4-0.5c0.1,0,1.7-0.1,2.9-0.1
	c1.1,0,1.4,0,2.3-0.5c0.4-0.2,0.8-0.7,1.3-1.1c0.5-0.5,1-1,1.6-1.3c0.7-0.3,1.8-0.4,2.5-0.3l-0.1-5.9c-0.8-0.2-2.7-0.7-3.4-0.9
	c-0.6-0.2-1.1-0.6-1.8-1.1c-0.5-0.4-1.2-1-2.2-1.5c-1.5-1-2.5-2.3-3.2-3.2c-0.3-0.4-0.5-0.7-0.6-0.8c-0.1-0.1-0.2-0.2-0.4-0.2
	c-0.1,0-0.3,0.2-0.4,0.6c-0.3,0.6,0,1.8,0.2,2.4C107,161.3,107.6,162.2,107.9,162.7z M107.3,163.6
	C107.3,163.6,107.3,163.6,107.3,163.6C107.3,163.6,107.3,163.6,107.3,163.6z"/>
<path class="st1" d="M134.2,118.2l-7.1-5.3v-13c0-1.5-1.2-2.7-2.7-2.7H98.2c-1.5,0-2.7,1.2-2.7,2.7v14.7c0,1.5,1.2,2.7,2.7,2.7h26.1
	L134.2,118.2z"/>
<path class="st1" d="M117.8,142c-2,1.9-4.6,3.1-7.6,3.1c-6,0-10.8-4.9-10.8-10.8c0-6,4.9-10.8,10.8-10.8c6,0,10.8,4.9,10.8,10.8
	c0,1.5-0.3,3-0.9,4.3l2.9,7.2L117.8,142z"/>
<path class="st0" d="M110.3,131.9c0.3-0.3,2.4-2.1,4-0.9c1.7,1.3,1.7,3.5,0.5,4.8c-1.2,1.3-4.2,4.1-4.2,4.1s-3.4-2.8-4.6-4.1
	c-1.2-1.3-1.3-3.5,0.5-4.8C108,129.8,110,131.7,110.3,131.9z"/>
<g>
	<g>
		<polyline class="st2" points="105.6,101.8 119,101.8 117.7,109.2 106.7,109.2 		"/>
		<polyline class="st2" points="101.9,99.8 105.3,99.8 106.8,111.8 117.3,111.8 		"/>
		<path class="st2" d="M109.8,114.3c0,0.7-0.6,1.3-1.3,1.3c-0.7,0-1.3-0.6-1.3-1.3c0-0.7,0.6-1.3,1.3-1.3
			C109.3,112.9,109.8,113.5,109.8,114.3z"/>
		<path class="st2" d="M117.1,114.3c0,0.7-0.6,1.3-1.3,1.3c-0.7,0-1.3-0.6-1.3-1.3c0-0.7,0.6-1.3,1.3-1.3
			C116.5,112.9,117.1,113.5,117.1,114.3z"/>
		<line class="st2" x1="109.6" y1="102" x2="110.1" y2="109.2"/>
		<line class="st2" x1="114.5" y1="102" x2="114.1" y2="109.2"/>
		<line class="st2" x1="106" y1="105.6" x2="118.3" y2="105.5"/>
	</g>
</g>
<path class="st1" d="M102.8,60.9c0,0,0.9,4.9,1.3,7.9c0.4,3,0.9,7.1,0.9,7.1l38.5-1.8l-2.2-16.7c0,0-8.8-1.2-19-0.6
	C112.2,57.4,102.8,60.9,102.8,60.9z"/>
<path class="st1" d="M202.3,51.8l4.8,18.4l31.9-2.9l-0.2-19c0,0-4.3,0.2-18.1,1.2C206.8,50.6,202.3,51.8,202.3,51.8z"/>
<g>
	<path class="st1" d="M142.4,74.8c0,0,65-5.5,65-5.8c0-0.3-1.6-28.8-1.6-28.8s-21.1-1.8-30.1-1.2c-9,0.6-36.4,4.6-36.4,4.6
		L142.4,74.8z"/>
	<path class="st0" d="M150.8,61l0.1,1.3l9.2-0.6l-0.1-2l-3.6,0.2c-0.7,0-1.6,0.2-2.3,0.3c2.8-2.9,4.9-5.3,4.8-7.6
		c-0.2-2.4-2-3.8-4.6-3.6c-1.9,0.1-3.1,0.9-4.2,2.3l1.3,1.2c0.7-0.8,1.6-1.5,2.7-1.6c1.6-0.1,2.5,0.7,2.6,2
		C156.8,55,154.6,57.3,150.8,61z"/>
	<path class="st0" d="M170.8,61l-0.2-3.3l1.8-0.1l-0.1-1.8l-1.8,0.1l-0.5-7.7l-2.7,0.2l-5.3,8.3l0.1,1.6l6.3-0.4l0.2,3.3L170.8,61z
		 M164.3,56.3l2.4-3.7c0.4-0.7,0.8-1.4,1.2-2.1l0.1,0c0,0.8,0,1.8,0.1,2.5l0.2,3L164.3,56.3z"/>
	<polygon class="st0" points="177.5,63.7 182.9,45.9 180.9,46.1 175.5,63.9 	"/>
	<path class="st0" d="M192.1,59.5c-0.1-5,0.4-7.7,3.4-11.6l-0.1-1.4l-9.4,0.6l0.1,1.9l6.8-0.5c-2.5,3.6-3.3,6.5-3.3,11L192.1,59.5z"
		/>
</g>
</svg>
