<?xml version="1.0" encoding="utf-8"?>
<!-- Generator: Adobe Illustrator 27.3.1, SVG Export Plug-In . SVG Version: 6.00 Build 0)  -->
<svg version="1.1" id="Layer_1" xmlns="http://www.w3.org/2000/svg" xmlns:xlink="http://www.w3.org/1999/xlink" x="0px" y="0px"
	 viewBox="0 0 350 260" style="enable-background:new 0 0 350 260;" xml:space="preserve">
<style type="text/css">
	.st0{fill:#E75653;stroke:#1A1A1A;stroke-width:0.5;stroke-linecap:round;stroke-linejoin:round;}
	.st1{fill:#FFFFFF;stroke:#000000;stroke-width:0.5;stroke-linecap:round;stroke-linejoin:round;stroke-miterlimit:10;}
	.st2{fill:#FFFFFF;stroke:#000000;stroke-width:0.5;stroke-miterlimit:10;}
	.st3{fill:none;stroke:#000000;stroke-width:0.5;stroke-miterlimit:10;}
	.st4{fill:#F9F7F7;stroke:#000000;stroke-width:0.5;stroke-miterlimit:10;}
	.st5{opacity:0.3;}
	
		.st6{clip-path:url(#XMLID_00000128466160866332235370000002867516667718191539_);fill:#FFFFFF;stroke:#000000;stroke-width:0.5;stroke-linecap:round;stroke-linejoin:round;stroke-miterlimit:10;}
	
		.st7{clip-path:url(#XMLID_00000083085147152248169820000017897150939107950480_);fill:#FFFFFF;stroke:#000000;stroke-width:0.5;stroke-linecap:round;stroke-linejoin:round;stroke-miterlimit:10;}
	
		.st8{clip-path:url(#XMLID_00000035508113069648141010000007048954795704896405_);fill:#FFFFFF;stroke:#000000;stroke-width:0.5;stroke-linecap:round;stroke-linejoin:round;stroke-miterlimit:10;}
	
		.st9{clip-path:url(#XMLID_00000096034115194903933050000017417377811711776934_);fill:#FFFFFF;stroke:#000000;stroke-width:0.5;stroke-linecap:round;stroke-linejoin:round;stroke-miterlimit:10;}
	
		.st10{clip-path:url(#XMLID_00000175286598436661551640000004700127788941732505_);fill:#FFFFFF;stroke:#000000;stroke-width:0.5;stroke-linecap:round;stroke-linejoin:round;stroke-miterlimit:10;}
	
		.st11{opacity:0.48;fill:#FFFFFF;stroke:#000000;stroke-width:0.5;stroke-linecap:round;stroke-linejoin:round;stroke-miterlimit:10;}
</style>
<g>
	<g>
		<path class="st1" d="M162.8,144.8c0,0-2-5.3-4.3-4.8c-2.3,0.5-4.9,2.3-4.9,2.3l-3.8,5.1c0,0,10.5,4.2,14.3,1.8
			c0,0,10.8,1.9,24.4-0.4c-2-4.2-3.1-8.3-3.8-11.6C177.7,141.2,170.3,144.1,162.8,144.8z"/>
		<path class="st0" d="M219.8,106.6c0,0-15.4,19.4-35.3,30.7c0.7,3.2,1.9,7.4,3.8,11.6c10.3-1.7,22.2-5.7,32.3-14.7L219.8,106.6z"/>
	</g>
	<path class="st1" d="M13.8,115.6l30.6,77c1.6,3.9,5.6,6.3,9.8,5.7l80.3-5.9l-28.9-81.9c-0.8-2-2.7-3.3-4.9-3.3
		c-14.1,0.3-65.4,1.6-83.7,3.2C14.5,110.6,12.9,113.2,13.8,115.6z"/>
	<path class="st1" d="M51.5,194.7L20.9,117c-0.6-1.6,0.5-3.3,2.2-3.3l75.6-2.9c1.9-0.1,3.7,1.1,4.4,2.9l27.7,75.7L51.5,194.7z"/>
	<path class="st1" d="M319.6,115.6l-30.6,77c-1.6,3.9-5.6,6.3-9.8,5.7l-80.3-5.6l28.9-82.2c0.8-2,2.7-3.3,4.9-3.3
		c14.1,0.3,65.4,1.6,83.7,3.2C319,110.6,320.6,113.2,319.6,115.6z"/>
	<path class="st1" d="M281.9,194.7l30.6-77.7c0.6-1.6-0.5-3.3-2.2-3.3l-75.6-2.9c-1.9-0.1-3.7,1.1-4.4,2.9l-27.7,75.7L281.9,194.7z"
		/>
	<path class="st1" d="M104.2,109.2l1,25.7c2.7,0.9,5.3,1.7,7.8,2.2c1.5-5,4.9-11.1,7.7-15.6C110.5,117.9,104.2,109.2,104.2,109.2z"
		/>
	<path class="st1" d="M155.2,108.7c-14,15.1-25.4,16-34.6,12.8c-2.8,4.5-6.2,10.6-7.7,15.6c37.4,8.3,46.2-26.2,46.2-26.2
		L155.2,108.7z"/>
	<path class="st1" d="M158.1,107.1c0,0,1.6-1.7,4.6-1.2c3,0.5,5.6,1.6,7.5,0c1.9-1.6,2.5,0.5,2.5,0.5l-5.6,4.2L158.1,107.1z"/>
	<path class="st1" d="M154.8,110.1c0,0,1.1-4.6,4.4-4c3.3,0.6,10.9,4.7,12.9,4c2-0.8,4.4-2.6,5.7-1.9l-2.3,2.8c0,0,5.8-3.3,6.8-1.3
		l-9.6,5.4C172.7,115.1,158.6,113.7,154.8,110.1z"/>
	<path class="st0" d="M55.7,193.9c0,0-4.8-68.3,30.1-89.5c0,0,9.7-6.4,21.9,6s8.2,25.4-2,37.5s-20.6,33.8-18.1,45.9H55.7z"/>
	<path class="st1" d="M103.4,85.8c0,0.8-11.6,17.3-11.6,17.3s2.1,4.1,12,7.4l8.6-17.7L103.4,85.8z"/>
	<path class="st1" d="M98.8,142.4c0,0,22,18.4,45.8,10.4c1.5-0.5,3.1-0.4,4.5,0.3l6.8,3.6c2.9,1.5,6.4,0.5,8.1-2.3
		c0.9-1.6,1.8-3.4,1.9-5.1l-13.4-5.4l1-1.6c0,0-6.5-0.6-8.2,4.1c0,0-12.4,5.2-33.4-17.9C111.9,128.6,102.3,136.6,98.8,142.4z"/>
	<path class="st1" d="M97.6,142.4c-0.1,0-0.2,0-0.3-0.1c-9.3-6.3-13.7-16.4-13.7-16.5c-0.1-0.2,0-0.5,0.3-0.6c0.2-0.1,0.5,0,0.6,0.3
		c0,0.1,4.3,10,13.4,16.1c0.2,0.2,0.3,0.5,0.1,0.7C97.9,142.3,97.8,142.4,97.6,142.4z"/>
	<path class="st1" d="M111.4,128.4c-0.2,0-0.3-0.1-0.4-0.2c0,0-2.9-4.5-8.3-14.1c-1.6-2.9-3.8-4.8-6.4-5.5c-4.3-1.2-8.5,1.1-8.6,1.1
		c-0.2,0.1-0.5,0.1-0.7-0.2c-0.1-0.2-0.1-0.5,0.2-0.7c0.2-0.1,4.6-2.5,9.3-1.2c2.9,0.8,5.2,2.8,7,6c5.4,9.6,8.2,14,8.2,14.1
		c0.1,0.2,0.1,0.5-0.1,0.7C111.6,128.3,111.5,128.4,111.4,128.4z"/>
	<g>
		<path class="st1" d="M112.5,76.4c0,0,4.1,9.5,4.4,14.5c0.3,5,1.4,8.2-4.4,9.2c-5.8,1-10.6-1.9-13.2-6.8c0,0-4.1-7.6-3.2-10.8
			C97,79.3,112.5,76.4,112.5,76.4z"/>
		<path class="st1" d="M101.2,89.7l0.3-0.1c0.4-0.2,0.6-0.7,0.4-1.1c-0.8-1.6-2.4-5.2-0.4-6c2.6-1.1,13.1-3.2,15.3-6.9
			c2.2-3.6,0.2-8.2-2.6-9.5c-0.2-0.1-0.4,0-0.5,0.2l-0.2,0.5c-0.2,0.3-0.6,0.3-0.7-0.1l0,0c-0.1-0.3-0.5-0.4-0.7-0.1
			c-0.7,1.1-2.6,2.9-7.6,3.8c-7.1,1.3-11.8,4.2-11.9,9.1c0,0.3-0.3,0.5-0.6,0.3c-0.5-0.3-1.4-0.5-2.5,0.5c-2,1.6-1.2,5.9,3.1,9.4
			c0.2,0.2,0.2,0.5,0,0.6c-0.8,0.5-1.9,1.7,1.1,3.3c3.1,1.7,5.4,1.5,6.3,1.4c0.2,0,0.4-0.3,0.3-0.5l-1-4.3c-0.1-0.2,0.1-0.5,0.4-0.5
			H101.2z"/>
		<path class="st1" d="M101.4,90.6c0,0-1.6-6.1-4.3-4.4c-2.7,1.7,1.4,6.8,3.6,7L101.4,90.6z"/>
	</g>
	<path class="st1" d="M149.1,153.2c0,0,5.6,5.5,6.7,4.7c0.4-0.3,1.4-1.3,2.3-2.5c0.7-0.8,0.7-2,0.2-2.8l-1.3-2
		c-1.3-1.9-4-2.3-5.7-0.8C150.3,150.5,149.5,151.6,149.1,153.2z"/>
	<path class="st0" d="M237.3,192.9c0,0,0-24.6-14.3-50c-4.5-7.9-6.1-17.2-4.7-26.2l1.6-10.1c0,0,19.6-6.6,41.4-0.3
		c0,0,30.2,24.9,10,88.6L237.3,192.9z"/>
	<path class="st1" d="M223.2,93.7l5.1,12.2c0.3,0.8,1,1.3,1.8,1.5c2.9,0.5,10,1.3,14.7-1.8c0.6-0.4,0.7-1.1,0.3-1.7l-9.4-13.5
		L223.2,93.7z"/>
	<g>
		<path class="st1" d="M235.7,151.2c-0.7,0.2-1,1-0.7,1.6l14.7,28.2c0.2,0.5,0.8,0.7,1.3,0.6l48.2-13.9c0.6-0.2,0.9-0.8,0.8-1.4
			l-8.3-28.7c-0.2-0.6-0.8-0.9-1.4-0.8L235.7,151.2z"/>
		<path class="st1" d="M238.8,147.8c-0.7,0.2-1.1,0.9-0.8,1.6l11.8,32c0.2,0.6,0.8,0.9,1.4,0.7l48-13.9c0.6-0.2,1-0.8,0.8-1.4
			l-6.7-30.8c-0.1-0.6-0.8-1.1-1.4-0.9L238.8,147.8z"/>
		<path class="st1" d="M243,144.6c-0.8,0.1-1.4,0.9-1.2,1.8l8,34.6c0.2,0.8,1,1.3,1.8,1.1l47.3-13.7c0.8-0.2,1.2-1,1-1.8l-7.3-28.2
			c-0.2-0.7-0.9-1.2-1.6-1.1L243,144.6z"/>
	</g>
	<path class="st0" d="M281.3,157.8c3.7-27.7-17.7-49-17.7-49l-12.7,14.8c9.7,12,14.2,23.1,16.3,31.7
		C270,154.5,276.7,153.2,281.3,157.8z"/>
	<path class="st1" d="M267.2,155.6c-0.1,0-0.3-0.1-0.3-0.2c-2.6-10.7-8.1-21.4-16.3-31.6c-0.1-0.1-0.1-0.3,0.1-0.5
		c0.1-0.1,0.3-0.1,0.5,0c8.3,10.3,13.8,21,16.4,31.8C267.6,155.4,267.5,155.5,267.2,155.6C267.3,155.6,267.3,155.6,267.2,155.6z"/>
	<path class="st1" d="M267.2,155.3c1.9,8,1.7,14.1,1.4,16.9c-0.1,1.1-1,1.9-2.1,2c-1.2,0.1-2.9,0.2-4.4,0.3
		c-1.6,0.1-3.5-0.9-4.7-1.8c-0.6-0.4-1.4,0.2-1.1,0.9c0.9,1.8,3.2,3.4,4.8,4.3c0.6,0.3,0.5,1.2-0.2,1.4l-6.8,1.9
		c11.2,10.6,18.6-1.3,18.6-1.3c4.9-7.6,7.5-15.1,8.4-22.2C276.7,153.2,270,154.5,267.2,155.3z"/>
	<g>
		<path class="st1" d="M228.4,75c-0.2,0.2-9,17.5-9,17.5l10,4.8l10.8-15.2C240.2,82.1,232,71.6,228.4,75z"/>
		<path class="st1" d="M235.6,84l-5,8.3c-0.1,0.1-0.2,0.2-0.3,0.3c-0.6,0.6-2.6,2.2-4.2,0c-1.3-1.9-2.6-3.6-3.9-4.3
			c-0.8-0.4-1.7-0.1-2.1,0.7c-0.8,1.6-2.4,4.9-3.4,8.1c-0.3,0.8,0.2,1.6,0.9,1.9c2,0.8,6,2.3,9.6,2.8c0.6,0.1,1.2-0.2,1.5-0.6
			c1.5-2.1,5.8-7.9,7.3-9.4c1.4-1.4,3.9-0.8,5-0.5c0.4,0.1,0.9,0.1,1.3-0.2c1.2-0.7,3.2-2.4,1.3-5.3c-0.5-0.7-0.2-1.7,0.5-2.2
			c1.3-0.8,2.7-2.4,1.3-5c-1.3-2.6-3.7-2.8-5.4-2.6c-0.7,0.1-1.5-0.3-1.7-1c-0.1-0.3-0.4-0.6-0.8-0.6c-0.9-0.2-1.4-1-1.3-1.8
			c0.3-1.5,0.1-3.4-2.3-4.7c-4.3-2.4-8.1,1.5-9,4.7c-1,3.3,3.9,5.6,6.9,5.9c2.2,0.3,3.4,2.7,3.9,4C235.9,83,235.9,83.5,235.6,84z"/>
		<path class="st1" d="M234.1,94.9c0,0,1.9-5.6,4.4-5.4c2.5,0.2,4.4,2.6,1.3,5.4C236.1,98.3,234.1,94.9,234.1,94.9z"/>
	</g>
	<path class="st1" d="M161.8,195.7c0,1.4-1.2,2.6-2.6,2.6H53.6c-2.2,0-3.9-1.8-3.9-3.9l-1.7-1.9l109.6-0.9
		C160,191.5,161.8,193.4,161.8,195.7L161.8,195.7z"/>
	<path class="st1" d="M171.6,195.7c0,1.4,1.2,2.6,2.6,2.6h105.6c2.2,0,3.9-1.8,3.9-3.9l1.7-1.9l-109.6-0.9
		C173.5,191.5,171.6,193.4,171.6,195.7L171.6,195.7z"/>
</g>
</svg>
