<?xml version="1.0" encoding="utf-8"?>
<!-- Generator: Adobe Illustrator 27.3.1, SVG Export Plug-In . SVG Version: 6.00 Build 0)  -->
<svg version="1.1" id="Layer_1" xmlns="http://www.w3.org/2000/svg" xmlns:xlink="http://www.w3.org/1999/xlink" x="0px" y="0px"
	 viewBox="0 0 350 260" style="enable-background:new 0 0 350 260;" xml:space="preserve">
<style type="text/css">
	.st0{fill:#E75653;stroke:#1A1A1A;stroke-width:0.5;stroke-linecap:round;stroke-linejoin:round;}
	.st1{fill:#FFFFFF;stroke:#000000;stroke-width:0.5;stroke-linecap:round;stroke-linejoin:round;stroke-miterlimit:10;}
	.st2{fill:#FFFFFF;stroke:#000000;stroke-width:0.5;stroke-miterlimit:10;}
	.st3{fill:none;stroke:#000000;stroke-width:0.5;stroke-miterlimit:10;}
	.st4{fill:#F9F7F7;stroke:#000000;stroke-width:0.5;stroke-miterlimit:10;}
	.st5{opacity:0.3;}
	
		.st6{clip-path:url(#XMLID_00000039110813577928838300000001972059092371219351_);fill:#FFFFFF;stroke:#000000;stroke-width:0.5;stroke-linecap:round;stroke-linejoin:round;stroke-miterlimit:10;}
	
		.st7{clip-path:url(#XMLID_00000149381807771927397480000017705631503723232411_);fill:#FFFFFF;stroke:#000000;stroke-width:0.5;stroke-linecap:round;stroke-linejoin:round;stroke-miterlimit:10;}
	
		.st8{clip-path:url(#XMLID_00000044175137656145001070000004323338172221312696_);fill:#FFFFFF;stroke:#000000;stroke-width:0.5;stroke-linecap:round;stroke-linejoin:round;stroke-miterlimit:10;}
	
		.st9{clip-path:url(#XMLID_00000174594319574751149310000018432742289808038284_);fill:#FFFFFF;stroke:#000000;stroke-width:0.5;stroke-linecap:round;stroke-linejoin:round;stroke-miterlimit:10;}
	
		.st10{clip-path:url(#XMLID_00000133529787340449910740000017472396707437201850_);fill:#FFFFFF;stroke:#000000;stroke-width:0.5;stroke-linecap:round;stroke-linejoin:round;stroke-miterlimit:10;}
	
		.st11{opacity:0.48;fill:#FFFFFF;stroke:#000000;stroke-width:0.5;stroke-linecap:round;stroke-linejoin:round;stroke-miterlimit:10;}
</style>
<g>
	<g>
		<polygon class="st0" points="231.1,76.8 255,66.5 238.6,82.3 		"/>
		<polygon class="st0" points="238.6,82.3 242.8,89 255,66.5 		"/>
		<polygon class="st0" points="255,66.5 243.5,84.2 251.3,88.1 		"/>
	</g>
	<path class="st1" d="M198.7,184.4l0-0.5c0.4,0.1,1.5-0.3,1.6,0.3C200.2,184.7,199.1,184.3,198.7,184.4z M197.4,184.4
		c-0.4-0.1-1.5,0.2-1.6-0.3c0.1-0.5,1.1-0.1,1.6-0.2C197.8,183.9,197.8,184.4,197.4,184.4z M201.3,184.4c-0.1,0-0.3-0.1-0.3-0.3
		c0.1-0.5,1.2-0.2,1.6-0.3c0.3,0,0.4,0.5,0,0.5C202.2,184.4,201.8,184.4,201.3,184.4z M194.8,184.4c-0.3-0.1-0.9,0.1-0.9-0.3
		c0.1-0.4,0.6-0.2,0.9-0.2C195.2,183.8,195.2,184.4,194.8,184.4z M203.9,184.3c-0.3,0-0.4-0.5,0-0.5c0.4,0.1,1.5-0.3,1.6,0.2
		C205.5,184.5,204.4,184.2,203.9,184.3z M206.5,184.1c-0.1,0-0.3-0.1-0.3-0.2c0-0.5,1.2-0.3,1.5-0.4c0.3,0,0.4,0.5,0.1,0.5
		C207.4,184.1,207,184.1,206.5,184.1z M209.1,183.9c-0.1,0-0.3-0.1-0.3-0.2c0-0.5,1.1-0.3,1.5-0.5c0.3-0.1,0.4,0.5,0.1,0.5
		C210,183.8,209.6,183.8,209.1,183.9z M211.7,183.5c-0.3,0-0.4-0.5,0-0.5c0.4,0,1.4-0.5,1.6,0C213.3,183.5,212.1,183.4,211.7,183.5z
		 M214.3,183c-0.3,0-0.4-0.5-0.1-0.5c0.5,0,1.3-0.6,1.6-0.2C215.9,182.8,214.7,182.8,214.3,183z M216.8,182.2
		c-0.3,0-0.4-0.4-0.1-0.5c0.5-0.1,1.2-0.8,1.5-0.4C218.4,181.8,217.1,182.1,216.8,182.2z M219.1,181.1c-0.9-0.3,0.6-1,0.8-1.3
		c0.2-0.3,0.6,0.1,0.4,0.4C219.9,180.4,219.6,180.9,219.1,181.1z M220.7,179.1c-0.6-0.1,0-0.9-0.1-1.3c-0.1-0.5,0.3-0.8,0.5-0.3
		C221.1,178,221.2,178.9,220.7,179.1z M220.5,176.6c-0.4-0.2-0.5-0.9-0.8-1.3c-0.2-0.3,0.3-0.6,0.5-0.3
		C220.3,175.4,221.2,176.4,220.5,176.6z M219.1,174.4c-0.4-0.2-0.7-0.8-1.1-1.1c-0.1-0.1-0.1-0.3,0-0.4c0.5-0.3,0.9,0.7,1.3,1
		C219.5,174.1,219.4,174.4,219.1,174.4z M217.3,172.5c-0.4-0.2-0.8-0.6-1.2-0.9c-0.1-0.1-0.1-0.3,0-0.4c0.4-0.4,1,0.6,1.4,0.8
		C217.7,172.2,217.6,172.5,217.3,172.5z M215.3,170.9c-0.4-0.2-0.8-0.5-1.2-0.7c-0.1-0.1-0.2-0.2-0.1-0.4c0.4-0.4,1.1,0.5,1.5,0.6
		C215.7,170.5,215.6,170.9,215.3,170.9z M213.1,169.5c-0.3-0.2-1.6-0.6-1.4-1c0.3-0.4,1.1,0.3,1.5,0.4
		C213.4,169.2,213.3,169.6,213.1,169.5z M210.7,168.5c-0.3-0.1-0.6-0.2-0.8-0.3c-0.2-0.1-0.8-0.1-0.6-0.5c0.2-0.4,0.9,0.1,1.2,0.2
		C210.9,167.9,211.3,168.3,210.7,168.5z M208.2,167.6c-0.4-0.2-1.6-0.2-1.5-0.7c0.3-0.5,1.2,0.2,1.6,0.2
		C208.6,167.2,208.5,167.6,208.2,167.6z M205.7,166.9c-0.4-0.2-1.6-0.1-1.5-0.6c0.2-0.5,1.2,0.1,1.6,0.1
		C206.1,166.4,206,166.9,205.7,166.9z M160.3,166.5c-0.1,0-0.3-0.1-0.3-0.3c0.1-0.5,1.2-0.2,1.6-0.3c0.4,0,0.4,0.5,0,0.5
		C161.2,166.5,160.8,166.5,160.3,166.5z M159,166.5c-0.4,0-0.9,0-1.3,0c-0.1,0-0.3-0.1-0.3-0.3c0.1-0.5,1.2-0.2,1.6-0.3
		C159.4,165.9,159.4,166.5,159,166.5z M162.9,166.5c-0.3,0-0.4-0.5,0-0.5c0.4,0.1,1.5-0.3,1.6,0.2
		C164.4,166.7,163.4,166.4,162.9,166.5z M156.4,166.4c-0.4-0.1-1.5,0.2-1.6-0.3c0.1-0.5,1.2-0.1,1.6-0.2
		C156.8,165.9,156.8,166.4,156.4,166.4z M165.5,166.4c-0.3,0-0.4-0.5,0-0.5c0.4,0.1,1.5-0.3,1.6,0.2
		C167.1,166.6,165.9,166.3,165.5,166.4z M153.8,166.4c-0.4-0.1-1.5,0.2-1.6-0.3c0.1-0.5,1.2-0.1,1.6-0.2
		C154.2,165.8,154.2,166.4,153.8,166.4z M168.2,166.3c-0.3,0-0.4-0.5,0-0.5c0.4,0.1,1.4-0.3,1.6,0.2
		C169.7,166.5,168.6,166.2,168.2,166.3z M203.2,166.3c-0.4-0.2-1.6,0-1.5-0.5c0.2-0.5,1.2,0,1.6,0
		C203.6,165.8,203.5,166.3,203.2,166.3z M170.8,166.2c-0.3,0-0.4-0.5,0-0.5c0.4,0.1,1.5-0.3,1.6,0.2
		C172.3,166.4,171.2,166.1,170.8,166.2z M151.2,166.2c-0.4-0.1-1.5,0.1-1.6-0.4c0.1-0.5,1.2-0.1,1.6-0.2
		C151.6,165.7,151.6,166.2,151.2,166.2z M173.3,166.1c-0.1,0-0.3-0.1-0.3-0.3c0.1-0.5,1.2-0.2,1.6-0.4c0.3,0,0.4,0.5,0,0.5
		C174.2,166,173.8,166,173.3,166.1z M148.6,166c-0.4-0.1-1.5,0.1-1.6-0.4c0.1-0.5,1.2-0.1,1.6-0.1C149,165.5,149,166,148.6,166z
		 M175.9,165.9c-0.3,0-0.4-0.5,0-0.5c0,0,1.3-0.1,1.3-0.1c0.1,0,0.3,0.1,0.3,0.3c0,0.1-0.1,0.3-0.3,0.3
		C177.2,165.8,176,165.9,175.9,165.9z M200.6,165.9c-0.4-0.2-1.5,0.1-1.6-0.5c0.1-0.5,1.2,0,1.6-0.1
		C201,165.4,201,165.9,200.6,165.9z M146,165.7c-0.4-0.1-1.5,0.1-1.6-0.5c0.2-0.5,1.2,0,1.6-0.1C146.4,165.2,146.4,165.7,146,165.7z
		 M178.5,165.7c-0.3,0-0.4-0.5,0-0.5c0.4,0.1,1.5-0.4,1.6,0.2C180.1,165.9,178.9,165.6,178.5,165.7z M198,165.6
		c-0.4-0.1-1.5,0.1-1.6-0.4c0.1-0.5,1.2-0.1,1.6-0.1C198.4,165.1,198.4,165.6,198,165.6z M181.1,165.6c-0.3,0-0.4-0.5,0-0.5
		c0.4,0.1,1.5-0.3,1.6,0.2C182.7,165.7,181.5,165.4,181.1,165.6z M183.7,165.4c-0.3,0-0.4-0.5,0-0.5c0.4,0.1,1.5-0.3,1.6,0.2
		C185.2,165.6,184.1,165.3,183.7,165.4z M143.5,165.4c-0.4-0.1-1.5,0-1.6-0.5c0.2-0.5,1.2,0,1.6,0
		C143.8,164.9,143.8,165.4,143.5,165.4z M195.5,165.4c-0.4-0.1-1.5,0.2-1.6-0.3c0.1-0.5,1.2-0.1,1.6-0.2
		C195.8,164.8,195.8,165.4,195.5,165.4z M186.3,165.3c-0.3,0-0.4-0.5,0-0.5c0.4,0.1,1.5-0.3,1.6,0.2
		C187.8,165.5,186.8,165.2,186.3,165.3z M192.9,165.3c-0.4-0.1-1.5,0.2-1.6-0.3c0.1-0.5,1.2-0.2,1.6-0.2
		C193.2,164.7,193.2,165.3,192.9,165.3z M188.9,165.2c-0.3,0-0.4-0.5,0-0.5c0.4,0.1,1.5-0.3,1.6,0.3
		C190.4,165.5,189.4,165.1,188.9,165.2z M140.9,165c-0.4-0.1-1.6,0-1.5-0.6c0.2-0.5,1.2,0.1,1.6,0C141.3,164.5,141.2,165,140.9,165z
		 M138.4,164.5c-0.4-0.2-1.6-0.1-1.5-0.6c0.2-0.5,1.2,0.1,1.6,0.1C138.7,164,138.7,164.5,138.4,164.5z M135.8,163.9
		c-0.4-0.2-1.6-0.2-1.5-0.7c0.2-0.5,1.2,0.1,1.6,0.2C136.2,163.4,136.1,163.9,135.8,163.9z M133.3,163.1c-0.4-0.2-1.6-0.2-1.5-0.8
		c0.2-0.5,1.2,0.2,1.6,0.2C133.7,162.7,133.6,163.2,133.3,163.1z M130.8,162.3c-0.3-0.2-1.6-0.3-1.5-0.8c0.3-0.5,1.1,0.2,1.6,0.3
		C131.2,161.9,131.1,162.3,130.8,162.3z M128.4,161.4c-0.3-0.2-1.6-0.4-1.4-0.9c0.3-0.4,1.1,0.3,1.5,0.4
		C128.8,161,128.7,161.4,128.4,161.4z M126,160.3c-0.3-0.2-1.6-0.5-1.4-1c0.3-0.4,1.1,0.4,1.5,0.4
		C126.4,159.9,126.3,160.3,126,160.3z M123.7,159.2c-0.3-0.2-1.6-0.6-1.4-1c0.4-0.4,1.1,0.4,1.5,0.5
		C124.1,158.8,124,159.2,123.7,159.2z M121.4,157.9c-0.3-0.2-1.6-0.8-1.3-1.1c0.4-0.4,1,0.5,1.5,0.6
		C121.8,157.5,121.7,157.9,121.4,157.9z M119.3,156.4c-0.5-0.2-0.8-0.7-1.2-0.9c-0.3-0.2,0.1-0.6,0.4-0.4
		C118.7,155.4,120.2,156.1,119.3,156.4z M117.5,154.5c-0.5-0.2-0.7-0.9-1-1.2c-0.2-0.3,0.3-0.6,0.5-0.3
		C117,153.4,118.2,154.3,117.5,154.5z M116.3,152.2c-0.5-0.2-0.3-1.2-0.3-1.6c0-0.3,0.6-0.3,0.5,0.1
		C116.3,151.1,116.8,152.2,116.3,152.2z M116.6,149.7c-0.2,0-0.3-0.2-0.2-0.4c0.2-0.3,0.6-1.5,1.1-1.2c0.1,0.1,0.1,0.3,0,0.4
		C117.1,148.9,117,149.5,116.6,149.7z M118.2,147.7c-0.2,0-0.4-0.3-0.2-0.5c0.4-0.2,1-1.2,1.4-0.8c0.1,0.1,0.1,0.3,0,0.4
		C118.9,147,118.6,147.5,118.2,147.7z M120.2,146.1c-0.3,0-0.4-0.4-0.2-0.5c0.4-0.1,1.1-1,1.5-0.6c0.1,0.1,0,0.3-0.1,0.4
		C121,145.5,120.6,145.9,120.2,146.1z M122.4,144.7c-0.9-0.4,0.7-0.9,1.1-1.1c0.3-0.2,0.5,0.4,0.2,0.5
		C123.3,144.3,122.9,144.6,122.4,144.7z M124.8,143.7c-0.3,0-0.4-0.4-0.1-0.5c0.4-0.1,1.3-0.8,1.6-0.3
		C126.4,143.3,125.1,143.5,124.8,143.7z M127.3,142.7c-0.3,0-0.4-0.4-0.1-0.5c0.4,0,1.3-0.7,1.6-0.2
		C128.9,142.5,127.6,142.6,127.3,142.7z M129.7,142c-0.3,0-0.4-0.5-0.1-0.5c0.4,0,1.4-0.6,1.6-0.2
		C131.3,141.8,130.1,141.8,129.7,142z M132.3,141.3c-0.3,0-0.4-0.5-0.1-0.5c0.4,0,1.4-0.6,1.6-0.1
		C133.8,141.2,132.6,141.1,132.3,141.3z M134.8,140.7c-0.3,0-0.4-0.5-0.1-0.5c0,0,1.3-0.3,1.3-0.3c0.3-0.1,0.5,0.4,0.1,0.5
		C136.1,140.4,134.8,140.7,134.8,140.7C134.8,140.7,134.8,140.7,134.8,140.7z M137.3,140.1c-0.3,0-0.4-0.5-0.1-0.5
		c0.4,0,1.4-0.6,1.6-0.1C138.9,139.9,137.7,139.9,137.3,140.1z M139.8,139.5c-0.3,0-0.4-0.5-0.1-0.5c0.4,0,1.4-0.6,1.6-0.1
		C141.4,139.3,140.2,139.3,139.8,139.5z M142.4,138.9c-0.3,0-0.4-0.5-0.1-0.5c0.4,0,1.4-0.6,1.6-0.1
		C144,138.8,142.8,138.7,142.4,138.9z M144.9,138.3c-0.3,0-0.4-0.5-0.1-0.5c0.4,0,1.4-0.6,1.6-0.1
		C146.5,138.2,145.3,138.2,144.9,138.3z M147.5,137.8c-0.3,0-0.4-0.5-0.1-0.5c0.4,0,1.4-0.5,1.6,0
		C149.1,137.7,147.9,137.6,147.5,137.8z M150,137.3c-0.3,0-0.4-0.5-0.1-0.5c0.4,0,1.4-0.5,1.6,0C151.6,137.3,150.4,137.1,150,137.3z
		 M152.6,136.8c-0.1,0-0.2-0.1-0.3-0.2c0-0.5,1.1-0.4,1.5-0.5c0.3-0.1,0.4,0.5,0.1,0.5C153.5,136.7,153,136.8,152.6,136.8z
		 M155.2,136.4c-0.3,0-0.4-0.5,0-0.5c0.4,0,1.4-0.5,1.6,0C156.7,136.4,155.6,136.2,155.2,136.4z M157.7,135.9
		c-0.1,0-0.2-0.1-0.3-0.2c0-0.5,1.1-0.4,1.5-0.5c0.3-0.1,0.4,0.5,0.1,0.5C158.6,135.8,158.2,135.9,157.7,135.9z M160.3,135.5
		c-0.1,0-0.2-0.1-0.3-0.2c0-0.5,1.1-0.4,1.5-0.5c0.3-0.1,0.4,0.5,0.1,0.5C161.2,135.4,160.7,135.5,160.3,135.5z M162.9,135.1
		c-0.1,0-0.2-0.1-0.3-0.2c0-0.5,1.1-0.3,1.5-0.5c0.3-0.1,0.4,0.5,0.1,0.5C163.8,135,163.3,135.1,162.9,135.1z M165.5,134.8
		c-0.1,0-0.2-0.1-0.3-0.2c0-0.5,1.1-0.3,1.5-0.5c0.3-0.1,0.4,0.5,0.1,0.5C166.3,134.7,165.9,134.7,165.5,134.8z M168,134.4
		c-0.1,0-0.3-0.1-0.3-0.2c0-0.5,1.1-0.3,1.5-0.5c0.3-0.1,0.4,0.5,0.1,0.5C168.9,134.3,168.5,134.4,168,134.4z M170.6,134.1
		c-0.3,0-0.4-0.5,0-0.5c0.4,0,1.4-0.4,1.6,0.1C172.2,134.2,171,134,170.6,134.1z M173.2,133.8c-0.3,0-0.4-0.5,0-0.5
		c0.4,0,1.4-0.4,1.6,0.1C174.7,133.9,173.6,133.6,173.2,133.8z M175.8,133.5c-0.1,0-0.3-0.1-0.3-0.2c0-0.5,1.1-0.3,1.5-0.4
		c0.3,0,0.4,0.5,0.1,0.5C176.7,133.4,176.2,133.4,175.8,133.5z M178.4,133.2c-0.3,0-0.4-0.5,0-0.5c0.4,0.1,1.5-0.4,1.6,0.1
		C179.9,133.3,178.8,133,178.4,133.2z M181,132.9c-0.3,0-0.4-0.5,0-0.5c0.4,0.1,1.5-0.4,1.6,0.1C182.5,133,181.4,132.8,181,132.9z
		 M183.6,132.6c-0.3,0-0.4-0.5,0-0.5c0.4,0.1,1.5-0.4,1.6,0.1C185.1,132.8,184,132.5,183.6,132.6z M186.1,132.4
		c-0.3,0-0.4-0.5,0-0.5c0.4,0.1,1.5-0.4,1.6,0.1C187.7,132.5,186.5,132.3,186.1,132.4z M188.7,132.1c-0.3,0-0.4-0.5,0-0.5
		c0.4,0.1,1.5-0.4,1.6,0.1C190.3,132.3,189.1,132,188.7,132.1z M191.3,131.9c-0.3,0-0.4-0.5,0-0.5c0.4,0.1,1.5-0.4,1.6,0.1
		C192.9,132,191.7,131.8,191.3,131.9z M193.9,131.7c-0.3,0-0.4-0.5,0-0.5c0.4,0.1,1.5-0.4,1.6,0.1
		C195.4,131.8,194.3,131.5,193.9,131.7z M196.5,131.5c-0.3,0-0.4-0.5,0-0.5c0,0,1-0.1,1-0.1c0.2,0,0.6-0.1,0.6,0.2
		c0,0.3-0.4,0.3-0.6,0.3C197.5,131.4,196.5,131.5,196.5,131.5z M199.1,131.2c-0.1,0-0.3-0.1-0.3-0.2c0-0.5,1.1-0.3,1.5-0.5
		c0.3-0.1,0.4,0.5,0.1,0.5C200,131.1,199.5,131.2,199.1,131.2z M201.7,130.8c-0.3,0-0.4-0.5,0-0.5c0.4,0,1.4-0.5,1.6,0
		C203.2,130.8,202.1,130.7,201.7,130.8z M204.2,130.3c-0.3,0-0.4-0.5-0.1-0.5c0.4,0,1.4-0.6,1.6-0.1
		C205.8,130.2,204.6,130.2,204.2,130.3z M206.7,129.7c-0.3,0-0.4-0.5-0.1-0.5c0.4,0,1.3-0.7,1.6-0.2
		C208.3,129.5,207.1,129.5,206.7,129.7z M209.2,128.9c-0.3,0-0.4-0.4-0.1-0.5c0.4,0,1.3-0.8,1.6-0.3
		C210.8,128.6,209.6,128.7,209.2,128.9z M211.6,127.9c-0.9-0.4,0.8-0.8,1.1-1c0.3-0.2,0.5,0.4,0.2,0.5
		C212.5,127.6,212.1,127.8,211.6,127.9z M214,126.9c-0.3,0-0.4-0.4-0.1-0.5c0.4-0.1,1.2-0.9,1.5-0.5
		C215.6,126.3,214.3,126.7,214,126.9z M216.3,125.6c-0.3,0-0.4-0.4-0.1-0.5c0.4-0.1,1.1-1,1.5-0.6
		C217.9,125,216.6,125.5,216.3,125.6z M218.5,124.3c-0.3,0-0.4-0.4-0.1-0.5c0.4-0.1,1.1-1,1.4-0.7
		C220.1,123.5,218.8,124.1,218.5,124.3z M220.7,122.8c-0.3,0-0.4-0.3-0.2-0.5c0.4-0.2,1-1.1,1.4-0.7
		C222.2,121.9,220.9,122.7,220.7,122.8z M222.7,121.2c-0.2,0-0.4-0.3-0.2-0.5c0.4-0.2,0.9-1.1,1.4-0.8
		C224.3,120.1,222.9,121.1,222.7,121.2z M224.7,119.5c-0.2,0-0.4-0.3-0.2-0.5c0.4-0.2,0.9-1.2,1.3-0.9c0.1,0.1,0.1,0.3,0,0.4
		C225.4,118.8,225.1,119.3,224.7,119.5z M226.5,117.6c-0.2,0-0.4-0.3-0.2-0.5c0.4-0.2,0.8-1.2,1.3-1c0.1,0.1,0.1,0.3,0,0.4
		C227.2,116.9,227,117.5,226.5,117.6z M228.3,115.7c-0.2,0-0.4-0.3-0.2-0.4c0.4-0.2,0.7-1.3,1.2-1c0.1,0.1,0.1,0.3,0,0.4
		C229,115,228.7,115.5,228.3,115.7z M229.9,113.7c-0.2,0-0.4-0.3-0.2-0.4c0.3-0.3,0.7-1.3,1.2-1.1c0.1,0.1,0.1,0.3,0.1,0.4
		C230.6,112.9,230.4,113.5,229.9,113.7z M231.5,111.6c-0.2,0-0.4-0.3-0.2-0.4c0.3-0.3,0.6-1.3,1.1-1.1c0.1,0.1,0.2,0.3,0.1,0.4
		C232.1,110.8,232,111.5,231.5,111.6z M233,109.5c-0.7-0.2,0.3-1.1,0.5-1.5c0.2-0.3,0.7,0,0.5,0.3
		C233.6,108.6,233.4,109.3,233,109.5z M234.4,107.3c-0.7-0.2,0.3-1.1,0.4-1.5c0.2-0.3,0.6,0,0.5,0.3
		C234.9,106.4,234.8,107.1,234.4,107.3z M235.6,105c-0.7-0.2,0.3-1.1,0.4-1.5c0.2-0.3,0.6-0.1,0.5,0.2
		C236.2,104.1,236.1,104.8,235.6,105z M236.8,102.7c-0.7-0.1,0.2-1.2,0.3-1.6c0.1-0.3,0.6-0.1,0.5,0.2
		C237.3,101.7,237.3,102.5,236.8,102.7z M237.9,100.3c-0.7-0.1,0.2-1.2,0.3-1.6c0.1-0.3,0.6-0.1,0.5,0.2
		C238.4,99.3,238.4,100.1,237.9,100.3z M238.9,97.9c-0.7-0.1,0.2-1.2,0.2-1.6c0.1-0.3,0.6-0.1,0.5,0.2
		C239.4,96.9,239.4,97.7,238.9,97.9z M239.8,95.4c-0.6-0.1,0.1-1.2,0.1-1.6c0.1-0.3,0.6-0.2,0.5,0.2
		C240.2,94.4,240.3,95.3,239.8,95.4z M240.6,93c-0.2,0-0.3-0.2-0.3-0.3c0.2-0.8,0.3-1.3,0.3-1.3c0.1-0.3,0.6-0.2,0.5,0.1
		c0,0-0.1,0.5-0.3,1.3C240.8,92.9,240.7,93,240.6,93z"/>
</g>
<g>
	<path class="st1" d="M147.6,63.7h-42.5c-1.5,0-2.8,1.3-2.8,2.8c0.3,24.9-5.2,16.7,31,18.1l8.8,6.6c0.5,0.3,1.1,0,1.1-0.6v-6.1
		c2.4-0.1,7.1,0.9,7.1-2.8c0,0,0-15.3,0-15.3C150.4,65,149.1,63.7,147.6,63.7z"/>
	<g>
		<rect x="107.6" y="68.1" class="st0" width="20" height="2.6"/>
		<rect x="107.6" y="77.4" class="st0" width="20" height="2.6"/>
		<rect x="125.4" y="72.7" class="st0" width="20" height="2.6"/>
		<rect x="129" y="68.1" class="st0" width="7.5" height="2.6"/>
		<rect x="137.8" y="68.1" class="st0" width="7.5" height="2.6"/>
		<rect x="107.6" y="72.7" class="st0" width="7.5" height="2.6"/>
		<rect x="116.4" y="72.7" class="st0" width="7.5" height="2.6"/>
	</g>
</g>
<path class="st1" d="M89.5,214.3c0.2,1.9-0.7,5.8,1.4,6.8l0,0c1.5,1.2,172,0,173.6,0.4c0.9,0,1.7-0.3,2.3-0.9l0,0
	c1.4-1.1,0.9-3.9,1-5.5L89.5,214.3z"/>
<path class="st1" d="M229.6,195.8H127.8c-16.3,0-29.5-13.2-29.5-29.5v-38.2c0-16.3,13.2-29.5,29.5-29.5h101.9
	c16.3,0,29.5,13.2,29.5,29.5v38.2C259.1,182.6,245.9,195.8,229.6,195.8z"/>
<rect x="105.8" y="105.4" class="st1" width="145.7" height="83.6"/>
<path class="st1" d="M265,217.9H92.9c-2.7,0-4.2-3.1-2.5-5.2l13.6-17h149.5l14,16.9C269.1,214.8,267.7,217.9,265,217.9z"/>
<polygon class="st1" points="104,195.8 253.4,195.8 96.7,204.8 "/>
<polygon class="st1" points="251.5,105.4 111.5,111.4 105.8,186.4 105.8,105.4 "/>
<path class="st1" d="M153,175.7l-2.6,13.2H201c0,0,3.2-6.7,2.2-13.2H153z"/>
<path class="st1" d="M190,76.2c5.5,5.2,6.5,13.4,8.3,20.5c1.5,4.5,6.1,7.6,6.9,12.4c0.8,5.1-4.4,10-8.4,12.2
	c-5.7,2.8-16.5,2.3-23.1,2.2c-15.4-0.9-26.9-20.3-18.6-33.8c2.3-3.8,4-7.8,6.2-11.7c3-5.7,7.2-7.1,13.3-7.3
	C180.9,70,186.1,72.3,190,76.2z"/>
<g>
	<defs>
		<path id="XMLID_341_" d="M229.6,124.8c-1.3-0.3-37.7-17.1-37.8-16.1c0,0-23.8,1.2-23.8,1.2l0,0c-0.5,0-1.8,0.2-1.8,0.2
			c-0.6,0.1-33,4.4-33,4.4l1.1,24.1l22.1-0.9l-10.1,38c13,12.3,53.3,3,62.4,0l-7.2-38.7l15.9,7.9L229.6,124.8z"/>
	</defs>
	<use xlink:href="#XMLID_341_"  style="overflow:visible;fill:#FFFFFF;"/>
	<clipPath id="XMLID_00000109735395831777830580000004689490206376754607_">
		<use xlink:href="#XMLID_341_"  style="overflow:visible;"/>
	</clipPath>
	
		<path style="clip-path:url(#XMLID_00000109735395831777830580000004689490206376754607_);fill:#FFFFFF;stroke:#000000;stroke-width:0.5;stroke-linecap:round;stroke-linejoin:round;stroke-miterlimit:10;" d="
		M150.1,155.1c18.5,8.4,37.5,8.6,56.1-0.6l2.2,6.9c-23.4,10.3-35.9,9.5-60.4,1.5L150.1,155.1z"/>
	
		<path style="clip-path:url(#XMLID_00000109735395831777830580000004689490206376754607_);fill:#FFFFFF;stroke:#000000;stroke-width:0.5;stroke-linecap:round;stroke-linejoin:round;stroke-miterlimit:10;" d="
		M153.1,142.6c21.9,8.4,28,8.9,50.3,0.9l1.3,5.9c-22.8,8.3-31.7,10.4-52.7,0L153.1,142.6z"/>
	
		<use xlink:href="#XMLID_341_"  style="overflow:visible;fill:none;stroke:#000000;stroke-width:0.5;stroke-linecap:round;stroke-linejoin:round;stroke-miterlimit:10;"/>
</g>
<g>
	<defs>
		<path id="XMLID_50_" d="M162.9,89.2c3.3-31.3,33.9-11.1,20.5,11l2.4,12.2l-11.9,2.1l-0.7-9.3C167.4,104.1,162.9,97.4,162.9,89.2z"
			/>
	</defs>
	<use xlink:href="#XMLID_50_"  style="overflow:visible;fill:#FFFFFF;"/>
	<clipPath id="XMLID_00000073710078247853814080000005819329030264072849_">
		<use xlink:href="#XMLID_50_"  style="overflow:visible;"/>
	</clipPath>
	
		<path style="clip-path:url(#XMLID_00000073710078247853814080000005819329030264072849_);fill:#FFFFFF;stroke:#000000;stroke-width:0.5;stroke-linecap:round;stroke-linejoin:round;stroke-miterlimit:10;" d="
		M183.4,100.2c0,0-3,4-8.7,4.8c0,0,6.5,1.8,10.6-0.3L183.4,100.2"/>
	
		<path style="clip-path:url(#XMLID_00000073710078247853814080000005819329030264072849_);fill:#FFFFFF;stroke:#000000;stroke-width:0.5;stroke-linecap:round;stroke-linejoin:round;stroke-miterlimit:10;" d="
		M170.4,99.2c0,0,4-0.2,5.4-2.3c0,0,0,4.6-2.3,5C171.2,102.1,170.4,99.2,170.4,99.2z"/>
	
		<path style="clip-path:url(#XMLID_00000073710078247853814080000005819329030264072849_);fill:#FFFFFF;stroke:#000000;stroke-width:0.5;stroke-linecap:round;stroke-linejoin:round;stroke-miterlimit:10;" d="
		M162.5,92.3c4.9-1.9,12.9-2.7,13.7-11.1c0,0,2.8,6.8,10.4,8c7.6,1.3,0,0,0,0l-7.9-15.4l-8-0.2L161.2,84L162.5,92.3z"/>
	
		<use xlink:href="#XMLID_50_"  style="overflow:visible;fill:none;stroke:#000000;stroke-width:0.5;stroke-linecap:round;stroke-linejoin:round;stroke-miterlimit:10;"/>
</g>
<path class="st1" d="M168,109.8c3.8,12.1,20.7,9.5,23.6-1.1L168,109.8z"/>
<g>
	<defs>
		<path id="XMLID_49_" d="M133.4,118L91.7,96.7l-4.2,7.3l33.8,27.8c3.7,2.8,8.4,3.7,12.9,3.4L133.4,118z"/>
	</defs>
	<use xlink:href="#XMLID_49_"  style="overflow:visible;fill:#FFFFFF;"/>
	<clipPath id="XMLID_00000041996420967950521270000005711904756173966768_">
		<use xlink:href="#XMLID_49_"  style="overflow:visible;"/>
	</clipPath>
	
		<path style="clip-path:url(#XMLID_00000041996420967950521270000005711904756173966768_);fill:#FFFFFF;stroke:#000000;stroke-width:0.5;stroke-linecap:round;stroke-linejoin:round;stroke-miterlimit:10;" d="
		M133.3,116.6c0,0-6.7,17.4-6.5,19.9l10,0.2l-0.2-19.6L133.3,116.6"/>
	
		<use xlink:href="#XMLID_49_"  style="overflow:visible;fill:none;stroke:#000000;stroke-width:0.5;stroke-linecap:round;stroke-linejoin:round;stroke-miterlimit:10;"/>
</g>
<path class="st0" d="M91.8,77.4L79.3,87.8l-15.2-5.6C63,82.3,66.3,96.4,66.2,97c0.2,1,1.2,1.7,2.2,1.5l24.9-4.4
	c1-0.2,1.7-1.2,1.5-2.2C94.5,91.3,92.8,77.4,91.8,77.4z"/>
<path class="st0" d="M91.8,77.4c-0.4-0.3-1-0.5-1.5-0.4l-24.9,4.4c-0.5,0.1-0.9,0.4-1.2,0.8l15.2,5.6L91.8,77.4z"/>
<g>
	<defs>
		<path id="XMLID_48_" d="M92.9,97.4c0,0-4-9.3-4.6-9.6c-1.5-0.6-0.5,7.4-0.5,7.4s-12.2,2.1-12,2.1c0.2,0,11.7,6.7,11.7,6.7
			L92.9,97.4z"/>
	</defs>
	<use xlink:href="#XMLID_48_"  style="overflow:visible;fill:#FFFFFF;"/>
	<clipPath id="XMLID_00000173132127774611443610000016022053698406293157_">
		<use xlink:href="#XMLID_48_"  style="overflow:visible;"/>
	</clipPath>
	
		<path style="clip-path:url(#XMLID_00000173132127774611443610000016022053698406293157_);fill:#FFFFFF;stroke:#000000;stroke-width:0.5;stroke-linecap:round;stroke-linejoin:round;stroke-miterlimit:10;" d="
		M87.8,95.2c0,0-4.9,4.1-9.2,4.3L75,97.4L87.8,95.2"/>
	
		<use xlink:href="#XMLID_48_"  style="overflow:visible;fill:none;stroke:#000000;stroke-width:0.5;stroke-linecap:round;stroke-linejoin:round;stroke-miterlimit:10;"/>
</g>
<g>
	<defs>
		<path id="XMLID_47_" d="M227.1,129l43.5-15.6l0.8,8.5c-5.5,2.6-36.6,25-42.6,23.9c-3.5,0.3-7.1-1.1-10.3-2.4L227.1,129z"/>
	</defs>
	<use xlink:href="#XMLID_47_"  style="overflow:visible;fill:#FFFFFF;"/>
	<clipPath id="XMLID_00000044881946938877172320000013203108086527906700_">
		<use xlink:href="#XMLID_47_"  style="overflow:visible;"/>
	</clipPath>
	
		<path style="clip-path:url(#XMLID_00000044881946938877172320000013203108086527906700_);fill:#FFFFFF;stroke:#000000;stroke-width:0.5;stroke-linecap:round;stroke-linejoin:round;stroke-miterlimit:10;" d="
		M228,127.4c0,0-0.1,13.6-2.4,19l-9.4-2.8l5.3-14.8L228,127.4z"/>
	
		<use xlink:href="#XMLID_47_"  style="overflow:visible;fill:none;stroke:#000000;stroke-width:0.5;stroke-linecap:round;stroke-linejoin:round;stroke-miterlimit:10;"/>
</g>
<path class="st1" d="M289.8,127.2h-12c-4.3,0-7.7-3.5-7.7-7.7v-10c0-4.3,3.5-7.7,7.7-7.7h12c4.3,0,7.7,3.5,7.7,7.7v10
	C297.5,123.7,294.1,127.2,289.8,127.2z"/>
<path class="st0" d="M278.3,122.9c3.7,0.8,6.2-2.9,8.6-5c1.9-2,5.8-4.6,5.2-7.9c0-1.5-0.6-2.9-1.6-4c-1.6-2.1-3.2,0.8-4.4,1.8
	c-0.5,0.5-0.5,1.4,0,1.9l2.5,2.6c-1.9,1.8-5.6,5.4-7.4,7.2l-2.5-2.6c-0.5-0.5-1.4-0.5-1.9,0c-0.7,0.9-3.7,2.6-2.2,4
	C275.5,122,276.8,122.8,278.3,122.9z"/>
<path class="st1" d="M270,113.6c0,0,10.2,2.5,9.9,2.9c-0.3,0.5-1.1,1.2-2.3,1.4c-1.2,0.1-6.4,0.3-8.3,0.3L270,113.6z"/>
<path class="st1" d="M270,118.2c0,0-2.1,2.2-1.7,5.5l1.7-1L270,118.2z"/>
<path class="st1" d="M176.6,73.2c0,0-0.1,11.7-7.6,13.6l2.2-5.3c0,0-3.1,6-10,5.8C161.8,79.4,165.9,70.4,176.6,73.2z"/>
<path class="st1" d="M176.6,73.2c-1.1,6.9,5,12.9,10,16.1C191.5,81.1,185.1,74,176.6,73.2z"/>
<g>
	<path class="st1" d="M117.4,170.5c-0.4,20.9-31.4,20.9-31.7,0C86,149.7,117,149.7,117.4,170.5z"/>
	<path class="st0" d="M100.9,167.8l-2.7-3.1c-0.7-0.8-1.9-0.8-2.6-0.2l-1.5,1.3c-0.8,0.7-0.8,1.9-0.2,2.6l6.5,7.4
		c1.4,1.5,2.8,0.1,3.9-0.9c0,0,1.6-1.4,1.6-1.4l15.9-14.1c0.8-0.7,0.8-1.9,0.2-2.6c-1-1.2-2.3-3-4-1.6c0,0-14.5,12.8-14.5,12.8
		C102.8,168.6,101.6,168.6,100.9,167.8z"/>
</g>
<g>
	<path class="st1" d="M214.9,66.5h-2.8v-5.3c0-0.8,0.6-1.4,1.4-1.4s1.4,0.6,1.4,1.4V66.5z"/>
	<g>
		<path class="st1" d="M217,83c-0.1,4.6-6.9,4.6-7,0C210.1,78.4,216.9,78.4,217,83z"/>
		<g>
			<path class="st1" d="M221.2,79.5c0.1-6.3,1.1-14.8-7.6-15.2c-8.7,0.4-7.7,8.9-7.6,15.2c-2.1,0-1.9,2-1.9,3.5h19
				C223.1,81.4,223.3,79.5,221.2,79.5z"/>
			<path class="st11" d="M205.9,79.5h11.6c0,0-9.6-2.3-11.6-7.6V79.5z"/>
		</g>
	</g>
	<g>
		<path class="st1" d="M228.1,79.2c-0.1,5.7-8.5,5.7-8.6,0C219.6,73.6,228,73.6,228.1,79.2z"/>
		<path class="st1" d="M223.8,81.2c0.6-0.8,1.9,0.1,1.3,0.9C224.5,83,223.2,82.1,223.8,81.2z M222.4,76.4l2.1-0.4l0.5,4.3l-1.6,0.3
			L222.4,76.4z"/>
	</g>
</g>
<g>
	<path class="st1" d="M245.7,169.9h2.5v-4.5h-2.7c-0.3-1.2-0.9-2.3-1.6-3.3l2-2l-3.2-3.2l-2.2,2.2c-1-0.6-2.1-1-3.2-1.3v-3.1h-4.5
		v3.1c-1.1,0.2-2.2,0.7-3.2,1.3l-2.2-2.2l-3.2,3.2l2,2c-0.7,1-1.2,2.2-1.6,3.3h-2.7v4.5h2.5c0.2,1.3,0.7,2.6,1.4,3.8l-1.6,1.6
		l3.2,3.2l1.5-1.5c1.2,0.8,2.5,1.4,3.9,1.7v2.1h4.5v-2.1c1.4-0.3,2.7-0.9,3.9-1.7l1.5,1.5l3.2-3.2l-1.6-1.6
		C245,172.5,245.5,171.2,245.7,169.9z M235.1,175.8c-10-0.3-10-14.9,0-15.2C245.2,160.9,245.2,175.5,235.1,175.8z"/>
	<path class="st1" d="M221.7,161.4h0.9v-1.6h-1c-0.1-0.4-0.3-0.8-0.6-1.2l0.7-0.7l-1.1-1.1l-0.8,0.8c-0.4-0.2-0.7-0.4-1.1-0.5V156
		h-1.6v1.1c-0.4,0.1-0.8,0.2-1.1,0.5l-0.8-0.8l-1.1,1.1l0.7,0.7c-0.3,0.4-0.4,0.8-0.6,1.2h-1v1.6h0.9c0.1,0.5,0.2,0.9,0.5,1.3
		l-0.6,0.6l1.1,1.1l0.5-0.5c0.4,0.3,0.9,0.5,1.4,0.6v0.7h1.6v-0.7c0.5-0.1,1-0.3,1.4-0.6l0.5,0.5l1.1-1.1l-0.6-0.6
		C221.5,162.3,221.7,161.9,221.7,161.4z M218,163.5c-3.5-0.1-3.5-5.3,0-5.4C221.5,158.2,221.5,163.4,218,163.5z"/>
</g>
<g>
	<path class="st1" d="M191.4,204.6c-39.1-1.8-31.5,9.6-32.2-28c0-1.8,1.5-3.3,3.3-3.3c39.1,1.8,31.5-9.6,32.2,28
		C194.6,203.1,193.2,204.6,191.4,204.6z"/>
	<g>
		<path class="st0" d="M180.1,195c-16.4-0.7-15.1,3.6-15-10c0-1.1,0.9-2.1,2.1-2.1c16.4,0.7,15.1-3.6,15,10
			C182.2,194.1,181.3,195,180.1,195z"/>
		<polygon class="st0" points="188.7,192.9 183.3,191.6 183.3,186.2 188.7,185 		"/>
	</g>
</g>
</svg>
