<?xml version="1.0" encoding="utf-8"?>
<!-- Generator: Adobe Illustrator 27.3.1, SVG Export Plug-In . SVG Version: 6.00 Build 0)  -->
<svg version="1.1" id="Layer_1" xmlns="http://www.w3.org/2000/svg" xmlns:xlink="http://www.w3.org/1999/xlink" x="0px" y="0px"
	 viewBox="0 0 350 260" style="enable-background:new 0 0 350 260;" xml:space="preserve">
<style type="text/css">
	.st0{fill:#FFFFFF;stroke:#000000;stroke-width:0.5;stroke-miterlimit:10;}
	.st1{fill:#FFFFFF;stroke:#000000;stroke-width:0.5;stroke-linecap:round;stroke-linejoin:round;stroke-miterlimit:10;}
	.st2{fill:#E75653;stroke:#1A1A1A;stroke-width:0.5;stroke-linecap:round;stroke-linejoin:round;}
	.st3{fill:none;stroke:#000000;stroke-width:0.5;stroke-miterlimit:10;}
	.st4{fill:#F9F7F7;stroke:#000000;stroke-width:0.5;stroke-miterlimit:10;}
	.st5{fill:none;stroke:#000000;stroke-width:0.5;stroke-miterlimit:10.0001;}
	.st6{fill:none;stroke:#000000;stroke-width:0.5;stroke-miterlimit:9.9999;}
	.st7{fill:#E75653;stroke:#1A1A1A;stroke-width:0.5;stroke-linecap:round;stroke-linejoin:round;stroke-miterlimit:4.0001;}
	.st8{fill:none;stroke:#FFFFFF;stroke-width:0.5;stroke-miterlimit:10;}
	.st9{fill:none;stroke:#000000;stroke-width:0.5;stroke-miterlimit:10.0002;}
	.st10{fill:none;stroke:#000000;stroke-width:0.5;stroke-linecap:round;stroke-linejoin:round;stroke-miterlimit:10;}
</style>
<g>
	<path class="st0" d="M302,103.9h-26.7c-7.5,0-13.7-6.1-13.7-13.7v-4c0-7.5,6.1-13.7,13.7-13.7H302c7.5,0,13.7,6.1,13.7,13.7v4
		C315.7,97.8,309.6,103.9,302,103.9z"/>
	<path class="st1" d="M277.3,75v129c0,2.3-1.6,4.1-3.6,4.1H87.5c-2,0-3.6-1.8-3.6-4.1V75c0-2.3,1.6-4.1,3.6-4.1h186.1
		C275.7,70.9,277.3,72.8,277.3,75z"/>
	<path class="st2" d="M282.6,82.1v12.4c0,0.8,0.9,1.2,1.5,0.8l9.4-6.2c0.6-0.4,0.6-1.2,0-1.6l-9.4-6.2
		C283.4,80.8,282.6,81.3,282.6,82.1z"/>
	<g>
		<rect x="145.6" y="154.7" class="st0" width="28" height="41.7"/>
		<rect x="150.5" y="158.5" class="st2" width="12" height="36"/>
	</g>
	<path class="st2" d="M268.1,67.6v10.5H60.4V67.6c0-2.2,1.8-3.9,3.9-3.9h199.9C266.3,63.7,268.1,65.5,268.1,67.6z"/>
	<path class="st0" d="M66.7,70.9c0-1,0.8-1.8,1.8-1.8s1.8,0.8,1.8,1.8s-0.8,1.8-1.8,1.8C67.5,72.7,66.7,71.9,66.7,70.9z"/>
	<path class="st0" d="M73.9,70.9c0-1,0.8-1.8,1.8-1.8s1.8,0.8,1.8,1.8s-0.8,1.8-1.8,1.8C74.7,72.7,73.9,71.9,73.9,70.9z"/>
	<path class="st0" d="M81.2,70.9c0-1,0.8-1.8,1.8-1.8s1.8,0.8,1.8,1.8S84,72.7,83,72.7C82.1,72.7,81.2,71.9,81.2,70.9z"/>
	<path class="st3" d="M109.5,81.9c-0.2,0.3-0.3,0.5-0.1,0.8l0,0c0.2,0.6,0.9,1.2,1.7,1.8c0.1,0.1,0.2,0.2,0.3,0.2c0,0,0,0,0.1,0.1
		l0,0c0.7,0.7,0.5,0.8,1.8,2.2c1.5,1.6,2.5,1.6,2.8,1.4c0.2-0.1-0.3-0.9-0.8-1.9l-0.1-0.1c-0.1-0.1-0.1-0.2-0.2-0.4
		c-0.7-1.1-0.5-1.6-0.3-3.3c0.1-1.4,2.1-7.5,2.1-7.5l-2.9-0.5c0,0-0.9,4.9-1.8,5.7c-0.5,0.4-1.1,0.4-1.6,0.7c0,0-0.1,0-0.1,0.1
		C110,81.5,109.7,81.6,109.5,81.9z"/>
	<path class="st3" d="M109.5,81.9c-0.2,0.3-0.3,0.5-0.1,0.8l0,0c0.3,0.6,0.9,1.2,1.7,1.8c0.1,0.1,0.2,0.2,0.3,0.2c0,0,0,0,0.1,0.1
		l0,0c0.7,0.7,0.5,0.8,1.8,2.2c1.5,1.6,2.5,1.6,2.8,1.4c0.2-0.1-0.3-0.9-0.8-1.9c-0.3-0.1-1.6-0.7-2.7-2c-0.9-1.2-1.5-2.6-2.1-3.5
		c0,0-0.1,0-0.1,0.1C110,81.5,109.7,81.6,109.5,81.9z"/>
	<path class="st0" d="M132.6,80.1c0.2,0.9,1.4,0.7,2.8,0.4c1.4-0.3,1.1,0.1,3.1-0.2c2-0.2,2.6-1,2.7-1.3c0.1-0.3-0.9-0.4-2-0.5
		c-0.1,0-0.3,0-0.4,0c-1.2-0.2-2.1-0.9-3.2-1.6c-1-0.6-2.6-3.1-2.6-3.1l-2.8,0.2c0,0,1.4,2.2,2,3.1c0.3,0.6,0.3,1.3,0.3,1.9
		C132.6,79.5,132.5,79.8,132.6,80.1z"/>
	<path class="st3" d="M135.4,80.5c1.4-0.3,1.1,0.1,3.1-0.2c2-0.2,2.6-1,2.7-1.3c0.1-0.3-0.9-0.4-2-0.5l0,0c0,0-1.2,0.9-2.9,0.9
		c-1.4,0-2.8-0.4-3.7-0.3c0,0.3,0,0.6,0,0.9C132.8,81,134,80.8,135.4,80.5z"/>
	<path class="st0" d="M122.1,62.5l-2.6,6.9l-3.4,9c0,0-0.9,0.1-1.8-0.2c-0.8-0.2-1.7-0.8-1.7-0.8s0.9-9.7,2.7-15.3
		c0.4-1.4,0.9-2.6,1.5-3.2C119.5,55.8,122.1,62.5,122.1,62.5z"/>
	<path class="st0" d="M119.4,51.5c-1.7-0.5-6.5,0.2-11.3,1.1l-1-1.7l-10.4-0.8c0,0-3.4,7.6-1.6,12.5c0.3,0.7,0.8,1.2,1.8,1.2h0.2
		c0,0,6.2,0,8.2,0c5.2,0,11-3.6,11.7-3.7c1.2-0.2,1.7,2.2,2.9,4.8c1.2,2.6,11.5,11.4,11.5,11.4s1.6,0,2.2-0.2c0.7-0.3,1-0.6,1-0.6
		S123.2,52.7,119.4,51.5z"/>
	<path class="st3" d="M104.2,33.7c0.1,0.4-1.6,1-3,0.8c-1.2-0.2-2.6-1.7-2.4-1.8c0.5-0.2,0.8-0.8,0.5-3.8h0.2l4,0.5
		c0,0,0,1.2,0.1,2.4C103.9,32.7,104.1,33.1,104.2,33.7z"/>
	<path class="st4" d="M104.5,30.4c0,0-5.2,0.5-5.5-2.7s-1.1-5.4,2.2-5.8c3.3-0.5,4,0.7,4.4,1.8C106,24.7,105.9,30.1,104.5,30.4z"/>
	<path class="st4" d="M104,21.3c0,0-0.7,4-3.6,4.9c-2.2,0.7-3.1,0.2-3.1,0.2s1-1.4,1.4-3.3c0.1-0.6,0.5-1,1.1-1.2
		C101.2,21.4,103.1,20.1,104,21.3z"/>
	<path class="st4" d="M103,22.2c0,0,1,0.2,1.8,1.5c0.5,0.7,1,2.4,0.9,3.2c0,0,0.9-3.7-0.4-5C103.9,20.4,103,22.2,103,22.2z"/>
	<path class="st0" d="M94.9,44.3c0.1,0.4,0.2,0.8,0.2,1.1c0.1,0.5,0.2,1,0.2,1.4c0.2,1.3,0.1,2,0.2,2.9c0.1,0.5,0.2,0.9,0.4,1.6
		c0.2,0.6,5.9,1.1,9.1,0.9c1-0.1,1.8-0.2,2.1-0.4c1.1-1,1,1.2,1.2-9.3c0.1-5.1-4.3-9.6-4.3-9.6s-0.4,2.2-4.7-0.4
		c-0.2-0.1-1.9,2.5-3.5,5.6C93.9,41.5,94.4,42.2,94.9,44.3z"/>
	<path class="st3" d="M103.3,28.5c0,0,0.2,0.5,0.8,0.5c0.6,0,0.7-0.1,0.8-0.2c0.1-0.1,0.2-0.4,0.2-0.4S104.2,28.2,103.3,28.5z"/>
	<path class="st0" d="M116.2,34.1l-0.3-0.9c-0.4-0.9-1.3-1.5-2.2-1.5h-6.3v4v17.2h26.2V35.7h-14.8C117.6,35.7,116.6,35.1,116.2,34.1
		z"/>
	<path class="st2" d="M111.2,44.6v-1.5l5.4-2.3v1.6l-3.7,1.5l3.7,1.5V47L111.2,44.6z"/>
	<path class="st2" d="M122.2,38.9h1.4l-4.9,10.3h-1.4L122.2,38.9z"/>
	<path class="st2" d="M129.5,43.1v1.5l-5.4,2.3v-1.6l3.7-1.5l-3.7-1.5v-1.6L129.5,43.1z"/>
	<path class="st3" d="M105.1,44.7l0.5-0.7c0,0,0.4-0.1,0.9-0.5c0.6-0.4,0.5-1.1,0.8-1v1.4l0,0c1.3,0.3,2.8,0,2.9,0.3
		c0.1,0.9-0.6,1.3-1.2,1.6c-0.4,0.2-0.9,0.5-1.7,0.3c-0.6-0.2-1.5-0.4-1.5-0.4L105.1,44.7z"/>
	<path class="st0" d="M99.2,32.4c0,0-4.1,0.3-5.2,1.9c-1,1.6-2.3,9.8-1.8,12.6s13.8-0.5,13.8-0.5l-0.4-2.4c0,0-7.6,0-8.1-0.9
		C97,41.6,99.2,32.4,99.2,32.4z"/>
	<path class="st3" d="M119.2,35.7c0,0.1,0.6,1.2,1.6,1c0.6-0.1,1.3-1.4,0.7-1.7C120.3,34.6,119.3,35.4,119.2,35.7z"/>
	
		<rect x="150.8" y="78" transform="matrix(0.4709 -0.8822 0.8822 0.4709 19.5064 188.7491)" class="st5" width="32.6" height="0.2"/>
	
		<rect x="222.2" y="60.4" transform="matrix(0.7334 -0.6798 0.6798 0.7334 9.5975 170.6299)" class="st3" width="0.2" height="25.4"/>
	<path class="st3" d="M241.6,87.8c0.3,1.9-0.3,3.7-1.3,5.1s-2.6,2.4-4.4,2.6l-77,10.5c-3.9,0.5-7.6-2.1-8.1-5.8
		c-0.3-1.9,0.3-3.7,1.4-5.1c1.1-1.4,2.8-2.4,4.8-2.7l77.1-10.6C237.7,81.4,241.1,84,241.6,87.8z"/>
	<path class="st3" d="M241.6,87.8c0.3,1.9-0.3,3.7-1.3,5.1s-2.6,2.4-4.4,2.6L222,97.4l-1.9-13.5L234,82
		C237.7,81.4,241.1,84,241.6,87.8z"/>
	<path class="st3" d="M233.1,91.4c-0.2,0-0.3,0-0.5,0c-0.9,0-1.8-0.4-2.5-1c-1.3-1.4-1.3-3.6,0.1-4.9l0,0c1.4-1.3,3.6-1.3,4.9,0.1
		c1.3,1.4,1.3,3.6-0.1,4.9C234.6,91,233.9,91.3,233.1,91.4z M230.6,85.9c-1.1,1.1-1.2,3,0,4.1c0.5,0.6,1.3,0.9,2,0.9
		c0.8,0,1.5-0.3,2.1-0.8c1.1-1.1,1.2-3,0-4.1C233.6,84.8,231.8,84.8,230.6,85.9L230.6,85.9z"/>
	
		<rect x="226.3" y="91.6" transform="matrix(0.7152 -0.6989 0.6989 0.7152 0.8917 186.0035)" class="st6" width="4.8" height="0.6"/>
	<path class="st3" d="M225.8,94.7L225.8,94.7c-0.2-0.2-0.2-0.5,0-0.7l2-2c0.2-0.2,0.5-0.2,0.7,0l0,0c0.2,0.2,0.2,0.5,0,0.7l-2,2
		C226.3,94.9,226,94.9,225.8,94.7z"/>
	<path class="st3" d="M112.1,161.4H96.3c-0.4,0-0.7-0.3-0.7-0.7l0,0c0-0.4,0.3-0.7,0.7-0.7h15.8c0.4,0,0.7,0.3,0.7,0.7l0,0
		C112.8,161,112.5,161.4,112.1,161.4z"/>
	<path class="st3" d="M104,166.4h-8c-0.3,0-0.5-0.2-0.5-0.5l0,0c0-0.3,0.2-0.5,0.5-0.5h7.9c0.3,0,0.5,0.2,0.5,0.5l0,0
		C104.5,166.2,104.2,166.4,104,166.4z"/>
	<path class="st3" d="M110,164.3H96c-0.3,0-0.5-0.2-0.5-0.5l0,0c0-0.3,0.2-0.5,0.5-0.5h14c0.3,0,0.5,0.2,0.5,0.5l0,0
		C110.5,164.1,110.3,164.3,110,164.3z"/>
	<path class="st3" d="M125.4,164.3h-13c-0.3,0-0.5-0.2-0.5-0.5l0,0c0-0.3,0.2-0.5,0.5-0.5h13c0.3,0,0.5,0.2,0.5,0.5l0,0
		C125.9,164.1,125.7,164.3,125.4,164.3z"/>
	<path class="st3" d="M113.9,166.4H106c-0.3,0-0.5-0.2-0.5-0.5l0,0c0-0.3,0.2-0.5,0.5-0.5h7.9c0.3,0,0.5,0.2,0.5,0.5l0,0
		C114.4,166.2,114.1,166.4,113.9,166.4z"/>
	<path class="st3" d="M131.7,161.4h-15.8c-0.4,0-0.7-0.3-0.7-0.7l0,0c0-0.4,0.3-0.7,0.7-0.7h15.8c0.4,0,0.7,0.3,0.7,0.7l0,0
		C132.4,161,132.1,161.4,131.7,161.4z"/>
	<path class="st3" d="M112.1,172.4H96.3c-0.4,0-0.7-0.3-0.7-0.7l0,0c0-0.4,0.3-0.7,0.7-0.7h15.8c0.4,0,0.7,0.3,0.7,0.7l0,0
		C112.8,172.1,112.5,172.4,112.1,172.4z"/>
	<path class="st3" d="M104,177.5h-8c-0.3,0-0.5-0.2-0.5-0.5l0,0c0-0.3,0.2-0.5,0.5-0.5h7.9c0.3,0,0.5,0.2,0.5,0.5l0,0
		C104.5,177.2,104.2,177.5,104,177.5z"/>
	<path class="st3" d="M110,175.4H96c-0.3,0-0.5-0.2-0.5-0.5l0,0c0-0.3,0.2-0.5,0.5-0.5h14c0.3,0,0.5,0.2,0.5,0.5l0,0
		C110.5,175.1,110.3,175.4,110,175.4z"/>
	<path class="st3" d="M125.4,175.4h-13c-0.3,0-0.5-0.2-0.5-0.5l0,0c0-0.3,0.2-0.5,0.5-0.5h13c0.3,0,0.5,0.2,0.5,0.5l0,0
		C125.9,175.1,125.7,175.4,125.4,175.4z"/>
	<path class="st3" d="M113.9,177.5H106c-0.3,0-0.5-0.2-0.5-0.5l0,0c0-0.3,0.2-0.5,0.5-0.5h7.9c0.3,0,0.5,0.2,0.5,0.5l0,0
		C114.4,177.2,114.1,177.5,113.9,177.5z"/>
	<path class="st3" d="M131.7,172.4h-15.8c-0.4,0-0.7-0.3-0.7-0.7l0,0c0-0.4,0.3-0.7,0.7-0.7h15.8c0.4,0,0.7,0.3,0.7,0.7l0,0
		C132.4,172.1,132.1,172.4,131.7,172.4z"/>
	<rect x="187.6" y="105" transform="matrix(0.797 -0.604 0.604 0.797 -28.1073 136.1112)" class="st7" width="1.7" height="9.7"/>
	<path class="st3" d="M180,144.2h-2.8c-6.4,0-11.6-5.2-11.6-11.6v-2.8c0-6.4,5.2-11.6,11.6-11.6h2.8c6.4,0,11.6,5.2,11.6,11.6v2.8
		C191.5,139,186.4,144.2,180,144.2z"/>
	<path class="st2" d="M168.9,138.7l5-9.1c0.6-1.1,2.1-1.2,2.8-0.2l2.9,4c0.6,0.8,1.9,0.9,2.6,0.1l0,0c0.7-0.8,2-0.7,2.6,0.2l3.1,4.8
		c0.7,1.1-0.1,2.6-1.4,2.6h-16.2C169.1,141.2,168.3,139.9,168.9,138.7z"/>
	<path class="st2" d="M178.9,125.4c0-1.1,0.9-2,2-2s2,0.9,2,2s-0.9,2-2,2C179.8,127.4,178.9,126.5,178.9,125.4z"/>
	<path class="st3" d="M223.1,144.9l-22.4,3.1c-0.9,0.1-1.7-0.5-1.9-1.4l-3.1-22.4c-0.1-0.9,0.5-1.7,1.4-1.9l22.4-3.1
		c0.9-0.1,1.7,0.5,1.9,1.4l3.1,22.4C224.6,143.9,224,144.7,223.1,144.9z"/>
	<path class="st2" d="M201.6,142.3l3.8-9.7c0.4-1.1,1.9-1.4,2.7-0.6l3.4,3.5c0.7,0.8,2,0.7,2.6-0.2l0,0c0.6-0.9,1.9-1,2.6-0.1
		l3.8,4.4c0.9,1,0.3,2.5-1,2.7l-16,2.2C202.1,144.7,201.1,143.5,201.6,142.3z"/>
	<path class="st2" d="M209.6,127.8c-0.1-1.1,0.6-2.1,1.7-2.2c1.1-0.1,2.1,0.6,2.2,1.7c0.1,1.1-0.6,2.1-1.7,2.2
		S209.8,128.9,209.6,127.8z"/>
	<rect x="144.1" y="225" class="st3" width="13.1" height="11.2"/>
	<rect x="143.6" y="224.5" class="st3" width="14" height="0.9"/>
	<rect x="144.1" y="228" class="st3" width="13.1" height="3.6"/>
	<path class="st3" d="M173.1,236.2h-12.3c-0.5,0-0.8-0.4-0.8-0.8V234c0-0.5,0.4-0.9,0.9-0.8l12.3,1.4c0.4,0,0.7,0.4,0.7,0.8l0,0
		C173.9,235.8,173.5,236.2,173.1,236.2z"/>
	<path class="st8" d="M345.6,237.3L2.2,237.2c-0.2,0-0.4-0.2-0.4-0.4v-0.2c0-0.2,0.2-0.4,0.4-0.4l343.4,0.1c0.2,0,0.4,0.2,0.4,0.4
		v0.2C346,237.1,345.8,237.3,345.6,237.3z"/>
	<path class="st0" d="M151.5,145.2h-1.4c-0.1,0-0.2-0.1-0.2-0.2c0-0.1,0.1-0.2,0.2-0.2h1.4c0.1,0,0.2,0.1,0.2,0.2
		C151.8,145.1,151.7,145.2,151.5,145.2z M148.7,145.2h-1.4c-0.1,0-0.2-0.1-0.2-0.2c0-0.1,0.1-0.2,0.2-0.2h1.4c0.1,0,0.2,0.1,0.2,0.2
		C148.9,145.1,148.8,145.2,148.7,145.2z M145.9,145.2h-1.4c-0.1,0-0.2-0.1-0.2-0.2c0-0.1,0.1-0.2,0.2-0.2h1.4c0.1,0,0.2,0.1,0.2,0.2
		C146.1,145.1,146,145.2,145.9,145.2z M143,145.2h-1.4c-0.1,0-0.2-0.1-0.2-0.2c0-0.1,0.1-0.2,0.2-0.2h1.4c0.1,0,0.2,0.1,0.2,0.2
		C143.3,145.1,143.2,145.2,143,145.2z M140.2,145.2h-1.4c-0.1,0-0.2-0.1-0.2-0.2c0-0.1,0.1-0.2,0.2-0.2h1.4c0.1,0,0.2,0.1,0.2,0.2
		C140.5,145.1,140.4,145.2,140.2,145.2z M137.4,145.2H136c-0.1,0-0.2-0.1-0.2-0.2c0-0.1,0.1-0.2,0.2-0.2h1.4c0.1,0,0.2,0.1,0.2,0.2
		C137.6,145.1,137.5,145.2,137.4,145.2z M134.6,145.2h-1.4c-0.1,0-0.2-0.1-0.2-0.2c0-0.1,0.1-0.2,0.2-0.2h1.4c0.1,0,0.2,0.1,0.2,0.2
		C134.8,145.1,134.7,145.2,134.6,145.2z M131.8,145.2h-1.4c-0.1,0-0.2-0.1-0.2-0.2c0-0.1,0.1-0.2,0.2-0.2h1.4c0.1,0,0.2,0.1,0.2,0.2
		C132,145.1,131.9,145.2,131.8,145.2z M128.9,145.2h-1.4c-0.1,0-0.2-0.1-0.2-0.2c0-0.1,0.1-0.2,0.2-0.2h1.4c0.1,0,0.2,0.1,0.2,0.2
		C129.2,145.1,129.1,145.2,128.9,145.2z M126.1,145.2h-1.4c-0.1,0-0.2-0.1-0.2-0.2c0-0.1,0.1-0.2,0.2-0.2h1.4c0.1,0,0.2,0.1,0.2,0.2
		C126.3,145.1,126.2,145.2,126.1,145.2z M123.3,145.2h-1.4c-0.1,0-0.2-0.1-0.2-0.2c0-0.1,0.1-0.2,0.2-0.2h1.4c0.1,0,0.2,0.1,0.2,0.2
		C123.5,145.1,123.4,145.2,123.3,145.2z M120.5,145.2H119c-0.1,0-0.2-0.1-0.2-0.2c0-0.1,0.1-0.2,0.2-0.2h1.4c0.1,0,0.2,0.1,0.2,0.2
		C120.7,145.1,120.6,145.2,120.5,145.2z M117.6,145.2h-1.4c-0.1,0-0.2-0.1-0.2-0.2c0-0.1,0.1-0.2,0.2-0.2h1.4c0.1,0,0.2,0.1,0.2,0.2
		C117.9,145.1,117.8,145.2,117.6,145.2z M114.8,145.2h-1.4c-0.1,0-0.2-0.1-0.2-0.2c0-0.1,0.1-0.2,0.2-0.2h1.4c0.1,0,0.2,0.1,0.2,0.2
		C115,145.1,114.9,145.2,114.8,145.2z M112,145.2h-1.4c-0.1,0-0.2-0.1-0.2-0.2c0-0.1,0.1-0.2,0.2-0.2h1.4c0.1,0,0.2,0.1,0.2,0.2
		C112.2,145.1,112.1,145.2,112,145.2z M109.2,145.2h-1.4c-0.1,0-0.2-0.1-0.2-0.2c0-0.1,0.1-0.2,0.2-0.2h1.4c0.1,0,0.2,0.1,0.2,0.2
		C109.4,145.1,109.3,145.2,109.2,145.2z M106.3,145.2h-1.4c-0.1,0-0.2-0.1-0.2-0.2c0-0.1,0.1-0.2,0.2-0.2h1.4c0.1,0,0.2,0.1,0.2,0.2
		C106.6,145.1,106.5,145.2,106.3,145.2z M103.5,145.2h-1.3c-0.1,0-0.1,0-0.2,0s-0.2-0.1-0.2-0.2c0-0.1,0.1-0.2,0.2-0.2h0.1h1.3
		c0.1,0,0.2,0.1,0.2,0.2C103.7,145.1,103.6,145.2,103.5,145.2z M152.9,144.8c-0.1,0-0.1,0-0.2-0.1c-0.1-0.1,0-0.3,0.1-0.3
		c0.4-0.2,0.6-0.6,0.8-1c0-0.1,0.2-0.2,0.3-0.1c0.1,0,0.2,0.2,0.1,0.3c-0.2,0.5-0.5,0.9-1,1.2C152.9,144.8,152.9,144.8,152.9,144.8z
		 M100.8,144.7L100.8,144.7c-0.5-0.3-0.8-0.7-1-1.2c0-0.1,0-0.3,0.1-0.3s0.3,0,0.3,0.1c0.1,0.4,0.4,0.8,0.7,1
		C101,144.4,101,144.5,100.8,144.7C100.9,144.7,100.9,144.7,100.8,144.7z M153.9,142.3c-0.1,0-0.2-0.1-0.2-0.2v-1.4
		c0-0.1,0.1-0.2,0.2-0.2s0.2,0.1,0.2,0.2v1.4C154.1,142.2,154,142.3,153.9,142.3z M99.9,142.2c-0.1,0-0.2-0.1-0.2-0.2v-1.4
		c0-0.1,0.1-0.2,0.2-0.2s0.2,0.1,0.2,0.2v1.4C100.1,142.1,100,142.2,99.9,142.2z M153.9,139.5c-0.1,0-0.2-0.1-0.2-0.2v-1.4
		c0-0.1,0.1-0.2,0.2-0.2s0.2,0.1,0.2,0.2v1.4C154.1,139.4,154,139.5,153.9,139.5z M99.9,139.3c-0.1,0-0.2-0.1-0.2-0.2v-1.4
		c0-0.1,0.1-0.2,0.2-0.2s0.2,0.1,0.2,0.2v1.4C100.1,139.2,100,139.3,99.9,139.3z M153.9,136.7c-0.1,0-0.2-0.1-0.2-0.2V135
		c0-0.1,0.1-0.2,0.2-0.2s0.2,0.1,0.2,0.2v1.4C154.1,136.6,154,136.7,153.9,136.7z M99.9,136.5c-0.1,0-0.2-0.1-0.2-0.2v-1.4
		c0-0.1,0.1-0.2,0.2-0.2s0.2,0.1,0.2,0.2v1.4C100.1,136.4,100,136.5,99.9,136.5z M153.9,133.8c-0.1,0-0.2-0.1-0.2-0.2v-1.4
		c0-0.1,0.1-0.2,0.2-0.2s0.2,0.1,0.2,0.2v1.4C154.1,133.7,154,133.8,153.9,133.8z M99.9,133.7c-0.1,0-0.2-0.1-0.2-0.2V132
		c0-0.1,0.1-0.2,0.2-0.2s0.2,0.1,0.2,0.2v1.4C100.1,133.6,100,133.7,99.9,133.7z M153.9,131c-0.1,0-0.2-0.1-0.2-0.2v-1.4
		c0-0.1,0.1-0.2,0.2-0.2s0.2,0.1,0.2,0.2v1.4C154.1,130.9,154,131,153.9,131z M99.9,130.9c-0.1,0-0.2-0.1-0.2-0.2v-1.4
		c0-0.1,0.1-0.2,0.2-0.2s0.2,0.1,0.2,0.2v1.4C100.1,130.8,100,130.9,99.9,130.9z M153.9,128.2c-0.1,0-0.2-0.1-0.2-0.2v-1.4
		c0-0.1,0.1-0.2,0.2-0.2s0.2,0.1,0.2,0.2v1.4C154.1,128.1,154,128.2,153.9,128.2z M99.9,128c-0.1,0-0.2-0.1-0.2-0.2v-1.4
		c0-0.1,0.1-0.2,0.2-0.2s0.2,0.1,0.2,0.2v1.4C100.1,127.9,100,128,99.9,128z M153.9,125.4c-0.1,0-0.2-0.1-0.2-0.2v-1.4
		c0-0.1,0.1-0.2,0.2-0.2s0.2,0.1,0.2,0.2v1.4C154.1,125.3,154,125.4,153.9,125.4z M99.9,125.2c-0.1,0-0.2-0.1-0.2-0.2v-1.4
		c0-0.1,0.1-0.2,0.2-0.2s0.2,0.1,0.2,0.2v1.4C100.1,125.1,100,125.2,99.9,125.2z M153.9,122.5c-0.1,0-0.2-0.1-0.2-0.2v-1.4
		c0-0.1,0.1-0.2,0.2-0.2s0.2,0.1,0.2,0.2v1.4C154.1,122.4,154,122.5,153.9,122.5z M99.9,122.4c-0.1,0-0.2-0.1-0.2-0.2v-1.4
		c0-0.1,0.1-0.2,0.2-0.2s0.2,0.1,0.2,0.2v1.4C100.1,122.3,100,122.4,99.9,122.4z M153.9,119.7c-0.1,0-0.2-0.1-0.2-0.2v-1.4
		c0-0.1,0.1-0.2,0.2-0.2s0.2,0.1,0.2,0.2v1.4C154.1,119.6,154,119.7,153.9,119.7z M99.9,119.6c-0.1,0-0.2-0.1-0.2-0.2V118
		c0-0.1,0.1-0.2,0.2-0.2s0.2,0.1,0.2,0.2v1.4C100.1,119.5,100,119.6,99.9,119.6z M153.9,116.9c-0.1,0-0.2-0.1-0.2-0.2V116
		c0-0.2,0-0.5-0.1-0.7c0-0.1,0-0.3,0.1-0.3s0.3,0,0.3,0.1c0.1,0.3,0.1,0.5,0.1,0.8v0.6C154.1,116.8,154,116.9,153.9,116.9z
		 M99.9,116.7c-0.1,0-0.2-0.1-0.2-0.2V116c0-0.3,0.1-0.7,0.2-1c0-0.1,0.2-0.2,0.3-0.1c0.1,0,0.2,0.2,0.1,0.3
		c-0.1,0.3-0.2,0.5-0.2,0.8v0.5C100.1,116.6,100,116.7,99.9,116.7z M153,114.4h-0.1c-0.3-0.3-0.7-0.4-1.2-0.4
		c-0.1,0-0.2-0.1-0.2-0.2s0.1-0.2,0.2-0.2c0.5,0,1,0.2,1.4,0.5C153.2,114.2,153.2,114.3,153,114.4C153.1,114.3,153,114.4,153,114.4z
		 M100.9,114.3c-0.1,0-0.1,0-0.2-0.1s0-0.3,0.1-0.3c0.4-0.3,0.9-0.4,1.5-0.4l0,0c0.1,0,0.2,0.1,0.2,0.2s-0.1,0.2-0.2,0.2
		c-0.4,0-0.8,0.1-1.2,0.4C101,114.3,101,114.3,100.9,114.3z M150.3,113.9h-1.4c-0.1,0-0.2-0.1-0.2-0.2s0.1-0.2,0.2-0.2h1.4
		c0.1,0,0.2,0.1,0.2,0.2S150.4,113.9,150.3,113.9z M147.4,113.9H146c-0.1,0-0.2-0.1-0.2-0.2s0.1-0.2,0.2-0.2h1.4
		c0.1,0,0.2,0.1,0.2,0.2C147.7,113.8,147.6,113.9,147.4,113.9z M144.6,113.9h-1.4c-0.1,0-0.2-0.1-0.2-0.2s0.1-0.2,0.2-0.2h1.4
		c0.1,0,0.2,0.1,0.2,0.2S144.7,113.9,144.6,113.9z M141.8,113.9h-1.4c-0.1,0-0.2-0.1-0.2-0.2s0.1-0.2,0.2-0.2h1.4
		c0.1,0,0.2,0.1,0.2,0.2S141.9,113.9,141.8,113.9z M139,113.9h-1.4c-0.1,0-0.2-0.1-0.2-0.2s0.1-0.2,0.2-0.2h1.4
		c0.1,0,0.2,0.1,0.2,0.2S139.1,113.9,139,113.9z M136.1,113.9h-1.4c-0.1,0-0.2-0.1-0.2-0.2s0.1-0.2,0.2-0.2h1.4
		c0.1,0,0.2,0.1,0.2,0.2C136.4,113.8,136.3,113.9,136.1,113.9z M133.3,113.9h-1.4c-0.1,0-0.2-0.1-0.2-0.2s0.1-0.2,0.2-0.2h1.4
		c0.1,0,0.2,0.1,0.2,0.2S133.4,113.9,133.3,113.9z M130.5,113.9h-1.4c-0.1,0-0.2-0.1-0.2-0.2s0.1-0.2,0.2-0.2h1.4
		c0.1,0,0.2,0.1,0.2,0.2S130.6,113.9,130.5,113.9z M127.7,113.9h-1.4c-0.1,0-0.2-0.1-0.2-0.2s0.1-0.2,0.2-0.2h1.4
		c0.1,0,0.2,0.1,0.2,0.2C127.9,113.8,127.8,113.9,127.7,113.9z M124.8,113.9h-1.4c-0.1,0-0.2-0.1-0.2-0.2s0.1-0.2,0.2-0.2h1.4
		c0.1,0,0.2,0.1,0.2,0.2C125.1,113.8,125,113.9,124.8,113.9z M122,113.9h-1.4c-0.1,0-0.2-0.1-0.2-0.2s0.1-0.2,0.2-0.2h1.4
		c0.1,0,0.2,0.1,0.2,0.2C122.3,113.8,122.1,113.9,122,113.9z M119.2,113.9h-1.4c-0.1,0-0.2-0.1-0.2-0.2s0.1-0.2,0.2-0.2h1.4
		c0.1,0,0.2,0.1,0.2,0.2C119.4,113.8,119.3,113.9,119.2,113.9z M116.4,113.9H115c-0.1,0-0.2-0.1-0.2-0.2s0.1-0.2,0.2-0.2h1.4
		c0.1,0,0.2,0.1,0.2,0.2S116.5,113.9,116.4,113.9z M113.5,113.9h-1.4c-0.1,0-0.2-0.1-0.2-0.2s0.1-0.2,0.2-0.2h1.4
		c0.1,0,0.2,0.1,0.2,0.2C113.8,113.8,113.7,113.9,113.5,113.9z M110.7,113.9h-1.4c-0.1,0-0.2-0.1-0.2-0.2s0.1-0.2,0.2-0.2h1.4
		c0.1,0,0.2,0.1,0.2,0.2C111,113.8,110.8,113.9,110.7,113.9z M107.9,113.9h-1.4c-0.1,0-0.2-0.1-0.2-0.2s0.1-0.2,0.2-0.2h1.4
		c0.1,0,0.2,0.1,0.2,0.2S108,113.9,107.9,113.9z M105.1,113.9h-1.4c-0.1,0-0.2-0.1-0.2-0.2s0.1-0.2,0.2-0.2h1.4
		c0.1,0,0.2,0.1,0.2,0.2C105.3,113.8,105.2,113.9,105.1,113.9z"/>
	<path class="st3" d="M231.8,184.4h-1.3c-0.1,0-0.2-0.1-0.2-0.2c0-0.1,0.1-0.2,0.2-0.2h1.3c0.1,0,0.2,0.1,0.2,0.2
		C232,184.3,231.9,184.4,231.8,184.4z M229.3,184.4H228c-0.1,0-0.2-0.1-0.2-0.2c0-0.1,0.1-0.2,0.2-0.2h1.3c0.1,0,0.2,0.1,0.2,0.2
		C229.5,184.3,229.4,184.4,229.3,184.4z M226.8,184.4h-1.3c-0.1,0-0.2-0.1-0.2-0.2c0-0.1,0.1-0.2,0.2-0.2h1.3c0.1,0,0.2,0.1,0.2,0.2
		C227,184.3,226.9,184.4,226.8,184.4z M224.3,184.4H223c-0.1,0-0.2-0.1-0.2-0.2c0-0.1,0.1-0.2,0.2-0.2h1.3c0.1,0,0.2,0.1,0.2,0.2
		C224.5,184.3,224.4,184.4,224.3,184.4z M221.8,184.4h-1.3c-0.1,0-0.2-0.1-0.2-0.2c0-0.1,0.1-0.2,0.2-0.2h1.3c0.1,0,0.2,0.1,0.2,0.2
		C222,184.3,221.9,184.4,221.8,184.4z M219.3,184.4H218c-0.1,0-0.2-0.1-0.2-0.2c0-0.1,0.1-0.2,0.2-0.2h1.3c0.1,0,0.2,0.1,0.2,0.2
		C219.5,184.3,219.4,184.4,219.3,184.4z M216.8,184.4h-1.3c-0.1,0-0.2-0.1-0.2-0.2c0-0.1,0.1-0.2,0.2-0.2h1.3c0.1,0,0.2,0.1,0.2,0.2
		C217,184.3,216.9,184.4,216.8,184.4z M214.3,184.4H213c-0.1,0-0.2-0.1-0.2-0.2c0-0.1,0.1-0.2,0.2-0.2h1.3c0.1,0,0.2,0.1,0.2,0.2
		C214.5,184.3,214.4,184.4,214.3,184.4z M211.8,184.4h-1.3c-0.1,0-0.2-0.1-0.2-0.2c0-0.1,0.1-0.2,0.2-0.2h1.3c0.1,0,0.2,0.1,0.2,0.2
		C212,184.3,211.9,184.4,211.8,184.4z M209.3,184.4h-1.2c0,0,0,0-0.1,0s-0.2-0.1-0.2-0.2c0-0.1,0.1-0.2,0.2-0.2l0,0h1.2
		c0.1,0,0.2,0.1,0.2,0.2C209.5,184.3,209.4,184.4,209.3,184.4z M232.6,183.6L232.6,183.6c-0.1,0-0.2-0.1-0.2-0.2l0,0v-1.2
		c0-0.1,0.1-0.2,0.2-0.2c0.1,0,0.2,0.1,0.2,0.2v1.3C232.8,183.5,232.7,183.6,232.6,183.6z M207.2,183.5c-0.1,0-0.2-0.1-0.2-0.2V182
		c0-0.1,0.1-0.2,0.2-0.2c0.1,0,0.2,0.1,0.2,0.2v1.3C207.4,183.5,207.4,183.5,207.2,183.5z M232.6,181.1c-0.1,0-0.2-0.1-0.2-0.2v-1.3
		c0-0.1,0.1-0.2,0.2-0.2c0.1,0,0.2,0.1,0.2,0.2v1.3C232.8,181,232.7,181.1,232.6,181.1z M207.2,181c-0.1,0-0.2-0.1-0.2-0.2v-1.3
		c0-0.1,0.1-0.2,0.2-0.2c0.1,0,0.2,0.1,0.2,0.2v1.3C207.4,181,207.4,181,207.2,181z M232.6,178.6c-0.1,0-0.2-0.1-0.2-0.2v-1.3
		c0-0.1,0.1-0.2,0.2-0.2c0.1,0,0.2,0.1,0.2,0.2v1.3C232.8,178.5,232.7,178.6,232.6,178.6z M207.2,178.5c-0.1,0-0.2-0.1-0.2-0.2v-1.2
		l0,0c0-0.1,0.1-0.2,0.2-0.2c0.1,0,0.2,0.1,0.2,0.2l0,0v1.2C207.4,178.5,207.4,178.5,207.2,178.5z M231.8,176.5L231.8,176.5
		L231.8,176.5h-1.3c-0.1,0-0.2-0.1-0.2-0.2c0-0.1,0.1-0.2,0.2-0.2h1.2l0,0c0.1,0,0.2,0.1,0.2,0.2C232,176.4,231.9,176.5,231.8,176.5
		z M229.3,176.5H228c-0.1,0-0.2-0.1-0.2-0.2c0-0.1,0.1-0.2,0.2-0.2h1.3c0.1,0,0.2,0.1,0.2,0.2S229.4,176.5,229.3,176.5z
		 M226.8,176.5h-1.3c-0.1,0-0.2-0.1-0.2-0.2c0-0.1,0.1-0.2,0.2-0.2h1.3c0.1,0,0.2,0.1,0.2,0.2S226.9,176.5,226.8,176.5z
		 M224.3,176.5H223c-0.1,0-0.2-0.1-0.2-0.2c0-0.1,0.1-0.2,0.2-0.2h1.3c0.1,0,0.2,0.1,0.2,0.2S224.4,176.5,224.3,176.5z M221.8,176.5
		h-1.3c-0.1,0-0.2-0.1-0.2-0.2c0-0.1,0.1-0.2,0.2-0.2h1.3c0.1,0,0.2,0.1,0.2,0.2S221.9,176.5,221.8,176.5z M219.3,176.5H218
		c-0.1,0-0.2-0.1-0.2-0.2c0-0.1,0.1-0.2,0.2-0.2h1.3c0.1,0,0.2,0.1,0.2,0.2S219.4,176.5,219.3,176.5z M216.8,176.5h-1.3
		c-0.1,0-0.2-0.1-0.2-0.2c0-0.1,0.1-0.2,0.2-0.2h1.3c0.1,0,0.2,0.1,0.2,0.2S216.9,176.5,216.8,176.5z M214.3,176.5H213
		c-0.1,0-0.2-0.1-0.2-0.2c0-0.1,0.1-0.2,0.2-0.2h1.3c0.1,0,0.2,0.1,0.2,0.2S214.4,176.5,214.3,176.5z M211.8,176.5h-1.3
		c-0.1,0-0.2-0.1-0.2-0.2c0-0.1,0.1-0.2,0.2-0.2h1.3c0.1,0,0.2,0.1,0.2,0.2S211.9,176.5,211.8,176.5z M209.3,176.5h-1.2
		c-0.1,0-0.2-0.1-0.2-0.2c0-0.1,0.1-0.2,0.2-0.2h1.3c0.1,0,0.2,0.1,0.2,0.2C209.5,176.4,209.4,176.5,209.3,176.5z"/>
	<path class="st3" d="M142.5,109.7h-1.4c-0.1,0-0.2-0.1-0.2-0.2s0.1-0.2,0.2-0.2h1.4c0.1,0,0.2,0.1,0.2,0.2S142.6,109.7,142.5,109.7
		z M139.7,109.7h-1.4c-0.1,0-0.2-0.1-0.2-0.2s0.1-0.2,0.2-0.2h1.4c0.1,0,0.2,0.1,0.2,0.2S139.8,109.7,139.7,109.7z M136.9,109.7
		h-1.4c-0.1,0-0.2-0.1-0.2-0.2s0.1-0.2,0.2-0.2h1.4c0.1,0,0.2,0.1,0.2,0.2S137,109.7,136.9,109.7z M134.1,109.7h-1.4
		c-0.1,0-0.2-0.1-0.2-0.2s0.1-0.2,0.2-0.2h1.4c0.1,0,0.2,0.1,0.2,0.2S134.3,109.7,134.1,109.7z M131.4,109.7H130
		c-0.1,0-0.2-0.1-0.2-0.2s0.1-0.2,0.2-0.2h1.4c0.1,0,0.2,0.1,0.2,0.2S131.5,109.7,131.4,109.7z M128.6,109.7h-1.4
		c-0.1,0-0.2-0.1-0.2-0.2s0.1-0.2,0.2-0.2h1.4c0.1,0,0.2,0.1,0.2,0.2S128.7,109.7,128.6,109.7z M125.8,109.7h-1.4
		c-0.1,0-0.2-0.1-0.2-0.2s0.1-0.2,0.2-0.2h1.4c0.1,0,0.2,0.1,0.2,0.2S126,109.7,125.8,109.7z M123.1,109.6L123.1,109.6
		c-0.5-0.2-0.8-0.7-0.8-1.2v-0.2c0-0.1,0.1-0.2,0.2-0.2s0.2,0.1,0.2,0.2v0.2c0,0.3,0.2,0.6,0.5,0.8c0.1,0.1,0.2,0.2,0.1,0.3
		C123.3,109.5,123.2,109.6,123.1,109.6z M143.5,109L143.5,109c-0.2-0.1-0.3-0.2-0.2-0.3c0-0.1,0.1-0.2,0.1-0.3v-1
		c0-0.1,0.1-0.2,0.2-0.2c0.1,0,0.2,0.1,0.2,0.2v1c0,0.2,0,0.3-0.1,0.5C143.7,108.9,143.6,109,143.5,109z M122.5,107
		c-0.1,0-0.2-0.1-0.2-0.2v-1.4c0-0.1,0.1-0.2,0.2-0.2s0.2,0.1,0.2,0.2v1.4C122.7,106.9,122.6,107,122.5,107z M143.6,106.2
		c-0.1,0-0.2-0.1-0.2-0.2v-1.4c0-0.1,0.1-0.2,0.2-0.2c0.1,0,0.2,0.1,0.2,0.2v1.4C143.8,106.1,143.7,106.2,143.6,106.2z M122.5,104.3
		c-0.1,0-0.2-0.1-0.2-0.2v-1.4c0-0.1,0.1-0.2,0.2-0.2s0.2,0.1,0.2,0.2v1.4C122.7,104.2,122.6,104.3,122.5,104.3z M143.6,103.5
		c-0.1,0-0.2-0.1-0.2-0.2v-1.4c0-0.1,0.1-0.2,0.2-0.2c0.1,0,0.2,0.1,0.2,0.2v1.4C143.8,103.4,143.7,103.5,143.6,103.5z M122.5,101.5
		c-0.1,0-0.2-0.1-0.2-0.2v-1.4c0-0.1,0.1-0.2,0.2-0.2s0.2,0.1,0.2,0.2v1.4C122.7,101.4,122.6,101.5,122.5,101.5z M143.6,100.7
		c-0.1,0-0.2-0.1-0.2-0.2v-1.4c0-0.1,0.1-0.2,0.2-0.2c0.1,0,0.2,0.1,0.2,0.2v1.4C143.8,100.6,143.7,100.7,143.6,100.7z M122.5,98.7
		c-0.1,0-0.2-0.1-0.2-0.2v-1.4c0-0.1,0.1-0.2,0.2-0.2s0.2,0.1,0.2,0.2v1.4C122.7,98.6,122.6,98.7,122.5,98.7z M143.6,97.9
		c-0.1,0-0.2-0.1-0.2-0.2v-1.4c0-0.1,0.1-0.2,0.2-0.2c0.1,0,0.2,0.1,0.2,0.2v1.4C143.8,97.8,143.7,97.9,143.6,97.9z M122.5,96
		c-0.1,0-0.2-0.1-0.2-0.2v-1.4c0-0.1,0.1-0.2,0.2-0.2s0.2,0.1,0.2,0.2v1.4C122.7,95.8,122.6,96,122.5,96z M143.6,95.2
		c-0.1,0-0.2-0.1-0.2-0.2v-1.4c0-0.1,0.1-0.2,0.2-0.2c0.1,0,0.2,0.1,0.2,0.2V95C143.8,95,143.7,95.2,143.6,95.2z M122.5,93.2
		c-0.1,0-0.2-0.1-0.2-0.2v-1c0-0.2,0-0.3,0.1-0.5c0-0.1,0.2-0.2,0.3-0.1c0.1,0,0.2,0.2,0.1,0.3c0,0.1-0.1,0.2-0.1,0.3v1
		C122.7,93.1,122.6,93.2,122.5,93.2z M143.6,92.4c-0.1,0-0.2-0.1-0.2-0.2V92c0-0.3-0.2-0.6-0.5-0.8c-0.1-0.1-0.2-0.2-0.1-0.3
		c0.1-0.1,0.2-0.2,0.3-0.1c0.4,0.2,0.7,0.7,0.7,1.2v0.2C143.8,92.3,143.7,92.4,143.6,92.4z M141.6,91.1h-1.4c-0.1,0-0.2-0.1-0.2-0.2
		s0.1-0.2,0.2-0.2h1.4c0.1,0,0.2,0.1,0.2,0.2C141.9,91,141.8,91.1,141.6,91.1z M138.9,91.1h-1.4c-0.1,0-0.2-0.1-0.2-0.2
		s0.1-0.2,0.2-0.2h1.4c0.1,0,0.2,0.1,0.2,0.2C139.1,91,139,91.1,138.9,91.1z M136.1,91.1h-1.4c-0.1,0-0.2-0.1-0.2-0.2
		s0.1-0.2,0.2-0.2h1.4c0.1,0,0.2,0.1,0.2,0.2S136.2,91.1,136.1,91.1z M133.3,91.1H132c-0.1,0-0.2-0.1-0.2-0.2s0.1-0.2,0.2-0.2h1.4
		c0.1,0,0.2,0.1,0.2,0.2C133.6,91,133.5,91.1,133.3,91.1z M130.6,91.1h-1.4c-0.1,0-0.2-0.1-0.2-0.2s0.1-0.2,0.2-0.2h1.4
		c0.1,0,0.2,0.1,0.2,0.2S130.7,91.1,130.6,91.1z M127.8,91.1h-1.4c-0.1,0-0.2-0.1-0.2-0.2s0.1-0.2,0.2-0.2h1.4
		c0.1,0,0.2,0.1,0.2,0.2S127.9,91.1,127.8,91.1z M125,91.1h-1.4c-0.1,0-0.2-0.1-0.2-0.2s0.1-0.2,0.2-0.2h1.4c0.1,0,0.2,0.1,0.2,0.2
		C125.3,91,125.2,91.1,125,91.1z"/>
	<path class="st3" d="M231.8,195.9h-1.3c-0.1,0-0.2-0.1-0.2-0.2c0-0.1,0.1-0.2,0.2-0.2h1.3c0.1,0,0.2,0.1,0.2,0.2
		C232,195.8,231.9,195.9,231.8,195.9z M229.3,195.9H228c-0.1,0-0.2-0.1-0.2-0.2c0-0.1,0.1-0.2,0.2-0.2h1.3c0.1,0,0.2,0.1,0.2,0.2
		C229.5,195.8,229.4,195.9,229.3,195.9z M226.8,195.9h-1.3c-0.1,0-0.2-0.1-0.2-0.2c0-0.1,0.1-0.2,0.2-0.2h1.3c0.1,0,0.2,0.1,0.2,0.2
		C227,195.8,226.9,195.9,226.8,195.9z M224.3,195.9H223c-0.1,0-0.2-0.1-0.2-0.2c0-0.1,0.1-0.2,0.2-0.2h1.3c0.1,0,0.2,0.1,0.2,0.2
		C224.5,195.8,224.4,195.9,224.3,195.9z M221.8,195.9h-1.3c-0.1,0-0.2-0.1-0.2-0.2c0-0.1,0.1-0.2,0.2-0.2h1.3c0.1,0,0.2,0.1,0.2,0.2
		C222,195.8,221.9,195.9,221.8,195.9z M219.3,195.9H218c-0.1,0-0.2-0.1-0.2-0.2c0-0.1,0.1-0.2,0.2-0.2h1.3c0.1,0,0.2,0.1,0.2,0.2
		C219.5,195.8,219.4,195.9,219.3,195.9z M216.8,195.9h-1.3c-0.1,0-0.2-0.1-0.2-0.2c0-0.1,0.1-0.2,0.2-0.2h1.3c0.1,0,0.2,0.1,0.2,0.2
		C217,195.8,216.9,195.9,216.8,195.9z M214.3,195.9H213c-0.1,0-0.2-0.1-0.2-0.2c0-0.1,0.1-0.2,0.2-0.2h1.3c0.1,0,0.2,0.1,0.2,0.2
		C214.5,195.8,214.4,195.9,214.3,195.9z M211.8,195.9h-1.3c-0.1,0-0.2-0.1-0.2-0.2c0-0.1,0.1-0.2,0.2-0.2h1.3c0.1,0,0.2,0.1,0.2,0.2
		C212,195.8,211.9,195.9,211.8,195.9z M209.3,195.9h-1.2c0,0,0,0-0.1,0s-0.2-0.1-0.2-0.2c0-0.1,0.1-0.2,0.2-0.2l0,0h1.2
		c0.1,0,0.2,0.1,0.2,0.2C209.5,195.8,209.4,195.9,209.3,195.9z M232.6,195.1L232.6,195.1c-0.1,0-0.2-0.1-0.2-0.2l0,0v-1.2
		c0-0.1,0.1-0.2,0.2-0.2c0.1,0,0.2,0.1,0.2,0.2v1.3C232.8,195,232.7,195.1,232.6,195.1z M207.2,195.1c-0.1,0-0.2-0.1-0.2-0.2v-1.3
		c0-0.1,0.1-0.2,0.2-0.2c0.1,0,0.2,0.1,0.2,0.2v1.3C207.4,195,207.4,195.1,207.2,195.1z M232.6,192.6c-0.1,0-0.2-0.1-0.2-0.2v-1.3
		c0-0.1,0.1-0.2,0.2-0.2c0.1,0,0.2,0.1,0.2,0.2v1.3C232.8,192.5,232.7,192.6,232.6,192.6z M207.2,192.6c-0.1,0-0.2-0.1-0.2-0.2v-1.3
		c0-0.1,0.1-0.2,0.2-0.2c0.1,0,0.2,0.1,0.2,0.2v1.3C207.4,192.5,207.4,192.6,207.2,192.6z M232.6,190.1c-0.1,0-0.2-0.1-0.2-0.2v-1.3
		c0-0.1,0.1-0.2,0.2-0.2c0.1,0,0.2,0.1,0.2,0.2v1.3C232.8,190,232.7,190.1,232.6,190.1z M207.2,190.1c-0.1,0-0.2-0.1-0.2-0.2v-1.2
		l0,0c0-0.1,0.1-0.2,0.2-0.2c0.1,0,0.2,0.1,0.2,0.2l0,0v1.2C207.4,190,207.4,190.1,207.2,190.1z M231.8,188.1L231.8,188.1
		L231.8,188.1h-1.3c-0.1,0-0.2-0.1-0.2-0.2c0-0.1,0.1-0.2,0.2-0.2h1.2l0,0c0.1,0,0.2,0.1,0.2,0.2C232,188,231.9,188.1,231.8,188.1z
		 M229.3,188.1H228c-0.1,0-0.2-0.1-0.2-0.2c0-0.1,0.1-0.2,0.2-0.2h1.3c0.1,0,0.2,0.1,0.2,0.2S229.4,188.1,229.3,188.1z M226.8,188.1
		h-1.3c-0.1,0-0.2-0.1-0.2-0.2c0-0.1,0.1-0.2,0.2-0.2h1.3c0.1,0,0.2,0.1,0.2,0.2S226.9,188.1,226.8,188.1z M224.3,188.1H223
		c-0.1,0-0.2-0.1-0.2-0.2c0-0.1,0.1-0.2,0.2-0.2h1.3c0.1,0,0.2,0.1,0.2,0.2S224.4,188.1,224.3,188.1z M221.8,188.1h-1.3
		c-0.1,0-0.2-0.1-0.2-0.2c0-0.1,0.1-0.2,0.2-0.2h1.3c0.1,0,0.2,0.1,0.2,0.2S221.9,188.1,221.8,188.1z M219.3,188.1H218
		c-0.1,0-0.2-0.1-0.2-0.2c0-0.1,0.1-0.2,0.2-0.2h1.3c0.1,0,0.2,0.1,0.2,0.2S219.4,188.1,219.3,188.1z M216.8,188.1h-1.3
		c-0.1,0-0.2-0.1-0.2-0.2c0-0.1,0.1-0.2,0.2-0.2h1.3c0.1,0,0.2,0.1,0.2,0.2S216.9,188.1,216.8,188.1z M214.3,188.1H213
		c-0.1,0-0.2-0.1-0.2-0.2c0-0.1,0.1-0.2,0.2-0.2h1.3c0.1,0,0.2,0.1,0.2,0.2S214.4,188.1,214.3,188.1z M211.8,188.1h-1.3
		c-0.1,0-0.2-0.1-0.2-0.2c0-0.1,0.1-0.2,0.2-0.2h1.3c0.1,0,0.2,0.1,0.2,0.2S211.9,188.1,211.8,188.1z M209.3,188.1h-1.2
		c-0.1,0-0.2-0.1-0.2-0.2c0-0.1,0.1-0.2,0.2-0.2h1.3c0.1,0,0.2,0.1,0.2,0.2C209.5,188,209.4,188.1,209.3,188.1z"/>
	<path class="st3" d="M133.1,187.2h-1.2c-0.1,0-0.2-0.1-0.2-0.2c0-0.1,0.1-0.2,0.2-0.2h1.2c0.1,0,0.2,0.1,0.2,0.2
		C133.3,187.1,133.2,187.2,133.1,187.2z M130.6,187.2h-1.2c-0.1,0-0.2-0.1-0.2-0.2c0-0.1,0.1-0.2,0.2-0.2h1.2c0.1,0,0.2,0.1,0.2,0.2
		C130.8,187.1,130.7,187.2,130.6,187.2z M128.1,187.2h-1.2c-0.1,0-0.2-0.1-0.2-0.2c0-0.1,0.1-0.2,0.2-0.2h1.2c0.1,0,0.2,0.1,0.2,0.2
		C128.3,187.1,128.2,187.2,128.1,187.2z M125.6,187.2h-1.2c-0.1,0-0.2-0.1-0.2-0.2c0-0.1,0.1-0.2,0.2-0.2h1.2c0.1,0,0.2,0.1,0.2,0.2
		C125.8,187.1,125.7,187.2,125.6,187.2z M123.2,187.2H122c-0.1,0-0.2-0.1-0.2-0.2c0-0.1,0.1-0.2,0.2-0.2h1.2c0.1,0,0.2,0.1,0.2,0.2
		C123.4,187.1,123.3,187.2,123.2,187.2z M120.7,187.2h-1.2c-0.1,0-0.2-0.1-0.2-0.2c0-0.1,0.1-0.2,0.2-0.2h1.2c0.1,0,0.2,0.1,0.2,0.2
		C120.9,187.1,120.8,187.2,120.7,187.2z M118.2,187.2H117c-0.1,0-0.2-0.1-0.2-0.2c0-0.1,0.1-0.2,0.2-0.2h1.2c0.1,0,0.2,0.1,0.2,0.2
		C118.4,187.1,118.3,187.2,118.2,187.2z M115.7,187.2h-1.2c-0.1,0-0.2-0.1-0.2-0.2c0-0.1,0.1-0.2,0.2-0.2h1.2c0.1,0,0.2,0.1,0.2,0.2
		C115.9,187.1,115.8,187.2,115.7,187.2z M113.2,187.2H112c-0.1,0-0.2-0.1-0.2-0.2c0-0.1,0.1-0.2,0.2-0.2h1.2c0.1,0,0.2,0.1,0.2,0.2
		C113.4,187.1,113.3,187.2,113.2,187.2z M110.8,187.2h-1.2c-0.1,0-0.2-0.1-0.2-0.2c0-0.1,0.1-0.2,0.2-0.2h1.2c0.1,0,0.2,0.1,0.2,0.2
		C111,187.1,110.9,187.2,110.8,187.2z M108.3,187.2H107c-0.1,0-0.2-0.1-0.2-0.2c0-0.1,0.1-0.2,0.2-0.2h1.2c0.1,0,0.2,0.1,0.2,0.2
		C108.5,187.1,108.4,187.2,108.3,187.2z M105.8,187.2h-1.2c-0.1,0-0.2-0.1-0.2-0.2c0-0.1,0.1-0.2,0.2-0.2h1.2c0.1,0,0.2,0.1,0.2,0.2
		C106,187.1,105.9,187.2,105.8,187.2z M103.3,187.2h-1.2c-0.1,0-0.2-0.1-0.2-0.2c0-0.1,0.1-0.2,0.2-0.2h1.2c0.1,0,0.2,0.1,0.2,0.2
		C103.5,187.1,103.4,187.2,103.3,187.2z M100.8,187.2h-1.2c-0.1,0-0.2-0.1-0.2-0.2c0-0.1,0.1-0.2,0.2-0.2h1.2c0.1,0,0.2,0.1,0.2,0.2
		C101,187.1,100.9,187.2,100.8,187.2z M98.4,187.2h-1.2c-0.1,0-0.2-0.1-0.2-0.2c0-0.1,0.1-0.2,0.2-0.2h1.2c0.1,0,0.2,0.1,0.2,0.2
		C98.6,187.1,98.5,187.2,98.4,187.2z M95.9,187.2h-1c-0.1,0-0.2,0-0.3,0c-0.1,0-0.2-0.1-0.2-0.2c0-0.1,0.1-0.2,0.2-0.2s0.1,0,0.2,0
		h1c0.1,0,0.2,0.1,0.2,0.2C96.1,187.1,96,187.2,95.9,187.2z M134.3,186.9c-0.1,0-0.1,0-0.2-0.1c-0.1-0.1,0-0.2,0.1-0.3
		c0.3-0.2,0.6-0.5,0.7-0.9c0-0.1,0.2-0.2,0.3-0.1c0.1,0,0.2,0.2,0.1,0.3c-0.2,0.4-0.5,0.8-0.9,1
		C134.3,186.9,134.3,186.9,134.3,186.9z M93.5,186.7L93.5,186.7c-0.4-0.3-0.7-0.7-0.8-1.1c0-0.1,0-0.2,0.1-0.3c0.1,0,0.2,0,0.3,0.1
		c0.1,0.4,0.3,0.7,0.6,0.9c0.1,0.1,0.1,0.2,0,0.3C93.6,186.7,93.6,186.7,93.5,186.7z M135.2,184.7c-0.1,0-0.2-0.1-0.2-0.2v-1.2
		c0-0.1,0.1-0.2,0.2-0.2c0.1,0,0.2,0.1,0.2,0.2v1.2C135.4,184.6,135.3,184.7,135.2,184.7z M92.8,184.5c-0.1,0-0.2-0.1-0.2-0.2V183
		c0-0.1,0.1-0.2,0.2-0.2s0.2,0.1,0.2,0.2v1.2C93,184.4,92.9,184.5,92.8,184.5z M135.2,182.2c-0.1,0-0.2-0.1-0.2-0.2v-1.2
		c0-0.1,0.1-0.2,0.2-0.2c0.1,0,0.2,0.1,0.2,0.2v1.2C135.4,182.1,135.3,182.2,135.2,182.2z M92.8,182c-0.1,0-0.2-0.1-0.2-0.2v-1.2
		c0-0.1,0.1-0.2,0.2-0.2s0.2,0.1,0.2,0.2v1.2C93,181.9,92.9,182,92.8,182z M135.2,179.7c-0.1,0-0.2-0.1-0.2-0.2v-1.2
		c0-0.1,0.1-0.2,0.2-0.2c0.1,0,0.2,0.1,0.2,0.2v1.2C135.4,179.6,135.3,179.7,135.2,179.7z M92.8,179.5c-0.1,0-0.2-0.1-0.2-0.2v-1.2
		c0-0.1,0.1-0.2,0.2-0.2s0.2,0.1,0.2,0.2v1.2C93,179.4,92.9,179.5,92.8,179.5z M135.2,177.3c-0.1,0-0.2-0.1-0.2-0.2v-1.2
		c0-0.1,0.1-0.2,0.2-0.2c0.1,0,0.2,0.1,0.2,0.2v1.2C135.4,177.2,135.3,177.3,135.2,177.3z M92.8,177c-0.1,0-0.2-0.1-0.2-0.2v-1.2
		c0-0.1,0.1-0.2,0.2-0.2s0.2,0.1,0.2,0.2v1.2C93,176.9,92.9,177,92.8,177z M135.2,174.8c-0.1,0-0.2-0.1-0.2-0.2v-1.2
		c0-0.1,0.1-0.2,0.2-0.2c0.1,0,0.2,0.1,0.2,0.2v1.2C135.4,174.7,135.3,174.8,135.2,174.8z M92.8,174.5c-0.1,0-0.2-0.1-0.2-0.2v-1.2
		c0-0.1,0.1-0.2,0.2-0.2s0.2,0.1,0.2,0.2v1.2C93,174.4,92.9,174.5,92.8,174.5z M135.2,172.3c-0.1,0-0.2-0.1-0.2-0.2v-1.2
		c0-0.1,0.1-0.2,0.2-0.2c0.1,0,0.2,0.1,0.2,0.2v1.2C135.4,172.2,135.3,172.3,135.2,172.3z M92.8,172.1c-0.1,0-0.2-0.1-0.2-0.2v-1.2
		c0-0.1,0.1-0.2,0.2-0.2s0.2,0.1,0.2,0.2v1.2C93,172,92.9,172.1,92.8,172.1z M135.2,169.8c-0.1,0-0.2-0.1-0.2-0.2v-1.2
		c0-0.1,0.1-0.2,0.2-0.2c0.1,0,0.2,0.1,0.2,0.2v1.2C135.4,169.7,135.3,169.8,135.2,169.8z M92.8,169.6c-0.1,0-0.2-0.1-0.2-0.2v-1.2
		c0-0.1,0.1-0.2,0.2-0.2s0.2,0.1,0.2,0.2v1.2C93,169.5,92.9,169.6,92.8,169.6z M135.2,167.3c-0.1,0-0.2-0.1-0.2-0.2v-1.2
		c0-0.1,0.1-0.2,0.2-0.2c0.1,0,0.2,0.1,0.2,0.2v1.2C135.4,167.2,135.3,167.3,135.2,167.3z M92.8,167.1c-0.1,0-0.2-0.1-0.2-0.2v-1.2
		c0-0.1,0.1-0.2,0.2-0.2s0.2,0.1,0.2,0.2v1.2C93,167,92.9,167.1,92.8,167.1z M135.2,164.9c-0.1,0-0.2-0.1-0.2-0.2v-1.2
		c0-0.1,0.1-0.2,0.2-0.2c0.1,0,0.2,0.1,0.2,0.2v1.2C135.4,164.8,135.3,164.9,135.2,164.9z M92.8,164.6c-0.1,0-0.2-0.1-0.2-0.2v-1.2
		c0-0.1,0.1-0.2,0.2-0.2s0.2,0.1,0.2,0.2v1.2C93,164.5,92.9,164.6,92.8,164.6z M135.2,162.4c-0.1,0-0.2-0.1-0.2-0.2V161
		c0-0.1,0.1-0.2,0.2-0.2c0.1,0,0.2,0.1,0.2,0.2v1.2C135.4,162.3,135.3,162.4,135.2,162.4z M92.8,162.1c-0.1,0-0.2-0.1-0.2-0.2v-1.2
		c0-0.1,0.1-0.2,0.2-0.2s0.2,0.1,0.2,0.2v1.2C93,162,92.9,162.1,92.8,162.1z M135.2,159.9c-0.1,0-0.2-0.1-0.2-0.2v-1.2
		c0-0.1,0.1-0.2,0.2-0.2c0.1,0,0.2,0.1,0.2,0.2v1.2C135.4,159.8,135.3,159.9,135.2,159.9z M92.8,159.7c-0.1,0-0.2-0.1-0.2-0.2v-1.2
		c0-0.1,0.1-0.2,0.2-0.2s0.2,0.1,0.2,0.2v1.2C93,159.6,92.9,159.7,92.8,159.7z M135.1,157.4c-0.1,0-0.2-0.1-0.2-0.1
		c-0.1-0.4-0.3-0.7-0.6-0.9c-0.1-0.1-0.1-0.2,0-0.3s0.2-0.1,0.3,0c0.4,0.3,0.6,0.7,0.7,1.1C135.3,157.3,135.3,157.4,135.1,157.4
		L135.1,157.4z M92.9,157.2L92.9,157.2c-0.2-0.1-0.2-0.2-0.2-0.3c0.2-0.4,0.5-0.8,0.9-1c0.1-0.1,0.2,0,0.3,0.1
		c0.1,0.1,0,0.2-0.1,0.3c-0.3,0.2-0.6,0.5-0.7,0.9C93.1,157.2,93,157.2,92.9,157.2z M133.3,155.9L133.3,155.9c-0.1,0-0.2,0-0.2,0h-1
		c-0.1,0-0.2-0.1-0.2-0.2s0.1-0.2,0.2-0.2h1c0.1,0,0.2,0,0.3,0s0.2,0.1,0.2,0.2C133.5,155.8,133.4,155.9,133.3,155.9z M130.8,155.9
		h-1.2c-0.1,0-0.2-0.1-0.2-0.2s0.1-0.2,0.2-0.2h1.2c0.1,0,0.2,0.1,0.2,0.2S131,155.9,130.8,155.9z M128.4,155.9h-1.2
		c-0.1,0-0.2-0.1-0.2-0.2s0.1-0.2,0.2-0.2h1.2c0.1,0,0.2,0.1,0.2,0.2S128.5,155.9,128.4,155.9z M125.9,155.9h-1.2
		c-0.1,0-0.2-0.1-0.2-0.2s0.1-0.2,0.2-0.2h1.2c0.1,0,0.2,0.1,0.2,0.2S126,155.9,125.9,155.9z M123.4,155.9h-1.2
		c-0.1,0-0.2-0.1-0.2-0.2s0.1-0.2,0.2-0.2h1.2c0.1,0,0.2,0.1,0.2,0.2S123.5,155.9,123.4,155.9z M120.9,155.9h-1.2
		c-0.1,0-0.2-0.1-0.2-0.2s0.1-0.2,0.2-0.2h1.2c0.1,0,0.2,0.1,0.2,0.2S121,155.9,120.9,155.9z M118.4,155.9h-1.2
		c-0.1,0-0.2-0.1-0.2-0.2s0.1-0.2,0.2-0.2h1.2c0.1,0,0.2,0.1,0.2,0.2S118.6,155.9,118.4,155.9z M116,155.9h-1.2
		c-0.1,0-0.2-0.1-0.2-0.2s0.1-0.2,0.2-0.2h1.2c0.1,0,0.2,0.1,0.2,0.2S116.1,155.9,116,155.9z M113.5,155.9h-1.2
		c-0.1,0-0.2-0.1-0.2-0.2s0.1-0.2,0.2-0.2h1.2c0.1,0,0.2,0.1,0.2,0.2S113.6,155.9,113.5,155.9z M111,155.9h-1.2
		c-0.1,0-0.2-0.1-0.2-0.2s0.1-0.2,0.2-0.2h1.2c0.1,0,0.2,0.1,0.2,0.2S111.1,155.9,111,155.9z M108.5,155.9h-1.2
		c-0.1,0-0.2-0.1-0.2-0.2s0.1-0.2,0.2-0.2h1.2c0.1,0,0.2,0.1,0.2,0.2S108.6,155.9,108.5,155.9z M106,155.9h-1.2
		c-0.1,0-0.2-0.1-0.2-0.2s0.1-0.2,0.2-0.2h1.2c0.1,0,0.2,0.1,0.2,0.2S106.2,155.9,106,155.9z M103.6,155.9h-1.2
		c-0.1,0-0.2-0.1-0.2-0.2s0.1-0.2,0.2-0.2h1.2c0.1,0,0.2,0.1,0.2,0.2S103.7,155.9,103.6,155.9z M101.1,155.9h-1.2
		c-0.1,0-0.2-0.1-0.2-0.2s0.1-0.2,0.2-0.2h1.2c0.1,0,0.2,0.1,0.2,0.2S101.2,155.9,101.1,155.9z M98.6,155.9h-1.2
		c-0.1,0-0.2-0.1-0.2-0.2s0.1-0.2,0.2-0.2h1.2c0.1,0,0.2,0.1,0.2,0.2S98.7,155.9,98.6,155.9z M96.1,155.9h-1.2
		c-0.1,0-0.2-0.1-0.2-0.2s0.1-0.2,0.2-0.2h1.2c0.1,0,0.2,0.1,0.2,0.2S96.2,155.9,96.1,155.9z"/>
	<path class="st0" d="M133.4,149.2h-26.7c-7.5,0-13.7-6.1-13.7-13.7v-4c0-7.5,6.1-13.7,13.7-13.7h26.7c7.5,0,13.7,6.1,13.7,13.7v4
		C147.1,143.1,141,149.2,133.4,149.2z"/>
	<path class="st2" d="M114,127.3v12.4c0,0.8,0.9,1.2,1.5,0.8l9.4-6.2c0.6-0.4,0.6-1.2,0-1.6l-9.4-6.2
		C114.8,126.1,114,126.6,114,127.3z"/>
	<path class="st3" d="M160.3,169.1h-0.4v-1.7c0-0.6,0.5-1.1,1.1-1.1h4.7c0.3,0,0.6-0.2,0.7-0.5l0.7-2.8c0.1-0.2,0-0.5-0.1-0.6
		c-0.1-0.2-0.4-0.3-0.6-0.3h-6.2v-0.4h6.2c0.3,0,0.7,0.2,0.9,0.4c0.2,0.3,0.3,0.6,0.2,1l-0.7,2.8c-0.1,0.5-0.6,0.8-1.1,0.8H161
		c-0.4,0-0.7,0.3-0.7,0.7V169.1z"/>
	<path class="st2" d="M164.3,163.4h-7.4c-0.9,0-1.6-0.7-1.6-1.6l0,0c0-0.9,0.7-1.6,1.6-1.6h7.4c0.9,0,1.6,0.7,1.6,1.6l0,0
		C165.9,162.6,165.2,163.4,164.3,163.4z"/>
	<path class="st0" d="M160.1,176.2L160.1,176.2c-0.6,0-1.1-0.5-1.1-1.1v-6.4c0-0.6,0.5-1.1,1.1-1.1l0,0c0.6,0,1.1,0.5,1.1,1.1v6.4
		C161.1,175.8,160.6,176.2,160.1,176.2z"/>
	<path class="st3" d="M200.3,190.1c0,0,0.7,2.2,0.7,2.7c-0.1,0.5-0.5,2.3-0.8,2.7s-0.5-1.8-0.7-2.2c-0.3-0.3-0.1,0.9-0.2,1
		c-0.2,0.1-0.6-0.9-0.7-1.2c-0.2-0.3,0.4-1.6,0.4-2.5C198.8,189.7,200.3,190.1,200.3,190.1z"/>
	<path class="st3" d="M203.1,230c0,0,1.3,1.2,1.1,2.1c-0.3,0.9-1.5,1.4-1.6,2.5c-0.2,1-0.8,1.6-1.4,1.6c-0.6,0-2.8,0-2.8,0
		s-0.4-0.7,0.6-1c1-0.2,1.4-1.5,1.4-2.6c-0.1-1.1,0.1-2.7,0.1-2.7l2.2-0.5L203.1,230z"/>
	<path class="st3" d="M186.9,233.2c0,0,0.2,2.7-0.3,3h-7.4c0,0,0-0.9,1.2-1c1.2-0.2,3.3-0.9,3.6-2.4
		C184.3,231.1,186.9,233.2,186.9,233.2z"/>
	<path class="st0" d="M180.6,194.4c0,0,0.4,4.8,0.9,10.6c0.6,7.9,1.4,17.5,1.5,19.4c0.1,3.2,0.6,8.3,0.6,8.3s1.2,1.2,3.7,0.7
		c0,0,2.2-7.3,2.8-14.9c0-0.1,0-0.3,0-0.4c0.6-7.8,1.5-24.3,1.5-24.3L180.6,194.4z"/>
	<path class="st0" d="M182.4,194.9c0,0,7.1,17.4,11.7,25.6c4.6,8.2,6.1,10.5,6.1,10.5s2.7-1,2.9-1.8c0,0-1.8-15.8-4.9-19.7
		c-1.8-2.2-3.8-8.7-3.9-11c-0.1-2.3-0.6-6.8-0.6-6.8L182.4,194.9z"/>
	<path class="st0" d="M162.9,173.1c-0.1-0.1-0.8-2.7-2.2-2.5c-0.9,0.1-2.3,0.6-2,1.8c0.2,0.5,2.9,2,2.9,2L162.9,173.1z"/>
	<path class="st3" d="M268.7,84.9H259c-0.4,0-0.7-0.3-0.7-0.7l0,0c0-0.4,0.3-0.7,0.7-0.7h9.7c0.4,0,0.7,0.3,0.7,0.7l0,0
		C269.5,84.6,269.1,84.9,268.7,84.9z"/>
	<path class="st3" d="M268.7,87.8H259c-0.4,0-0.7-0.3-0.7-0.7l0,0c0-0.4,0.3-0.7,0.7-0.7h9.7c0.4,0,0.7,0.3,0.7,0.7l0,0
		C269.5,87.4,269.1,87.8,268.7,87.8z"/>
	<path class="st3" d="M268.7,90.7H259c-0.4,0-0.7-0.3-0.7-0.7l0,0c0-0.4,0.3-0.7,0.7-0.7h9.7c0.4,0,0.7,0.3,0.7,0.7l0,0
		C269.5,90.4,269.1,90.7,268.7,90.7z"/>
	<path class="st3" d="M230.9,160.4h-23c-0.5,0-1-0.4-1-1l0,0c0-0.5,0.4-1,1-1h23c0.5,0,1,0.4,1,1l0,0
		C231.9,159.9,231.4,160.4,230.9,160.4z"/>
	<path class="st3" d="M118.5,93.2h-23c-0.5,0-1-0.4-1-1l0,0c0-0.5,0.4-1,1-1h23c0.5,0,1,0.4,1,1l0,0C119.5,92.8,119,93.2,118.5,93.2
		z"/>
	<path class="st3" d="M230.9,170.1h-23c-0.5,0-1-0.4-1-1l0,0c0-0.5,0.4-1,1-1h23c0.5,0,1,0.4,1,1l0,0
		C231.9,169.6,231.4,170.1,230.9,170.1z"/>
	<path class="st3" d="M230.9,165.2h-27.5c-0.5,0-1-0.4-1-1l0,0c0-0.5,0.4-1,1-1h27.5c0.5,0,1,0.4,1,1l0,0
		C231.9,164.8,231.4,165.2,230.9,165.2z"/>
	<path class="st3" d="M111.4,99.3H98.9c-0.5,0-1-0.4-1-1l0,0c0-0.5,0.4-1,1-1h12.5c0.5,0,1,0.4,1,1l0,0
		C112.4,98.9,112,99.3,111.4,99.3z"/>
	<path class="st3" d="M93.7,98.4c0-0.5,0.4-1,1-1c0.5,0,1,0.4,1,1c0,0.5-0.4,1-1,1C94.1,99.3,93.7,98.9,93.7,98.4z"/>
	<path class="st3" d="M114,103.2H99c-0.5,0-1-0.4-1-1l0,0c0-0.5,0.4-1,1-1h15c0.5,0,1,0.4,1,1l0,0
		C114.9,102.8,114.5,103.2,114,103.2z"/>
	<path class="st3" d="M93.7,102.3c0-0.5,0.4-1,1-1c0.5,0,1,0.4,1,1s-0.4,1-1,1C94.1,103.2,93.7,102.8,93.7,102.3z"/>
	<path class="st3" d="M111.4,107.5H98.9c-0.5,0-1-0.4-1-1l0,0c0-0.5,0.4-1,1-1h12.5c0.5,0,1,0.4,1,1l0,0
		C112.4,107,112,107.5,111.4,107.5z"/>
	<path class="st3" d="M93.7,106.5c0-0.5,0.4-1,1-1c0.5,0,1,0.4,1,1c0,0.5-0.4,1-1,1S93.7,107,93.7,106.5z"/>
	<path class="st3" d="M135.3,101.5c-0.2,0-0.3,0-0.5,0c-0.9,0-1.8-0.4-2.4-1c-1.3-1.4-1.3-3.6,0.1-4.9l0,0c1.4-1.3,3.6-1.3,4.9,0.1
		c1.3,1.4,1.3,3.6-0.1,4.9C136.7,101.1,136,101.4,135.3,101.5z M132.8,96.1c-1.1,1.1-1.2,2.9,0,4.1c0.5,0.6,1.3,0.9,2,0.9
		c0.8,0,1.5-0.3,2-0.8c1.1-1.1,1.2-2.9,0-4.1C135.8,95,133.9,94.9,132.8,96.1L132.8,96.1z"/>
	
		<rect x="128.6" y="101.7" transform="matrix(0.7152 -0.6989 0.6989 0.7152 -34.0006 120.5437)" class="st6" width="4.7" height="0.6"/>
	<path class="st3" d="M128,104.8L128,104.8c-0.2-0.2-0.2-0.5,0-0.7l2-1.9c0.2-0.2,0.5-0.2,0.7,0l0,0c0.2,0.2,0.2,0.5,0,0.7l-2,1.9
		C128.5,105,128.2,105,128,104.8z"/>
	<path class="st3" d="M259.3,165.9l-21.5,0.1c-0.4,0-0.9-0.3-1-0.7l0,0c-0.1-0.4,0.1-0.7,0.5-0.7l21.5-0.1c0.4,0,0.9,0.3,1,0.7l0,0
		C260,165.6,259.7,165.9,259.3,165.9z"/>
	<path class="st3" d="M264,180l-21.5,0.1c-0.4,0-0.9-0.3-1-0.7l0,0c-0.1-0.4,0.1-0.7,0.5-0.7l21.5-0.1c0.4,0,0.9,0.3,1,0.7l0,0
		C264.6,179.7,264.4,180,264,180z"/>
	<path class="st3" d="M268.4,193.6l-21.5,0.1c-0.4,0-0.9-0.3-1-0.7l0,0c-0.1-0.4,0.1-0.7,0.5-0.7l21.5-0.1c0.4,0,0.9,0.3,1,0.7l0,0
		C269.1,193.3,268.8,193.6,268.4,193.6z"/>
	<path class="st3" d="M273.4,208.9L252,209c-0.4,0-0.9-0.3-1-0.7l0,0c-0.1-0.4,0.1-0.7,0.5-0.7l21.5-0.1c0.4,0,0.9,0.3,1,0.7l0,0
		C274.1,208.6,273.9,208.9,273.4,208.9z"/>
	<path class="st3" d="M278.7,224.9l-21.5,0.1c-0.4,0-0.9-0.3-1-0.7l0,0c-0.1-0.4,0.1-0.7,0.5-0.7l21.5-0.1c0.4,0,0.9,0.3,1,0.7l0,0
		C279.4,224.6,279.1,224.9,278.7,224.9z"/>
	<path class="st3" d="M232.5,117.8L232.5,117.8c-0.2,0-0.3-0.1-0.4-0.2l-0.3-1.8c0-0.2,0.1-0.3,0.2-0.4l0,0c0.2,0,0.3,0.1,0.4,0.2
		l0.3,1.8C232.8,117.6,232.7,117.7,232.5,117.8z"/>
	<rect x="231.6" y="112.4" transform="matrix(0.9818 -0.19 0.19 0.9818 -17.3833 46.0946)" class="st9" width="0.2" height="2.6"/>
	<path class="st3" d="M231.5,97.9c0,0-0.2-1.8-0.6-2.4c-0.4-0.7-2-1.1-2.1-1c-0.3,0.3,0.9,1.4,1,1.8c0,0.4-0.6,0.1-0.3,0.9
		c0.3,0.7,1.2,1.5,1.2,1.5L231.5,97.9z"/>
	<path class="st3" d="M230.8,97.7c0.6-0.5,0.7-0.5,0.7-0.5s5.5,4.7,6,5.2c0.5,0.4,8.7,2.8,8.7,2.8l1.3,6.7c0,0-11.1-5.4-12.4-6.5
		c-2.2-1.8-5-6.9-5-6.9S230.3,98.1,230.8,97.7z"/>
	<path class="st3" d="M246.4,161.8c0,0-0.1,2.3-0.5,2.8h-6.1c0-0.2,0.1-0.8,0.9-0.9c1.1-0.2,2.3-0.9,3-2.3
		C244.3,159.9,246.4,161.8,246.4,161.8z"/>
	<path class="st3" d="M258.3,161.5c0,0,0.4,3-0.2,3.1c-0.1,0-2.5,0-3.5,0.1c-1.2,0-3.2,0-3.2,0c-0.2,0-0.4-0.3-0.3-0.5
		c0.1-0.2,0.4-0.5,0.9-0.6c1.1-0.2,2.8-1,3.4-2.4C256.2,159.6,258.3,161.5,258.3,161.5z"/>
	<path class="st0" d="M243.2,130.5c0,0,1.7,5.9,6.5,16.2c4.9,10.3,5.1,15.2,5.1,15.2s0.7,0.3,1.7,0.2c1.1-0.1,1.8-0.6,1.8-0.6
		s-0.3-12.2-2.6-17.4c-2.3-5.2-2.8-19.4-2.8-19.4L243.2,130.5z"/>
	<path class="st0" d="M240.5,125.4c0,0-0.1,9.2,1.5,20.4c1.6,11.3,0.8,16.5,0.8,16.5s0.4,0.3,1.7,0.3c1.5,0,2.3-0.6,2.3-0.6
		s2.3-11.3,1.6-16.9c-0.7-5.6,3.1-19.3,3.1-19.3L240.5,125.4z"/>
	<path class="st0" d="M248,103.9l-1.8,1.3l-2.6-0.5c0-0.2,0.2-1.2,0.4-2.1c0-0.1,0-0.1,0-0.2c0.1-0.8,0.2-1.4,0.2-1.4l2.4-1.2
		l0.9-0.4c0,0-0.1,0.8-0.1,1C247.3,102.5,248,103.9,248,103.9z"/>
	<path class="st0" d="M253.1,126.5c-0.6,2.7-13.1,1.5-13-0.1c0-0.1,0-0.8,0.1-1.8c0.1-2.2,0.2-5.7,0.3-5.9l0,0
		c0.2-2.3,0.4-4.5,0.5-6c0-1.3,0.2-2.6,0.4-3.7s0.5-2.1,0.7-2.8c0.2-0.5,0.5-1,0.9-1.4c0.3-0.3,0.6-0.5,1-0.6c0.1,0,0.2-0.1,0.3-0.1
		c1.5-0.4,3.5-1,4.1-0.8c1.5,0.4,2.6,3.1,3.4,6.4C253.2,115.9,253.5,124.7,253.1,126.5z"/>
	<path class="st0" d="M243.1,100.9c0,0,4.4,1.4,5.2-1.4c0.8-2.7,1.9-4.4-0.8-5.4c-2.8-1-3.6-0.1-4.1,0.7
		C242.8,95.7,242,100.5,243.1,100.9z"/>
	<path class="st0" d="M243.5,94.6c0,0,0.3,3.2,0.9,3c0.7-0.1,1.3-0.2,1.2,0.7c-0.1,1-1,2.1,1,2.2c2,0.2,4.9-5.1,4.4-6
		C249.4,91.7,241.2,91.1,243.5,94.6z"/>
	<path class="st3" d="M234.4,115.3c0,0-1.5-1-1.8-1.1s-1.2-0.2-1.3-0.1c0,0.1-0.2,0.3,0,0.4s0.4,0,0.3,0.1c-0.1,0.1-0.7-0.2-0.8,0.1
		c-0.1,0.3-0.3,1.4,0.5,1.7c0.7,0.3,2.5,0,2.6,0.1C235,116.7,234.4,115.3,234.4,115.3z"/>
	<path class="st0" d="M234.3,115c0,0,7.3,1.2,8,0.9c1-0.5-0.4-8-0.4-8s-0.1-1.7,1.9-2.1c1.7-0.3,3.4,0.9,3.4,0.9s1.5,1.3,1.3,2.8
		c-0.4,3.3-1.1,10-3.3,11.1c-2.9,1.3-11.1-3.7-11.1-3.7s-0.3-0.3-0.2-1C233.9,115.5,234.3,115,234.3,115z"/>
	<path class="st3" d="M229.4,97.1c0,0-0.5-0.9-0.5-1.1c-0.1-0.2,0.1-0.1,0.3,0s0.4,0.6,0.7,0.6C230.1,96.5,229.4,97.1,229.4,97.1z"
		/>
	<polygon class="st2" points="195.9,105.2 186.7,107.3 182.2,115.6 178.7,96.8 	"/>
	<path class="st0" d="M282.4,236.1L282.4,236.1c-0.4,0-0.9-0.3-1-0.7l-26.5-80.8c-0.1-0.4,0.1-0.7,0.6-0.7l0,0c0.4,0,0.9,0.3,1,0.7
		l26.5,80.8C283,235.8,282.8,236.1,282.4,236.1z"/>
	<path class="st0" d="M261,236.3L261,236.3c-0.4,0-0.9-0.3-1-0.7l-26.5-80.8c-0.1-0.4,0.1-0.7,0.6-0.7l0,0c0.4,0,0.9,0.3,1,0.7
		l26.5,80.8C261.7,235.9,261.4,236.3,261,236.3z"/>
	<path class="st0" d="M183.3,172.4c-0.2-2.6,2.6-4.3,4.8-3l0.1,0.1c3.3,2.1,10.4,12,10.8,13c0.5,1,1.9,8.8,1.9,8.8s-1.8,0.7-2.6,0
		c0,0-2.9-7.4-3.3-7.8c-0.4-0.4-11.5-6.6-11.6-8.9C183.4,173.9,183.3,173.1,183.3,172.4z"/>
	<path class="st3" d="M188.5,168.8c0,0-4.7,2.4-7.5,1.6c0,0,0.7-0.9,1.8-1.5c-0.1-0.6-0.2-1-0.2-1.4c-0.1-0.9-0.1-1.5-0.1-1.5
		l1.8-1.5l1.7-1.4C185.9,166.9,188.5,168.8,188.5,168.8z"/>
	<path class="st0" d="M193.2,193.2c-1.9,1.2-3.7,2-5.8,2.5c-2.5,0.6-5.6,0.4-6.6,0.6c-0.1,0-0.2,0-0.3-0.1c-0.1,0-0.5-3.1-1-6.9
		c0-0.2,0-0.3,0-0.5v-0.1c-0.2-1.5-0.3-3.1-0.5-4.7c-0.1-1.2-0.2-2.4-0.3-3.6c-0.1-1.4-0.1-2.7-0.1-3.8c0-0.5,0-0.9,0.1-1.3
		c0.3-2.2,1.3-3.9,2.4-5l0.8-1c1,0.1,2-0.1,2.9-0.7c1-0.7,2.1-1.4,2.3-1.3c1.6,0.9,2.8,3.1,3.8,6c0.5,1.7,0.9,3.6,1.2,5.6
		c0.1,0.6,0.2,1.3,0.2,1.9c0,0.1,0,0.2,0,0.4c0.1,1.8,0.3,3.4,0.5,4.9c0.3,2,0.6,3.6,0.9,4.8c0.1,0.6,0.2,1.1,0.3,1.4
		C194,192.6,193.4,193,193.2,193.2z"/>
	<path class="st0" d="M181.6,165.9c0,0,4.6,0.7,4.9-2.2c0.4-2.8,1.2-4.6-1.7-5.2c-2.9-0.5-3.6,0.5-4,1.4
		C180.5,160.8,180.4,165.6,181.6,165.9z"/>
	<path class="st0" d="M188.1,158.2c0,0,0.1-0.1,0.3-0.1c0,0-0.2-0.1-0.4-0.1c-0.1-0.3-0.2-0.8-0.7-0.9c0,0,0.3,0.1,0.3,0.5
		c-0.6-0.6-1.9-1-5.4-0.7c-4.6,0.5-3,3.4-2.4,3.7s2.1-0.7,3.2-0.6s1.4,1.7,1.7,1.9c0.4,0.2,0.2-0.2,0.7-0.4s0.6,0.6,0.4,1.2
		c-0.1,0.6,0.6,1.3,0.6,1.3s0,0,0.7-0.8s1.3-4,1-4.7C188.1,158.3,188.1,158.2,188.1,158.2z"/>
	<path class="st0" d="M187.1,171.2c2.2,1.3,2,4.6-0.3,5.6c0,0-0.1,0-0.1,0.1c-3.6,1.5-15.8,1.5-16.8,1.3c-1.1-0.2-8.3-3.5-8.3-3.5
		s0.5-1.8,1.5-2.1c0,0,7.7,2,8.3,1.8c0.6-0.1,12.1-5.6,14-4.3C185.8,170.4,186.4,170.8,187.1,171.2z"/>
	<g>
		<g>
			<g>
				<line class="st10" x1="48.4" y1="182.9" x2="46.7" y2="180.9"/>
			</g>
			<g>
				<line class="st10" x1="53.8" y1="185.3" x2="48.4" y2="182.9"/>
			</g>
			<g>
				<polygon class="st1" points="46.7,180.9 52.9,183.8 52.2,184.6 48.4,182.9 				"/>
			</g>
		</g>
		<g>
			<path class="st1" d="M50.1,160.4c0,0-2.1,2.7-2.3,4.4c-0.2,1.4-1.2,9-1.7,12.5c-0.2,1.5,0.1,3,1.1,4.1c0.9,1.1,2.2,1.8,4.1,0.6
				c1.3-0.9,4.5-4.5,4.5-4.5L50.4,161"/>
		</g>
		<g>
			<g>
				<g>
					<g>
						<g>
							<path class="st1" d="M55.8,137.6c1-0.3,2.2-0.2,3.1,0.3c0.5-0.7,1.4-1,2.3-0.9c0.8,0.1,1.6,0.7,1.9,1.5c0.9-0.4,2,0,2.5,0.8
								s0.3,2-0.5,2.6c0.7,0.3,1.3,1,1.5,1.7c0.2,0.8,0,1.6-0.4,2.2c0.8,0.4,0.9,1.4,0.8,2.3c-0.1,0.9-0.4,1.8,0,2.6
								c0.3,0.6,0.9,1,1.3,1.5s0.6,1.4,0,1.8c1,0.1,1.7,1.2,1.5,2.1c-0.2,1-1.2,1.7-2.2,1.4c0.3,0.7,0.2,1.5-0.2,2.1
								c-0.4,0.6-1.1,1-1.8,1.3c-2,0.7-4.5,0-5.8-1.6l-6.4-19.8C53.9,138.6,54.8,137.9,55.8,137.6z"/>
						</g>
					</g>
				</g>
				<g>
					<g>
						<g>
							<g>
								<g>
									<path class="st1" d="M52.8,143.1l-0.1-1.1l6.3-1.6c2-0.3,4.2,1.5,4.5,3.5c0.3,2.2,0.5,4.9,0.4,6.6
										c-0.3,3.3-2.8,3.9-2.8,3.9l0.2,3.3l-7.3,0.5L52.8,143.1z"/>
								</g>
							</g>
						</g>
					</g>
					<g>
						<g>
							<g>
								<g>
									<path class="st1" d="M61.1,155.2v-0.8c0,0-2.3,0.3-4.6-0.9"/>
								</g>
							</g>
						</g>
					</g>
					<g>
						<g>
							<g>
								<g>
									<path class="st1" d="M63.5,141.5c-0.7-1-1.1-2.4-2.2-2.7l-6.1,1.4h-0.5c-0.1-0.3-0.7-0.5-0.7-0.5c-0.5-0.4-2.3-0.4-3.5,0.9
										c-0.4,0.5-0.8,1.6-0.8,2.2c0,0.2,0.3,0.6,0.1,0.7c-0.1,0-0.7,0-0.7,0.1c-1.4,0.3-2.2,1.5-2,3.3c0,0.1,0,0.2,0,0.3
										s-0.1,0.2-0.2,0.4c-0.6,0.7-0.8,1.8-0.4,2.6c0.1,0.3,0.3,0.5,0.4,0.8c0.1,0.5-0.3,1-0.6,1.4c-0.9,1.3-1.1,3.2,0,4.4
										c0.2,0.3,0.6,0.5,0.7,0.9c0,0.2,0,0.4,0,0.6c0,0.9,0.5,2,1.4,2.2c0.5,0.1,1.1,0,1.5,0.3c0.2,0.2,0.2,0.4,0.3,0.6
										c0.4,0.8,1.4,1.2,2.2,0.9s1.1-3.6,1-4.5c1-0.4,1.8-0.4,1.7-1.5c0,0-0.2-1.8,0.1-2.7s-0.3-2.8-0.6-3.7s0.1-3.1,0.2-3.9
										c0-0.1,0-0.4-0.1-0.7l0,0l0,0c0-0.2-0.1-0.4-0.1-0.7c0-0.2-0.2-1.5-0.2-1.7c0-0.8,1-0.4,1.8-0.1c0.2,0.1,0.4,0.1,0.6,0.1
										c0.6,0,1.3-0.3,1.7-0.8c0.7,0.8,1.9,1.1,2.9,0.8c0.4,0.6,0.8,1.2,1.4,1.6c0.6,0.4,1.3,0.8,2,0.7
										C64.6,143.7,64.2,142.5,63.5,141.5z"/>
								</g>
							</g>
						</g>
					</g>
				</g>
			</g>
			<g>
				<g>
					<g>
						<g>
							<g>
								<g>
									<g>
										<g>
											<g>
												<g>
													<g>
														<g>
															<g>
																<g>
																	<g>
																		<g>
																			<g>
																				<g>
																					<g>
																						<g>
																							<path class="st1" d="M69,236.5l-0.6,6.3c0,0,6.9,2.6,6.9,3.8h-13v-0.9l0.5-3.2l0.8-6.3L69,236.5z"/>
																						</g>
																					</g>
																				</g>
																			</g>
																		</g>
																	</g>
																</g>
															</g>
														</g>
													</g>
												</g>
											</g>
										</g>
									</g>
								</g>
							</g>
						</g>
					</g>
					<g>
						<g>
							<g>
								<g>
									<g>
										<g>
											<g>
												<g>
													<g>
														<g>
															<g>
																<g>
																	<g>
																		<g>
																			<g>
																				<g>
																					<g>
																						<g>
																							<g>
																								<path class="st1" d="M64.5,241.8c-0.3,0.1-0.4,0.4-0.4,0.6c0.1,0.3,0.4,0.4,0.6,0.4
																									c0.3-0.1,0.5-0.4,0.4-0.7C65.1,241.9,64.7,241.7,64.5,241.8"/>
																							</g>
																						</g>
																					</g>
																				</g>
																			</g>
																		</g>
																	</g>
																</g>
															</g>
														</g>
													</g>
												</g>
											</g>
										</g>
									</g>
								</g>
							</g>
						</g>
					</g>
					<g>
						<g>
							<g>
								<g>
									<g>
										<g>
											<g>
												<g>
													<g>
														<g>
															<g>
																<g>
																	<g>
																		<g>
																			<g>
																				<g>
																					<g>
																						<g>
																							<path class="st1" d="M62.4,246.7v-0.9l12.4,0.2c0,0,0.6,0.3,0.5,0.7H62.4z"/>
																						</g>
																					</g>
																				</g>
																			</g>
																		</g>
																	</g>
																</g>
															</g>
														</g>
													</g>
												</g>
											</g>
										</g>
									</g>
								</g>
							</g>
						</g>
					</g>
					<g>
						<g>
							<g>
								<g>
									<g>
										<g>
											<g>
												<g>
													<g>
														<g>
															<g>
																<g>
																	<g>
																		<g>
																			<g>
																				<g>
																					<g>
																						<g>
																							<g>
																								<path class="st1" d="M68.6,242.7c0,0.1-0.3,0.1-0.6,0.3c-0.3,0.2-0.5,0.5-0.5,0.5c-0.1,0,0-0.4,0.4-0.6
																									C68.3,242.6,68.6,242.7,68.6,242.7z"/>
																							</g>
																						</g>
																					</g>
																				</g>
																			</g>
																		</g>
																	</g>
																</g>
															</g>
														</g>
													</g>
												</g>
											</g>
										</g>
									</g>
								</g>
							</g>
						</g>
					</g>
					<g>
						<g>
							<g>
								<g>
									<g>
										<g>
											<g>
												<g>
													<g>
														<g>
															<g>
																<g>
																	<g>
																		<g>
																			<g>
																				<g>
																					<g>
																						<g>
																							<g>
																								<path class="st1" d="M70,243.3c0,0.1-0.3,0.2-0.5,0.4c-0.2,0.3-0.3,0.6-0.3,0.6c-0.1,0-0.1-0.4,0.2-0.7
																									C69.6,243.3,70,243.3,70,243.3z"/>
																							</g>
																						</g>
																					</g>
																				</g>
																			</g>
																		</g>
																	</g>
																</g>
															</g>
														</g>
													</g>
												</g>
											</g>
										</g>
									</g>
								</g>
							</g>
						</g>
					</g>
					<g>
						<g>
							<g>
								<g>
									<g>
										<g>
											<g>
												<g>
													<g>
														<g>
															<g>
																<g>
																	<g>
																		<g>
																			<g>
																				<g>
																					<g>
																						<g>
																							<g>
																								<path class="st1" d="M70.8,245c-0.1,0-0.1-0.3,0-0.7c0.2-0.4,0.5-0.5,0.5-0.4s-0.2,0.2-0.3,0.5
																									C70.9,244.7,70.9,245,70.8,245z"/>
																							</g>
																						</g>
																					</g>
																				</g>
																			</g>
																		</g>
																	</g>
																</g>
															</g>
														</g>
													</g>
												</g>
											</g>
										</g>
									</g>
								</g>
							</g>
						</g>
					</g>
					<g>
						<g>
							<g>
								<g>
									<g>
										<g>
											<g>
												<g>
													<g>
														<g>
															<g>
																<g>
																	<g>
																		<g>
																			<g>
																				<g>
																					<g>
																						<g>
																							<g>
																								<path class="st1" d="M69.1,241.2c0,0.1-0.3,0-0.7,0c-0.4,0-0.7,0.1-0.7,0.1s0.2-0.3,0.7-0.3
																									C68.8,241,69.1,241.2,69.1,241.2z"/>
																							</g>
																						</g>
																					</g>
																				</g>
																			</g>
																		</g>
																	</g>
																</g>
															</g>
														</g>
													</g>
												</g>
											</g>
										</g>
									</g>
								</g>
							</g>
						</g>
					</g>
				</g>
			</g>
			<g>
				<g>
					<g>
						<g>
							<g>
								<g>
									<g>
										<g>
											<g>
												<g>
													<g>
														<g>
															<g>
																<g>
																	<g>
																		<g>
																			<g>
																				<g>
																					<g>
																						<g>
																							<path class="st1" d="M53.1,236.7l-0.6,6.2c0,0,6.7,2.5,6.8,3.7l-12.7,0.1v-0.9l0.5-3.2l0.7-6.2L53.1,236.7z"
																								/>
																						</g>
																					</g>
																				</g>
																			</g>
																		</g>
																	</g>
																</g>
															</g>
														</g>
													</g>
												</g>
											</g>
										</g>
									</g>
								</g>
							</g>
						</g>
					</g>
					<g>
						<g>
							<g>
								<g>
									<g>
										<g>
											<g>
												<g>
													<g>
														<g>
															<g>
																<g>
																	<g>
																		<g>
																			<g>
																				<g>
																					<g>
																						<g>
																							<g>
																								<path class="st1" d="M48.7,241.9c-0.3,0.1-0.4,0.4-0.4,0.6c0.1,0.3,0.3,0.4,0.6,0.4
																									c0.3-0.1,0.5-0.4,0.4-0.6C49.2,242,48.9,241.8,48.7,241.9"/>
																							</g>
																						</g>
																					</g>
																				</g>
																			</g>
																		</g>
																	</g>
																</g>
															</g>
														</g>
													</g>
												</g>
											</g>
										</g>
									</g>
								</g>
							</g>
						</g>
					</g>
					<g>
						<g>
							<g>
								<g>
									<g>
										<g>
											<g>
												<g>
													<g>
														<g>
															<g>
																<g>
																	<g>
																		<g>
																			<g>
																				<g>
																					<g>
																						<g>
																							<path class="st1" d="M46.6,246.7v-0.9l12.2,0.2c0,0,0.6,0.3,0.5,0.7H46.6z"/>
																						</g>
																					</g>
																				</g>
																			</g>
																		</g>
																	</g>
																</g>
															</g>
														</g>
													</g>
												</g>
											</g>
										</g>
									</g>
								</g>
							</g>
						</g>
					</g>
					<g>
						<g>
							<g>
								<g>
									<g>
										<g>
											<g>
												<g>
													<g>
														<g>
															<g>
																<g>
																	<g>
																		<g>
																			<g>
																				<g>
																					<g>
																						<g>
																							<g>
																								<path class="st1" d="M52.8,242.8c0,0.1-0.3,0.1-0.6,0.3s-0.5,0.5-0.5,0.4c-0.1,0,0-0.4,0.4-0.6
																									C52.4,242.7,52.8,242.8,52.8,242.8z"/>
																							</g>
																						</g>
																					</g>
																				</g>
																			</g>
																		</g>
																	</g>
																</g>
															</g>
														</g>
													</g>
												</g>
											</g>
										</g>
									</g>
								</g>
							</g>
						</g>
					</g>
					<g>
						<g>
							<g>
								<g>
									<g>
										<g>
											<g>
												<g>
													<g>
														<g>
															<g>
																<g>
																	<g>
																		<g>
																			<g>
																				<g>
																					<g>
																						<g>
																							<g>
																								<path class="st1" d="M54.1,243.4c0,0.1-0.3,0.2-0.5,0.4c-0.2,0.3-0.3,0.6-0.3,0.6c-0.1,0-0.1-0.4,0.2-0.7
																									C53.7,243.3,54.1,243.3,54.1,243.4z"/>
																							</g>
																						</g>
																					</g>
																				</g>
																			</g>
																		</g>
																	</g>
																</g>
															</g>
														</g>
													</g>
												</g>
											</g>
										</g>
									</g>
								</g>
							</g>
						</g>
					</g>
					<g>
						<g>
							<g>
								<g>
									<g>
										<g>
											<g>
												<g>
													<g>
														<g>
															<g>
																<g>
																	<g>
																		<g>
																			<g>
																				<g>
																					<g>
																						<g>
																							<g>
																								<path class="st1" d="M54.9,245c-0.1,0-0.1-0.3,0-0.7c0.2-0.4,0.5-0.5,0.5-0.4s-0.2,0.2-0.3,0.5
																									C55,244.7,55,245,54.9,245z"/>
																							</g>
																						</g>
																					</g>
																				</g>
																			</g>
																		</g>
																	</g>
																</g>
															</g>
														</g>
													</g>
												</g>
											</g>
										</g>
									</g>
								</g>
							</g>
						</g>
					</g>
					<g>
						<g>
							<g>
								<g>
									<g>
										<g>
											<g>
												<g>
													<g>
														<g>
															<g>
																<g>
																	<g>
																		<g>
																			<g>
																				<g>
																					<g>
																						<g>
																							<g>
																								<path class="st1" d="M53.2,241.3c0,0.1-0.3,0-0.7,0s-0.6,0.1-0.7,0.1c0,0,0.2-0.3,0.7-0.3
																									C52.9,241.1,53.2,241.3,53.2,241.3z"/>
																							</g>
																						</g>
																					</g>
																				</g>
																			</g>
																		</g>
																	</g>
																</g>
															</g>
														</g>
													</g>
												</g>
											</g>
										</g>
									</g>
								</g>
							</g>
						</g>
					</g>
				</g>
			</g>
			<g>
				<g>
					<g>
						<g>
							<path class="st1" d="M63.1,194.3c-0.1,0.4-2.2,14.9-3.7,21.4c-1.5,6.4-3.2,8.1-3.5,13.4c-0.3,6-2,13.3-2,13.3h-7.4
								c0,0,1-11.1,2.1-19.8c1-8.7,2.6-19.4,2.3-22.6c-0.2-3.2-0.8-7.2,0-11.7s2.6-5.7,2.6-5.7l6.3-0.3L63.1,194.3z"/>
						</g>
					</g>
				</g>
				<g>
					<g>
						<g>
							<g>
								<path class="st1" d="M56.1,186c0,0,0,0.1-0.1,0.2c-0.1,0.1-0.2,0.4-0.3,0.7c-0.2,0.6-0.3,1.5-0.2,2.7c0,1.1,0.2,2.5,0.6,3.9
									c0.2,0.7,0.5,1.5,0.8,2.2c0.4,0.7,0.9,1.4,1.3,2.1c1,1.4,1.5,3,1.9,4.4s0.6,2.8,0.7,3.9c0.1,1.1,0.2,2,0.3,2.7
									c0,0.3,0.1,0.5,0.1,0.7s0,0.3,0,0.3s0-0.1,0-0.3s0-0.4,0-0.7c0-0.6-0.1-1.5-0.2-2.7c-0.1-1.1-0.3-2.5-0.7-3.9
									c-0.2-0.7-0.4-1.5-0.7-2.2c-0.2-0.4-0.3-0.8-0.5-1.1c-0.2-0.4-0.4-0.7-0.7-1.1c-0.5-0.7-1-1.4-1.3-2.1
									c-0.4-0.7-0.6-1.5-0.8-2.2c-0.4-1.4-0.6-2.8-0.6-3.9c-0.1-1.1,0-2,0.2-2.6c0.1-0.3,0.2-0.5,0.2-0.7
									C56.1,186.1,56.1,186,56.1,186z"/>
							</g>
						</g>
					</g>
				</g>
				<g>
					<g>
						<g>
							<path class="st1" d="M69.3,181.9c0,0,3.1,8.9,3.2,15.5s0.2,17.1-1.2,28.7c-1.4,11.6-2,16.3-2,16.3h-7c0,0-0.7-7.3-0.6-13.8
								c0.1-6.5,0.6-8.6,0-15.7c-0.6-7.2-1.6-11.5-2.7-13.6c0,0-2.9-3.4-3.1-8.1c-0.2-4.7,1.5-8.7,1.5-8.7L69.3,181.9z"/>
						</g>
					</g>
				</g>
			</g>
			<g>
				<g>
					<g>
						<g>
							<path class="st1" d="M85.7,163.7c-1.3,0.8-3.6,1.5-3.6,1.5l-2.6-2.1c0,0,1.9-3.4,2.5-4.4c0.2-0.3,0.4-0.8,0.5-1
								c0.2-0.7,0.7-0.4,0.8,0.2c0,0.2-0.1,0.7-0.2,0.9c-0.2,0.6-0.2,1.1-0.2,1.1s0.2-0.2,0.7-0.5s2.2-1.8,3-2.4
								c1.1-0.9,1.6-0.3,1.5,0c-0.2,0.4-2.9,2.3-2.8,2.6c0,0,0.5,0.3,0.6,0.6s0,0.7,0,0.7s0.5,0,0.6,0.4c0.1,0.3,0,0.8,0,0.8
								s0.5,0,0.5,0.3C86.9,162.6,86.6,163.1,85.7,163.7z"/>
						</g>
					</g>
				</g>
			</g>
			<g>
				<g>
					<g>
						<g>
							<g>
								<g>
									<path class="st1" d="M79.9,162.2c0,0.1-5.6,5.8-5.6,5.8s-4.6-5.2-6-7.1c-1.4-1.9-3.5-4.3-5.4-4.7c-1.8-0.4-4.4,0.7-4.4,0.7
										l3.2,6.7l4.1,5.6c0,0,4.4,5.6,6.5,6.4c2.1,0.9,4.2-0.4,5.1-1.3c0.9-0.9,6.2-9,6.2-9L79.9,162.2z"/>
								</g>
							</g>
						</g>
					</g>
					<g>
						<g>
							<g>
								<path class="st1" d="M66.7,168.9c1.3,6.5,2.8,13.1,2.8,13.1l-11.8,1.4c-1.2,0.2-2.5,0.1-3.7-0.1l-1.2-0.2l1-4.2
									c-1.7-4.2-2.9-7.8-3.6-10.7c-1.6-6.4-1.1-9.9-1.1-9.9l12.7-2.2"/>
							</g>
						</g>
					</g>
					<g>
						<g>
							<g>
								<g>
									<g>
										<path class="st1" d="M62.1,164.6c0,0,0.1,0.1,0.2,0.3c0.2,0.2,0.4,0.4,0.6,0.7c0.5,0.6,1.2,1.5,1.9,2.4
											c0.8,1,1.5,1.8,2,2.4c0.3,0.3,0.5,0.5,0.6,0.7c0.2,0.2,0.2,0.2,0.3,0.2c0,0-0.1-0.1-0.2-0.3c-0.2-0.2-0.4-0.4-0.6-0.7
											c-0.5-0.6-1.2-1.5-1.9-2.4c-0.8-1-1.5-1.8-2-2.4c-0.3-0.3-0.5-0.5-0.6-0.7C62.2,164.6,62.1,164.6,62.1,164.6z"/>
									</g>
								</g>
							</g>
						</g>
					</g>
				</g>
				<g>
					<g>
						<g>
							<g>
								<path class="st1" d="M54,179.2c0,0,0.3,0.1,0.8,0.2c0.5,0.1,1.2,0.2,2,0.2s1.5,0,2-0.1s0.8-0.1,0.8-0.2c0,0-0.3,0-0.8,0.1
									c-0.5,0-1.2,0.1-2,0c-0.8,0-1.5-0.1-2-0.2C54.3,179.3,54,179.2,54,179.2z"/>
							</g>
						</g>
					</g>
				</g>
				<g>
					<g>
						<g>
							<g>
								<path class="st1" d="M74.5,171.3c0,0,0.1-0.7,0.1-1.6c0-0.9-0.1-1.6-0.1-1.6s-0.1,0.7-0.1,1.6S74.4,171.3,74.5,171.3z"/>
							</g>
						</g>
					</g>
				</g>
			</g>
			<g>
				<g>
					<g>
						<g>
							<g>
								<path class="st1" d="M47.3,147.2c0,0-0.1-0.1-0.1-0.4c-0.1-0.3-0.1-0.7-0.1-1.1c0.1-0.5,0.3-1,0.8-1.5
									c0.5-0.4,1.2-0.7,1.9-0.6h0.1v-0.1c-0.1-0.2-0.1-0.5-0.1-0.7c0-0.8,0.3-1.6,0.7-2.2c0.5-0.6,1.1-0.9,1.6-1s1-0.1,1.3,0
									s0.5,0.1,0.5,0.1s0,0-0.1-0.1c-0.1,0-0.2-0.1-0.3-0.1c-0.3-0.1-0.8-0.1-1.3,0c-0.6,0.1-1.2,0.4-1.7,1s-0.8,1.4-0.8,2.3
									c0,0.3,0.1,0.5,0.1,0.7l0.1-0.1c-0.8-0.1-1.6,0.2-2.1,0.7s-0.7,1.1-0.8,1.6s0,0.9,0.1,1.2C47.2,146.9,47.2,147,47.3,147.2
									L47.3,147.2z"/>
							</g>
						</g>
					</g>
				</g>
			</g>
		</g>
		<g>
			<g>
				<path class="st1" d="M51.6,175.5c-0.4,1-0.7,1.8-0.7,1.8s0.4-0.7,0.9-1.7"/>
			</g>
		</g>
	</g>
</g>
<g>
	<g>
		<g>
			<g>
				<g>
					<g>
						<g>
							<g>
								<g>
									<g>
										<g>
											<g>
												<g>
													<g>
														<path class="st0" d="M66.8,107.9l-3.1-0.2c-1.3,1.2-3,2.1-4.8,2.5c-5.4,1.1-10.7-2.4-11.7-7.8
															C46.1,97,49.6,91.7,55,90.6s10.7,2.4,11.7,7.8c0.5,2.3,0.1,4.5-0.9,6.4l0,0L66.8,107.9z"/>
													</g>
													<g>
														<g>
															<path class="st0" d="M66.8,107.9c0,0,0-0.1-0.1-0.2c0-0.1-0.1-0.3-0.2-0.6c-0.2-0.5-0.4-1.3-0.7-2.3l0,0l0,0l0,0l0,0
																c0.6-1.1,1.1-2.8,1.1-4.8c0-0.5-0.1-1-0.2-1.5s-0.2-1.1-0.5-1.6c-0.4-1.1-1-2.2-1.8-3.1c-0.8-1-1.9-1.8-3.2-2.4
																s-2.7-1-4.2-1s-3,0.3-4.5,1c-1.4,0.7-2.7,1.7-3.7,3c-0.1,0.2-0.2,0.3-0.4,0.5c-0.1,0.2-0.2,0.4-0.3,0.5l-0.2,0.3
																l0.1,0.2c-0.1,0.2-0.2,0.4-0.3,0.6s-0.1,0.4-0.2,0.6c-0.1,0.2-0.1,0.4-0.2,0.6c-0.1,0.4-0.2,0.8-0.3,1.2
																c-0.3,1.6-0.1,3.1,0.3,4.6c0.4,1.4,1.2,2.7,2.2,3.8c0.9,1,2.1,1.8,3.2,2.4c1.2,0.5,2.4,0.8,3.5,0.9
																c0.6,0.1,1.1,0,1.7,0c0.5-0.1,1-0.1,1.5-0.3c1.9-0.5,3.4-1.5,4.3-2.4l0,0c1,0.1,1.8,0.1,2.3,0.1c0.3,0,0.5,0,0.6,0
																C66.8,107.9,66.8,107.9,66.8,107.9s-0.1,0-0.2,0s-0.3,0-0.6,0c-0.5,0-1.3-0.1-2.3-0.2l0,0l0,0
																c-0.9,0.9-2.3,1.8-4.3,2.3c-0.5,0.1-1,0.2-1.5,0.3c-0.5,0-1.1,0.1-1.7,0c-1.1-0.1-2.3-0.4-3.5-0.9s-2.3-1.3-3.2-2.4
																c-0.9-1-1.7-2.3-2.1-3.7c-0.4-1.4-0.6-3-0.3-4.5c0-0.4,0.2-0.8,0.3-1.2c0-0.2,0.1-0.4,0.2-0.6
																c0.1-0.2,0.1-0.4,0.2-0.6c0.1-0.2,0.2-0.4,0.3-0.5l0.1-0.3l0.2-0.3c0.1-0.2,0.2-0.3,0.3-0.5s0.2-0.3,0.4-0.5
																c1-1.3,2.3-2.3,3.7-3s2.9-1,4.4-1s2.9,0.4,4.1,1c1.2,0.6,2.3,1.4,3.1,2.4c0.8,1,1.4,2,1.8,3.1
																c0.2,0.5,0.3,1.1,0.5,1.6c0.1,0.5,0.2,1,0.2,1.5c0.1,2-0.5,3.6-1,4.8l-0.1,0.2l0.1-0.1l0,0l0,0
																c0.3,1,0.6,1.7,0.7,2.3c0.1,0.3,0.1,0.5,0.2,0.6C66.8,107.8,66.8,107.9,66.8,107.9z"/>
														</g>
													</g>
												</g>
											</g>
										</g>
									</g>
								</g>
							</g>
						</g>
					</g>
				</g>
			</g>
		</g>
	</g>
	<g>
		<g>
			<path class="st2" d="M60.7,99c-0.1-0.5-0.4-0.9-0.7-1.2c-0.3-0.3-0.8-0.6-1.2-0.7c-0.5-0.1-1,0.1-1.4,0.4
				c-0.2,0.2-0.4,0.4-0.5,0.7c-0.2-0.2-0.4-0.4-0.6-0.6c-0.4-0.3-1-0.3-1.5-0.2c-0.5,0.1-0.8,0.4-1.1,0.8s-0.5,0.8-0.5,1.3
				c0,0.6,0.1,1.3,0.5,1.8s0.9,0.9,1.5,1.2c1,0.5,2.2,1.1,2.2,1.1s1-0.8,1.9-1.5c0.5-0.4,1-0.8,1.3-1.4
				C60.8,100.3,60.8,99.6,60.7,99z"/>
		</g>
	</g>
</g>
</svg>
