<?xml version="1.0" encoding="utf-8"?>
<!-- Generator: Adobe Illustrator 27.3.1, SVG Export Plug-In . SVG Version: 6.00 Build 0)  -->
<svg version="1.1" id="Layer_1" xmlns="http://www.w3.org/2000/svg" xmlns:xlink="http://www.w3.org/1999/xlink" x="0px" y="0px"
	 viewBox="0 0 350 260" style="enable-background:new 0 0 350 260;" xml:space="preserve">
<style type="text/css">
	.st0{fill:#FFFFFF;stroke:#000000;stroke-width:0.5;stroke-miterlimit:10;}
	.st1{fill:#FFFFFF;stroke:#FFFFFF;stroke-width:0.5;stroke-miterlimit:10;}
	.st2{opacity:0.3;}
	.st3{fill:#FFFFFF;stroke:#000000;stroke-width:0.5;stroke-miterlimit:10.0004;}
	.st4{fill:#E75653;stroke:#1A1A1A;stroke-width:0.5;stroke-linecap:round;stroke-linejoin:round;}
	.st5{fill:none;stroke:#000000;stroke-width:0.5;stroke-miterlimit:10;}
	.st6{fill:#FFFFFF;}
	.st7{font-family:'Montserrat-Bold';}
	.st8{font-size:2.7687px;}
	.st9{fill:#FFFFFF;stroke:#000000;stroke-width:0.5;stroke-linecap:round;stroke-linejoin:round;stroke-miterlimit:10;}
</style>
<g>
	<g>
		<g>
			<path class="st0" d="M75.6,43.6c1.5,10.4-5.7,20.1-16.2,21.6c-10.4,1.5-20-5.7-21.6-16.1C36.3,38.7,43.6,29,54,27.5
				S74.1,33.2,75.6,43.6z"/>
		</g>
		<g>
			<path class="st0" d="M71.1,44.2c1.2,7.9-4.4,15.3-12.3,16.5c-8,1.2-15.3-4.3-16.5-12.3c-1.2-7.9,4.4-15.3,12.3-16.5
				C62.6,30.8,70,36.3,71.1,44.2z"/>
		</g>
	</g>
	<g>
		<g>
			<g>
				<path class="st0" d="M59.6,54.7l0.4,2.5l-2.2,0.4l-0.4-2.4c-2.2,0.2-4.5-0.1-5.8-0.9l0.8-2.9c1.2,0.6,3,1,4.6,0.9l-0.6-3.7
					c-2.6-0.2-5.5-0.6-6-3.8c-0.4-2.4,1-4.7,4.5-5.6l-0.4-2.5l2.2-0.4l0.4,2.4c1.7-0.1,3.4,0.1,4.8,0.6l-0.7,2.9
					c-1.2-0.5-2.5-0.7-3.6-0.6l0.6,3.8c2.6,0.2,5.4,0.6,5.9,3.7C64.4,51.4,63.1,53.7,59.6,54.7z M55.8,45.2L55.3,42
					c-1.1,0.5-1.5,1.2-1.4,1.9C54,44.7,54.8,45,55.8,45.2z M60.5,49.9c-0.1-0.8-0.8-1.1-1.9-1.3l0.5,3.1
					C60.2,51.3,60.6,50.7,60.5,49.9z"/>
			</g>
		</g>
	</g>
</g>
<g>
	<g>
		<g>
			<path class="st0" d="M32.1,127.2c-4.1,5-11.5,5.7-16.5,1.6c-5-4.1-5.7-11.5-1.7-16.5c4.1-5,11.5-5.7,16.5-1.6
				C35.5,114.8,36.2,122.2,32.1,127.2z"/>
		</g>
		<g>
			<path class="st0" d="M30,125.4c-3.1,3.8-8.7,4.4-12.6,1.2c-3.8-3.1-4.4-8.7-1.3-12.6c3.1-3.8,8.7-4.4,12.6-1.2
				C32.5,116,33.1,121.6,30,125.4z"/>
		</g>
		<g>
			<g>
				<path class="st0" d="M30.1,125.2c0,0,0.2-0.4,0.5-1s0.7-1.6,0.9-2.8c0.1-0.6,0.2-1.3,0.1-2c0-0.7-0.2-1.5-0.4-2.3
					c-0.1-0.4-0.3-0.8-0.5-1.1c-0.2-0.4-0.4-0.8-0.7-1.1c-0.3-0.4-0.5-0.7-0.8-1s-0.7-0.6-1-0.9c-0.4-0.3-0.8-0.5-1.2-0.8
					c-0.4-0.2-0.8-0.4-1.2-0.5c-0.4-0.2-0.8-0.3-1.2-0.3c-0.4-0.1-0.8-0.1-1.2-0.2c-0.8,0-1.6,0-2.3,0.2c-0.7,0.1-1.3,0.4-1.9,0.6
					c-1.1,0.5-1.9,1.2-2.4,1.6c-0.5,0.5-0.8,0.8-0.8,0.7c0,0,0.2-0.4,0.6-0.9c0.5-0.5,1.3-1.3,2.4-1.9c0.6-0.3,1.2-0.6,2-0.7
					c0.7-0.2,1.6-0.3,2.4-0.2c0.4,0,0.9,0.1,1.3,0.1c0.4,0.1,0.9,0.2,1.3,0.4c0.4,0.2,0.9,0.3,1.3,0.6c0.4,0.2,0.8,0.5,1.2,0.8
					c0.4,0.3,0.8,0.6,1.1,1c0.3,0.4,0.6,0.7,0.9,1.1s0.5,0.8,0.7,1.2c0.2,0.4,0.4,0.8,0.5,1.2c0.3,0.8,0.4,1.7,0.4,2.4
					c0,0.8-0.1,1.5-0.2,2.1c-0.3,1.3-0.8,2.2-1.2,2.8C30.5,125,30.2,125.3,30.1,125.2z"/>
			</g>
		</g>
	</g>
	<g>
		<g>
			<g>
				<path class="st0" d="M20.5,124.5l-1,1.2l-1.1-0.9l0.9-1.2c-1-0.9-1.8-2.1-2-3l1.7-0.9c0.2,0.8,0.8,1.8,1.5,2.5l1.4-1.8
					c-1-1.3-2-2.7-0.8-4.3c0.9-1.2,2.5-1.5,4.4-0.3l1-1.2l1.1,0.9l-0.9,1.2c0.8,0.7,1.4,1.6,1.7,2.4l-1.6,0.9
					c-0.3-0.8-0.7-1.4-1.2-1.9l-1.5,1.8c1,1.2,2,2.7,0.8,4.2C23.9,125.4,22.3,125.7,20.5,124.5z M23.2,118.9l1.2-1.5
					c-0.7-0.3-1.2-0.2-1.4,0.2C22.7,117.9,22.8,118.3,23.2,118.9z M23,123c0.3-0.4,0.2-0.8-0.2-1.4l-1.2,1.5
					C22.2,123.4,22.7,123.3,23,123z"/>
			</g>
		</g>
	</g>
</g>
<g>
	<g>
		<g>
			<g>
				<path class="st0" d="M323.4,60.4l-17.8-28.6c-0.5-0.8-1.3-1.4-2.2-1.5l-15.7-3.2c-1.7-0.3-3.4,0.7-3.9,2.3l-4.5,15.4
					c-0.3,0.9-0.1,1.9,0.3,2.7l17.8,28.6c1,1.6,3,2.1,4.6,1.1L322.2,65C323.8,64,324.3,62,323.4,60.4z M291.6,37.7
					c-1.5,0.8-3.4,0.2-4.2-1.3c-0.8-1.5-0.2-3.4,1.3-4.2s3.4-0.2,4.2,1.3S293.1,36.9,291.6,37.7z"/>
			</g>
		</g>
		<g>
			<g>
				<g>
					<path class="st0" d="M323.4,60.4l-17.8-28.6c-0.5-0.8-1.3-1.4-2.2-1.5l-15.7-3.2c-1.7-0.3-3.4,0.7-3.9,2.3l-4.5,15.4
						c-0.3,0.9-0.1,1.9,0.3,2.7l17.8,28.6c1,1.6,3,2.1,4.6,1.1L322.2,65C323.8,64,324.3,62,323.4,60.4z M291.6,37.7
						c-1.5,0.8-3.4,0.2-4.2-1.3c-0.8-1.5-0.2-3.4,1.3-4.2s3.4-0.2,4.2,1.3S293.1,36.9,291.6,37.7z"/>
				</g>
			</g>
		</g>
	</g>
	<g>
		<g>
			<path class="st0" d="M289.3,56.1c-1.7-2.8-1-5.6,1.3-7c2.4-1.5,5.2-0.9,6.9,1.9c1.8,2.8,1,5.6-1.4,7.1
				C293.9,59.5,291.1,58.9,289.3,56.1z M294.8,52.7c-1-1.6-2-1.9-2.8-1.4c-0.7,0.5-1,1.5,0.1,3.1c1,1.6,2,1.9,2.8,1.4
				C295.7,55.4,295.9,54.3,294.8,52.7z M300.4,43.3l3.3-2.1l-1,23l-3.3,2.1L300.4,43.3z M305.5,56.7c-1.7-2.8-1.1-5.6,1.3-7
				c2.4-1.5,5.2-0.9,6.9,1.9c1.8,2.8,1,5.6-1.4,7.1C310,60.1,307.2,59.5,305.5,56.7z M311,53.2c-1-1.6-2-1.9-2.8-1.4s-1,1.5,0.1,3.1
				c1,1.6,2,1.9,2.8,1.4C311.8,55.9,312,54.9,311,53.2z"/>
		</g>
	</g>
</g>
<g>
	<g>
		<path class="st1" d="M22,209.1c0-0.1,71.2-0.1,159.1-0.1s159.1,0.1,159.1,0.1c0,0.1-71.2,0.1-159.1,0.1
			C93.2,209.2,22,209.2,22,209.1z"/>
	</g>
</g>
<g>
	<g>
		<g>
			<g>
				<g>
					<path class="st0" d="M247.4,188.5c0,0-3.6,0.2-3.9,0.8c0,0,0,2.6,2.5,5.3l-0.5,1.1v1.8c1.2-2.3,2.5-5.8,2.5-5.8
						S248.1,189.3,247.4,188.5z"/>
				</g>
			</g>
			<g class="st2">
				<g>
					<g>
						<path class="st0" d="M247.3,188.8c0,0-1.3,3.3-0.5,5.6C246.8,194.4,248.6,191.5,247.3,188.8z"/>
					</g>
				</g>
			</g>
			<g>
				<g>
					<g>
						<path class="st0" d="M253,192.9c0,0-1.7-3.2-2.4-3.2c0,0-2.4,1-3.8,4.5h-1.2c0,0-0.6-2.7-3.8-4.3c0,0-1.8,3.3-1.9,3.3
							c-0.1,0,1.5,1.6,4.1,1.7c2.6,0.1,6.3-0.1,6.3-0.1S252.6,193.8,253,192.9z"/>
					</g>
				</g>
			</g>
			<g class="st2">
				<g>
					<g>
						<path class="st0" d="M245,194.6c0,0-2.7-1.6-4.9-1.4C240.1,193.2,242.6,195.3,245,194.6z"/>
					</g>
				</g>
			</g>
			<g class="st2">
				<g>
					<g>
						<path class="st0" d="M252.7,192.9c0,0-3.5,0.2-5.3,1.9C247.4,194.8,250.7,195.2,252.7,192.9z"/>
					</g>
				</g>
			</g>
		</g>
		<g>
			<g>
				<g>
					<g>
						<polygon class="st0" points="258.2,194.8 257.3,209.1 235.2,208.9 235,194.6 						"/>
					</g>
				</g>
			</g>
		</g>
		<g class="st2">
			<g>
				<g>
					<polygon class="st0" points="254,194.8 253.9,209.1 257.3,209.1 258.2,194.8 					"/>
				</g>
			</g>
		</g>
		<g>
			<g>
				<g>
					<polygon class="st0" points="256.6,194.8 255.9,209.1 255.1,209.1 255.2,194.8 					"/>
				</g>
			</g>
		</g>
		<g>
			<g>
				<g>
					
						<rect x="237.4" y="201" transform="matrix(9.363266e-03 -1 1 9.363266e-03 40.4165 444.5684)" class="st3" width="14.3" height="1.8"/>
				</g>
			</g>
		</g>
	</g>
	<g>
		<g>
			<rect x="235.1" y="200.9" class="st0" width="22.7" height="1.4"/>
		</g>
	</g>
</g>
<g>
	<g>
		<g>
			<g>
				<g>
					<g>
						<g>
							<path class="st0" d="M269.2,181.1c-0.1,0-0.1-1.3-0.7-3.3c-0.3-1-0.8-2.1-1.6-3c-0.7-0.9-1.8-1.7-3.1-1.7
								c-1.2,0-2.3,0.7-3.1,1.6c-0.8,0.9-1.3,2-1.6,3c-0.6,1.9-0.6,3.3-0.7,3.3c0,0,0-0.1,0-0.2c0-0.2,0-0.4,0.1-0.7
								c0.1-0.6,0.2-1.4,0.5-2.4s0.8-2.1,1.6-3.1c0.8-1,1.9-1.7,3.2-1.7c1.3,0,2.4,0.8,3.2,1.7c0.8,1,1.3,2.1,1.6,3.1
								c0.3,1,0.4,1.8,0.5,2.4c0,0.3,0,0.5,0.1,0.7C269.2,181,269.2,181.1,269.2,181.1z"/>
						</g>
					</g>
				</g>
			</g>
		</g>
		<g>
			<g>
				<g>
					<g>
						<g>
							<path class="st0" d="M271.1,181.1c-0.1,0-0.1-1.3-0.7-3.3c-0.3-1-0.8-2.1-1.6-3c-0.7-0.9-1.8-1.7-3.1-1.7
								c-1.2,0-2.3,0.7-3.1,1.6c-0.8,0.9-1.3,2-1.6,3c-0.6,1.9-0.6,3.3-0.7,3.3c0,0,0-0.1,0-0.2c0-0.2,0-0.4,0.1-0.7
								c0.1-0.6,0.2-1.4,0.5-2.4s0.8-2.1,1.6-3.1c0.8-1,1.9-1.7,3.2-1.7c1.3,0,2.4,0.8,3.2,1.7c0.8,1,1.3,2.1,1.6,3.1
								c0.3,1,0.4,1.8,0.5,2.4c0,0.3,0,0.5,0.1,0.7C271.1,181,271.1,181.1,271.1,181.1z"/>
						</g>
					</g>
				</g>
			</g>
		</g>
		<g>
			<g>
				<g>
					<g>
						<polygon class="st0" points="252.4,179.7 273.2,179.5 273.6,209 250.3,209 						"/>
					</g>
				</g>
			</g>
		</g>
		<g>
			<g>
				<g>
					<g>
						<polygon class="st0" points="273.2,179.5 275.8,179.5 278,209 273.6,209 						"/>
					</g>
				</g>
			</g>
		</g>
	</g>
	<g>
		<g>
			<g>
				<g>
					<rect x="256" y="189.5" class="st0" width="13.6" height="3"/>
				</g>
			</g>
		</g>
	</g>
	<g class="st2">
		<g>
			<g>
				<g>
					<polygon class="st0" points="273.2,179.5 275.8,179.5 278,209 273.6,209 					"/>
				</g>
			</g>
		</g>
	</g>
	<g>
		<g>
			<path class="st0" d="M250.3,209c-0.1,0,0.2-5.1,0.6-11.4c0.4-6.3,0.8-11.4,0.9-11.4c0.1,0-0.2,5.1-0.6,11.4
				C250.8,203.9,250.4,209,250.3,209z"/>
		</g>
	</g>
</g>
<g>
	<g>
		<g>
			<g>
				<path class="st0" d="M262.6,42.8H76.1c-3.2,0-5.8,2.6-5.8,5.8v131.7c0,3.2,2.6,5.8,5.8,5.8h71.6l-3.5,23h51.9l-2.9-23h69.4
					c3.2,0,5.8-2.6,5.8-5.8V48.6C268.4,45.4,265.8,42.8,262.6,42.8z"/>
			</g>
		</g>
		<g>
			<g>
				<g>
					<g>
						<g>
							<path class="st0" d="M171.8,172.3c2.5,3.6-1.4,7.6-5.1,5.1c-0.1-0.1-0.2-0.2-0.3-0.3c-2.5-3.6,1.4-7.6,5.1-5.1
								C171.6,172,171.8,172.1,171.8,172.3z"/>
						</g>
					</g>
				</g>
			</g>
		</g>
		<g>
			<g>
				<path class="st0" d="M212.4,186.1c0,0.1-15.6,0.1-34.9,0.1s-34.9-0.1-34.9-0.1c0-0.1,15.6-0.1,34.9-0.1S212.4,186,212.4,186.1z"
					/>
			</g>
		</g>
	</g>
	<g>
		<g>
			<g>
				<g>
					<g>
						<rect x="80.6" y="52.5" class="st0" width="177.8" height="104.8"/>
					</g>
				</g>
			</g>
		</g>
		<g>
			<g>
				<g>
					<rect x="80.6" y="52.5" class="st4" width="177.8" height="8.7"/>
				</g>
			</g>
		</g>
		<g>
			<g>
				<g>
					<g>
						<path class="st0" d="M87.5,57c0,0.7-0.6,1.2-1.2,1.2c-0.7,0-1.2-0.5-1.2-1.2s0.6-1.2,1.2-1.2S87.5,56.4,87.5,57z"/>
					</g>
				</g>
			</g>
			<g>
				<g>
					<g>
						<path class="st0" d="M91.2,57c0,0.7-0.6,1.2-1.2,1.2c-0.7,0-1.2-0.5-1.2-1.2s0.6-1.2,1.2-1.2C90.7,55.8,91.2,56.4,91.2,57z"/>
					</g>
				</g>
			</g>
			<g>
				<g>
					<g>
						<path class="st0" d="M94.8,57c0,0.7-0.6,1.2-1.2,1.2c-0.7,0-1.2-0.5-1.2-1.2s0.6-1.2,1.2-1.2C94.2,55.8,94.8,56.4,94.8,57z"/>
					</g>
				</g>
			</g>
		</g>
		<g>
			<g>
				<rect x="80.6" y="74.2" class="st0" width="177.8" height="37.5"/>
			</g>
		</g>
	</g>
	<g>
		<rect x="99.2" y="118.5" class="st0" width="26.9" height="23.4"/>
	</g>
	<g>
		<rect x="157.1" y="118" class="st0" width="22.7" height="22.7"/>
	</g>
	<g>
		<rect x="209.1" y="117.3" class="st0" width="24.1" height="24.1"/>
	</g>
	<g>
		<g>
			<g>
				<g>
					<path class="st4" d="M129.2,124.3c0,0-6.7-7.6-7.6-8.1c-0.4-0.2-1.2-0.4-1.9-0.5c-0.3-0.1-0.7-0.1-1.1-0.2h-0.1l0,0
						c-2.1-0.2-5.2-0.1-5.2-0.1s-0.1,2.8-3.6,3.9c-3.6,0.8-5-1.6-5-1.6s-2.7,1.5-4.4,2.7l0,0c0,0,0,0-0.1,0
						c-0.4,0.3-0.7,0.5-0.9,0.7c-0.5,0.4-1.1,1-1.3,1.4c-0.5,0.8-2.4,10.8-2.4,10.8l7.2,1.4l0.7-4.9l3.9,16l8.6-2.3l0.7-0.2l8.7-2.4
						l-4.9-15.8l3.1,3.9L129.2,124.3z"/>
				</g>
			</g>
			<g>
				<g>
					<g>
						<path class="st4" d="M104.7,133.9c0,0-0.2-0.5-0.4-1.4c-0.2-0.9-0.6-2.2-0.9-3.6l0,0c-0.1-0.2-0.3-0.4-0.4-0.6
							c-1-1.3-1.9-2.5-2.5-3.4c-0.3-0.4-0.6-0.8-0.7-1c-0.2-0.2-0.3-0.4-0.2-0.4c0,0,0.1,0.1,0.3,0.3c0.2,0.2,0.5,0.6,0.8,1
							c0.7,0.8,1.6,2,2.5,3.3c0.1,0.2,0.3,0.4,0.4,0.6l0,0l0,0c0.4,1.4,0.7,2.7,0.9,3.6C104.6,133.3,104.7,133.9,104.7,133.9z"/>
					</g>
				</g>
			</g>
			<g>
				<g>
					<g>
						<path class="st4" d="M121.6,129.3c0,0-0.2-0.5-0.5-1.4s-0.7-2.1-1.1-3.5l0,0l0,0c0-0.2,0.1-0.5,0.1-0.7
							c0.2-1.6,0.4-3.1,0.5-4.2c0.1-0.5,0.1-1,0.2-1.3c0-0.3,0.1-0.5,0.1-0.5s0,0.2,0,0.5s-0.1,0.7-0.1,1.3
							c-0.1,1.1-0.3,2.5-0.4,4.2c0,0.2-0.1,0.5-0.1,0.7l0,0c0.4,1.4,0.8,2.7,1,3.6C121.5,128.7,121.7,129.3,121.6,129.3z"/>
					</g>
				</g>
			</g>
			<g>
				<path class="st4" d="M117.5,128.8l-0.5,0.1c-1.3,0.4-2.7-0.4-3-1.7l-0.9-3.3l5.2-1.4l0.9,3.3
					C119.6,127.1,118.8,128.4,117.5,128.8z"/>
				<path class="st4" d="M116.4,129c-0.4,0-0.8-0.1-1.2-0.3c-0.6-0.3-1-0.8-1.1-1.5l-0.9-3.3l0,0l5.2-1.4l0,0l0.9,3.3
					c0.4,1.3-0.4,2.6-1.7,3l-0.5,0.1C116.8,129,116.6,129,116.4,129z M113.2,123.9l0.9,3.3c0.2,0.6,0.6,1.1,1.1,1.5
					c0.6,0.3,1.2,0.4,1.8,0.2l0.5-0.1c1.3-0.3,2-1.7,1.7-3l-0.9-3.3L113.2,123.9z"/>
			</g>
			<g>
				<g>
					<g>
						<path class="st4" d="M117.7,128.7c0,0,0.2-0.1,0.5-0.2c0.3-0.2,0.7-0.5,0.9-1c0.1-0.3,0.2-0.6,0.2-1c0-0.3-0.2-0.7-0.3-1.1
							c-0.2-0.8-0.5-1.7-0.8-2.7l0.1,0.1c-0.9,0.2-1.9,0.5-2.9,0.8c-0.7,0.2-1.4,0.4-2.1,0.6l0.1-0.1c0.3,1.1,0.6,2.1,0.8,3
							c0.1,0.2,0.1,0.4,0.2,0.6s0.2,0.4,0.3,0.5c0.2,0.3,0.6,0.5,0.9,0.7c0.6,0.3,1.2,0.2,1.5,0.1
							C117.5,128.7,117.7,128.7,117.7,128.7s-0.2,0.1-0.6,0.2c-0.3,0.1-0.9,0.3-1.6,0c-0.3-0.1-0.7-0.4-0.9-0.7
							c-0.1-0.2-0.3-0.4-0.3-0.6c-0.1-0.2-0.1-0.4-0.2-0.7c-0.3-0.9-0.5-1.9-0.8-3v-0.1h0.1c0.7-0.2,1.4-0.4,2.1-0.6
							c1-0.3,2-0.5,2.9-0.8h0.1v0.1c0.3,1,0.5,1.9,0.7,2.7c0.1,0.4,0.2,0.8,0.3,1.2c0,0.4-0.1,0.7-0.2,1c-0.3,0.6-0.7,0.9-1,1.1
							c-0.2,0.1-0.3,0.1-0.4,0.1C117.8,128.7,117.7,128.7,117.7,128.7z"/>
					</g>
				</g>
			</g>
		</g>
	</g>
	<g>
		<rect x="101.3" y="146.8" class="st0" width="23.4" height="3.1"/>
	</g>
	<g>
		<rect x="156.2" y="146.8" class="st0" width="23.4" height="3.1"/>
	</g>
	<g>
		<rect x="211.1" y="146.9" class="st0" width="22.3" height="3"/>
	</g>
	<g>
		<g>
			<path class="st0" d="M238.1,136.6c-0.3-1-1.6-1-2.5-1.4c-2.3-1-4.5-2.4-6.5-4l-19.9-1.4l-0.1,0.8c4.6,6.6,13,11.4,21,11
				c2.1-0.1,4.3-0.5,6.1-1.6C237.2,139.3,238.4,137.8,238.1,136.6z"/>
		</g>
		<g class="st2">
			<g>
				<path class="st0" d="M238.1,136.6c-0.3-1-1.6-1-2.5-1.4c-2.3-1-4.5-2.4-6.5-4l-19.9-1.4l-0.1,0.8c4.6,6.6,13,11.4,21,11
					c2.1-0.1,4.3-0.5,6.1-1.6C237.2,139.3,238.4,137.8,238.1,136.6z"/>
			</g>
		</g>
		<g>
			<g>
				<path class="st4" d="M238,136.2c-0.3-1-1.3-1.5-2.3-1.9c-2.3-1-4.5-2.4-6.5-4l-20.1-0.2c4.6,6.6,13.1,11.1,21.1,10.7
					c2.1-0.1,4.3-0.5,6.1-1.6C237.3,138.5,238.3,137.4,238,136.2z"/>
			</g>
			<g>
				<g>
					<path class="st0" d="M232,132.4c0,0,0,0.1,0,0.3s-0.1,0.4-0.2,0.7c-0.2,0.6-0.8,1.4-1.8,2c-0.5,0.3-1.1,0.5-1.8,0.6
						c-0.3,0.1-0.7,0.1-1.1,0.1c-0.4,0-0.7,0.1-1.1,0.1c-1.5,0-3.2-0.1-5-0.5c-3.5-0.7-6.4-2.1-8.4-3.2c-1-0.6-1.8-1.1-2.3-1.5
						c-0.2-0.2-0.4-0.3-0.6-0.5c-0.1-0.1-0.2-0.2-0.2-0.2s0.1,0,0.2,0.1c0.2,0.1,0.4,0.2,0.6,0.4c0.5,0.4,1.3,0.9,2.3,1.4
						c2,1.1,5,2.4,8.4,3.1c1.7,0.4,3.4,0.5,4.9,0.5c0.4,0,0.7,0,1.1-0.1c0.4,0,0.7-0.1,1-0.1c0.7-0.1,1.3-0.3,1.8-0.6
						c1-0.5,1.6-1.3,1.8-1.9C231.9,132.7,231.9,132.4,232,132.4z"/>
				</g>
			</g>
			<g>
				<path class="st4" d="M230.1,126c-1-2.4-2.4-4.6-5-5.8c-3.4-1.5-7.2-1-10.2,0.7s-5.3,6-5.8,9.1c6.9,6.3,20.5,7.4,22.7,3.5
					C232,131.2,231.1,128.4,230.1,126z"/>
			</g>
			<g>
				<g>
					<path class="st4" d="M227.5,136c0,0,0-0.1,0-0.4c0-0.3,0-0.6,0-1c0-0.9,0-2.1-0.1-3.7c-0.1-1.5-0.3-3.4-0.9-5.4
						c-0.2-0.5-0.3-1-0.5-1.5s-0.5-1-0.7-1.5c-0.6-1-1.3-1.9-2.3-2.5c-0.1-0.1-0.2-0.1-0.3-0.2h0.1c-1.1,0.2-2.2,0.7-3,1.4
						c-0.9,0.7-1.6,1.5-2.2,2.2c-1.3,1.5-2.2,3.1-2.8,4.5c-0.6,1.4-1,2.5-1.3,3.3c-0.1,0.4-0.3,0.7-0.3,0.9
						c-0.1,0.2-0.1,0.3-0.1,0.3s0-0.1,0.1-0.3s0.2-0.5,0.3-0.9c0.3-0.8,0.7-2,1.3-3.4s1.5-3,2.8-4.6c0.6-0.8,1.3-1.6,2.2-2.3
						c0.9-0.7,2-1.2,3.1-1.4l0,0l0,0c0.1,0.1,0.3,0.1,0.4,0.2c1.1,0.6,1.8,1.6,2.4,2.6c0.3,0.5,0.5,1,0.7,1.5s0.4,1,0.5,1.5
						c0.6,2,0.8,3.9,0.8,5.4c0.1,1.6,0,2.8,0,3.7c0,0.4,0,0.7-0.1,1C227.5,135.9,227.5,136,227.5,136z"/>
				</g>
			</g>
		</g>
		<g>
			<path class="st0" d="M223.4,120.2l-1.2-0.2l0.1-0.4c0.1-0.3,0.3-0.5,0.7-0.5h0.1c0.3,0.1,0.5,0.3,0.5,0.7L223.4,120.2z"/>
		</g>
		<g>
			<path class="st0" d="M222.4,129.4l-0.5,2.3c0,0,3,1.6,5.8,1.1c1.9-0.4,2.6-1.5,2.6-1.5l-0.2-2c0,0-0.8,0.9-3.2,1
				C225.2,130.3,222.4,129.4,222.4,129.4z"/>
		</g>
		<g>
			<g>
				<path class="st0" d="M237.1,138.5c0,0,0,0.1-0.2,0.2c-0.1,0.1-0.3,0.2-0.5,0.4c-0.4,0.3-1.1,0.7-2,1.1c-1.8,0.7-4.5,1.2-7.5,0.9
					s-5.5-1.3-7.3-2.1c-0.9-0.4-1.6-0.8-2-1.1c-0.2-0.1-0.4-0.2-0.5-0.3s-0.2-0.1-0.2-0.1s0.3,0.1,0.8,0.4c0.5,0.2,1.2,0.6,2.1,1
					c1.8,0.8,4.3,1.7,7.2,2s5.6-0.1,7.4-0.8C236.2,139.3,237,138.4,237.1,138.5z"/>
			</g>
		</g>
	</g>
	<g>
		<g>
			<path class="st0" d="M154.3,125.4c0,0,2.7-5.1,5.9-5.4c0,0,6,3.4,6.9,3.2c0.9-0.2-0.4-2,0.8-2.9s2.5,0.1,3.1,0.9
				c0.5,0.8,4.1,9,7.2,11.1c3.1,2.1,7.9,6.3,7.1,8.2c-0.6,1.4-0.4,0.9-3.1,1.4c-2.7,0.5-11.7-3.8-14.6-6.8
				C163,130.6,157.3,125.7,154.3,125.4z"/>
		</g>
		<g>
			<g>
				<path class="st0" d="M184.2,142.5c0.6-0.3,0.3-1.3-0.4-1.1c-0.1,0-0.3,0-0.5,0.1c-1.8,0.1-4.2-0.6-7.1-1.9
					c-2.9-1.3-4-2.1-7.7-4.9c-3.7-2.8-6.8-7.7-9.7-8.5c-2.4-0.7-3.9-0.7-4.4-0.6c-0.1,0-0.2,0-0.3,0.1c-2,1.2-5.8,6.1-3.8,7.4
					c1.4,0.9,6,1.5,9.3,2.6s10.6,4.3,14.7,5.8C178.4,142.6,182.6,143.3,184.2,142.5L184.2,142.5z"/>
			</g>
			<g>
				<g>
					<path class="st0" d="M184.2,142.5c0,0-0.1,0-0.2,0.1c-0.1,0.1-0.3,0.1-0.6,0.2c-0.5,0.1-1.3,0.1-2.4,0.1
						c-2.1-0.2-5-0.8-8.4-2.1c-3.5-1.3-7.5-3-12-4.8c-2.3-0.9-4.8-1.4-7.3-2c-0.6-0.2-1.3-0.3-1.9-0.5c-0.3-0.1-0.6-0.2-1-0.4
						c-0.3-0.2-0.6-0.5-0.7-0.8c-0.2-0.7,0.1-1.4,0.4-2.1c0.3-0.6,0.7-1.2,1.1-1.8c0.4-0.6,0.9-1.1,1.4-1.6s1-1,1.6-1.3
						c0.2-0.1,0.4-0.1,0.6-0.1c0.2,0,0.3,0,0.5,0c0.3,0,0.7,0,1,0.1c0.7,0.1,1.3,0.2,2,0.4c0.6,0.1,1.3,0.4,1.8,0.7
						c0.6,0.3,1.1,0.8,1.5,1.2c1,0.9,1.8,1.8,2.6,2.7c1.7,1.8,3.3,3.4,5,4.7s3.3,2.5,4.9,3.4c3.3,1.7,6.1,2.7,8.2,2.9
						c0.5,0.1,1,0.1,1.4,0c0.2,0,0.4,0,0.6,0.1c0.1,0.1,0.2,0.3,0.3,0.4c0.1,0.3,0,0.5-0.2,0.6C184.4,142.4,184.3,142.5,184.2,142.5
						L184.2,142.5c0,0,0.1,0,0.2-0.1c0.1-0.1,0.2-0.3,0.1-0.6c0-0.1-0.1-0.3-0.2-0.3c-0.1-0.1-0.3-0.1-0.5-0.1
						c-0.4,0.1-0.9,0.1-1.4,0c-1-0.1-2.3-0.4-3.7-0.9s-2.9-1.1-4.6-2c-1.6-0.9-3.3-2.1-5-3.4c-0.9-0.6-1.8-1.3-2.6-2.1
						s-1.7-1.7-2.5-2.5c-0.8-0.9-1.7-1.8-2.6-2.6c-0.5-0.4-1-0.8-1.5-1.2c-0.5-0.3-1.1-0.6-1.8-0.7c-0.6-0.2-1.3-0.3-1.9-0.4
						c-0.3,0-0.7-0.1-1-0.1c-0.2,0-0.3,0-0.5,0s-0.3,0-0.5,0.1c-0.6,0.3-1.1,0.8-1.6,1.3s-0.9,1-1.3,1.6c-0.4,0.6-0.8,1.1-1.1,1.8
						c-0.3,0.6-0.5,1.3-0.4,1.9c0.1,0.6,0.9,0.9,1.5,1.1c0.6,0.2,1.3,0.4,1.9,0.5c2.6,0.6,5.1,1.1,7.4,2c4.5,1.8,8.6,3.5,12,4.8
						s6.3,2,8.4,2.2c1,0.1,1.8,0.1,2.4,0c0.3-0.1,0.5-0.1,0.6-0.2C184.2,142.5,184.2,142.5,184.2,142.5z"/>
				</g>
			</g>
		</g>
		<g>
			<g>
				<path class="st0" d="M174.6,127.9c0,0.1-0.6,0.2-1.4,0.5c-0.7,0.3-1.3,0.6-1.3,0.6s0.4-0.5,1.2-0.8
					C173.9,127.8,174.6,127.8,174.6,127.9z"/>
			</g>
		</g>
		<g>
			<g>
				<path class="st0" d="M175.9,129.6c0,0.1-0.5,0.4-1.2,0.8c-0.7,0.4-1.3,0.7-1.3,0.6c0-0.1,0.5-0.4,1.2-0.8
					C175.3,129.8,175.9,129.6,175.9,129.6z"/>
			</g>
		</g>
		<g>
			<g>
				<path class="st0" d="M177.4,131.4c0,0.1-0.4,0.5-0.9,0.9c-0.5,0.5-0.9,0.9-1,0.8c-0.1,0,0.3-0.5,0.8-1
					C176.8,131.7,177.3,131.3,177.4,131.4z"/>
			</g>
		</g>
		<g>
			<path class="st0" d="M157.5,131.4l-3.3-1c-0.3-0.1-0.4-0.4-0.3-0.6v-0.1c0.1-0.3,0.4-0.4,0.6-0.3l3.3,1c0.3,0.1,0.4,0.4,0.3,0.6
				v0.1C158,131.3,157.8,131.5,157.5,131.4z"/>
		</g>
		<g>
			<path class="st0" d="M159.5,120.4c-0.1-0.4-0.2-0.8-0.5-1.2c-0.1-0.2-0.3-0.3-0.4-0.3c-0.2,0-0.4,0.1-0.6,0.2
				c-0.2,0.1-0.3,0.2-0.5,0.3c-0.1,0.1-0.2,0.1-0.2,0.3c0,0.1,0,0.2,0.1,0.2c0.2,0.4,0.5,0.7,0.7,1.1"/>
		</g>
		<g>
			<g>
				<path class="st0" d="M160.2,120c0,0-0.4,0.2-1.1,0.5c-0.7,0.3-1.5,0.9-2.4,1.7c-0.8,0.8-1.5,1.6-1.8,2.2c-0.4,0.6-0.6,1.1-0.6,1
					c0,0,0.1-0.5,0.5-1.1c0.4-0.7,1-1.5,1.8-2.3s1.8-1.4,2.5-1.7C159.7,120.1,160.2,120,160.2,120z"/>
			</g>
		</g>
		<g>
			<g>
				<path class="st0" d="M158.4,120.8c-0.1,0-0.2-0.3-0.5-0.6c-0.3-0.3-0.6-0.5-0.6-0.6s0.4,0,0.7,0.4
					C158.4,120.4,158.5,120.8,158.4,120.8z"/>
			</g>
		</g>
		<g>
			<g>
				<path class="st0" d="M178.3,133.4c0,0-0.1,0.1-0.4,0.2c-0.2,0.1-0.6,0.1-1.1,0.1s-1-0.2-1.5-0.5s-1-0.8-1.5-1.3
					c-0.2-0.3-0.4-0.5-0.6-0.8c-0.2-0.3-0.4-0.5-0.5-0.8c-0.3-0.5-0.6-0.9-0.9-1.3c-0.5-0.7-0.8-1.2-0.8-1.2s0.4,0.4,0.9,1.1
					c0.3,0.4,0.6,0.8,0.9,1.3c0.2,0.2,0.4,0.5,0.5,0.8c0.2,0.3,0.4,0.5,0.6,0.8c0.4,0.5,0.9,0.9,1.4,1.2s1,0.5,1.4,0.5
					C177.7,133.6,178.3,133.4,178.3,133.4z"/>
			</g>
		</g>
		<g>
			<g>
				<path class="st0" d="M173.7,128c0,0-0.1-0.2-0.1-0.5s-0.1-0.8,0-1.4c0-0.6,0.1-1.3,0.4-2c0.1-0.4,0.3-0.7,0.5-1.1
					c0.1-0.2,0.2-0.4,0.3-0.6c0.1-0.1,0.1-0.2,0.3-0.3c0.1-0.1,0.3-0.1,0.4-0.1c0.3,0.1,0.4,0.4,0.4,0.6s0,0.4,0,0.6
					c0,0.4,0,0.8-0.1,1.2c-0.1,0.8-0.4,1.4-0.7,1.9s-0.6,0.9-0.8,1.1s-0.4,0.4-0.4,0.3c0,0,0.5-0.5,1-1.5c0.2-0.5,0.5-1.1,0.6-1.9
					c0.1-0.4,0.1-0.8,0.1-1.2c0-0.2,0-0.4,0-0.6s-0.1-0.4-0.2-0.4c-0.1-0.1-0.3,0.1-0.4,0.2c-0.1,0.2-0.2,0.4-0.3,0.5
					c-0.2,0.4-0.3,0.7-0.5,1.1c-0.2,0.7-0.4,1.4-0.4,1.9C173.6,127.3,173.8,128,173.7,128z"/>
			</g>
		</g>
		<g>
			<g>
				<path class="st0" d="M173.7,127.9c0,0,0.1-0.2,0.3-0.4c0.2-0.3,0.5-0.6,0.9-1s0.9-0.9,1.6-1.3c0.3-0.2,0.7-0.4,1.1-0.6
					c0.2-0.1,0.4-0.2,0.7-0.2c0.2,0,0.5,0,0.7,0.3c0.2,0.2,0.2,0.5,0.1,0.8c-0.1,0.2-0.2,0.4-0.3,0.6c-0.3,0.3-0.6,0.6-0.9,0.8
					c-0.7,0.4-1.4,0.7-1.9,0.8c-0.6,0.1-1,0.2-1.4,0.3c-0.3,0-0.5,0.1-0.5,0c0,0,0.7-0.2,1.8-0.5c0.6-0.2,1.2-0.4,1.8-0.8
					c0.3-0.2,0.6-0.5,0.9-0.8c0.3-0.3,0.5-0.7,0.3-1c-0.1-0.1-0.3-0.2-0.5-0.2s-0.4,0.1-0.6,0.2c-0.4,0.2-0.7,0.4-1.1,0.6
					c-0.6,0.4-1.2,0.9-1.6,1.3C174.3,127.4,173.8,128,173.7,127.9z"/>
			</g>
		</g>
	</g>
	<g>
		<g>
			<path class="st0" d="M249.3,79.8h-9.5c-2.1,0-3.8-1.7-3.8-3.8v-9.5c0-2.1,1.7-3.8,3.8-3.8h9.5c2.1,0,3.8,1.7,3.8,3.8V76
				C253.2,78.1,251.5,79.8,249.3,79.8z"/>
		</g>
		<g>
			<g>
				<path class="st0" d="M247.5,72.7h-5.7c-0.1,0-0.2-0.1-0.2-0.2s0.1-0.2,0.2-0.2h5.5l0.6-3.3h-6.6c-0.1,0-0.2-0.1-0.2-0.2
					s0.1-0.2,0.2-0.2h6.9c0.1,0,0.1,0,0.2,0.1c0,0.1,0.1,0.1,0.1,0.2l-0.7,3.8C247.7,72.6,247.6,72.7,247.5,72.7z"/>
			</g>
			<g>
				<path class="st0" d="M247.3,74L247.3,74h-5.4c-0.1,0-0.2-0.1-0.2-0.2l-0.8-5.9h-1.5c-0.1,0-0.2-0.1-0.2-0.2s0.1-0.2,0.2-0.2h1.7
					c0.1,0,0.2,0.1,0.2,0.2l0.8,5.9h5.2c0.1,0,0.2,0.1,0.2,0.2S247.4,74,247.3,74z"/>
			</g>
			<g>
				<path class="st0" d="M242.8,76c-0.5,0-0.9-0.4-0.9-0.9s0.4-0.9,0.9-0.9s0.9,0.4,0.9,0.9C243.7,75.5,243.3,76,242.8,76z
					 M242.8,74.6c-0.2,0-0.4,0.2-0.4,0.4c0,0.2,0.2,0.4,0.4,0.4s0.4-0.2,0.4-0.4C243.2,74.8,243,74.6,242.8,74.6z"/>
			</g>
			<g>
				<path class="st0" d="M246.5,76c-0.5,0-0.9-0.4-0.9-0.9s0.4-0.9,0.9-0.9s0.9,0.4,0.9,0.9C247.4,75.5,247,76,246.5,76z
					 M246.5,74.6c-0.2,0-0.4,0.2-0.4,0.4c0,0.2,0.2,0.4,0.4,0.4s0.4-0.2,0.4-0.4C246.9,74.8,246.7,74.6,246.5,74.6z"/>
			</g>
			<g>
				<path class="st0" d="M243.5,72.7c-0.1,0-0.2-0.1-0.2-0.2l-0.2-3.7c0-0.1,0.1-0.3,0.2-0.3c0.1,0,0.3,0.1,0.3,0.2l0.2,3.7
					C243.8,72.6,243.7,72.7,243.5,72.7C243.6,72.7,243.6,72.7,243.5,72.7z"/>
			</g>
			<g>
				<path class="st0" d="M245.6,72.7L245.6,72.7c-0.1,0-0.3-0.1-0.2-0.3l0.2-3.7c0-0.1,0.1-0.2,0.3-0.2c0.1,0,0.2,0.1,0.2,0.3
					l-0.2,3.7C245.9,72.6,245.7,72.7,245.6,72.7z"/>
			</g>
			<g>
				<path class="st0" d="M241.5,70.8c-0.1,0-0.2-0.1-0.2-0.2s0.1-0.2,0.2-0.2l6.3-0.1c0.1,0,0.2,0.1,0.2,0.2s-0.1,0.2-0.2,0.2
					L241.5,70.8L241.5,70.8z"/>
			</g>
		</g>
	</g>
	<g>
		<path class="st4" d="M98.9,96.9c-1.2-0.3-2.1-0.6-2.8-1l1.6-3.8c0.6,0.4,1.4,0.7,2.3,0.9c0.9,0.2,1.7,0.3,2.6,0.3
			c0.7,0,1.1-0.1,1.4-0.2s0.4-0.3,0.4-0.5s-0.2-0.4-0.5-0.5s-0.9-0.2-1.6-0.3c-1.1-0.1-2.1-0.3-2.9-0.5s-1.5-0.6-2.1-1.2
			s-0.9-1.5-0.9-2.6c0-0.9,0.3-1.7,0.8-2.4c0.5-0.7,1.4-1.3,2.4-1.7c1.1-0.4,2.4-0.6,3.9-0.6c1.1,0,2.1,0.1,3.1,0.3
			c1,0.2,1.9,0.5,2.6,0.9l-1.6,3.8c-1.2-0.7-2.6-1-4-1c-1.3,0-1.9,0.2-1.9,0.7c0,0.2,0.2,0.4,0.5,0.5s0.9,0.2,1.6,0.3
			c1.1,0.1,2.1,0.3,2.9,0.5s1.5,0.6,2.1,1.2s0.9,1.5,0.9,2.6c0,0.9-0.3,1.7-0.8,2.4c-0.5,0.7-1.4,1.3-2.4,1.7
			c-1.1,0.4-2.4,0.6-3.9,0.6C101.2,97.3,100,97.2,98.9,96.9z"/>
		<path class="st4" d="M125.1,84.4c1,1,1.6,2.6,1.6,4.7V97H121v-6.9c0-1.6-0.6-2.4-1.7-2.4c-0.6,0-1.2,0.2-1.6,0.7
			c-0.4,0.4-0.6,1.2-0.6,2.1V97h-5.7V78.2h5.7v6.1c1.1-0.9,2.4-1.4,3.9-1.4C122.7,82.9,124,83.4,125.1,84.4z"/>
		<path class="st4" d="M132.6,96.4c-1.2-0.6-2.2-1.5-2.9-2.6s-1-2.3-1-3.7c0-1.4,0.3-2.6,1-3.7s1.7-1.9,2.9-2.6
			c1.2-0.6,2.6-0.9,4.2-0.9c1.6,0,3,0.3,4.2,0.9s2.2,1.5,2.9,2.6s1,2.3,1,3.7c0,1.4-0.3,2.6-1,3.7s-1.6,1.9-2.9,2.6
			c-1.2,0.6-2.6,0.9-4.2,0.9C135.2,97.3,133.8,97,132.6,96.4z M138.4,92.1c0.4-0.5,0.6-1.2,0.6-2c0-0.9-0.2-1.5-0.6-2
			c-0.4-0.5-1-0.7-1.6-0.7c-0.7,0-1.2,0.2-1.6,0.7c-0.4,0.5-0.6,1.1-0.6,2s0.2,1.5,0.6,2c0.4,0.5,1,0.7,1.6,0.7
			C137.4,92.8,137.9,92.6,138.4,92.1z"/>
		<path class="st4" d="M159.3,83.8c1,0.6,1.8,1.4,2.4,2.5c0.6,1.1,0.9,2.4,0.9,3.8s-0.3,2.7-0.9,3.8c-0.6,1.1-1.4,1.9-2.4,2.5
			s-2.1,0.9-3.4,0.9c-1.5,0-2.7-0.4-3.5-1.2v5.9h-5.7V83.1h5.5v1.1c0.8-0.9,2.1-1.4,3.8-1.4C157.1,82.9,158.2,83.2,159.3,83.8z
			 M156.2,92.1c0.4-0.5,0.6-1.1,0.6-2s-0.2-1.5-0.6-2c-0.4-0.5-1-0.7-1.6-0.7c-0.7,0-1.2,0.2-1.6,0.7c-0.4,0.5-0.6,1.2-0.6,2
			c0,0.9,0.2,1.5,0.6,2c0.4,0.5,1,0.7,1.6,0.7C155.2,92.8,155.7,92.6,156.2,92.1z"/>
	</g>
	<g>
		<g>
			<g>
				<path class="st0" d="M227.6,91.4l-25,8.9c-0.5,0.2-1-0.1-1.2-0.6s0.1-1,0.6-1.2l24.2-8.6l-2.7-16.1l-29.3,10.4
					c-0.5,0.2-1-0.1-1.2-0.6s0.1-1,0.6-1.2L224,71.8c0.3-0.1,0.5-0.1,0.8,0.1c0.2,0.1,0.4,0.4,0.4,0.6l3,17.9
					C228.3,90.8,228,91.2,227.6,91.4z"/>
			</g>
		</g>
		<g>
			<g>
				<path class="st0" d="M228.9,97.6L228.9,97.6l-23.8,8.4c-0.4,0.2-0.9,0-1.1-0.5l-12.7-25.2l-6.9,2.4c-0.5,0.2-1-0.1-1.2-0.6
					s0.1-1,0.6-1.2l7.6-2.7c0.4-0.2,0.9,0,1.1,0.5l12.7,25.2l23-8.1c0.5-0.2,1,0.1,1.2,0.6C229.6,96.9,229.3,97.4,228.9,97.6z"/>
			</g>
		</g>
		<g>
			<g>
				<path class="st0" d="M212,113.1c-2.1,0.7-4.4-0.4-5.2-2.5c-0.7-2.1,0.4-4.4,2.5-5.2c2.1-0.7,4.4,0.4,5.2,2.5
					C215.2,110,214.1,112.3,212,113.1z M209.9,107.2c-1.2,0.4-1.8,1.7-1.3,2.8c0.4,1.2,1.7,1.8,2.8,1.3s1.8-1.7,1.4-2.8
					C212.3,107.4,211,106.8,209.9,107.2z"/>
			</g>
		</g>
		<g>
			<g>
				<path class="st0" d="M228.4,107.3c-2.1,0.7-4.4-0.4-5.2-2.5c-0.7-2.1,0.4-4.4,2.5-5.2c2.1-0.7,4.4,0.4,5.2,2.5
					C231.6,104.2,230.5,106.5,228.4,107.3z M226.3,101.3c-1.2,0.4-1.8,1.7-1.3,2.8c0.4,1.2,1.7,1.8,2.8,1.3c1.2-0.4,1.8-1.7,1.4-2.8
					C228.7,101.5,227.4,100.9,226.3,101.3z"/>
			</g>
		</g>
		<g>
			<g>
				<path class="st0" d="M210.3,97.5c-0.5,0.2-1-0.1-1.2-0.5l-6.8-15.9c-0.2-0.5,0-1,0.5-1.2s1,0,1.2,0.5l6.8,15.9
					C211.1,96.7,210.9,97.3,210.3,97.5C210.4,97.5,210.4,97.5,210.3,97.5z"/>
			</g>
		</g>
		<g>
			<g>
				<path class="st0" d="M219.5,94.3C219.4,94.3,219.4,94.3,219.5,94.3c-0.5,0.2-1-0.1-1.2-0.6L213.4,77c-0.1-0.5,0.1-1,0.6-1.1
					s1,0.1,1.1,0.6l4.9,16.6C220.2,93.6,219.9,94.1,219.5,94.3z"/>
			</g>
		</g>
		<g>
			<g>
				<path class="st0" d="M198.3,92.6c-0.5,0.2-1-0.1-1.2-0.5c-0.2-0.5,0.1-1,0.5-1.2l27.8-10.2l0,0c0.5-0.2,1,0.1,1.2,0.5
					c0.2,0.5-0.1,1-0.5,1.2L198.3,92.6L198.3,92.6z"/>
			</g>
		</g>
	</g>
</g>
<g>
	<g>
		<g>
			<path class="st0" d="M297.3,151.3h-56.2c-9.5,0-8.1-3-8.1-8.1V69.9c0-4.5,3.6-8.1,8.1-8.1h56.2c4.5,0,8.1,3.6,8.1,8.1v73.2
				C305.4,150.5,305.4,151.3,297.3,151.3z"/>
		</g>
		<g>
			<path class="st4" d="M305.4,72.3H233v-3.7c0-3.7-0.2-6.8,6.8-6.8h58.9c7.9,0,6.8,3,6.8,6.8v3.7H305.4z"/>
		</g>
		<g>
			<g>
				<path class="st0" d="M302.5,151.3c0,0,0.1,0,0.2,0s0.3,0,0.6-0.1c0.5-0.1,1.3-0.5,1.8-1.5c0.1-0.2,0.2-0.5,0.3-0.8
					c0.1-0.3,0.1-0.6,0.1-0.9c0-0.7,0-1.4,0-2.1c0-1.6,0-3.3,0-5.4c0-8.1,0-19.7,0-34.1c0-7.2,0-15.1,0-23.6c0-4.2,0-8.6,0-13.1
					c0-1.1,0-2.3,0-3.4c0-0.6,0-1.2,0-1.7c-0.1-0.6-0.3-1.1-0.6-1.5c-0.4-0.4-0.8-0.8-1.4-0.9c-0.5-0.2-1.1-0.1-1.7-0.1
					c-1.2,0-2.4,0-3.6,0c-19.1,0-40,0-62,0c-0.7,0-1.3,0.2-1.8,0.7c-0.5,0.4-0.9,1-1,1.7c-0.1,0.3,0,0.7-0.1,1v1c0,0.7,0,1.4,0,2
					c0,2.7,0,5.4,0,8.1c0,5.4,0,10.6,0,15.8c0,10.4,0,20.4,0,29.9c0,4.8,0,9.4,0,13.9c0,2.3,0,4.5,0,6.7c0,1.1,0,2.2,0,3.3
					c0,0.5,0,1.1,0,1.6s0,1.1,0.1,1.6c0.3,1,1.2,1.8,2.1,2c0.5,0.1,1,0.1,1.5,0.1s1,0,1.5,0c2,0,4.1,0,6,0c3.9,0,7.7,0,11.3,0
					c14.4,0,26.1,0,34.1,0c4,0,7.2,0,9.3,0c1.1,0,1.9,0,2.4,0C302.2,151.3,302.5,151.3,302.5,151.3s-0.3,0-0.8,0s-1.4,0-2.4,0
					c-2.1,0-5.3,0-9.3,0c-8.1,0-19.7,0-34.1,0c-3.6,0-7.4,0-11.3,0c-2,0-4,0-6,0c-0.5,0-1,0-1.5,0s-1,0-1.6-0.1
					c-1.1-0.2-2-1-2.3-2.1c-0.2-0.5-0.1-1.1-0.1-1.6s0-1.1,0-1.6c0-1.1,0-2.2,0-3.3c0-2.2,0-4.4,0-6.7c0-4.5,0-9.2,0-13.9
					c0-9.5,0-19.5,0-29.9c0-5.2,0-10.5,0-15.8c0-2.7,0-5.4,0-8.1c0-0.7,0-1.4,0-2v-1c0-0.3,0-0.7,0.1-1c0.1-0.7,0.5-1.3,1.1-1.8
					s1.3-0.7,2-0.7c22,0,43,0,62,0c1.2,0,2.4,0,3.6,0h0.9c0.3,0,0.6,0,0.9,0.1c0.6,0.2,1.1,0.5,1.5,1s0.6,1,0.7,1.6
					c0,0.6,0,1.2,0,1.7c0,1.1,0,2.3,0,3.4c0,4.5,0,8.9,0,13.1c0,8.5,0,16.4,0,23.6c0,14.4,0,26.1,0,34.1c0,2,0,3.8,0,5.4
					c0,0.8,0,1.5,0,2.1c0,0.3,0,0.6-0.1,0.9c-0.1,0.3-0.2,0.6-0.3,0.8c-0.5,1-1.3,1.3-1.8,1.5c-0.3,0.1-0.5,0.1-0.6,0.1
					C302.5,151.3,302.5,151.3,302.5,151.3z"/>
			</g>
		</g>
		<g>
			<g>
				<path class="st0" d="M240.4,67.1c0,0.9-0.8,1.7-1.7,1.7S237,68,237,67.1s0.8-1.7,1.7-1.7S240.4,66.1,240.4,67.1z"/>
			</g>
			<g>
				<path class="st0" d="M245.2,67.1c0,0.9-0.8,1.7-1.7,1.7s-1.7-0.8-1.7-1.7c0-0.9,0.8-1.7,1.7-1.7
					C244.5,65.4,245.2,66.1,245.2,67.1z"/>
			</g>
			<g>
				<path class="st0" d="M250.1,67.1c0,0.9-0.8,1.7-1.7,1.7s-1.7-0.8-1.7-1.7c0-0.9,0.8-1.7,1.7-1.7S250.1,66.1,250.1,67.1z"/>
			</g>
		</g>
	</g>
	<g>
		<g>
			<path class="st0" d="M276.7,98.4h-12.3c-2.1,0-3.8-1.7-3.8-3.8V82.3c0-2.1,1.7-3.8,3.8-3.8h12.3c2.1,0,3.8,1.7,3.8,3.8v12.3
				C280.5,96.7,278.8,98.4,276.7,98.4z"/>
			<g>
				<polyline class="st0" points="266.6,85.4 274.6,85.4 273.8,89.9 267.3,89.9 				"/>
				<polyline class="st0" points="264.4,84.2 266.4,84.2 267.4,91.4 273.6,91.4 				"/>
				<path class="st0" d="M269.2,92.9c0,0.4-0.3,0.8-0.8,0.8c-0.4,0-0.8-0.3-0.8-0.8c0-0.4,0.3-0.8,0.8-0.8
					C268.8,92.1,269.2,92.4,269.2,92.9z"/>
				<path class="st0" d="M273.5,92.9c0,0.4-0.3,0.8-0.8,0.8c-0.4,0-0.8-0.3-0.8-0.8c0-0.4,0.3-0.8,0.8-0.8
					C273.1,92.1,273.5,92.4,273.5,92.9z"/>
				<line class="st5" x1="269" y1="85.6" x2="269.3" y2="89.9"/>
				<line class="st5" x1="271.9" y1="85.6" x2="271.7" y2="89.9"/>
				<line class="st5" x1="266.9" y1="87.7" x2="274.2" y2="87.6"/>
			</g>
		</g>
		<circle class="st0" cx="275" cy="84.7" r="2.2"/>
	</g>
	<rect x="244.3" y="104.2" class="st0" width="22.3" height="3"/>
	<rect x="285.5" y="104.2" class="st0" width="8.7" height="3"/>
	<rect x="244.3" y="110.5" class="st0" width="28.8" height="3"/>
	<rect x="285.5" y="110.5" class="st0" width="8.7" height="3"/>
	<rect x="244.3" y="116.8" class="st0" width="13.5" height="3"/>
	<rect x="285.5" y="116.8" class="st0" width="8.7" height="3"/>
	<rect x="285.5" y="122.8" class="st0" width="8.7" height="3"/>
	<path class="st4" d="M276.6,143.2h-16.5c-2.5,0-4.5-2-4.5-4.5v-0.9c0-2.5,2-4.5,4.5-4.5h16.5c2.5,0,4.5,2,4.5,4.5v0.9
		C281.1,141.2,279.1,143.2,276.6,143.2z"/>
	<text transform="matrix(1 0 0 1 274.2578 85.7217)" class="st6 st7 st8">3</text>
	<text transform="matrix(1 0 0 1 274.2578 85.7217)" class="st5 st7 st8">3</text>
</g>
<g>
	<g>
		<g>
			<g>
				<g>
					<g>
						<g>
							<g>
								<g>
									<g>
										<g>
											<g>
												<g>
													<g>
														<path class="st0" d="M49.1,94.3l-3.4-0.2c-1.4,1.3-3.3,2.3-5.3,2.7c-5.9,1.2-11.7-2.7-12.9-8.6
															c-1.2-5.9,2.7-11.7,8.6-12.9C42,74.1,47.8,78,49,83.9c0.5,2.5,0.1,4.9-0.9,7l0,0L49.1,94.3z"/>
													</g>
													<g>
														<g>
															<path class="st0" d="M49.1,94.3c0,0,0-0.1-0.1-0.2c0-0.1-0.1-0.4-0.2-0.6c-0.2-0.6-0.4-1.4-0.8-2.5l0,0l0,0l0,0l0,0
																c0.6-1.3,1.2-3.1,1.2-5.3c0-0.5-0.1-1.1-0.2-1.7c-0.1-0.6-0.3-1.2-0.5-1.8c-0.4-1.2-1.1-2.4-2-3.4
																c-0.9-1.1-2.1-2-3.5-2.7S40,75,38.4,75s-3.3,0.3-4.9,1.1c-1.6,0.7-3,1.9-4.1,3.3c-0.1,0.2-0.3,0.4-0.4,0.5
																c-0.1,0.2-0.2,0.4-0.3,0.6l-0.2,0.3l-0.1,0.3c-0.1,0.2-0.2,0.4-0.3,0.6c-0.1,0.2-0.2,0.4-0.2,0.6
																c-0.1,0.2-0.2,0.4-0.2,0.6c-0.1,0.4-0.2,0.8-0.3,1.3c-0.3,1.7-0.1,3.5,0.3,5c0.5,1.6,1.3,3,2.4,4.1
																c1,1.1,2.3,2,3.6,2.6s2.6,0.9,3.9,1c0.6,0.1,1.2,0,1.8,0c0.6-0.1,1.2-0.2,1.7-0.3c2.1-0.6,3.7-1.6,4.7-2.6l0,0
																c1.1,0.1,2,0.1,2.5,0.1c0.3,0,0.5,0,0.6,0C49,94.3,49.1,94.3,49.1,94.3s-0.1,0-0.2,0c-0.2,0-0.4,0-0.7,0
																c-0.6,0-1.4-0.1-2.5-0.2l0,0l0,0c-1,0.9-2.6,2-4.7,2.6c-0.5,0.1-1.1,0.2-1.7,0.3c-0.6,0-1.2,0.1-1.8,0
																c-1.2-0.1-2.6-0.4-3.8-1c-1.3-0.6-2.5-1.5-3.5-2.6s-1.9-2.5-2.3-4.1c-0.5-1.6-0.6-3.3-0.3-5c0-0.4,0.2-0.8,0.3-1.3
																c0-0.2,0.1-0.4,0.2-0.6s0.1-0.4,0.2-0.6s0.2-0.4,0.3-0.6l0.1-0.3l0.2-0.3c0.1-0.2,0.2-0.4,0.3-0.6
																c0.1-0.2,0.3-0.4,0.4-0.5c1.1-1.4,2.5-2.6,4-3.3c1.5-0.7,3.2-1.1,4.9-1.1c1.6,0,3.2,0.4,4.6,1.1
																c1.4,0.7,2.5,1.6,3.5,2.6c0.9,1,1.6,2.2,2,3.4c0.2,0.6,0.4,1.2,0.5,1.7c0.1,0.6,0.2,1.1,0.2,1.7
																c0.1,2.2-0.5,4-1.1,5.2L48.1,91l0.1-0.2l0,0l0,0c0.3,1.1,0.6,1.9,0.8,2.5c0.1,0.3,0.2,0.5,0.2,0.6
																C49.1,94.2,49.1,94.3,49.1,94.3z"/>
														</g>
													</g>
												</g>
											</g>
										</g>
									</g>
								</g>
							</g>
						</g>
					</g>
				</g>
			</g>
		</g>
	</g>
	<g>
		<g>
			<path class="st4" d="M42.4,84.5c-0.1-0.5-0.4-1-0.8-1.4c-0.4-0.4-0.8-0.6-1.4-0.7c-0.5-0.1-1.1,0.1-1.6,0.4
				c-0.3,0.2-0.5,0.5-0.6,0.8c-0.2-0.2-0.4-0.5-0.6-0.6c-0.5-0.3-1.1-0.4-1.6-0.2c-0.5,0.1-0.9,0.5-1.3,0.9
				c-0.3,0.4-0.5,0.9-0.6,1.5c0,0.7,0.1,1.4,0.5,1.9c0.4,0.6,1,1,1.6,1.3c1.1,0.5,2.4,1.2,2.4,1.2s1.1-0.9,2-1.6
				c0.6-0.4,1.1-0.9,1.5-1.6C42.4,85.9,42.5,85.2,42.4,84.5z"/>
		</g>
	</g>
</g>
<g>
	<g>
		<g>
			<polygon class="st9" points="324.4,162.7 342.2,179.3 338.5,183.4 322.6,164.8 			"/>
		</g>
		<g>
			<polygon class="st9" points="338.5,183.4 326.5,184.9 317,167.2 322.6,164.8 			"/>
		</g>
		<g>
			<g>
				<path class="st9" d="M338.5,183.4c0,0-0.1-0.4-0.2-1.1s-0.3-1.6-0.4-2.7v-0.1h0.1c0.1,0,0.2,0,0.2,0c1.1-0.1,2.1-0.1,2.9-0.1
					c0.7,0,1.2,0,1.2,0s-0.5,0.1-1.2,0.1c-0.7,0.1-1.8,0.1-2.9,0.2c-0.1,0-0.2,0-0.2,0l0.1-0.1c0.2,1.1,0.3,2,0.4,2.7
					C338.5,182.9,338.5,183.4,338.5,183.4z"/>
			</g>
		</g>
		<g>
			<g>
				<path class="st9" d="M323.6,163.7c0,0,3.3,3.5,7.2,7.9c4,4.4,7.1,8,7.1,8s-3.3-3.5-7.2-7.9C326.7,167.3,323.5,163.8,323.6,163.7
					z"/>
			</g>
		</g>
		<g class="st2">
			<polygon class="st9" points="338.5,183.4 326.5,184.9 317,167.2 322.6,164.8 			"/>
		</g>
		<g>
			<polygon class="st9" points="337.7,186.1 332.2,190.8 322.6,167 323,166.7 			"/>
		</g>
		<g>
			<polygon class="st9" points="332.2,190.8 323.5,188.6 316.9,168.3 322.6,167 			"/>
		</g>
		<g class="st2">
			<polygon class="st9" points="332.2,190.8 323.5,188.6 316.9,168.3 322.6,167 			"/>
		</g>
		<g>
			<g>
				<path class="st9" d="M332.2,190.8c0,0,0-0.1,0-0.4c0-0.2,0.1-0.6,0.2-1c0.2-0.9,0.4-2.1,0.7-3.4c0-0.2,0.1-0.4,0.1-0.6v-0.1h0.1
					c1.2,0.2,2.3,0.4,3,0.6c0.8,0.1,1.2,0.3,1.2,0.3s-0.5,0-1.2-0.1c-0.8-0.1-1.8-0.3-3-0.5l0.1-0.1c0,0.2-0.1,0.4-0.1,0.6
					c-0.3,1.3-0.6,2.5-0.8,3.4c-0.1,0.4-0.2,0.8-0.3,1C332.3,190.7,332.3,190.8,332.2,190.8z"/>
			</g>
		</g>
		<g>
			<g>
				<path class="st9" d="M322.8,166.9c0,0,2.5,4.1,5.4,9.2c2.9,5.1,5.3,9.3,5.2,9.3c0,0-2.5-4.1-5.4-9.2S322.7,166.9,322.8,166.9z"
					/>
			</g>
		</g>
		<g>
			<polygon class="st9" points="320.7,166.5 328.4,184.2 322.1,186.4 320.2,166.6 			"/>
		</g>
		<g>
			<polygon class="st9" points="322.1,186.4 316.3,185.1 315.5,167.2 320.2,166.6 			"/>
		</g>
		<g class="st2">
			<polygon class="st9" points="322.1,186.4 316.3,185.1 315.5,167.2 320.2,166.6 			"/>
		</g>
		<g>
			<g>
				<path class="st9" d="M322.1,186.4c0,0,0.2-0.4,0.7-0.9c0.5-0.6,1.1-1.3,1.8-2.2c0.1-0.1,0.2-0.2,0.2-0.3v-0.1h0.1
					c1,0.3,1.8,0.6,2.5,0.9c0.6,0.2,1,0.4,1,0.4s-0.4-0.1-1-0.3s-1.5-0.5-2.5-0.8h0.1c-0.1,0.1-0.2,0.2-0.2,0.3
					c-0.7,0.9-1.4,1.6-1.8,2.2C322.4,186.1,322.1,186.4,322.1,186.4z"/>
			</g>
		</g>
		<g>
			<g>
				<path class="st9" d="M320.5,166.5c0.1,0,1.1,3.7,2.3,8.2c1.2,4.6,2.2,8.3,2.1,8.3s-1.1-3.7-2.3-8.2
					C321.4,170.3,320.4,166.5,320.5,166.5z"/>
			</g>
		</g>
		<g>
			<polygon class="st9" points="324.4,162.7 318,165.7 318.7,166.5 322.6,164.8 			"/>
		</g>
		<g>
			<polygon class="st9" points="323,166.7 321,167.2 321.1,167.3 322.6,167 			"/>
		</g>
	</g>
	<g>
		<path class="st9" d="M320.9,141.4c0,0,2.2,2.8,2.4,4.5c0.2,1.5,1.2,9.4,1.8,13.1c0.2,1.5-0.1,3.1-1.1,4.3
			c-0.9,1.1-2.3,1.9-4.2,0.6c-1.3-0.9-4.6-4.6-4.6-4.6l5.5-17.2"/>
	</g>
	<g>
		<g>
			<g>
				<g>
					<g>
						<path class="st9" d="M314.9,117.5c-1.1-0.3-2.3-0.2-3.2,0.3c-0.5-0.7-1.5-1.1-2.3-0.9c-0.9,0.1-1.6,0.8-2,1.6
							c-0.9-0.4-2.1,0-2.6,0.9s-0.3,2.1,0.5,2.7c-0.8,0.3-1.4,1-1.6,1.8s-0.1,1.7,0.4,2.3c-0.8,0.4-1,1.5-0.8,2.4
							c0.1,0.9,0.4,1.9,0,2.7c-0.3,0.6-0.9,1-1.4,1.6c-0.4,0.5-0.6,1.5,0,1.8c-1,0.1-1.8,1.2-1.6,2.2c0.2,1,1.3,1.7,2.3,1.5
							c-0.3,0.7-0.2,1.6,0.2,2.2c0.4,0.6,1.1,1.1,1.9,1.4c2.1,0.8,4.7,0,6.1-1.7l6.7-20.6C316.9,118.6,316,117.9,314.9,117.5z"/>
					</g>
				</g>
			</g>
			<g>
				<g>
					<g>
						<g>
							<g>
								<path class="st9" d="M318.1,123.3l0.1-1.1l-6.6-1.7c-2-0.3-4.4,1.6-4.7,3.7c-0.3,2.3-0.5,5.1-0.4,6.8c0.3,3.5,3,4.1,3,4.1
									l-0.2,3.4l7.6,0.6L318.1,123.3z"/>
							</g>
						</g>
					</g>
				</g>
				<g>
					<g>
						<g>
							<g>
								<path class="st9" d="M309.5,135.9V135c0,0,2.4,0.3,4.8-1"/>
							</g>
						</g>
					</g>
				</g>
				<g>
					<g>
						<g>
							<g>
								<path class="st9" d="M306.9,121.6c0.8-1,1.1-2.5,2.3-2.8l6.4,1.5h0.5c0.1-0.4,0.7-0.5,0.7-0.5c0.5-0.4,2.3-0.4,3.6,0.9
									c0.5,0.5,0.8,1.7,0.8,2.3c0,0.3-0.3,0.6-0.1,0.7c0.1,0,0.7,0,0.8,0.1c1.4,0.3,2.3,1.6,2.1,3.5c0,0.1,0,0.2,0,0.3
									c0,0.1,0.1,0.3,0.2,0.4c0.7,0.7,0.8,1.9,0.4,2.7c-0.1,0.3-0.3,0.5-0.4,0.8c-0.1,0.5,0.3,1,0.6,1.5c0.9,1.4,1.1,3.3,0,4.6
									c-0.3,0.3-0.6,0.6-0.7,1c0,0.2,0,0.4,0,0.6c0,1-0.5,2.1-1.5,2.3c-0.5,0.1-1.2,0-1.6,0.4c-0.2,0.2-0.2,0.4-0.3,0.6
									c-0.4,0.8-1.4,1.3-2.3,1s-1.2-3.8-1-4.7c-1.1-0.4-1.8-0.4-1.8-1.6c0,0,0.2-1.9-0.1-2.9c-0.3-0.9,0.3-2.9,0.7-3.9
									c0.4-1-0.1-3.2-0.2-4.1c0-0.2,0-0.4,0.1-0.8l0,0l0,0c0-0.2,0.1-0.5,0.1-0.7s0.2-1.6,0.2-1.8c0-0.8-1.1-0.4-1.9-0.1
									c-0.2,0.1-0.4,0.1-0.6,0.1c-0.7,0-1.3-0.3-1.7-0.8c-0.8,0.8-2,1.1-3,0.8c-0.4,0.6-0.9,1.2-1.4,1.7c-0.6,0.5-1.3,0.8-2,0.7
									C305.7,123.9,306.2,122.7,306.9,121.6z"/>
							</g>
						</g>
					</g>
				</g>
			</g>
		</g>
		<g>
			<g>
				<g>
					<g>
						<g>
							<g>
								<g>
									<g>
										<g>
											<g>
												<g>
													<g>
														<g>
															<g>
																<g>
																	<g>
																		<g>
																			<g>
																				<g>
																					<g>
																						<path class="st9" d="M301.2,220.6l0.6,6.5c0,0-7.1,2.7-7.2,4h13.5v-1l-0.6-3.4l-0.8-6.5L301.2,220.6z"/>
																					</g>
																				</g>
																			</g>
																		</g>
																	</g>
																</g>
															</g>
														</g>
													</g>
												</g>
											</g>
										</g>
									</g>
								</g>
							</g>
						</g>
					</g>
				</g>
				<g>
					<g>
						<g>
							<g>
								<g>
									<g>
										<g>
											<g>
												<g>
													<g>
														<g>
															<g>
																<g>
																	<g>
																		<g>
																			<g>
																				<g>
																					<g>
																						<g>
																							<path class="st9" d="M305.9,226.2c0.3,0.1,0.5,0.4,0.4,0.6c-0.1,0.3-0.4,0.5-0.6,0.4
																								c-0.3-0.1-0.5-0.4-0.4-0.7C305.3,226.2,305.7,226,305.9,226.2"/>
																						</g>
																					</g>
																				</g>
																			</g>
																		</g>
																	</g>
																</g>
															</g>
														</g>
													</g>
												</g>
											</g>
										</g>
									</g>
								</g>
							</g>
						</g>
					</g>
				</g>
				<g>
					<g>
						<g>
							<g>
								<g>
									<g>
										<g>
											<g>
												<g>
													<g>
														<g>
															<g>
																<g>
																	<g>
																		<g>
																			<g>
																				<g>
																					<g>
																						<path class="st9" d="M308.1,231.2v-1l-12.9,0.2c0,0-0.6,0.3-0.5,0.7L308.1,231.2z"/>
																					</g>
																				</g>
																			</g>
																		</g>
																	</g>
																</g>
															</g>
														</g>
													</g>
												</g>
											</g>
										</g>
									</g>
								</g>
							</g>
						</g>
					</g>
				</g>
				<g>
					<g>
						<g>
							<g>
								<g>
									<g>
										<g>
											<g>
												<g>
													<g>
														<g>
															<g>
																<g>
																	<g>
																		<g>
																			<g>
																				<g>
																					<g>
																						<g>
																							<path class="st9" d="M301.6,227.1c0,0.1,0.3,0.1,0.7,0.3c0.3,0.2,0.5,0.5,0.6,0.5s0-0.4-0.4-0.7
																								C302,227,301.6,227,301.6,227.1z"/>
																						</g>
																					</g>
																				</g>
																			</g>
																		</g>
																	</g>
																</g>
															</g>
														</g>
													</g>
												</g>
											</g>
										</g>
									</g>
								</g>
							</g>
						</g>
					</g>
				</g>
				<g>
					<g>
						<g>
							<g>
								<g>
									<g>
										<g>
											<g>
												<g>
													<g>
														<g>
															<g>
																<g>
																	<g>
																		<g>
																			<g>
																				<g>
																					<g>
																						<g>
																							<path class="st9" d="M300.1,227.7c0,0.1,0.3,0.2,0.5,0.5s0.3,0.6,0.4,0.6s0.1-0.4-0.2-0.7
																								C300.5,227.7,300.1,227.6,300.1,227.7z"/>
																						</g>
																					</g>
																				</g>
																			</g>
																		</g>
																	</g>
																</g>
															</g>
														</g>
													</g>
												</g>
											</g>
										</g>
									</g>
								</g>
							</g>
						</g>
					</g>
				</g>
				<g>
					<g>
						<g>
							<g>
								<g>
									<g>
										<g>
											<g>
												<g>
													<g>
														<g>
															<g>
																<g>
																	<g>
																		<g>
																			<g>
																				<g>
																					<g>
																						<g>
																							<path class="st9" d="M299.3,229.4c0.1,0,0.2-0.3,0-0.7s-0.5-0.5-0.5-0.5c0,0.1,0.2,0.3,0.3,0.6
																								C299.2,229.2,299.3,229.4,299.3,229.4z"/>
																						</g>
																					</g>
																				</g>
																			</g>
																		</g>
																	</g>
																</g>
															</g>
														</g>
													</g>
												</g>
											</g>
										</g>
									</g>
								</g>
							</g>
						</g>
					</g>
				</g>
				<g>
					<g>
						<g>
							<g>
								<g>
									<g>
										<g>
											<g>
												<g>
													<g>
														<g>
															<g>
																<g>
																	<g>
																		<g>
																			<g>
																				<g>
																					<g>
																						<g>
																							<path class="st9" d="M301.1,225.5c0,0.1,0.3,0,0.7,0c0.4,0,0.7,0.1,0.7,0.1s-0.3-0.3-0.7-0.3
																								S301.1,225.5,301.1,225.5z"/>
																						</g>
																					</g>
																				</g>
																			</g>
																		</g>
																	</g>
																</g>
															</g>
														</g>
													</g>
												</g>
											</g>
										</g>
									</g>
								</g>
							</g>
						</g>
					</g>
				</g>
			</g>
		</g>
		<g>
			<g>
				<g>
					<g>
						<g>
							<g>
								<g>
									<g>
										<g>
											<g>
												<g>
													<g>
														<g>
															<g>
																<g>
																	<g>
																		<g>
																			<g>
																				<g>
																					<g>
																						<path class="st9" d="M317.8,220.8l0.6,6.4c0,0-7,2.6-7.1,3.9l13.3,0.1v-1L324,227l-0.8-6.4L317.8,220.8z"/>
																					</g>
																				</g>
																			</g>
																		</g>
																	</g>
																</g>
															</g>
														</g>
													</g>
												</g>
											</g>
										</g>
									</g>
								</g>
							</g>
						</g>
					</g>
				</g>
				<g>
					<g>
						<g>
							<g>
								<g>
									<g>
										<g>
											<g>
												<g>
													<g>
														<g>
															<g>
																<g>
																	<g>
																		<g>
																			<g>
																				<g>
																					<g>
																						<g>
																							<path class="st9" d="M322.3,226.3c0.3,0.1,0.4,0.4,0.4,0.6c-0.1,0.3-0.4,0.5-0.6,0.4
																								c-0.3-0.1-0.5-0.4-0.4-0.7C321.8,226.4,322.2,226.2,322.3,226.3"/>
																						</g>
																					</g>
																				</g>
																			</g>
																		</g>
																	</g>
																</g>
															</g>
														</g>
													</g>
												</g>
											</g>
										</g>
									</g>
								</g>
							</g>
						</g>
					</g>
				</g>
				<g>
					<g>
						<g>
							<g>
								<g>
									<g>
										<g>
											<g>
												<g>
													<g>
														<g>
															<g>
																<g>
																	<g>
																		<g>
																			<g>
																				<g>
																					<g>
																						<path class="st9" d="M324.5,231.2v-1l-12.7,0.2c0,0-0.6,0.3-0.5,0.7L324.5,231.2z"/>
																					</g>
																				</g>
																			</g>
																		</g>
																	</g>
																</g>
															</g>
														</g>
													</g>
												</g>
											</g>
										</g>
									</g>
								</g>
							</g>
						</g>
					</g>
				</g>
				<g>
					<g>
						<g>
							<g>
								<g>
									<g>
										<g>
											<g>
												<g>
													<g>
														<g>
															<g>
																<g>
																	<g>
																		<g>
																			<g>
																				<g>
																					<g>
																						<g>
																							<path class="st9" d="M318.1,227.2c0,0.1,0.3,0.1,0.7,0.3c0.3,0.2,0.5,0.5,0.6,0.5s0-0.4-0.4-0.7
																								C318.5,227,318.1,227.1,318.1,227.2z"/>
																						</g>
																					</g>
																				</g>
																			</g>
																		</g>
																	</g>
																</g>
															</g>
														</g>
													</g>
												</g>
											</g>
										</g>
									</g>
								</g>
							</g>
						</g>
					</g>
				</g>
				<g>
					<g>
						<g>
							<g>
								<g>
									<g>
										<g>
											<g>
												<g>
													<g>
														<g>
															<g>
																<g>
																	<g>
																		<g>
																			<g>
																				<g>
																					<g>
																						<g>
																							<path class="st9" d="M316.7,227.8c0,0.1,0.3,0.2,0.5,0.5s0.3,0.6,0.4,0.6s0.1-0.4-0.2-0.7
																								C317.1,227.7,316.7,227.7,316.7,227.8z"/>
																						</g>
																					</g>
																				</g>
																			</g>
																		</g>
																	</g>
																</g>
															</g>
														</g>
													</g>
												</g>
											</g>
										</g>
									</g>
								</g>
							</g>
						</g>
					</g>
				</g>
				<g>
					<g>
						<g>
							<g>
								<g>
									<g>
										<g>
											<g>
												<g>
													<g>
														<g>
															<g>
																<g>
																	<g>
																		<g>
																			<g>
																				<g>
																					<g>
																						<g>
																							<path class="st9" d="M315.9,229.5c0.1,0,0.2-0.3,0-0.7s-0.5-0.5-0.5-0.5c0,0.1,0.2,0.2,0.3,0.6
																								C315.8,229.2,315.8,229.5,315.9,229.5z"/>
																						</g>
																					</g>
																				</g>
																			</g>
																		</g>
																	</g>
																</g>
															</g>
														</g>
													</g>
												</g>
											</g>
										</g>
									</g>
								</g>
							</g>
						</g>
					</g>
				</g>
				<g>
					<g>
						<g>
							<g>
								<g>
									<g>
										<g>
											<g>
												<g>
													<g>
														<g>
															<g>
																<g>
																	<g>
																		<g>
																			<g>
																				<g>
																					<g>
																						<g>
																							<path class="st9" d="M317.7,225.6c0,0.1,0.3,0,0.7,0c0.4,0,0.7,0.1,0.7,0.1s-0.2-0.3-0.7-0.3
																								C318,225.4,317.6,225.6,317.7,225.6z"/>
																						</g>
																					</g>
																				</g>
																			</g>
																		</g>
																	</g>
																</g>
															</g>
														</g>
													</g>
												</g>
											</g>
										</g>
									</g>
								</g>
							</g>
						</g>
					</g>
				</g>
			</g>
		</g>
		<g>
			<g>
				<g>
					<g>
						<path class="st9" d="M307.4,176.7c0.1,0.4,2.3,15.6,3.9,22.3s3.3,8.5,3.6,13.9c0.4,6.3,2.1,13.9,2.1,13.9h7.8
							c0,0-1.1-11.6-2.2-20.6c-1.1-9.1-2.7-20.2-2.4-23.6c0.2-3.3,0.8-7.5,0-12.2s-2.7-5.9-2.7-5.9l-6.6-0.3L307.4,176.7z"/>
					</g>
				</g>
			</g>
			<g>
				<g>
					<g>
						<g>
							<path class="st9" d="M314.7,168c0,0,0,0.1,0.1,0.2c0.1,0.2,0.2,0.4,0.3,0.7c0.2,0.6,0.3,1.6,0.3,2.8s-0.2,2.6-0.6,4.1
								c-0.2,0.8-0.5,1.5-0.8,2.3c-0.4,0.8-0.9,1.5-1.4,2.2c-1.1,1.5-1.6,3.1-2,4.6s-0.6,2.9-0.7,4.1c-0.1,1.2-0.2,2.1-0.3,2.8
								c0,0.3-0.1,0.6-0.1,0.8s0,0.3,0,0.3s0-0.1,0-0.3s0-0.4,0-0.8c0-0.7,0.1-1.6,0.2-2.8s0.3-2.6,0.7-4.1c0.2-0.8,0.4-1.5,0.7-2.3
								c0.2-0.4,0.3-0.8,0.5-1.2s0.4-0.8,0.7-1.1c0.5-0.7,1-1.4,1.4-2.2s0.6-1.5,0.8-2.3c0.4-1.5,0.6-2.9,0.7-4.1
								c0.1-1.2,0-2.1-0.2-2.8c-0.1-0.3-0.2-0.6-0.2-0.7C314.7,168.1,314.7,168,314.7,168z"/>
						</g>
					</g>
				</g>
			</g>
			<g>
				<g>
					<g>
						<path class="st9" d="M300.9,163.7c0,0-3.2,9.3-3.3,16.2c-0.1,6.9-0.2,17.8,1.2,29.9c1.4,12.1,2.1,16.9,2.1,16.9h7.3
							c0,0,0.8-7.6,0.7-14.3s-0.6-8.9,0-16.4c0.7-7.5,1.7-11.9,2.8-14.2c0,0,3-3.6,3.2-8.5s-1.5-9.1-1.5-9.1L300.9,163.7z"/>
					</g>
				</g>
			</g>
		</g>
		<g>
			<g>
				<g>
					<g>
						<path class="st9" d="M283.8,144.8c1.3,0.8,3.8,1.5,3.8,1.5l2.7-2.2c0,0-1.9-3.5-2.6-4.5c-0.2-0.3-0.4-0.8-0.5-1.1
							c-0.2-0.8-0.8-0.4-0.9,0.2c0,0.2,0.1,0.7,0.2,1c0.2,0.7,0.2,1.1,0.2,1.1s-0.2-0.2-0.7-0.5c-0.5-0.4-2.3-1.9-3.1-2.5
							c-1.1-0.9-1.7-0.4-1.6,0c0.2,0.4,3,2.4,2.9,2.8c0,0-0.5,0.3-0.6,0.7s0,0.7,0,0.7s-0.5,0-0.6,0.4c-0.1,0.3,0,0.8,0,0.8
							s-0.5,0-0.5,0.3C282.5,143.6,282.8,144.2,283.8,144.8z"/>
					</g>
				</g>
			</g>
		</g>
		<g>
			<g>
				<g>
					<g>
						<g>
							<g>
								<path class="st9" d="M289.9,143.2c0,0.1,5.8,6,5.8,6s4.8-5.4,6.3-7.4s3.7-4.4,5.6-4.9s4.6,0.8,4.6,0.8l-3.4,7l-4.3,5.9
									c0,0-4.6,5.8-6.8,6.7c-2.2,0.9-4.3-0.4-5.3-1.4c-0.9-1-6.5-9.4-6.5-9.4L289.9,143.2z"/>
							</g>
						</g>
					</g>
				</g>
				<g>
					<g>
						<g>
							<path class="st9" d="M303.6,150.2c-1.4,6.8-2.9,13.6-2.9,13.6l12.2,1.5c1.3,0.2,2.6,0.1,3.8-0.1l1.3-0.2l-1-4.3
								c1.8-4.4,3-8.1,3.8-11.2c1.6-6.7,1.2-10.4,1.2-10.4l-13.3-2.3"/>
						</g>
					</g>
				</g>
				<g>
					<g>
						<g>
							<g>
								<g>
									<path class="st9" d="M308.4,145.7c0,0-0.1,0.1-0.2,0.3c-0.2,0.2-0.4,0.5-0.6,0.8c-0.5,0.6-1.2,1.5-2,2.5s-1.5,1.9-2.1,2.5
										c-0.3,0.3-0.5,0.6-0.7,0.7c-0.2,0.2-0.3,0.3-0.3,0.2c0,0,0.1-0.1,0.2-0.3c0.2-0.2,0.4-0.5,0.6-0.8c0.5-0.6,1.2-1.5,2-2.5
										s1.5-1.9,2.1-2.5c0.3-0.3,0.5-0.6,0.7-0.7C308.3,145.7,308.4,145.7,308.4,145.7z"/>
								</g>
							</g>
						</g>
					</g>
				</g>
			</g>
			<g>
				<g>
					<g>
						<g>
							<path class="st9" d="M316.8,160.9c0,0-0.3,0.1-0.8,0.2c-0.5,0.1-1.3,0.2-2.1,0.3c-0.8,0-1.6,0-2.1-0.1s-0.9-0.2-0.8-0.2
								c0,0,0.3,0,0.9,0.1c0.5,0,1.3,0.1,2.1,0c0.8,0,1.5-0.1,2.1-0.2C316.5,161,316.8,160.9,316.8,160.9z"/>
						</g>
					</g>
				</g>
			</g>
			<g>
				<g>
					<g>
						<g>
							<path class="st9" d="M295.5,152.7c0,0-0.1-0.8-0.1-1.7s0.1-1.7,0.1-1.7s0.1,0.8,0.1,1.7C295.6,152,295.6,152.7,295.5,152.7z"
								/>
						</g>
					</g>
				</g>
			</g>
		</g>
		<g>
			<g>
				<g>
					<g>
						<path class="st9" d="M323.4,135.6l-3.9-6.6c0.3,2-3.6,2.7-4.5,4.5c-0.5,1-1.1,2.2-0.5,3.3c-0.4,0.5-0.9,1-1.2,1.6
							c-0.3,0.6-0.4,1.3-0.1,1.9c0.3,0.6,1,1,1.6,0.7c-0.3,0.8-0.1,1.8,0.6,2.3c0.6,0.6,1.6,0.7,2.4,0.3c0.2,0.8,0.6,1.6,1.3,2.1
							c0.7,0.5,1.6,0.6,2.4,0.2c0.7-0.4,1.1-1.4,0.7-2.2c1.6-0.3,2.5-2,2.6-3.6C324.8,138.5,324.1,137,323.4,135.6z"/>
					</g>
				</g>
			</g>
			<g>
				<g>
					<g>
						<g>
							<path class="st9" d="M323.8,127.6c0,0,0.1-0.1,0.1-0.4c0.1-0.3,0.1-0.7,0.1-1.2c-0.1-0.5-0.3-1.1-0.8-1.5s-1.2-0.7-2-0.7
								h-0.1v-0.1c0.1-0.2,0.1-0.5,0.1-0.7c0-0.9-0.3-1.7-0.8-2.3c-0.5-0.6-1.1-0.9-1.7-1s-1-0.1-1.4,0c-0.3,0.1-0.5,0.1-0.5,0.1
								s0,0,0.1-0.1c0.1,0,0.2-0.1,0.4-0.1c0.3-0.1,0.8-0.1,1.4,0s1.3,0.4,1.8,1s0.9,1.5,0.8,2.4c0,0.3-0.1,0.5-0.1,0.8l-0.1-0.1
								c0.8-0.1,1.6,0.2,2.1,0.7s0.8,1.1,0.8,1.6c0.1,0.5,0,0.9-0.1,1.2C323.9,127.3,323.9,127.4,323.8,127.6
								C323.8,127.5,323.8,127.6,323.8,127.6z"/>
						</g>
					</g>
				</g>
			</g>
		</g>
	</g>
	<g>
		<g>
			<path class="st9" d="M319.8,158.7c0,0,0,0.5,0,1.3s0,1.9,0.2,3.1c0.2,1.2,0.5,2.2,0.8,2.9s0.7,1,0.7,1.1c0,0-0.1-0.1-0.3-0.2
				c-0.2-0.2-0.4-0.4-0.5-0.8c-0.4-0.7-0.7-1.8-0.9-3c-0.2-1.2-0.2-2.3-0.2-3.1c0-0.4,0.1-0.7,0.1-0.9
				C319.8,158.9,319.8,158.7,319.8,158.7z"/>
		</g>
	</g>
	<g>
		<g>
			<path class="st9" d="M319.8,158.6c0,0-0.1,0.1-0.2,0.3s-0.2,0.5-0.3,0.8c-0.2,0.7-0.3,1.7-0.4,2.9c0,1.1,0,2.2,0.2,2.9
				c0.1,0.7,0.3,1.2,0.3,1.2s-0.1-0.1-0.1-0.3c0-0.1-0.1-0.2-0.1-0.4c0-0.1-0.1-0.3-0.1-0.5c-0.2-0.7-0.3-1.8-0.2-2.9
				c0-1.1,0.2-2.2,0.4-2.9c0.1-0.4,0.2-0.6,0.4-0.8C319.8,158.6,319.8,158.6,319.8,158.6z"/>
		</g>
	</g>
	<g>
		<g>
			<path class="st9" d="M319.3,157.1c0.4,1,0.8,1.8,0.7,1.9c0,0-0.4-0.8-0.9-1.8"/>
		</g>
	</g>
</g>
<g>
	<g>
		<g>
			<g>
				<g>
					<g>
						<g>
							<g>
								<g>
									<g>
										<g>
											<g>
												<g>
													<g>
														<g>
															<g>
																<g>
																	<g>
																		<g>
																			<g>
																				<path class="st0" d="M200,236.3l6.4,3.4c0,0-1.9,8.2-0.7,9.1l8.3-12.5l-0.9-0.6l-3.5-1.5l-6.6-3.3L200,236.3z"
																					/>
																			</g>
																		</g>
																	</g>
																</g>
															</g>
														</g>
													</g>
												</g>
											</g>
										</g>
									</g>
								</g>
							</g>
						</g>
					</g>
				</g>
			</g>
			<g>
				<g>
					<g>
						<g>
							<g>
								<g>
									<g>
										<g>
											<g>
												<g>
													<g>
														<g>
															<g>
																<g>
																	<g>
																		<g>
																			<g>
																				<g>
																					<path class="st0" d="M208,235.4c0.2-0.2,0.6-0.2,0.8,0s0.2,0.6,0,0.8s-0.7,0.2-0.9,0
																						C207.8,235.9,207.8,235.5,208,235.4"/>
																				</g>
																			</g>
																		</g>
																	</g>
																</g>
															</g>
														</g>
													</g>
												</g>
											</g>
										</g>
									</g>
								</g>
							</g>
						</g>
					</g>
				</g>
			</g>
			<g>
				<g>
					<g>
						<g>
							<g>
								<g>
									<g>
										<g>
											<g>
												<g>
													<g>
														<g>
															<g>
																<g>
																	<g>
																		<g>
																			<g>
																				<path class="st0" d="M214.1,236.4l-0.9-0.6l-7.7,12.1c0,0-0.1,0.7,0.3,0.9L214.1,236.4z"/>
																			</g>
																		</g>
																	</g>
																</g>
															</g>
														</g>
													</g>
												</g>
											</g>
										</g>
									</g>
								</g>
							</g>
						</g>
					</g>
				</g>
			</g>
			<g>
				<g>
					<g>
						<g>
							<g>
								<g>
									<g>
										<g>
											<g>
												<g>
													<g>
														<g>
															<g>
																<g>
																	<g>
																		<g>
																			<g>
																				<g>
																					<path class="st0" d="M206.3,239.9c0.1,0,0.3-0.3,0.7-0.4c0.4-0.2,0.8-0.2,0.8-0.2c0-0.1-0.4-0.2-0.9,0
																						C206.4,239.5,206.2,239.9,206.3,239.9z"/>
																				</g>
																			</g>
																		</g>
																	</g>
																</g>
															</g>
														</g>
													</g>
												</g>
											</g>
										</g>
									</g>
								</g>
							</g>
						</g>
					</g>
				</g>
			</g>
			<g>
				<g>
					<g>
						<g>
							<g>
								<g>
									<g>
										<g>
											<g>
												<g>
													<g>
														<g>
															<g>
																<g>
																	<g>
																		<g>
																			<g>
																				<g>
																					<path class="st0" d="M205.9,241.6c0.1,0.1,0.3-0.1,0.7-0.2c0.4,0,0.7,0.1,0.8,0c0-0.1-0.3-0.3-0.8-0.3
																						C206.2,241.2,205.9,241.6,205.9,241.6z"/>
																				</g>
																			</g>
																		</g>
																	</g>
																</g>
															</g>
														</g>
													</g>
												</g>
											</g>
										</g>
									</g>
								</g>
							</g>
						</g>
					</g>
				</g>
			</g>
			<g>
				<g>
					<g>
						<g>
							<g>
								<g>
									<g>
										<g>
											<g>
												<g>
													<g>
														<g>
															<g>
																<g>
																	<g>
																		<g>
																			<g>
																				<g>
																					<path class="st0" d="M207.1,243.4c0.1,0-0.2-0.3-0.7-0.4c-0.4-0.1-0.8,0.1-0.7,0.2c0,0.1,0.3,0,0.7,0.1
																						C206.7,243.3,207,243.5,207.1,243.4z"/>
																				</g>
																			</g>
																		</g>
																	</g>
																</g>
															</g>
														</g>
													</g>
												</g>
											</g>
										</g>
									</g>
								</g>
							</g>
						</g>
					</g>
				</g>
			</g>
			<g>
				<g>
					<g>
						<g>
							<g>
								<g>
									<g>
										<g>
											<g>
												<g>
													<g>
														<g>
															<g>
																<g>
																	<g>
																		<g>
																			<g>
																				<g>
																					<path class="st0" d="M204.5,239.4c0.1,0,0.2-0.3,0.4-0.7c0.3-0.3,0.6-0.5,0.5-0.6c0-0.1-0.4,0-0.7,0.5
																						C204.5,239,204.5,239.4,204.5,239.4z"/>
																				</g>
																			</g>
																		</g>
																	</g>
																</g>
															</g>
														</g>
													</g>
												</g>
											</g>
										</g>
									</g>
								</g>
							</g>
						</g>
					</g>
				</g>
			</g>
		</g>
	</g>
	<g>
		<g>
			<g>
				<g>
					<path class="st0" d="M190.1,229.1l-8,4.9l-7.5,2c-0.8,0.2-1.2,0.5-1.2,1c0,0.4,0.3,0.7,0.7,0.8l11.2,2.1c0.1,0,0.2,0,0.3-0.1
						c1.1-0.7,7.3-4.5,7.3-4.5L190.1,229.1z"/>
				</g>
				<g>
					<g>
						<g>
							<g>
								<g>
									<g>
										<g>
											<g>
												<g>
													<path class="st0" d="M185.6,233.2c0,0,0.1-0.1,0.3-0.2c0.2-0.1,0.5-0.2,1-0.2c0.2,0,0.5,0,0.7,0.1
														c0.1,0.1,0.2,0.3,0.1,0.4c0,0.2-0.2,0.3-0.3,0.3c-0.5,0.3-1.3,0.1-1.7-0.4s-0.4-1.3-0.1-1.8c0.1-0.1,0.2-0.2,0.4-0.3
														c0.2,0,0.3,0.1,0.4,0.2c0.1,0.3,0.1,0.5,0,0.7c-0.1,0.4-0.2,0.7-0.3,0.9s-0.2,0.3-0.2,0.3s0.3-0.4,0.4-1.2
														c0-0.2,0-0.4,0-0.6c0-0.1-0.1-0.1-0.2-0.1c-0.1,0-0.2,0.1-0.2,0.2c-0.3,0.4-0.3,1.1,0.1,1.5c0.3,0.5,1,0.6,1.4,0.4
														c0.1-0.1,0.2-0.1,0.2-0.2c0-0.1,0-0.2-0.1-0.2c-0.2-0.1-0.4-0.1-0.6-0.1C186,233,185.6,233.3,185.6,233.2z"/>
												</g>
											</g>
										</g>
									</g>
								</g>
							</g>
						</g>
					</g>
				</g>
			</g>
		</g>
		<g>
			<path class="st0" d="M173.4,237.1l12.7,2.6l-0.5,0.3c-0.2,0.1-0.5,0.2-0.7,0.1l-11-2.2c-0.3-0.1-0.5-0.3-0.5-0.5V237.1z"/>
		</g>
		<g>
			<g>
				<path class="st0" d="M182.6,235.5c-0.1,0-0.1-0.4-0.3-0.8c-0.2-0.4-0.4-0.7-0.4-0.7s0.4,0.2,0.5,0.7
					C182.7,235.1,182.6,235.6,182.6,235.5z"/>
			</g>
		</g>
		<g>
			<g>
				<path class="st0" d="M180.7,236c0,0-0.1-0.3-0.2-0.7c-0.1-0.4-0.4-0.7-0.3-0.7c0-0.1,0.4,0.2,0.5,0.6
					C180.8,235.6,180.7,236,180.7,236z"/>
			</g>
		</g>
		<g>
			<g>
				<path class="st0" d="M179,236.4c-0.1,0-0.1-0.4-0.2-0.7c-0.1-0.4-0.3-0.7-0.3-0.7s0.3,0.2,0.5,0.7
					C179.2,236.1,179.1,236.4,179,236.4z"/>
			</g>
		</g>
		<g>
			<g>
				<path class="st0" d="M183.5,233.9c0,0,0.1-0.1,0.3-0.2c0.2-0.1,0.5-0.2,0.9-0.1h0.1v0.1c0,0.2-0.3,0.4-0.5,0.4s-0.4,0-0.7,0.1
					c-0.1,0-0.2,0-0.4,0c-0.1,0-0.3,0-0.4-0.2c-0.1-0.1-0.2-0.3-0.2-0.4c0-0.1-0.1-0.3-0.1-0.4c0-0.3-0.1-0.6,0-0.8
					c0-0.1,0-0.3,0.1-0.4c0-0.1,0.1-0.1,0.2-0.2c0.1,0,0.2-0.1,0.3,0c0.2,0,0.3,0.2,0.3,0.3s0.1,0.2,0.1,0.3c0,0.2,0,0.4,0,0.6
					c0,0.4-0.1,0.7-0.2,0.9c-0.1,0.2-0.2,0.3-0.2,0.3s0.3-0.4,0.3-1.1c0-0.2,0-0.4,0-0.6c0-0.2-0.1-0.5-0.3-0.5
					c-0.2-0.1-0.2,0.2-0.2,0.5s0,0.5,0,0.8c0,0.2,0.1,0.5,0.2,0.7c0.1,0.1,0.4,0.1,0.6,0.1c0.2,0,0.5,0,0.7,0s0.4-0.1,0.4-0.3
					l0.1,0.1c-0.4-0.1-0.7,0-0.9,0C183.6,233.8,183.5,233.9,183.5,233.9z"/>
			</g>
		</g>
		<g>
			<path class="st0" d="M185.9,236.1c0-0.1-0.1-0.2-0.2-0.2c-0.1-0.1-0.2-0.1-0.3,0l0,0c-0.2,0.1-0.3,0.2-0.3,0.4s0.1,0.4,0.2,0.5
				c0.2,0.1,0.4,0.1,0.5,0C186,236.6,186,236.3,185.9,236.1z"/>
		</g>
	</g>
	<g>
		<g>
			<g>
				<g>
					<g>
						<g>
							<g>
								<path class="st0" d="M198.8,222.1c0,0-19.1-11.4-23.7-6c-4.6,5.4,3.5,11.2,5.1,12.3s19.6,8.8,19.6,8.8l3.3-6.3L198.8,222.1z
									"/>
							</g>
						</g>
					</g>
					<g>
						<g>
							<g>
								<path class="st0" d="M184,231.4c0,0,23.6-12.7,26.2-13.9c2.2-1.1,8.5-4.4,10.5,2.2c2,6.7-10.1,14.9-10.1,14.9l-5-2.6
									l-6.9,3.3l-8.7,4.2L184,231.4z"/>
							</g>
						</g>
					</g>
					<g>
						<g>
							<g>
								<path class="st0" d="M203.1,238.9c-0.2-0.1-7.5-2.6-7.5-2.6l9.6-4.1l3.5,1.3L203.1,238.9z"/>
							</g>
						</g>
					</g>
				</g>
				<g>
					<g>
						<path class="st0" d="M211.7,229.1c0,0,0,0-0.1,0.1c-0.1,0-0.2,0.1-0.3,0.2c-0.3,0.1-0.7,0.3-1.2,0.6c-1.1,0.5-2.6,1.2-4.5,2.2
							c-3.9,1.8-9.3,4.4-15.6,7.4h-0.1v-0.1c-1.6-2.1-3.2-4.3-4.9-6.6c-0.3-0.5-0.7-0.9-1-1.4l-0.1-0.1l0.1-0.1
							c7.5-4.1,14.2-7.7,19.2-10.2c2.5-1.2,4.5-2.2,5.9-2.9c0.7-0.3,1.2-0.6,1.6-0.7c0.2-0.1,0.3-0.1,0.4-0.2c0.1,0,0.1-0.1,0.1-0.1
							s0,0-0.1,0.1s-0.2,0.1-0.4,0.2c-0.4,0.2-0.9,0.4-1.6,0.8c-1.4,0.7-3.4,1.7-5.8,2.9c-4.9,2.5-11.6,6.2-19.1,10.2v-0.1
							c0.3,0.4,0.7,0.9,1,1.4c1.7,2.3,3.4,4.5,4.9,6.6H190c6.3-3,11.7-5.5,15.6-7.3c1.9-0.9,3.5-1.6,4.6-2.1
							c0.5-0.2,0.9-0.4,1.2-0.6C211.5,229.2,211.6,229.2,211.7,229.1C211.6,229.1,211.7,229.1,211.7,229.1z"/>
					</g>
				</g>
				<g>
					<g>
						<path class="st0" d="M184.1,218.3c0,0,0.2,0,0.5,0.2c0.3,0.1,0.8,0.3,1.4,0.5c1.2,0.5,2.8,1.2,4.5,2.2
							c1.7,0.9,3.2,1.8,4.3,2.5c0.5,0.3,1,0.6,1.3,0.8s0.5,0.3,0.4,0.3c0,0-0.2-0.1-0.5-0.3s-0.8-0.5-1.3-0.8
							c-1.1-0.6-2.6-1.5-4.3-2.4s-3.3-1.7-4.4-2.2c-0.6-0.3-1-0.5-1.4-0.6C184.3,218.4,184.1,218.3,184.1,218.3z"/>
					</g>
				</g>
				<g>
					<g>
						<path class="st0" d="M203.1,238.9c0,0,0.1-0.1,0.3-0.3s0.5-0.5,0.8-0.8c0.7-0.7,1.7-1.7,2.9-2.7c0.6-0.5,1.1-1,1.6-1.5v0.1
							c-0.9-0.5-1.6-1-2.1-1.3s-0.8-0.5-0.8-0.5s0.3,0.1,0.8,0.4c0.5,0.3,1.3,0.7,2.1,1.2l0.1,0.1l-0.1,0.1c-0.5,0.5-1,1-1.6,1.5
							c-1.1,1.1-2.1,2-2.9,2.7c-0.4,0.3-0.6,0.6-0.9,0.8C203.2,238.8,203.1,238.9,203.1,238.9z"/>
					</g>
				</g>
			</g>
			<g>
				<g>
					<path class="st0" d="M202,191.2c0.2,0,7,0.3,8.3,1.8c1.3,1.4,4.2,23.4,4.2,23.4c-1.5,0.2-3.2,0.9-4.1,1.3l-11.4,5.7l-5.8-3.7
						c-0.7-0.4-0.8-1.3-0.2-1.9l0,0l-5.1-24.2c0,0,1.2-1.1,3.2-1.7C192.9,191.3,202,191.2,202,191.2z"/>
				</g>
			</g>
			<g>
				<g>
					<path class="st0" d="M189.9,192.7c0,0-2.1,0.3-2.9,1.5c-2,2.8-8.2,13-9.3,15.4c-1.2,2.6-0.5,4.4,0.5,5.3c1.4,1.3,5,1.5,7-0.5
						c0.9-0.8,5.7-4.8,5.7-4.8L189.9,192.7z"/>
				</g>
			</g>
			<g>
				<g>
					<g>
						<path class="st0" d="M187.3,196.5c0,0,0,0.1,0.1,0.2c0.1,0.1,0.1,0.3,0.2,0.6c0.2,0.5,0.4,1.3,0.7,2.2
							c0.6,1.9,1.2,4.5,1.9,7.4s1.3,5.6,1.7,7.5c0.2,1,0.4,1.7,0.5,2.3c0.1,0.3,0.1,0.5,0.2,0.6c0,0.1,0.1,0.2,0.1,0.2s0-0.1,0-0.2
							c0-0.2-0.1-0.4-0.1-0.6c-0.1-0.6-0.3-1.3-0.5-2.3c-0.4-1.9-1-4.6-1.7-7.5s-1.4-5.5-2-7.4c-0.3-0.9-0.5-1.7-0.7-2.2
							c-0.1-0.2-0.2-0.4-0.2-0.6C187.4,196.5,187.3,196.5,187.3,196.5z"/>
					</g>
				</g>
			</g>
			<g>
				<g>
					<path class="st0" d="M207.7,191.9c0,0,1.6,0,3.5,1.7c0.8,0.7,9.7,13.9,10.5,17.6c0.5,2.1-2.1,6.3-4.5,5.9
						c-3.2-0.5-15.1-5.8-15.1-5.8l3.1-5.7l6.8,1.5l-4.7-5.3l-0.1-9.8"/>
				</g>
			</g>
			<g>
				<g>
					<g>
						<path class="st0" d="M180.2,208.6c0,0,0,0,0.1-0.1s0.2-0.1,0.3-0.2c0.3-0.2,0.7-0.5,1.3-0.8c1.1-0.7,2.5-1.6,4.1-2.7
							c0.4-0.2,0.7-0.5,1.1-0.7H187c0.9,1.3,1.7,2.5,2.3,3.3s1,1.3,1,1.3c-0.2-0.2-0.4-0.6-0.9-1.3c-0.6-0.9-1.4-2-2.3-3.4v-0.1H187
							c-0.3,0.2-0.7,0.5-1.1,0.7c-1.6,1.1-3.1,2-4.1,2.7c-0.5,0.3-0.9,0.6-1.2,0.8c-0.1,0.1-0.2,0.2-0.3,0.2
							C180.2,208.6,180.2,208.6,180.2,208.6z"/>
					</g>
				</g>
			</g>
			<g>
				<g>
					<g>
						<polygon class="st0" points="199.7,203.2 205,205.9 202.6,210.5 199.3,208.1 						"/>
					</g>
				</g>
				<g>
					<g>
						<g>
							<g>
								<path class="st0" d="M194.6,203.3l-3.5-2.7c-0.1-0.1-0.3-0.1-0.4-0.1l-4.8,0.1c-0.2,0-0.4,0.2-0.4,0.4s0,0.4,0.2,0.5
									c0.3,0.2,7.4,5.8,7.4,5.8l5.8-0.6L194.6,203.3z"/>
							</g>
						</g>
					</g>
				</g>
				<g>
					<g>
						<g>
							<g>
								<g>
									<path class="st0" d="M199.7,203.2c0,0-1.9-1.6-2.3-1.7c-0.5-0.1-2.5-0.2-2.5-0.2l-1.8,0.9l1,0.8c0.8-0.1,1-0.4,1-0.4
										l1.2,0.2L199.7,203.2z"/>
								</g>
							</g>
						</g>
					</g>
					<g>
						<g>
							<g>
								<g>
									<path class="st0" d="M197.6,202.4l-3.2,0.9l-4.5,0.4c0,0-0.1,0.9,0.8,1.1c0.5,0.1,1.5,0.2,1.5,0.2s0.2,0.8,0.9,1.1
										c0,0,0.3,0.6,0.6,0.8l0.1,0.1c0.4,0.1,1.2,1.4,1.8,1.5c0.6,0.2,3.7-0.4,3.7-0.4l0.4-4.9L197.6,202.4z"/>
								</g>
							</g>
						</g>
					</g>
					<g>
						<g>
							<g>
								<g>
									<g>
										<path class="st0" d="M196.5,204.9c0,0-0.2,0-0.6,0.1c-0.4,0.1-1,0.1-1.6,0.1s-1.2,0-1.6-0.1c-0.4-0.1-0.6-0.1-0.6-0.1
											s0.1,0,0.2,0.1c0.1,0,0.3,0.1,0.5,0.1c0.4,0.1,1,0.1,1.6,0.1s1.2-0.1,1.6-0.1c0.2,0,0.4-0.1,0.5-0.1
											C196.4,204.9,196.5,204.9,196.5,204.9z"/>
									</g>
								</g>
							</g>
						</g>
					</g>
					<g>
						<g>
							<g>
								<g>
									<g>
										<path class="st0" d="M195.8,206.1c0,0,0,0.1,0,0.3c0,0.1,0.1,0.2,0.1,0.3c0.1,0.1,0.2,0.2,0.4,0.2s0.3,0,0.4-0.1
											c0.1-0.1,0.2-0.1,0.3-0.1c0.2-0.1,0.3-0.1,0.3-0.1s-0.1,0-0.3,0.1s-0.4,0.2-0.7,0.2c-0.1,0-0.3,0-0.3-0.1
											c-0.1-0.1-0.1-0.2-0.1-0.3C195.8,206.2,195.8,206.1,195.8,206.1z"/>
									</g>
								</g>
							</g>
						</g>
					</g>
					<g>
						<g>
							<g>
								<g>
									<g>
										<path class="st0" d="M193.5,206.3c0,0,0.1,0.1,0.3,0.1c0.2,0.1,0.5,0.1,0.8,0.2c0.3,0,0.6,0.1,0.8,0.1s0.3,0,0.3,0
											s-0.5,0-1.2-0.1C194,206.4,193.5,206.3,193.5,206.3z"/>
									</g>
								</g>
							</g>
						</g>
					</g>
					<g>
						<g>
							<g>
								<g>
									<g>
										<path class="st0" d="M195.8,207.7c0,0,0.2,0.2,0.5,0.3s0.6,0,0.6,0s-0.2,0-0.5-0.1C196,207.8,195.8,207.7,195.8,207.7z"/>
									</g>
								</g>
							</g>
						</g>
					</g>
					<g>
						<g>
							<g>
								<g>
									<g>
										<path class="st0" d="M194.7,207.6c0,0,0.1,0.1,0.3,0.1s0.3,0,0.3,0s-0.1-0.1-0.3-0.1S194.7,207.6,194.7,207.6z"/>
									</g>
								</g>
							</g>
						</g>
					</g>
					<g>
						<g>
							<g>
								<g>
									<g>
										<path class="st0" d="M194.4,203.3c0,0,0.7-0.1,1.5-0.4c0.4-0.1,0.8-0.3,1-0.4c0.3-0.1,0.4-0.2,0.4-0.2s-0.2,0-0.4,0.1
											c-0.3,0.1-0.6,0.2-1,0.3s-0.7,0.2-1,0.3C194.6,203.2,194.4,203.3,194.4,203.3z"/>
									</g>
								</g>
							</g>
						</g>
					</g>
				</g>
				<g>
					<g>
						<g>
							<g>
								<g>
									<path class="st0" d="M189.8,204.1c0,0,0.4-0.1,0-0.7c-0.3-0.6-1.4,0-1.4,0l-1.4,0.7c0,0-0.3,0.7,0,0.9l0.3,0.4
										c0,0-0.5,0.5-0.4,1c0.2,0.5,0.7,0.4,0.7,0.4s-0.1,0.9,0.2,1.3c0.3,0.4,0.6,0.4,0.6,0.4s0.2,0.8,1.1,1.1
										c0.9,0.3,1.3,0.3,1.6,0c0.3-0.4,0.4-0.8,0.4-0.8s2-0.9,2-1.4c0.1-0.5,0-0.6,0-0.6s0.2-0.4,0-0.7s-0.9-0.1-0.9-0.1l-2.5,0.4
										c0,0,2-0.8,2.2-1.1s0-0.7-0.8-0.6c-0.8,0-3.2,0.4-3.2,0.4s0.1-0.2,0.3-0.3s0.7-0.3,0.7-0.3L189.8,204.1z"/>
								</g>
							</g>
						</g>
					</g>
					<g>
						<g>
							<g>
								<g>
									<g>
										<path class="st0" d="M189,207.8c0,0,1-0.2,2.2-0.4c1.2-0.3,2.2-0.5,2.2-0.5s-1,0.2-2.2,0.4S189,207.8,189,207.8z"/>
									</g>
								</g>
							</g>
						</g>
					</g>
					<g>
						<g>
							<g>
								<g>
									<g>
										<path class="st0" d="M190.1,209.2c0,0,0.3,0,0.7-0.1c0.2-0.1,0.4-0.1,0.5-0.2c0.1,0,0.1,0,0.1-0.1l0,0l0,0
											c0,0-0.3,0.1-0.7,0.2C190.4,209.1,190.1,209.2,190.1,209.2z"/>
									</g>
								</g>
							</g>
						</g>
					</g>
					<g>
						<g>
							<g>
								<g>
									<g>
										<path class="st0" d="M188.1,206.7c0,0,0.5,0,1.1-0.1s1.1-0.1,1.1-0.1s-0.5,0-1.1,0C188.6,206.5,188.1,206.6,188.1,206.7z"
											/>
									</g>
								</g>
							</g>
						</g>
					</g>
					<g>
						<g>
							<g>
								<g>
									<g>
										<path class="st0" d="M187.6,205.4c0,0,0.2-0.1,0.5-0.2c0.3-0.1,0.5-0.1,0.5-0.1s-0.2-0.1-0.5,0S187.6,205.4,187.6,205.4z"
											/>
									</g>
								</g>
							</g>
						</g>
					</g>
				</g>
				<g>
					<g>
						<g>
							<g>
								<g>
									<path class="st0" d="M185.7,201.1C185.7,201.1,185.8,201.1,185.7,201.1c0.2,0,0.2,0,0.3,0c0.2,0,0.5,0,0.9-0.1
										c0.8,0,1.9-0.1,3.1,0c0.3,0,0.6,0,0.8,0.1c0.1,0.1,0.2,0.2,0.3,0.2c0.1,0.1,0.2,0.2,0.3,0.3c0.4,0.3,0.8,0.6,1.1,0.9
										c0.3,0.2,0.6,0.4,0.7,0.6c0.1,0.1,0.1,0.1,0.2,0.2c0,0,0.1,0.1,0.1,0c0,0,0,0-0.1-0.1c-0.1,0-0.1-0.1-0.2-0.2
										c-0.2-0.1-0.4-0.4-0.7-0.6c-0.3-0.3-0.7-0.6-1.1-0.9c-0.1-0.1-0.2-0.2-0.3-0.3s-0.2-0.2-0.3-0.3s-0.3-0.1-0.4-0.1
										c-0.2,0-0.3,0-0.5,0c-1.2,0-2.3,0-3.1,0.1c-0.4,0-0.7,0.1-0.9,0.1C186,201,185.9,201,185.7,201.1
										C185.8,201.1,185.7,201.1,185.7,201.1z"/>
								</g>
							</g>
						</g>
					</g>
				</g>
				<g>
					<g>
						<g>
							<g>
								<path class="st0" d="M188.7,201.7c0-0.1,0.1-0.1,0.2-0.1l0,0l0,0l0,0c0.1,0,0.1,0.1,0.2,0.1c0.1,0.1,0.1,0.2,0,0.2
									c0,0-0.1,0-0.1,0.1c-0.1,0-0.2,0-0.3-0.1C188.6,201.9,188.6,201.7,188.7,201.7z"/>
							</g>
						</g>
					</g>
				</g>
			</g>
			<g>
				<g>
					<g>
						<path class="st0" d="M211.3,215.3c0,0-0.1,0-0.2-0.1c-0.1-0.1-0.3-0.1-0.5-0.2c-0.5-0.2-1.1-0.5-1.9-0.8
							c-1.6-0.7-3.9-1.7-6.6-2.9v0.1c0.6-1.2,1.3-2.5,2-3.8c0.4-0.7,0.7-1.3,1-2H205c2.5,0.5,4.8,1,6.7,1.4l0,0
							c1.5,0.5,2.6,1.2,3.4,1.7c0.4,0.3,0.6,0.5,0.8,0.6c0.1,0.1,0.2,0.1,0.2,0.2l0.1,0.1c0,0,0,0-0.1-0.1c-0.1,0-0.1-0.1-0.2-0.2
							c-0.2-0.2-0.5-0.4-0.8-0.7c-0.7-0.5-1.9-1.2-3.4-1.8l0,0l0,0c-1.9-0.4-4.1-0.9-6.7-1.4h-0.1l0,0c-0.3,0.6-0.7,1.3-1,2
							c-0.7,1.3-1.4,2.6-2,3.8v0.1h0.1c2.7,1.1,4.9,2.1,6.6,2.8c0.8,0.3,1.5,0.6,1.9,0.8c0.2,0.1,0.4,0.2,0.5,0.2
							C211.2,215.3,211.3,215.3,211.3,215.3z"/>
					</g>
				</g>
			</g>
			<g>
				<g>
					<g>
						<path class="st0" d="M208,202.7c0,0,0.2,0.3,0.5,0.7s0.8,1,1.3,1.6s1,1.2,1.4,1.6c0.2,0.2,0.4,0.3,0.5,0.4
							c0.1,0,0.1,0.1,0.2,0.1c0,0,0,0,0-0.1l0,0l0,0c0,0-0.1,0-0.1-0.1c-0.1-0.1-0.3-0.3-0.4-0.5c-0.4-0.4-0.8-1-1.4-1.6
							c-0.5-0.6-1-1.2-1.4-1.6C208.2,202.9,208,202.7,208,202.7z"/>
					</g>
				</g>
			</g>
			<g>
				<g>
					<g>
						<path class="st0" d="M206.8,199.9c0,0,0-0.4,0-1.1c0-0.3,0.1-0.8,0.2-1.2c0.1-0.4,0.3-0.9,0.5-1.4s0.5-0.9,0.7-1.3
							c0.3-0.4,0.5-0.7,0.8-0.9c0.5-0.5,0.9-0.7,0.8-0.7c0,0-0.1,0-0.3,0.2c-0.1,0.1-0.2,0.1-0.3,0.2c-0.1,0.1-0.2,0.2-0.4,0.3
							c-0.3,0.2-0.5,0.5-0.8,0.9s-0.5,0.8-0.8,1.3c-0.2,0.5-0.4,1-0.5,1.4c-0.1,0.5-0.1,0.9-0.1,1.2c0,0.2,0,0.3,0,0.5
							c0,0.1,0,0.3,0,0.4C206.8,199.8,206.8,199.9,206.8,199.9z"/>
					</g>
				</g>
			</g>
			<g>
				<g>
					<g>
						<path class="st0" d="M198.6,220c0,0-0.3,0-0.9-0.1c-0.6,0-1.3-0.2-2.1-0.5s-1.5-0.7-1.9-1c-0.5-0.3-0.7-0.5-0.7-0.5
							s0.1,0.1,0.2,0.2c0.1,0.1,0.3,0.3,0.5,0.4c0.4,0.3,1.1,0.7,1.9,1c0.8,0.3,1.6,0.4,2.1,0.4c0.3,0,0.5,0,0.7,0
							C198.6,220,198.6,220,198.6,220z"/>
					</g>
				</g>
			</g>
			<g>
				<g>
					<g>
						<path class="st0" d="M194.9,213.7c0,0,0.1,0.1,0.2,0.2c0.1,0.2,0.3,0.4,0.5,0.6c0.4,0.5,1.1,1.2,1.8,2c0.7,0.7,1.4,1.4,2,1.8
							c0.3,0.2,0.5,0.4,0.6,0.5c0.2,0.1,0.2,0.2,0.2,0.2s-0.1-0.1-0.2-0.2c-0.2-0.2-0.4-0.3-0.6-0.5c-0.5-0.5-1.2-1.1-1.9-1.8
							s-1.4-1.4-1.8-1.9c-0.2-0.2-0.4-0.4-0.5-0.6C195,213.8,194.9,213.7,194.9,213.7z"/>
					</g>
				</g>
			</g>
		</g>
		<path class="st0" d="M201.2,184.8c0.3-1.4,0.5-2.8,0.5-4.2s-0.2-2.9-0.9-4.1c-0.1-0.2-0.9-1.4-1.1-1.4c-0.1,0,0.4,1.2,0.4,1.4
			c-0.6,1.4-0.6,2.9-0.2,4.3C200.1,182.2,200.6,183.5,201.2,184.8"/>
		<path class="st0" d="M194.3,193.7c-0.1-1-0.3-1.8-0.3-1.8s-3.5,0.1-4.1-3.2c-0.3-1.6-0.7-5-1.1-8.1c-0.4-3.3,1.9-6.3,5.1-6.9
			l0.3-0.1c3.5-0.5,5.9,2.3,6.3,5.8l1.7,12.4l-0.6,1.1C200.2,195.6,196.4,196,194.3,193.7L194.3,193.7z"/>
		<path class="st0" d="M200.8,181.9c0.1,0,2.2-1.1,2.5,1.2c0.4,2.3-2,2.2-2,2.1L200.8,181.9z"/>
		<g>
			<path class="st0" d="M201.9,184.3c0,0,0,0,0.1,0s0.2,0,0.3,0c0.2-0.1,0.4-0.5,0.3-1c0-0.2-0.1-0.4-0.2-0.6
				c-0.1-0.2-0.2-0.3-0.4-0.3c-0.1,0-0.2,0.1-0.2,0.1c0,0.1,0,0.1,0,0.1s-0.1,0-0.1-0.1c0,0,0-0.1,0.1-0.2c0-0.1,0.1-0.1,0.2-0.1
				c0.2,0,0.4,0.1,0.5,0.3s0.2,0.4,0.2,0.6c0.1,0.5-0.1,0.9-0.4,1.1C202.1,184.3,202,184.2,201.9,184.3
				C201.9,184.3,201.8,184.3,201.9,184.3z"/>
		</g>
		<path class="st0" d="M189.8,176.5c-0.4-0.2,0.5-1.5,1.4-2.1c1.3-0.8,3.4-1.5,4.7-1.4c1.6,0.2,3,0.8,4,2.1s1.5,2.9,1.7,4.5
			c0.1,0.5,0.1,1-0.1,1.5c-0.2,0.6-0.8,1-0.7,1.7c0,0.3,0,0.5-0.1,0.7c-0.4,0.5-0.9,0.2-1.2-0.2c-0.6-0.8-0.9-1.9-1.1-2.9
			c-0.1-0.7-0.3-1.5-0.2-2.2c0.1-0.4,0.2-0.8,0.2-1.2s0-0.8-0.3-1.1c0,0-0.1-0.1-0.2-0.2c-0.7-0.5-1.7-0.5-2.5-0.1
			c-1.2,0.7-3.4,1.7-4,1.3c-0.9-0.5-1.2-0.9-1.2-0.9L189.8,176.5z"/>
	</g>
</g>
<g>
	<path class="st9" d="M45.5,116.3c-0.5-1.7-1.1-3.3-1-5.1l-1.1-3.1c-1.6-0.2-3.2,0.3-4.4,1.3c-1.2,1.1-1.8,2.7-1.7,4.2
		c0.1,1,0.4,1.9,0.5,2.9c0.2,1,0.1,2-0.4,2.9c-0.3,0.4-0.6,0.7-0.6,1.1c0,0.6,0.6,1,1.1,1c0.6,0,1.1-0.2,1.6-0.5
		c-0.1,0.8,0.5,1.7,1.3,1.9c0.8,0.2,1.8-0.2,2.1-1c-0.1,0.8,0.9,1.3,1.6,1.1c0.7-0.2,1.2-1,1.4-1.7C46.4,119.7,46,117.9,45.5,116.3z
		"/>
	<polygon class="st9" points="46.8,212.6 47,209.4 52.7,209.2 52.6,213.2 50.5,214.4 	"/>
	<path class="st9" d="M52.7,212.5v0.4c0,0,6.3,2.7,6.3,3.9l-12.6-0.4l0.3-4.2C48.6,213.1,50.5,213.3,52.7,212.5z"/>
	<path class="st9" d="M47.9,213.6c-0.2,0.1-0.4,0.3-0.4,0.6c0,0.2,0.3,0.4,0.6,0.4c0.2-0.1,0.5-0.4,0.4-0.6
		C48.5,213.7,48.1,213.5,47.9,213.6"/>
	<path class="st9" d="M46.4,216.4l0.1-1l12,0.8c0,0,0.6,0.3,0.5,0.7L46.4,216.4z"/>
	<path class="st9" d="M52.7,212.9c0,0.1-0.3,0.1-0.6,0.3s-0.5,0.4-0.5,0.4c-0.1,0,0-0.4,0.4-0.6C52.4,212.8,52.8,212.8,52.7,212.9z"
		/>
	<path class="st9" d="M54,213.5c0,0.1-0.3,0.2-0.5,0.4s-0.3,0.5-0.3,0.5c-0.1,0-0.1-0.4,0.2-0.7S54,213.4,54,213.5z"/>
	<path class="st9" d="M54.7,215.1c-0.1,0-0.1-0.3,0-0.6c0.2-0.3,0.5-0.5,0.5-0.4s-0.2,0.2-0.3,0.5C54.8,214.8,54.8,215.1,54.7,215.1
		z"/>
	<polygon class="st9" points="48.5,205.3 47.4,215 42.9,214.2 43,204.6 	"/>
	<path class="st9" d="M43,212.4c0,0,2.9,2.5,4.6,0.8l0.3,1l1.1,6.7c0.1,0.4-0.2,0.9-0.6,1c-0.3,0.1-0.7,0-0.9-0.3
		c-1.2-1.3-5.4-6.3-5.3-6.9l0.2-1.6C42.4,212.7,42.6,212.5,43,212.4L43,212.4z"/>
	<path class="st9" d="M48.2,221.9l-6-7.8v0.3c-0.1,0.4,0.1,0.5,0.2,0.8c0.5,0.8,1.8,2.6,5,6.3C47.6,221.8,47.9,221.9,48.2,221.9
		L48.2,221.9z"/>
	<path class="st9" d="M43.3,213.2c0.2,0.2,0.2,0.5,0.1,0.7c-0.2,0.2-0.5,0.2-0.7,0.1c-0.2-0.2-0.3-0.5-0.1-0.7
		C42.8,213,43.2,213,43.3,213.2"/>
	<path class="st9" d="M46.6,218.1c0,0,0.3-0.4,0.8-0.6c0.5-0.2,1,0,1-0.1c0,0-0.1-0.1-0.3-0.1s-0.5-0.1-0.8,0s-0.5,0.3-0.6,0.4
		C46.6,217.9,46.6,218.1,46.6,218.1z"/>
	<path class="st9" d="M47.1,219.2c0,0,0.3-0.2,0.8-0.3c0.4-0.1,0.8,0,0.8,0s-0.4-0.3-0.9-0.2C47.4,218.9,47.1,219.2,47.1,219.2z"/>
	<path class="st9" d="M45.7,216.5c0,0,0.5-0.3,1.2-0.5s1.3-0.1,1.3-0.1s-0.6-0.2-1.3,0C46.1,216,45.6,216.5,45.7,216.5z"/>
	<path class="st9" d="M45.7,214.5c0,0.1,0.5-0.1,1.1,0c0.6,0,1.1,0.2,1.1,0.2s-0.4-0.3-1.1-0.4C46.2,214.3,45.7,214.5,45.7,214.5z"
		/>
	<path class="st9" d="M47.2,214.5c0,0,0-0.1,0-0.3s-0.1-0.5-0.3-0.8c-0.1-0.1-0.2-0.3-0.5-0.4c-0.1,0-0.3,0-0.4,0.1
		c-0.1,0.1-0.1,0.3-0.1,0.4C45.9,214,46.5,214.5,47.2,214.5c0.5,0,1-0.4,1.2-0.8c0-0.1,0.1-0.3,0-0.4c-0.1-0.1-0.3-0.2-0.4-0.2
		c-0.2,0.1-0.4,0.2-0.5,0.3c-0.3,0.2-0.4,0.5-0.5,0.7s-0.1,0.3-0.1,0.3s0.2-0.4,0.7-0.9c0.1-0.1,0.3-0.2,0.5-0.3
		c0.1,0,0.2,0,0.2,0.1s0,0.2,0,0.3c-0.2,0.4-0.7,0.7-1.2,0.7s-1-0.4-1-0.9c0-0.1,0-0.2,0.1-0.3s0.1-0.1,0.2-0.1
		c0.2,0.1,0.3,0.2,0.4,0.4C47.2,214,47.2,214.5,47.2,214.5z"/>
	<path class="st9" d="M60.1,143.8c0,0,0.9,4.1,1.9,11.7c0.9,6.8-2.1,26.8-2.9,31c-0.5,2.8-3.2,17.1-6.2,25.7l-4.5-0.1
		c0,0,3.4-28.9,3.3-31.9c-0.1-3-0.9-19.1-0.9-19.1l-1.4-12.2L60.1,143.8z"/>
	<path class="st9" d="M42.4,142.4c0.4,0.1,8.2,5.9,8.2,5.9s3.7,33.1,4,37.5s-6.2,26.3-6.2,26.3l-6.2-0.1c0,0,0.4-14.6,1.4-19
		s1.1-5.5,0.5-8.3s-5.4-17.6-6.8-25C35.9,152.3,42.4,142.4,42.4,142.4z"/>
	<path class="st9" d="M53.7,157.2c0,0,0,0,0,0.1s0,0.2,0.1,0.4c0,0.4,0.1,0.9,0.2,1.6c0.1,1.4,0.3,3.4,0.6,5.9
		c0.2,2.5,0.5,5.5,0.6,8.8c0.1,1.7,0.2,3.4,0.1,5.2c0,0.5,0,0.9,0,1.4s-0.1,0.9-0.1,1.4c-0.1,0.9-0.3,1.9-0.5,2.8
		c-1.5,7.5-3,14.3-4,19.3c-0.5,2.5-1,4.4-1.3,5.8c-0.2,0.7-0.3,1.2-0.4,1.6c0,0.2-0.1,0.3-0.1,0.4c0,0.1,0,0.1,0,0.1s0,0,0-0.1
		s0-0.2,0.1-0.4c0.1-0.4,0.2-0.9,0.3-1.6c0.3-1.4,0.7-3.4,1.2-5.8c1-4.9,2.5-11.7,4-19.3c0.9-3.8,0.6-7.4,0.5-10.8
		c-0.2-3.3-0.4-6.3-0.6-8.8c-0.2-2.5-0.4-4.5-0.5-5.9c-0.1-0.7-0.1-1.2-0.1-1.6C53.8,157.5,53.8,157.4,53.7,157.2
		C53.7,157.2,53.7,157.2,53.7,157.2z"/>
	<path class="st9" d="M44,104.9c1.8-2.1,4.1-3.4,6.9-3.4c1.6,0,2.2,0.3,3.3,0.6c1.1,0.3,2.1,0.9,2.8,1.9c0.8,1.1,1.5,2.4,1.6,3.8
		c0.2,1.4-0.1,3.3-0.6,4.6c-0.7,2-0.9,2.5-1.7,3.7l-2.5,0.6c-2,0.1-4,0.1-6-0.3c-1.9-0.5-3.8-1.5-4.9-3.2
		C41.6,110.7,42.2,107,44,104.9z"/>
	<path class="st9" d="M47.2,104.8l4.5,3.8h3.7c2.8,0,2.7-2.4,2.7-0.1c0,2.5-0.1,5.7-0.5,7.5c-0.8,3.8-4,4.1-4,4.1s0.1,2,0.1,3.3
		c-2.7,3-5.6,3.1-7.8-0.5v-16.8C46,105.4,46.5,104.9,47.2,104.8z"/>
	<path class="st9" d="M53.6,120.1c0,0-2.6,0-5-1.6c0,0,1.2,2.7,5,2.6V120.1z"/>
	<path class="st9" d="M46.6,112.5c0-0.3-0.3-1-0.6-1c-0.7-0.2-2.1-0.2-2.2,1.7c-0.2,2.6,2.5,2.2,2.5,2.1
		C46.3,115.3,46.6,113.5,46.6,112.5z"/>
	<path class="st9" d="M46.5,115.7c0,0.5-0.4,0.9-0.9,0.9s-0.9-0.4-0.9-0.9s0.4-0.9,0.9-0.9C46.1,114.8,46.5,115.2,46.5,115.7z"/>
	<path class="st9" d="M58.6,122.8c0,0,2.7,0.9,3.5,3.4c0.8,2.4,1.9,5.5,1.9,5.5l-5.2,1.4L58.6,122.8z"/>
	<path class="st9" d="M40.7,123l3.5-1.3l1.7-0.6c0.8,1.3,2.5,1.9,4.2,1.9c1.8,0,2.6-0.8,3.5-1.9l0.7,0.3l4.3,1.3l2.1,8.9l-0.4,12.2
		l1.9,8.8c-6.6,2.7-17.7,2.1-24.7-1.1l4.8-9.9L40.6,124L40.7,123z"/>
	<path class="st9" d="M60.5,132.7l0.1,0.2l-4.9-7.8l-2.9,2.3c0,0,3,8.4,4.8,11.3c1.7,2.9,5.3,3.9,7,0.3c0.9-1.9-1.1-7.2-1.1-7.2
		L60.5,132.7z"/>
	<path class="st9" d="M62.2,135.2L55.8,125l1.4-4.3c0.2-0.6,0.3-1.3,0.1-1.9c-0.2-1-0.6-2.6-0.9-2.9c-0.3-0.5-0.5-0.2-0.5-0.2
		l-3.6,10.2l1.3,3.4"/>
	<path class="st9" d="M53.5,129.3c0,0,0-0.1-0.1-0.2c-0.1-0.2-0.2-0.4-0.3-0.7c-0.2-0.6-0.6-1.4-1-2.5l0,0l0,0
		c0.9-2.4,2.1-6,3.6-10.2l0,0l0,0c0.1-0.1,0.2-0.1,0.3-0.1s0.2,0.1,0.2,0.2c0.1,0.1,0.2,0.3,0.3,0.4c0.1,0.3,0.2,0.6,0.3,0.9
		c0.2,0.6,0.3,1.2,0.5,1.9c0.1,0.6,0.1,1.1-0.1,1.7c-0.2,0.5-0.3,1-0.5,1.5c-0.3,1-0.6,2-0.9,2.9V125c1.8,3,3.4,5.5,4.6,7.3
		c0.5,0.9,1,1.6,1.3,2.1c0.1,0.2,0.3,0.4,0.3,0.6c0.1,0.1,0.1,0.2,0.1,0.2S62,135.1,62,135c-0.1-0.1-0.2-0.3-0.4-0.6
		c-0.3-0.5-0.8-1.2-1.3-2.1c-1.2-1.8-2.8-4.3-4.6-7.3l0,0l0,0c0.3-0.9,0.6-1.9,0.9-2.9c0.3-1,0.8-2,0.6-3.1
		c-0.1-0.6-0.3-1.3-0.5-1.9c-0.1-0.3-0.2-0.6-0.3-0.9c-0.1-0.2-0.1-0.3-0.2-0.4c0-0.1-0.1-0.1-0.1-0.1H56l0,0
		c-1.5,4.1-2.8,7.7-3.7,10.1l0,0c0.4,1.1,0.7,1.9,0.9,2.5c0.1,0.3,0.2,0.5,0.2,0.7C53.5,129.2,53.5,129.3,53.5,129.3z"/>
	<path class="st9" d="M52.2,128.4l0.5-1.5c0,0,2.7-5.6,2.9-6.3c0.2-0.7,1-3.3,0.4-3.8c0,0,0.4-1.3-0.1-1.4s-0.8,0.6-0.8,0.6
		s0.1-0.7-0.2-0.9c-0.4-0.2-0.8,0.4-0.8,0.4l0,0c0,0-0.5-0.4-1,0.5c0,0-2.4,4-2.7,4.3s-0.8-0.6-0.8-0.6s-0.4-1.1-0.8-1.6
		c-0.3-0.3-0.9-0.1-0.9-0.1s0,1.5,0.5,3.3c0.2,0.8,0.9,3.5,0.9,3.5l-1.2,2.5"/>
	<path class="st9" d="M48.3,127.2c0,0,0-0.1,0.1-0.2s0.1-0.3,0.2-0.5c0.2-0.4,0.5-1.1,0.8-1.9l0,0c-0.2-0.8-0.5-1.8-0.8-2.9
		c-0.1-0.6-0.4-1.2-0.5-1.8c-0.1-0.6-0.2-1.3-0.2-2v-0.1H48c0.2-0.1,0.5-0.2,0.7-0.1c0.1,0,0.2,0.1,0.3,0.2s0.1,0.2,0.2,0.3
		c0.2,0.4,0.4,0.8,0.6,1.3l0,0c0.1,0.2,0.3,0.4,0.4,0.5c0.1,0.1,0.1,0.1,0.2,0c0.1-0.1,0.1-0.2,0.2-0.3c0.3-0.4,0.5-0.8,0.8-1.3
		c0.5-0.9,1.1-1.8,1.6-2.7c0.1-0.2,0.3-0.4,0.5-0.5s0.5-0.2,0.7,0H54c0.1-0.2,0.2-0.3,0.3-0.4s0.4-0.2,0.6-0.1
		c0.1,0,0.2,0.1,0.2,0.2s0.1,0.2,0.1,0.3c0,0.2,0,0.3,0,0.5H55c0.1-0.2,0.2-0.4,0.5-0.6c0.1-0.1,0.2-0.1,0.4-0.1
		c0.1,0,0.1,0,0.2,0.1c0.1,0,0.1,0.1,0.2,0.2c0.1,0.3,0.1,0.5,0.1,0.7s-0.1,0.4-0.1,0.7v-0.1c0.1,0.1,0.2,0.3,0.2,0.5s0,0.3,0,0.5
		c0,0.3,0,0.6-0.1,0.9c-0.1,0.6-0.2,1.1-0.4,1.7c-0.1,0.3-0.1,0.5-0.2,0.8c-0.1,0.2-0.2,0.5-0.3,0.7c-0.2,0.5-0.4,0.9-0.6,1.3
		c-0.8,1.7-1.5,3-1.9,4l0,0c-0.2,0.5-0.3,0.9-0.4,1.1c0,0.1-0.1,0.2-0.1,0.3s0,0.1,0,0.1s0,0,0-0.1s0-0.2,0.1-0.3
		c0.1-0.3,0.2-0.7,0.3-1.2l0,0l0,0c0.4-1,1.1-2.3,1.9-4c0.2-0.4,0.4-0.9,0.6-1.3c0.1-0.2,0.2-0.5,0.3-0.7s0.2-0.5,0.2-0.8
		c0.1-0.5,0.3-1.1,0.4-1.6c0-0.3,0.1-0.6,0.1-0.9s0-0.6-0.2-0.8v-0.1v-0.1c0.1-0.2,0.1-0.4,0.1-0.6s0-0.4,0-0.6
		c-0.1-0.1-0.3-0.1-0.5,0s-0.3,0.3-0.4,0.5l-0.3,0.7l0.1-0.7c0-0.1,0-0.3,0-0.4s-0.1-0.3-0.1-0.3c-0.2-0.1-0.5,0.1-0.6,0.4l-0.1,0.1
		l-0.1-0.1c-0.1-0.1-0.3-0.1-0.5,0.1c-0.2,0.1-0.3,0.3-0.4,0.5c-0.5,0.9-1.1,1.8-1.6,2.7c-0.3,0.4-0.5,0.9-0.8,1.3
		c-0.1,0.1-0.1,0.2-0.2,0.3c-0.1,0.1-0.2,0.1-0.2,0.1c-0.1,0-0.2-0.1-0.2-0.1c-0.2-0.2-0.3-0.4-0.5-0.6l0,0l0,0
		c-0.1-0.4-0.3-0.9-0.5-1.3c-0.1-0.2-0.2-0.4-0.4-0.4c-0.2-0.1-0.4,0-0.6,0.1l0.1-0.1c0,0.7,0.1,1.4,0.2,2c0.1,0.6,0.3,1.2,0.5,1.8
		c0.3,1.1,0.5,2.1,0.7,2.9l0,0l0,0c-0.4,0.8-0.7,1.4-0.9,1.8c-0.1,0.2-0.2,0.4-0.2,0.5C48.3,127.1,48.3,127.2,48.3,127.2z"/>
	<path class="st9" d="M52,120c0,0,0.2-0.2,0.4-0.6s0.6-1,0.8-1.6c0.3-0.6,0.5-1.3,0.6-1.7c0.1-0.4,0.2-0.7,0.2-0.7s-0.1,0.3-0.3,0.7
		c-0.2,0.4-0.4,1-0.7,1.7c-0.3,0.6-0.6,1.2-0.8,1.6C52.1,119.8,52,120,52,120z"/>
	<path class="st9" d="M53.2,120.5c0,0,0.1-0.2,0.3-0.6s0.5-1,0.7-1.6c0.3-0.6,0.5-1.2,0.6-1.6S55,116,55,116s-0.1,0.3-0.3,0.7
		c-0.1,0.4-0.4,1-0.6,1.6c-0.3,0.6-0.5,1.1-0.7,1.6C53.3,120.2,53.2,120.5,53.2,120.5z"/>
	<path class="st9" d="M54.5,120.7c0,0,0.2-0.2,0.4-0.5s0.4-0.8,0.6-1.4c0.2-0.6,0.3-1.1,0.4-1.5c0.1-0.4,0.1-0.6,0.1-0.6
		s-0.2,0.9-0.6,2.1c-0.2,0.6-0.4,1.1-0.6,1.4C54.6,120.5,54.5,120.7,54.5,120.7z"/>
	<path class="st9" d="M37.1,132.4c0,0,2.7,8.9,3.7,10.3c1.8,2.6,5.6,3.1,7,0.4c1.5-2.9,4.9-16.2,4.9-16.2l-3.5-1.5l-4.7,9.9
		l-1.6-4.5L37.1,132.4z"/>
	<path class="st9" d="M40.7,123c0,0-3.6,1.5-3.9,6.4c-0.1,1.2,0.7,7.7,0.7,7.7l6.8-3l-1.6-5.7L40.7,123z"/>
	<path class="st9" d="M43.9,113.7c0,0-0.3-0.2-0.6-0.6s-0.6-1-0.8-1.7s-0.2-1.4-0.1-1.9c0.1-0.5,0.2-0.8,0.2-0.8
		c0.1,0-0.2,1.2,0.1,2.6C43.1,112.8,43.9,113.7,43.9,113.7z"/>
	<path class="st9" d="M59.8,127.3c0.1,0,0.3,1.1,0.6,2.6c0.2,1.2,0.4,2.1,0.4,2.5v0.2l-0.1-0.1c0-0.1-0.1-0.1-0.1-0.1s0,0,0.1,0.1
		h-0.1c-0.1-0.3-0.3-1.3-0.6-2.4C59.9,128.5,59.7,127.3,59.8,127.3z"/>
	<path class="st9" d="M43.2,139.5c-0.3-1.3,0.2-3.6,1.3-4.4"/>
</g>
</svg>
