<?xml version="1.0" encoding="utf-8"?>
<!-- Generator: Adobe Illustrator 27.3.1, SVG Export Plug-In . SVG Version: 6.00 Build 0)  -->
<svg version="1.1" xmlns="http://www.w3.org/2000/svg" xmlns:xlink="http://www.w3.org/1999/xlink" x="0px" y="0px"
	 viewBox="0 0 823.9 404.8" style="enable-background:new 0 0 823.9 404.8;" xml:space="preserve">
<style type="text/css">
	.st0{fill:none;stroke:#FFFFFF;stroke-width:0.5;stroke-linecap:round;stroke-linejoin:round;}
	.st1{fill:#FFFFFF;stroke:#000000;stroke-width:0.5;stroke-linecap:round;stroke-linejoin:round;}
</style>
<g id="REFS">
</g>
<g id="text">
</g>
<g id="Layer_4">
</g>
<g id="Layer_2">
	<path class="st0" d="M423.5,217.7v-18.2h-28.7h-1.4h-28.7v18.2c0,10-7.5,18.1-17.1,19.3v0.2h45.8h1.4h45.8V237
		C431,235.8,423.5,227.6,423.5,217.7z"/>
	<path class="st0" d="M520.6,201.9c0,5.3-4.3,9.5-9.5,9.5H277.1c-5.3,0-9.5-4.3-9.5-9.5V72.8c0-5.3,4.3-9.5,9.5-9.5h233.9
		c5.3,0,9.5,4.3,9.5,9.5V201.9z"/>
	<path class="st0" d="M520.6,177.7c0,5.3-4.3,9.5-9.5,9.5H277.1c-5.3,0-9.5-4.3-9.5-9.5V48.6c0-5.3,4.3-9.5,9.5-9.5h233.9
		c5.3,0,9.5,4.3,9.5,9.5V177.7z"/>
	<rect x="279.3" y="49.9" class="st0" width="229.5" height="125.9"/>
	<path class="st0" d="M457.3,245.1c0,3.1-2.5,5.6-5.6,5.6H336.5c-3.1,0-5.6-2.5-5.6-5.6v-2.3c0-3.1,2.5-5.6,5.6-5.6h115.2
		c3.1,0,5.6,2.5,5.6,5.6V245.1z"/>
	<path class="st0" d="M783.9,201.6v161.8c0,8.8-7.2,16-16,16h-70.6c-8.8,0-16-7.2-16-16V201.6c0-8.8,7.2-16,16-16H768
		C776.8,185.6,783.9,192.8,783.9,201.6z"/>
	<path class="st0" d="M768,185.6h-70.6c-8.8,0-16,7.2-16,16v161.8c0,8.8,7.2,16,16,16H768c8.8,0,16-7.2,16-16V201.6
		C783.9,192.8,776.8,185.6,768,185.6z"/>
	<rect x="681.4" y="207.9" class="st0" width="102.6" height="129.3"/>
	<path class="st0" d="M743.8,358.6c0,6.3-5.1,11.4-11.4,11.4c-6.3,0-11.4-5.1-11.4-11.4c0-6.3,5.1-11.4,11.4-11.4
		C738.7,347.2,743.8,352.3,743.8,358.6z"/>
	<path class="st0" d="M701.5,310.3h62c3.9,0,7.1-3.2,7.1-7.1v-67.9h-76.2v67.9C694.4,307.1,697.6,310.3,701.5,310.3z"/>
	<path class="st0" d="M770.6,226.2c0-3.9-3.2-7.1-7.1-7.1h-62c-3.9,0-7.1,3.2-7.1,7.1v9.1h76.2V226.2z"/>
	<path class="st0" d="M744.4,228.3c0,1.7-1.4,3.1-3.1,3.1c-1.7,0-3.1-1.4-3.1-3.1c0-1.7,1.4-3.1,3.1-3.1
		C743,225.1,744.4,226.5,744.4,228.3z"/>
	<path class="st0" d="M763.8,228.3c0,1.7-1.4,3.1-3.1,3.1c-1.7,0-3.1-1.4-3.1-3.1c0-1.7,1.4-3.1,3.1-3.1
		C762.4,225.1,763.8,226.5,763.8,228.3z"/>
	<path class="st0" d="M754.1,228.3c0,1.7-1.4,3.1-3.1,3.1c-1.7,0-3.1-1.4-3.1-3.1c0-1.7,1.4-3.1,3.1-3.1
		C752.7,225.1,754.1,226.5,754.1,228.3z"/>
	<path class="st0" d="M555.5,170.8c-1.4,0-2.5-1.1-2.5-2.5v-34.5c0-1.4,1.1-2.5,2.5-2.5H590c1.4,0,2.5,1.1,2.5,2.5v34.5
		c0,1.4-1.1,2.5-2.5,2.5H555.5z"/>
	<path class="st0" d="M565.5,145c0-2.7,3-4.3,5.2-2.7l7.3,5.1c2.5,1.8,2.5,5.5,0,7.3l-7.3,5.1c-2.2,1.5-5.2,0-5.2-2.7V145z"/>
	<path class="st0" d="M502.4,306.2c0,0.8,0,2.7,0,2.7h-14c-4.3,0-7.8-3.5-7.8-7.8c0-4.3,3.5-7.8,7.8-7.8h36.6c3.4,0,6.1-2.7,6.1-6.1
		c0-3.4-2.7-6.1-6.1-6.1h-68c-5.8,0-10.6-4.7-10.6-10.6c0-5.8,4.7-10.6,10.6-10.6h53.5c4-0.1,7.3-3.5,7.3-7.5c0-4.2-3.4-7.5-7.5-7.5
		h-1.5h-18.2c-4.7,0-8.5-3.8-8.5-8.5v-24.9"/>
	<path class="st0" d="M563.3,311.9c0-5.4-4.2-9.8-9.5-10.2l0,0H429.2l0,0c-0.1,0-0.1,0-0.1,0c-5.7,0-10.3,4.6-10.3,10.3
		c0,0.3,0,0.5,0,0.8l0,0v44.2h144.5L563.3,311.9L563.3,311.9C563.3,311.9,563.3,311.9,563.3,311.9z"/>
	<rect x="427.6" y="340.8" class="st0" width="9.4" height="9.4"/>
	<rect x="515.5" y="340.8" class="st0" width="9.4" height="9.4"/>
	<rect x="530.1" y="340.8" class="st0" width="9.4" height="9.4"/>
	<rect x="544.3" y="340.8" class="st0" width="9.4" height="9.4"/>
	<rect x="515.5" y="326" class="st0" width="9.4" height="9.4"/>
	<rect x="530.1" y="326" class="st0" width="9.4" height="9.4"/>
	<rect x="544.3" y="326" class="st0" width="9.4" height="9.4"/>
	<rect x="515.5" y="310.8" class="st0" width="9.4" height="9.4"/>
	<rect x="530.1" y="310.8" class="st0" width="9.4" height="9.4"/>
	<rect x="544.3" y="310.8" class="st0" width="9.4" height="9.4"/>
	<rect x="427.6" y="326" class="st0" width="9.4" height="9.4"/>
	<rect x="442.2" y="326" class="st0" width="9.4" height="9.4"/>
	<rect x="456.4" y="326" class="st0" width="9.4" height="9.4"/>
	<rect x="427.6" y="310.8" class="st0" width="9.4" height="9.4"/>
	<rect x="442.2" y="310.8" class="st0" width="9.4" height="9.4"/>
	<rect x="456.4" y="310.8" class="st0" width="9.4" height="9.4"/>
	<rect x="470.4" y="326" class="st0" width="9.4" height="9.4"/>
	<rect x="485" y="326" class="st0" width="9.4" height="9.4"/>
	<rect x="499.2" y="326" class="st0" width="9.4" height="9.4"/>
	<rect x="470.4" y="310.8" class="st0" width="9.4" height="9.4"/>
	<rect x="485" y="310.8" class="st0" width="9.4" height="9.4"/>
	<rect x="499.2" y="310.8" class="st0" width="9.4" height="9.4"/>
	<rect x="443" y="340.8" class="st0" width="65.5" height="9.4"/>
	<rect x="451" y="370.9" class="st0" width="71.9" height="11.8"/>
	<path class="st0" d="M522.9,382.6h-70.8c-3.2,0-5.9-2.6-5.9-5.9c0-3.2,2.6-5.9,5.9-5.9h70.8V382.6z"/>
	<path class="st0" d="M454.7,370.9h-8.6c-3.2,0-5.9,2.6-5.9,5.9c0,3.2,2.6,5.9,5.9,5.9h8.6V370.9z"/>
	<polygon class="st0" points="531.1,374.9 522.9,370.9 522.9,382.6 531.1,378.6 	"/>
	<line class="st0" x1="532.5" y1="376.8" x2="536.6" y2="376.8"/>
	<path class="st0" d="M168.6,235c12.8,0,49.2,0,59.4,0c4,0,7.3-3.2,7.3-7.2c0-4-3.2-7.2-7.2-7.2l-59.4,0c-2.5,0-12.1,5.9-12.1,5.9
		l0,2.5C156.7,229.1,166.1,235,168.6,235z"/>
	<path class="st0" d="M207.1,243.5l33.3,0c3.7,0,6.8-3,6.8-6.8c5.3,0,8.9-4.1,8.9-8.7c0-4.6-3.6-8.7-8.9-8.7c-5.9,0-4.5,0-6.8,0h0
		h-21.5c-0.7,0-1.3,0.6-1.3,1.3v14.7c0,0.7,0.6,1.3,1.3,1.3l21.5,0l0,0h7"/>
	<line class="st0" x1="156.1" y1="227.8" x2="150.4" y2="227.8"/>
	<g>
		<path class="st0" d="M579.6,43.4c-28.3,0-41.6,20.8-41.6,20.8S549.2,85,579.6,85c30.5,0,41.6-20.8,41.6-20.8S608,43.4,579.6,43.4z
			"/>
		<path class="st0" d="M593.7,64.2c0,7.8-6.3,14.1-14.1,14.1c-7.8,0-14.1-6.3-14.1-14.1c0-7.8,6.3-14.1,14.1-14.1
			C587.4,50.1,593.7,56.4,593.7,64.2z"/>
		<line class="st0" x1="579.3" y1="14.1" x2="579.3" y2="33.3"/>
		<line class="st0" x1="540.8" y1="27" x2="553.4" y2="41.6"/>
		<line class="st0" x1="617.8" y1="27" x2="605.2" y2="41.6"/>
	</g>
	<path class="st0" d="M629,339.2c-1.8-0.7-3.2-2.4-3.2-4.3c0-2,1.4-3.6,3.2-4.3c7.2-2.9,12.3-10,12.3-18.3v-14h-39.5v14
		c0,8.2,5.1,15.3,12.2,18.2c1.8,0.7,3.2,2.4,3.2,4.4c0,2-1.4,3.6-3.2,4.4c-7.2,3-12.2,10-12.2,18.2v14h39.5v-14
		C641.3,349.2,636.2,342.2,629,339.2z"/>
	<polyline class="st0" points="602.3,371.3 621.4,357 641.2,370.8 	"/>
	<line class="st0" x1="647.5" y1="298.2" x2="596" y2="298.2"/>
	<line class="st0" x1="647.5" y1="371.9" x2="596" y2="371.9"/>
	<path class="st0" d="M348.4,163.8c-3.5,0-6.3-2.8-6.3-6.3V69c0-3.5,2.8-6.3,6.3-6.3H437c3.5,0,6.3,2.8,6.3,6.3v88.6
		c0,3.5-2.8,6.3-6.3,6.3H348.4z"/>
	<path class="st0" d="M443,144.2l-28.1-28.1l-12,12l-24.8-24.8l-35.6,35.6"/>
	<path class="st0" d="M415.1,96.5c4.7,0,8.6-3.8,8.6-8.6c0-4.7-3.8-8.6-8.6-8.6c-4.7,0-8.6,3.8-8.6,8.6
		C406.5,92.7,410.3,96.5,415.1,96.5z"/>
	<path class="st0" d="M648.2,94h29c1.7,0,3.1,1.4,3.1,3.1v53c0,1.7-1.4,3.1-3.1,3.1h-37.7c-1.7,0-3.1-1.4-3.1-3.1v-44.3L648.2,94z"
		/>
	<path class="st0" d="M648.2,94v9.1c0,1.5-1.2,2.7-2.7,2.7h-9.1L648.2,94z"/>
	<path class="st0" d="M686,145.9c1.2,0,2.3-1,2.3-2.2l0-0.1c0-1.3-1-2.3-2.3-2.3c-0.7,0-1.2-0.5-1.4-1.1c-0.3-1-0.7-2-1.2-2.9
		c-0.3-0.5-0.2-1.3,0.2-1.7c0.9-0.9,0.9-2.4,0-3.3c-0.9-0.9-2.4-1-3.3-0.1c-0.5,0.5-1.3,0.6-1.9,0.3c-0.8-0.5-1.7-0.8-2.6-1.1
		c-0.7-0.2-1.2-0.8-1.2-1.5c0-1.3-1-2.4-2.3-2.4c-1.3,0-2.4,1-2.4,2.3c0,0.8-0.5,1.4-1.3,1.6c-0.8,0.3-1.7,0.6-2.5,1
		c-0.6,0.3-1.4,0.3-1.9-0.2c-0.9-0.9-2.4-1-3.4-0.1c-0.9,0.9-0.9,2.4,0,3.3c0.5,0.5,0.7,1.3,0.3,1.9c-0.5,0.8-0.8,1.7-1.1,2.6
		c-0.2,0.7-0.8,1.2-1.5,1.2c-1.3,0-2.4,1-2.4,2.3c0,1.3,1,2.4,2.3,2.4c0.7,0,1.3,0.5,1.5,1.1c0.3,1,0.7,2,1.2,2.9
		c0.3,0.6,0.2,1.3-0.3,1.7c-0.9,0.9-0.9,2.3,0,3.2l0.1,0.1c0.9,0.9,2.3,0.9,3.3,0c0.5-0.5,1.2-0.5,1.8-0.2c0.9,0.5,1.9,0.9,2.9,1.2
		c0.6,0.2,1,0.7,1,1.3c0,1.2,1,2.2,2.2,2.2l0.2,0c1.2,0,2.3-1,2.3-2.2c0-0.7,0.5-1.2,1.2-1.4c1-0.3,2-0.7,2.9-1.2
		c0.5-0.3,1.2-0.2,1.7,0.2c0.8,0.9,2.2,0.9,3.1,0l0.2-0.2c0.9-0.9,0.9-2.3,0-3.2c-0.4-0.5-0.6-1.1-0.2-1.7c0.5-1,1-2,1.2-3.1
		C684.8,146.3,685.4,145.9,686,145.9z M675.7,147.1c-1.8,1.8-4.9,1.9-6.7,0c-3-3-0.9-8.3,3.5-8.1C676.6,139,678.6,144.1,675.7,147.1
		z"/>
	<path class="st0" d="M70.5,246.4c0.1,1.3,1.1,2.3,2.4,2.2c1.3-0.1,2.3-1.1,2.3-2.4c0-0.7,0.4-1.3,1.1-1.6c0.9-0.3,1.7-0.7,2.5-1.2
		c0.6-0.4,1.4-0.4,1.9,0.1c1,0.9,2.5,0.8,3.3-0.1c0.9-1,0.8-2.4-0.2-3.3c-0.6-0.5-0.7-1.3-0.4-2c0.4-0.8,0.7-1.6,0.9-2.5
		c0.2-0.7,0.7-1.2,1.4-1.3c1.3-0.1,2.3-1.1,2.3-2.4c-0.1-1.3-1.2-2.3-2.4-2.2c-0.7,0-1.4-0.4-1.6-1.1c-0.3-0.9-0.7-1.7-1.2-2.5
		c-0.4-0.6-0.4-1.4,0.1-1.9c0.9-1,0.8-2.4-0.1-3.3c-1-0.9-2.4-0.8-3.3,0.2c-0.5,0.5-1.2,0.6-1.8,0.3c-0.9-0.5-1.9-0.8-2.9-1
		c-0.6-0.1-1.1-0.7-1.1-1.3c-0.1-1.3-1.1-2.2-2.4-2.2l-0.1,0c-1.3,0.1-2.2,1.1-2.2,2.4c0,0.7-0.5,1.3-1.1,1.5c-1,0.3-2,0.8-2.8,1.4
		c-0.5,0.3-1.2,0.3-1.7-0.1c-0.9-0.8-2.3-0.8-3.1,0.1L60,222c-0.8,0.9-0.8,2.3,0.1,3.2c0.5,0.4,0.6,1.2,0.3,1.8
		c-0.5,0.9-0.8,1.9-1,3c-0.1,0.6-0.6,1.1-1.3,1.1c-1.2,0.1-2.1,1.1-2.1,2.3l0,0.2c0.1,1.2,1.1,2.2,2.3,2.1c0.6,0,1.2,0.3,1.4,0.9
		c0.4,1,0.8,2,1.5,2.9c0.4,0.5,0.3,1.2-0.1,1.7c-0.8,0.9-0.8,2.3,0.1,3.1l0.1,0.1c0.9,0.9,2.4,0.8,3.3-0.2c0.5-0.5,1.2-0.6,1.8-0.3
		c0.9,0.4,1.9,0.8,3,1C70,245.2,70.5,245.8,70.5,246.4z M67.1,232.9c-0.2-2.6,1.8-4.9,4.4-5c2.6-0.2,4.9,1.8,5,4.4
		c0.2,2.6-1.8,4.9-4.4,5C69.6,237.5,67.3,235.5,67.1,232.9z"/>
	<path class="st0" d="M28.2,220c-0.6,1.1-0.2,2.6,0.9,3.2c1.1,0.6,2.6,0.2,3.2-0.9L33,221c0.4-0.7,1.2-1,2-0.7
		c0.9,0.3,1.9,0.5,2.8,0.7c0.8,0.1,1.3,0.8,1.3,1.6l0,1.4c0,1.3,1.1,2.3,2.4,2.3c1.3,0,2.3-1.1,2.3-2.4l0-1.3c0-0.8,0.6-1.5,1.4-1.6
		c0.9-0.2,1.9-0.5,2.8-0.8c0.7-0.3,1.5,0,2,0.7l0.6,1c0.7,1.1,2.1,1.4,3.2,0.8c1.1-0.7,1.4-2.1,0.8-3.2l-0.6-1
		c-0.4-0.7-0.2-1.6,0.4-2.1c0.7-0.6,1.4-1.3,2.1-2.1c0.5-0.6,1.4-0.8,2.1-0.4l0.9,0.5c1.1,0.6,2.6,0.2,3.2-0.9
		c0.6-1.1,0.2-2.6-0.9-3.2l-0.8-0.4c-0.7-0.4-1-1.2-0.7-1.9c0.4-1,0.6-2,0.8-3c0.1-0.8,0.8-1.4,1.6-1.4l0.8,0c1.3,0,2.3-1.1,2.3-2.4
		c0-1.3-1.1-2.3-2.4-2.3l-0.7,0c-0.8,0-1.4-0.5-1.6-1.3c-0.2-1-0.5-2.1-0.9-3.1c-0.3-0.8-0.1-1.7,0.6-2.1l0.5-0.3
		c1.1-0.7,1.4-2.1,0.8-3.2c-0.7-1.1-2.1-1.4-3.2-0.8l-0.5,0.3c-0.7,0.4-1.5,0.3-2-0.3c-0.7-0.8-1.5-1.6-2.4-2.3
		c-0.6-0.5-0.8-1.3-0.4-2l0.3-0.5c0.6-1.1,0.2-2.6-0.9-3.2c-1.1-0.6-2.6-0.2-3.2,0.9l-0.3,0.5c-0.4,0.7-1.2,1-1.9,0.8
		c-1-0.3-2.1-0.6-3.1-0.7c-0.8-0.1-1.5-0.7-1.5-1.6l0-0.6c0-1.3-1.1-2.3-2.4-2.3c-1.3,0-2.3,1.1-2.3,2.4l0,0.6
		c0,0.8-0.5,1.5-1.2,1.6c-1,0.2-2.1,0.6-3.1,0.9c-0.7,0.3-1.6,0.1-2.1-0.6l-0.4-0.6c-0.7-1.1-2.1-1.4-3.2-0.8
		c-1.1,0.7-1.4,2.1-0.8,3.2l0.4,0.7c0.4,0.7,0.2,1.6-0.4,2.1c-0.7,0.7-1.4,1.4-2,2.2c-0.5,0.6-1.3,0.8-2,0.5l-0.8-0.4
		c-1.1-0.6-2.6-0.2-3.2,0.9c-0.6,1.1-0.2,2.6,0.9,3.2l0.9,0.5c0.7,0.4,1,1.3,0.8,2c-0.3,1-0.5,1.9-0.6,2.9c-0.1,0.8-0.8,1.3-1.5,1.4
		l-1.1,0c-1.3,0-2.3,1.1-2.3,2.4c0,1.3,1.1,2.3,2.4,2.3l1.2,0c0.8,0,1.5,0.6,1.7,1.3c0.2,0.9,0.5,1.9,0.9,2.8c0.3,0.7,0,1.5-0.7,1.9
		l-1.1,0.7c-1.1,0.7-1.4,2.1-0.8,3.2c0.7,1.1,2.1,1.4,3.2,0.8l1.2-0.7c0.7-0.4,1.5-0.3,2.1,0.3c0.6,0.7,1.3,1.4,2.1,2
		c0.6,0.5,0.8,1.3,0.4,2L28.2,220z M34.7,197.8c1.9-3.6,6.4-4.9,9.9-2.9c3.6,1.9,4.9,6.4,2.9,9.9c-1.9,3.6-6.4,4.9-9.9,2.9
		C34.1,205.8,32.8,201.4,34.7,197.8z"/>
	
		<rect x="67.2" y="122.2" transform="matrix(0.7177 -0.6964 0.6964 0.7177 -74.7102 91.9005)" class="st0" width="17.5" height="31.7"/>
	<polygon class="st0" points="104.5,171.4 113.7,177.3 108.3,167.7 94.4,153.4 90.5,157.1 	"/>
	<path class="st0" d="M80.3,169c-1.1,1.1-3,0.4-3.1-1.1c-0.3-7.3,2.3-14.7,8-20.2c5.7-5.5,13.2-7.9,20.4-7.4c1.5,0.1,2.1,2,1,3.1
		L80.3,169z"/>
	<path class="st0" d="M57.6,138.6c1.4,1.4,3.6,1.4,5,0.1L77,124.8c1.4-1.4,1.4-3.6,0.1-5c-1.4-1.4-3.6-1.4-5-0.1l-14.3,13.9
		C56.3,134.9,56.3,137.2,57.6,138.6z"/>
	<path class="st0" d="M651.2,231.3l0.1,0c3.2-0.5,6.1-3.3,6.1-6.9c0-3.8-3.2-6.4-6.2-6.7c-0.7-0.1-0.7-1-0.1-1.3
		c2.1-1.2,3.8-3.4,3.8-6.1c0-4-3.6-6.7-6.9-6.7c-0.8-0.1-20.2-2.2-22.8-2.2c-0.2,0-0.3,0-0.5,0c1.6-1.4,3.3-3.2,4.7-5.1
		c4-5.4,6.1-12.6,6.3-13.1c1.8-5.3,0.1-8.9-2.8-10.6c-2.8-1.7-6.3-0.2-8,2.1c-2,4-4.7,10.6-9.5,15.2c-4,3.9-10,5.9-12.9,9.1
		c-5.6,6.3-8.8,11.5-10.5,15.6h-23.3l0,18.4l0,14.9h24.7c0,0,4.9,7.5,20.4,7.5c9.3,0,16.2,0,16.2,0s1.1,0,2.8-0.1l10.7,0
		c3,0,5.5-1.7,5.9-5c0.4-2.4-0.6-4.1-2.2-5.4c-0.6-0.7,0.3-0.8,0.3-0.8c3.3-0.4,5.4-1.9,6.2-4.6c1-3.5-0.3-5.7-2.9-7.2
		C650.2,232,650.6,231.3,651.2,231.3z"/>
	<path class="st0" d="M566.5,211.5c0-0.6,0.5-1.1,1.1-1.1l17.5,0.1c0.6,0,1.1,0.5,1.1,1.1l-0.1,38.5c0,0.6-0.5,1.1-1.1,1.1
		l-17.5-0.1c-0.6,0-1.1-0.5-1.1-1.1L566.5,211.5z"/>
	<path class="st0" d="M553.5,204.6h16.7c0.6,0,1.1,0.5,1.1,1.1V256c0,0.6-0.5,1.1-1.1,1.1h-16.7V204.6z"/>
	<path class="st0" d="M264.9,340.8h-32c-6.3,0-11.3-5.1-11.3-11.3v-59c0-6.3,5.1-11.3,11.3-11.3h48.7c6.3,0,11.3-5.1,11.3-11.3v-11
		c0-6.3,5.1-11.3,11.3-11.3h58"/>
	<g>
		<path class="st0" d="M153.7,182.1h74.2c4.7,0,8.5-3.8,8.5-8.5v-63.3h-91.2v63.3C145.2,178.3,149,182.1,153.7,182.1z"/>
		<path class="st0" d="M236.4,99.3c0-4.7-3.8-8.5-8.5-8.5h-74.2c-4.7,0-8.5,3.8-8.5,8.5v10.9h91.2V99.3z"/>
	</g>
	<g>
		<path class="st0" d="M205,101.8c0,2.1-1.7,3.7-3.7,3.7c-2.1,0-3.7-1.7-3.7-3.7c0-2.1,1.7-3.7,3.7-3.7
			C203.3,98.1,205,99.8,205,101.8z"/>
		<path class="st0" d="M228.3,101.8c0,2.1-1.7,3.7-3.7,3.7c-2.1,0-3.7-1.7-3.7-3.7c0-2.1,1.7-3.7,3.7-3.7
			C226.6,98.1,228.3,99.8,228.3,101.8z"/>
		<path class="st0" d="M216.6,101.8c0,2.1-1.7,3.7-3.7,3.7c-2.1,0-3.7-1.7-3.7-3.7c0-2.1,1.7-3.7,3.7-3.7
			C215,98.1,216.6,99.8,216.6,101.8z"/>
	</g>
	<line class="st1" x1="190.2" y1="127" x2="192.3" y2="131.5"/>
	<path class="st0" d="M206.5,152c0,8.5-6.9,15.5-15.5,15.5s-15.5-6.9-15.5-15.5c0-8.5,6.9-15.5,15.5-15.5S206.5,143.4,206.5,152z"/>
	<line class="st0" x1="185.4" y1="145.2" x2="185.4" y2="149.7"/>
	<line class="st0" x1="196.3" y1="145.2" x2="196.3" y2="149.7"/>
	<path class="st0" d="M195.5,158.2c-1.4,0.8-3.1,1.3-4.8,1.3c-1.7,0-3.3-0.4-4.7-1.2"/>
	<path class="st0" d="M52.2,305.9v-32.6c0-4.7,3.8-8.5,8.5-8.5h53.7c4.7,0,8.5-3.8,8.5-8.5v-45c0-4.7,3.8-8.5,8.5-8.5H247
		c4.7,0,8.5-3.8,8.5-8.5v-31c0-4.7,3.8-8.5,8.5-8.5h102.8"/>
	<path class="st0" d="M751.2,274.2c0,9.3-7.5,16.8-16.8,16.8c-9.3,0-16.8-7.5-16.8-16.8c0-9.3,7.5-16.8,16.8-16.8
		C743.7,257.4,751.2,264.9,751.2,274.2z"/>
	<path class="st0" d="M733.2,270.6c0-2.9-2.4-5.3-5.3-5.3c-0.3,0-0.6,0-0.9,0.1c0.3-0.7,0.5-1.4,0.5-2.2c0-2.9-2.4-5.3-5.3-5.3
		c-2.3,0-4.2,1.4-4.9,3.4c-0.8-2-2.7-3.4-4.9-3.4c-2.9,0-5.3,2.4-5.3,5.3c0,0.7,0.2,1.4,0.4,2.1c0,0-0.1,0-0.1,0
		c-2.9,0-5.3,2.4-5.3,5.3c0,2.9,2.4,5.3,5.3,5.3h20.9v0C730.9,275.7,733.2,273.4,733.2,270.6z"/>
	<line class="st0" x1="733.9" y1="296" x2="733.9" y2="301.3"/>
	<line class="st0" x1="733.9" y1="247.1" x2="733.9" y2="252.3"/>
	<line class="st0" x1="755.8" y1="274.2" x2="761" y2="274.2"/>
	<line class="st0" x1="749.4" y1="258.7" x2="753.1" y2="255"/>
	<line class="st0" x1="714.8" y1="293.3" x2="718.5" y2="289.6"/>
	<line class="st0" x1="753.1" y1="293.3" x2="749.4" y2="289.6"/>
	<circle class="st0" cx="364.8" cy="154.4" r="4.2"/>
	<path class="st0" d="M383.2,289.2c4.2,0,7.7,3.4,7.7,7.7v71.8c0,4.2-3.4,7.7-7.7,7.7H274.8c-4.2,0-7.7-3.4-7.7-7.7v-71.8
		c0-4.2,3.4-7.7,7.7-7.7H383.2z"/>
	<path class="st0" d="M393.4,296.9v71.8c0,5.7-4.6,10.3-10.3,10.3H274.8c-5.7,0-10.3-4.6-10.3-10.3v-71.8c0-5.7,4.6-10.3,10.3-10.3
		h108.4C388.8,286.7,393.4,291.3,393.4,296.9z M269.7,368.7c0,2.8,2.3,5.1,5.1,5.1h108.4c2.8,0,5.1-2.3,5.1-5.1v-71.8
		c0-2.8-2.3-5.1-5.1-5.1H274.8c-2.8,0-5.1,2.3-5.1,5.1V368.7z"/>
	<rect x="296.4" y="297.4" class="st0" width="86.3" height="71"/>
	<rect x="279.7" y="329.9" class="st0" width="16.7" height="6.3"/>
	<polyline class="st0" points="309.2,303.4 302.8,303.4 302.8,309.6 	"/>
	<polyline class="st0" points="309.2,362.2 302.8,362.2 302.8,356 	"/>
	<polyline class="st0" points="369.8,303.4 376.2,303.4 376.2,309.6 	"/>
	<polyline class="st0" points="369.8,362.2 376.2,362.2 376.2,356 	"/>
	<path class="st0" d="M804.3,94.4c0-11.1-12.2-20-27.2-20c-15,0-27.2,9-27.2,20c0,10.4,10.8,18.9,24.5,19.9
		c6.3,6.4,17.7,11.7,24.9,12.5c-5.5-3.7-8.4-10.3-9.8-14.6C798.3,108.8,804.3,102.1,804.3,94.4z"/>
	<path class="st0" d="M748.1,51.8c-18.7,0-33.9,11.4-33.9,25.5c0,9.7,7.2,18.2,17.8,22.5c-1.9,4.8-5.2,10.4-10.4,13.9
		c7.1-0.8,17.6-5.1,25.2-10.9c0.4,0,0.9,0,1.3,0c18.7,0,33.9-11.4,33.9-25.5C782,63.2,766.8,51.8,748.1,51.8z"/>
	<path class="st0" d="M735,77.2c0,2.7-2.2,4.8-4.8,4.8c-2.7,0-4.8-2.2-4.8-4.8c0-2.7,2.2-4.8,4.8-4.8C732.9,72.3,735,74.5,735,77.2z
		"/>
	<path class="st0" d="M753.3,77.3c0,2.7-2.2,4.8-4.8,4.8c-2.7,0-4.8-2.2-4.8-4.8c0-2.7,2.2-4.8,4.8-4.8
		C751.2,72.4,753.3,74.6,753.3,77.3z"/>
	<path class="st0" d="M771.6,77.3c0,2.7-2.2,4.8-4.8,4.8c-2.7,0-4.8-2.2-4.8-4.8c0-2.7,2.2-4.8,4.8-4.8
		C769.5,72.4,771.6,74.6,771.6,77.3z"/>
	<path class="st0" d="M27.2,325.8c0-13.6,11-24.7,24.7-24.7s24.7,11,24.7,24.7v32.7c0,13.6-11,24.7-24.7,24.7s-24.7-11-24.7-24.7
		V325.8z"/>
	<path class="st0" d="M36.8,306.3c-1,0.8-2,1.8-2.9,2.8c-0.8,5.9-1,13.6,2,18.3c3.6,5.7,9.9,6.6,13.9,6.6c0.9,0,3.6,0,4.6-0.1
		c4,0,10.3-1.1,13.8-6.9c2.9-4.8,2.5-12.4,1.6-18.3c-1-1-1.9-2-3-2.8"/>
	<line class="st0" x1="52.1" y1="333.6" x2="52.1" y2="301.3"/>
	<g>
		<g>
			<path class="st0" d="M177,332.6c0-12.6-10-22.9-22.4-22.9c-12.4,0-22.4,10.3-22.4,22.9c0,7.8,3.8,14.7,9.7,18.8
				c0.9,0.6,1.5,1.7,1.5,2.8v7.6c0,3.4,2.7,3.1,6,3.1h10.4c3.3,0,6,0.3,6-3.1v-7.6c0-1.1,0.6-2.1,1.5-2.8
				C173.1,347.3,177,340.4,177,332.6z"/>
			<line class="st0" x1="158.4" y1="342.2" x2="158.4" y2="357.8"/>
			<line class="st0" x1="150.4" y1="340.9" x2="150.4" y2="357.8"/>
			<path class="st0" d="M160.8,370.1c0,3.7-2.9,6.6-6.5,6.6c-3.6,0-6.5-3-6.5-6.6c0-3.7,2.9-3.6,6.5-3.6
				C157.9,366.4,160.8,366.4,160.8,370.1z"/>
			<path class="st0" d="M143.4,356.8v7.1c0,2.4,1.9,4.3,4.3,4.3h13.8c2.4,0,4.3-1.9,4.3-4.3v-7.1H143.4z"/>
			<g>
				<path class="st0" d="M150.2,340.8c-0.8,0.6-1.7,0.9-2.6,0.9c-2.4,0-4.3-2-4.3-4.4c0-2.4,4.2-7.4,11.1,0c2.8,2.9,4.3,4.4,6.7,4.4
					c2.4,0,4.3-2,4.3-4.4c0-2.4-1.9-4.4-4.3-4.4c-1,0-1.9,0.3-2.6,0.9"/>
			</g>
		</g>
		<g>
			<line class="st0" x1="110.6" y1="332.1" x2="121.1" y2="332.1"/>
			<line class="st0" x1="187.9" y1="332.1" x2="198.4" y2="332.1"/>
		</g>
		<g>
			<line class="st0" x1="123.5" y1="363.1" x2="130.9" y2="355.7"/>
			<line class="st0" x1="178.1" y1="308.4" x2="185.6" y2="301"/>
		</g>
		<g>
			<line class="st0" x1="154.5" y1="298.7" x2="154.5" y2="288.2"/>
		</g>
		<g>
			<line class="st0" x1="185.6" y1="363.1" x2="178.1" y2="355.7"/>
			<line class="st0" x1="130.9" y1="308.4" x2="123.5" y2="301"/>
		</g>
	</g>
	<g>
		<path class="st0" d="M55.7,59.6c-28.3,0-41.6,20.8-41.6,20.8s11.1,20.8,41.6,20.8c30.5,0,41.6-20.8,41.6-20.8S84,59.6,55.7,59.6z"
			/>
		<path class="st0" d="M69.8,80.4c0,7.8-6.3,14.1-14.1,14.1c-7.8,0-14.1-6.3-14.1-14.1c0-7.8,6.3-14.1,14.1-14.1
			C63.4,66.3,69.8,72.6,69.8,80.4z"/>
		<line class="st0" x1="55.3" y1="30.3" x2="55.3" y2="49.6"/>
		<line class="st0" x1="16.9" y1="43.3" x2="29.4" y2="57.8"/>
		<line class="st0" x1="93.8" y1="43.3" x2="81.3" y2="57.8"/>
	</g>
</g>
</svg>
