<?xml version="1.0" encoding="utf-8"?>
<!-- Generator: Adobe Illustrator 27.3.1, SVG Export Plug-In . SVG Version: 6.00 Build 0)  -->
<svg version="1.1" id="Layer_1" xmlns="http://www.w3.org/2000/svg" xmlns:xlink="http://www.w3.org/1999/xlink" x="0px" y="0px"
	 viewBox="0 0 273.6 169.3" style="enable-background:new 0 0 273.6 169.3;" xml:space="preserve">
<style type="text/css">
	.st0{fill:none;stroke:#1A1A1A;stroke-width:0.25;stroke-linecap:round;stroke-miterlimit:10;}
	.st1{fill:#FFFFFF;stroke:#1A1A1A;stroke-width:0.25;stroke-linecap:round;stroke-miterlimit:10;}
	.st2{fill:#1A1A1A;stroke:#F9F9F9;stroke-width:0.25;stroke-linecap:round;stroke-miterlimit:10;}
	.st3{fill:#F9F9F9;stroke:#1A1A1A;stroke-width:0.25;stroke-linecap:round;stroke-miterlimit:10;}
	.st4{fill:none;stroke:#F9F9F9;stroke-width:0.25;stroke-linecap:round;stroke-miterlimit:10;}
	.st5{fill:#C2514E;stroke:#F9F9F9;stroke-width:0.25;stroke-linecap:round;stroke-miterlimit:10;}
</style>
<g id="OBJECTS">
	<g>
		<line class="st0" x1="267.9" y1="16.4" x2="13.4" y2="16.4"/>
		<line class="st0" x1="267.9" y1="20.1" x2="13.4" y2="20.1"/>
		<line class="st0" x1="267.9" y1="23.9" x2="13.4" y2="23.9"/>
		<line class="st0" x1="267.9" y1="27.6" x2="13.4" y2="27.6"/>
		<line class="st0" x1="267.9" y1="31.4" x2="13.4" y2="31.4"/>
		<line class="st0" x1="267.9" y1="35.2" x2="13.4" y2="35.2"/>
		<line class="st0" x1="267.9" y1="38.9" x2="13.4" y2="38.9"/>
		<line class="st0" x1="267.9" y1="42.7" x2="13.4" y2="42.7"/>
		<line class="st0" x1="267.9" y1="46.4" x2="13.4" y2="46.4"/>
		<line class="st0" x1="267.9" y1="50.2" x2="13.4" y2="50.2"/>
		<line class="st0" x1="267.9" y1="53.9" x2="13.4" y2="53.9"/>
		<line class="st0" x1="267.9" y1="57.7" x2="13.4" y2="57.7"/>
		<line class="st0" x1="267.9" y1="61.4" x2="13.4" y2="61.4"/>
		<line class="st0" x1="267.9" y1="65.2" x2="13.4" y2="65.2"/>
		<line class="st0" x1="267.9" y1="68.9" x2="13.4" y2="68.9"/>
		<line class="st0" x1="267.9" y1="72.7" x2="13.4" y2="72.7"/>
		<line class="st0" x1="267.9" y1="76.4" x2="13.4" y2="76.4"/>
		<line class="st0" x1="267.9" y1="80.2" x2="13.4" y2="80.2"/>
		<line class="st0" x1="267.9" y1="84" x2="13.4" y2="84"/>
		<line class="st0" x1="267.9" y1="87.7" x2="13.4" y2="87.7"/>
		<line class="st0" x1="267.9" y1="91.5" x2="13.4" y2="91.5"/>
		<line class="st0" x1="267.9" y1="95.2" x2="13.4" y2="95.2"/>
		<line class="st0" x1="267.9" y1="99" x2="13.4" y2="99"/>
		<line class="st0" x1="267.9" y1="102.7" x2="13.4" y2="102.7"/>
		<line class="st0" x1="267.9" y1="106.5" x2="13.4" y2="106.5"/>
		<line class="st0" x1="267.9" y1="110.2" x2="13.4" y2="110.2"/>
		<line class="st0" x1="267.9" y1="114" x2="13.4" y2="114"/>
		<line class="st0" x1="267.9" y1="117.7" x2="13.4" y2="117.7"/>
		<line class="st0" x1="267.9" y1="121.5" x2="13.4" y2="121.5"/>
		<line class="st0" x1="267.9" y1="125.3" x2="13.4" y2="125.3"/>
		<line class="st0" x1="267.9" y1="129" x2="13.4" y2="129"/>
		<line class="st0" x1="267.9" y1="132.8" x2="13.4" y2="132.8"/>
		<line class="st0" x1="267.9" y1="136.5" x2="13.4" y2="136.5"/>
	</g>
</g>
<g id="Layer_4">
	<path class="st1" d="M195.6,87.9c-1.5-2.3-14.6-21.1-16.6-24.1c-2.1-3-5.6-7.3-5.6-7.3l-2.5-2.1l-16.6-4l-3.2-1.9l-18.8-1.3
		l-0.8,2.3l-4.6,2L115,54.3l-5.9,1.9l-8,12.8L84.6,90.1L81,95.8c-1.1,1.7-1.3,3.7-0.6,5.6l0,0c0.6,1.6,1.8,2.9,3.3,3.6l1,0.4
		c0,0,6.9,3.5,13.5,7.6c6.5,4.1,16.9,7.2,16.9,7.2l53.2,1.5c0,0,27.3-12.4,29.6-14.1s3.5-7,3.5-8.9C201.3,97,197.1,90.2,195.6,87.9z
		 M101.5,94.4l13.7-13.9l1.4,6.3l0.2,20.1L101.5,94.4z M165.6,107.2l1.1-19l0.6-11.5l14.5,19.4L165.6,107.2z"/>
	<g>
		<path class="st2" d="M93.7,91c0,0,5.1,1,7.9,3.2s14.4,11.2,14.4,11.2"/>
		<path class="st2" d="M93.7,88.1c3.8,1.6,8.5,6.3,8.5,6.3l13.7-13.9"/>
		<path class="st2" d="M113,71.3c0,0,1.3,6.9,3.8,10.9c0.4,4,0.1,15.4,0.1,15.4"/>
		<path class="st2" d="M169.1,106l13.6-9c0,0,3-0.4,5.3,1.3"/>
		<path class="st2" d="M171.8,62.3c0,0-1.5,11.5-3.9,16c-0.6,4-1,19.9-1,19.9"/>
		<path class="st2" d="M191.8,96.7c-3.4-2.4-9.3-0.5-9.3-0.5l-14.6-18l0.6-0.5"/>
		<path class="st3" d="M93,110.1c0,0-8.5-0.4-12,0.7s-7.2,5.8-7.2,10.4s1.6,4.4,2.8,7.3c1.2,2.9,9.1,5,18,9.1s25.6,9.7,25.6,9.7
			s-2.5-0.6-2.5-4.1s10-18.9,10-18.9"/>
		<path class="st2" d="M91.8,113.6c0,0,1.1-1.1,8.1,1.5c7,2.5,16.3,13.9,16.3,13.9"/>
		<path class="st3" d="M199.3,106.4c7.6-1.1,8.1,5.6,8.1,5.6s0,3.8-1.2,8.9s-9.1,9.2-22.7,15.5c-13.6,6.3-18.2,9.3-18.2,9.3
			l-0.6-1.7c0,0-4.6-15.4-6.6-17.4"/>
		<path class="st2" d="M129.6,50.6c0,0,3.2,6.8,11.3,6.8c8.2,0,13.5-7.4,13.5-7.4l2.2,1.1c0,0-2.7,8.9-15.7,8.9
			c-12.9,0-13.4-8.5-13.4-8.5L129.6,50.6z"/>
		<rect x="116.5" y="134.5" class="st2" width="52.6" height="4.1"/>
		<path class="st3" d="M118.5,145.7l7.8,3.4c0,0,2.1,9.5,6.6,11.3s6.5-1.5,6.5-1.5v-16.7c0,0-0.6-2.7-2-3"/>
		<path class="st3" d="M143.8,138.7c0,0-3.9,0.8-3.9,4s-0.5,16.3-0.5,16.3s2.3,3.1,6.5,0.7c4.2-2.3,5.3-10.5,5.3-10.5l13.5-5.2"/>
		<path class="st3" d="M149.9,142.3c0,0,2.5,3.5,1,8.4"/>
		<path class="st2" d="M128.5,142.1c0,0-3.7,3.2-1.5,9.5"/>
		<path class="st2" d="M168.9,125c0,0,6.5-6.1,13.4-9.7"/>
		<path class="st3" d="M133.7,21.8l-2.4,3.2c0,0-1.1,3.4-1.2,6.2c-0.1,2.8-0.1,4-0.1,4s0.2,5.1,0.8,7.9s5.9,11.2,10.2,11.7
			s11-7,12.4-12.7c0.9-6.1,0.2-8.9,0.2-8.9l0.4-3.5c0,0-0.7-6.1-2.5-7.5c-0.7-1.5-2.8-2.8-2.8-2.8"/>
		<path class="st3" d="M153.9,29.7l1.3-1c0.6-0.5,1.5-0.5,2.1,0.1c0.4,0.4,0.7,1,0.8,1.9c0.4,2.4-1.1,6.9-2.1,8.1
			c-0.9,1.2-2-0.4-2-0.4"/>
		<path class="st3" d="M130.3,29.7l-1.4-1c-0.6-0.5-1.5-0.4-2,0.2c-0.4,0.4-0.7,1-0.8,1.9c-0.3,2.4,1.4,6.9,2.4,8.1
			c1,1.2,2-0.5,2-0.5"/>
		<path class="st3" d="M154.1,28.2c0,0,1.1-2.5,1.3-4.8s-0.8-5.7-0.8-5.7s1.1-1.8-0.6-4c-1.7-2.3-5.6-1.8-5.6-1.8l-1.6-1.9
			c0,0-3.4-2.9-10.1-0.5c-6.7,2.4-11,6.5-10.9,11.3s1.3,7.3,1.3,7.3"/>
		<path class="st3" d="M130.2,24.1l3.8-2.9c0,0,2.2,1,5.3,0.5c3-0.5,7.2-3.4,7.2-3.4s3.9,0.5,5.2,1.3"/>
		<path class="st3" d="M132.4,159.6c0,0-2.7-2.9-2.6-9.4c0.2-6.4,5.4-9.4,7.4-9.2s2.1,2,2.1,2"/>
		<path class="st3" d="M146,159.6c0,0,2.7-2.9,2.6-9.4c-0.2-6.4-5.4-9.4-7.4-9.2s-2.1,2-2.1,2"/>
		<path class="st2" d="M160.8,145.6c0,0,1.4-3.2-0.5-7.1"/>
		<path class="st2" d="M154.2,138.6c0,0,3.3,1.2,1.8,9"/>
		<path class="st2" d="M122.8,147.4c0,0-2.9-4.2,1.1-9"/>
		<path class="st3" d="M116.3,131.5c0,0-11-11.2-16.3-14.4c-5.3-3.2-10.8-2.7-10.8-2.7"/>
		<path class="st2" d="M169,127.4c0,0,8.2-6.9,11.7-9.5c3.6-2.6,9.9-6.2,9.9-6.2"/>
		<line class="st4" x1="100.9" y1="92.9" x2="114.9" y2="79"/>
		<line class="st4" x1="169" y1="76.2" x2="184.2" y2="95.8"/>
		<line class="st4" x1="168.9" y1="134.5" x2="116.5" y2="134.5"/>
	</g>
	<circle class="st5" cx="140.6" cy="79.3" r="11.9"/>
	<rect x="114" y="97.8" class="st2" width="56.5" height="37.2"/>
	<path class="st2" d="M99.7,94.9"/>
</g>
</svg>
