<?xml version="1.0" encoding="utf-8"?>
<!-- Generator: Adobe Illustrator 28.3.0, SVG Export Plug-In . SVG Version: 6.00 Build 0)  -->
<svg version="1.1" id="Layer_1" xmlns="http://www.w3.org/2000/svg" xmlns:xlink="http://www.w3.org/1999/xlink" x="0px" y="0px"
	 viewBox="0 0 300 300" style="enable-background:new 0 0 300 300;" xml:space="preserve">
<style type="text/css">
	.st0{fill:#1D1D1B;}
	.st1{clip-path:url(#SVGID_00000044891525398069234020000001499306733587422092_);}
	.st2{clip-path:url(#SVGID_00000056413258102921113490000006025180949704924059_);}
	.st3{clip-path:url(#SVGID_00000077306574064085270390000006045338162377010332_);}
	.st4{clip-path:url(#SVGID_00000160876023337001613160000017980115858786881672_);}
	.st5{clip-path:url(#SVGID_00000018238007508412416410000012331562203732778669_);}
	.st6{clip-path:url(#SVGID_00000111891692978580507960000018268316800304256924_);}
	.st7{clip-path:url(#SVGID_00000066506052197479190320000015814592074918710932_);}
</style>
<g>
	<g>
		<g>
			<g>
				<polygon class="st0" points="159.3,166.2 158.2,166.2 158.2,90 188.8,70.6 189.4,71.5 159.3,90.6 				"/>
			</g>
			<g>
				<polygon class="st0" points="161.3,167.4 160.2,167.4 160.2,91.2 190.9,71.8 191.5,72.7 161.3,91.8 				"/>
			</g>
			<g>
				<polygon class="st0" points="163.4,168.6 162.3,168.6 162.3,92.4 192.9,73 193.5,73.9 163.4,93 				"/>
			</g>
			<g>
				<polygon class="st0" points="165.4,169.8 164.3,169.8 164.3,93.6 195,74.2 195.6,75.1 165.4,94.2 				"/>
			</g>
			<g>
				<polygon class="st0" points="167.5,171 166.4,171 166.4,94.8 197,75.4 197.6,76.3 167.5,95.4 				"/>
			</g>
			<g>
				<polygon class="st0" points="169.5,172.2 168.4,172.2 168.4,96 199.1,76.6 199.7,77.5 169.5,96.6 				"/>
			</g>
		</g>
		<g>
			<g>
				<polygon class="st0" points="180.6,177.3 179.5,177.3 179.5,101.1 210.1,81.7 210.7,82.6 180.6,101.7 				"/>
			</g>
			<g>
				<polygon class="st0" points="182.4,178.5 181.3,178.5 181.3,102.3 211.9,82.9 212.5,83.8 182.4,102.9 				"/>
			</g>
			<g>
				<polygon class="st0" points="184.4,179.7 183.3,179.7 183.3,103.5 214,84.1 214.6,85 184.4,104.1 				"/>
			</g>
			<g>
				<polygon class="st0" points="186.5,180.9 185.4,180.9 185.4,104.7 216,85.3 216.6,86.2 186.5,105.3 				"/>
			</g>
			<g>
				<polygon class="st0" points="188.6,182.1 187.4,182.1 187.4,105.9 218.1,86.5 218.7,87.4 188.6,106.5 				"/>
			</g>
			<g>
				<polygon class="st0" points="190.6,183.3 189.5,183.3 189.5,107.1 220.1,87.7 220.7,88.6 190.6,107.7 				"/>
			</g>
		</g>
		<g>
			<g>
				<polygon class="st0" points="203.7,189.7 202.6,189.7 202.6,113.5 233.3,94 233.9,95 203.7,114.1 				"/>
			</g>
			<g>
				<polygon class="st0" points="205.5,190.9 204.4,190.9 204.4,114.7 235.1,95.2 235.6,96.2 205.5,115.3 				"/>
			</g>
			<g>
				<polygon class="st0" points="207.6,192.1 206.5,192.1 206.5,115.9 237.1,96.4 237.7,97.4 207.6,116.5 				"/>
			</g>
			<g>
				<polygon class="st0" points="209.6,193.3 208.5,193.3 208.5,117.1 239.2,97.6 239.8,98.6 209.6,117.7 				"/>
			</g>
			<g>
				<polygon class="st0" points="211.7,194.5 210.6,194.5 210.6,118.2 241.2,98.8 241.8,99.8 211.7,118.9 				"/>
			</g>
			<g>
				<polygon class="st0" points="213.7,195.7 212.6,195.7 212.6,119.4 243.3,100 243.9,100.9 213.7,120.1 				"/>
			</g>
		</g>
	</g>
	<g>
		<g>
			<g>
				<g>
					<path id="SVGID_1_" class="st0" d="M13.1,152.5c-2.8-2-5-3.7-6.6-5.2l10.3-4.3c3.9,2.7,9.2,5.9,16,9.7c3,1.7,5.8,2.8,8.3,3.2
						s5,0.2,7.4-0.9l2.4-1c1.9-0.8,2.9-1.7,3-2.7c0-1-0.8-2-2.6-3l-4.7-2.6c-5.5-3.1-8.1-5.9-8-8.6c0.1-2.7,3.3-5.4,9.7-8.1l3.2-1.3
						c12.2-5.1,24.2-4.4,36,2.3c2.8,1.6,5.4,3.3,8,5.1c2.5,1.9,4.7,3.6,6.5,5.1l-10.2,4.3c-6.3-4-11.2-7-14.6-8.9
						c-2.8-1.6-5.5-2.6-7.9-2.9s-5.1,0-7.8,1.2l-1.8,0.7c-2.2,0.9-3.3,1.9-3.3,2.9s1.2,2.1,3.3,3.4l5.4,3c4.8,2.7,6.9,5.3,6.3,8
						s-3.3,5.1-8.3,7.2l-3.7,1.6c-4.9,2.1-9.5,3.2-13.8,3.5s-8.3-0.1-12.1-1.3c-3.8-1.1-7.8-2.8-11.9-5.1
						C18.8,156.2,16,154.5,13.1,152.5z"/>
				</g>
				<g>
					<g>
						<path id="SVGID_00000139270352779720433560000002456501004868207265_" class="st0" d="M13.1,152.5c-2.8-2-5-3.7-6.6-5.2
							l10.3-4.3c3.9,2.7,9.2,5.9,16,9.7c3,1.7,5.8,2.8,8.3,3.2s5,0.2,7.4-0.9l2.4-1c1.9-0.8,2.9-1.7,3-2.7c0-1-0.8-2-2.6-3l-4.7-2.6
							c-5.5-3.1-8.1-5.9-8-8.6c0.1-2.7,3.3-5.4,9.7-8.1l3.2-1.3c12.2-5.1,24.2-4.4,36,2.3c2.8,1.6,5.4,3.3,8,5.1
							c2.5,1.9,4.7,3.6,6.5,5.1l-10.2,4.3c-6.3-4-11.2-7-14.6-8.9c-2.8-1.6-5.5-2.6-7.9-2.9s-5.1,0-7.8,1.2l-1.8,0.7
							c-2.2,0.9-3.3,1.9-3.3,2.9s1.2,2.1,3.3,3.4l5.4,3c4.8,2.7,6.9,5.3,6.3,8s-3.3,5.1-8.3,7.2l-3.7,1.6c-4.9,2.1-9.5,3.2-13.8,3.5
							s-8.3-0.1-12.1-1.3c-3.8-1.1-7.8-2.8-11.9-5.1C18.8,156.2,16,154.5,13.1,152.5z"/>
					</g>
					<g>
						<defs>
							<path id="SVGID_00000101808915839953775370000015753019879215286181_" d="M13.1,152.5c-2.8-2-5-3.7-6.6-5.2l10.3-4.3
								c3.9,2.7,9.2,5.9,16,9.7c3,1.7,5.8,2.8,8.3,3.2s5,0.2,7.4-0.9l2.4-1c1.9-0.8,2.9-1.7,3-2.7c0-1-0.8-2-2.6-3l-4.7-2.6
								c-5.5-3.1-8.1-5.9-8-8.6c0.1-2.7,3.3-5.4,9.7-8.1l3.2-1.3c12.2-5.1,24.2-4.4,36,2.3c2.8,1.6,5.4,3.3,8,5.1
								c2.5,1.9,4.7,3.6,6.5,5.1l-10.2,4.3c-6.3-4-11.2-7-14.6-8.9c-2.8-1.6-5.5-2.6-7.9-2.9s-5.1,0-7.8,1.2l-1.8,0.7
								c-2.2,0.9-3.3,1.9-3.3,2.9s1.2,2.1,3.3,3.4l5.4,3c4.8,2.7,6.9,5.3,6.3,8s-3.3,5.1-8.3,7.2l-3.7,1.6
								c-4.9,2.1-9.5,3.2-13.8,3.5s-8.3-0.1-12.1-1.3c-3.8-1.1-7.8-2.8-11.9-5.1C18.8,156.2,16,154.5,13.1,152.5z"/>
						</defs>
						<use xlink:href="#SVGID_00000101808915839953775370000015753019879215286181_"  style="overflow:visible;fill:#1D1D1B;"/>
						<clipPath id="SVGID_00000005243175340211483570000002059270967377539203_">
							<use xlink:href="#SVGID_00000101808915839953775370000015753019879215286181_"  style="overflow:visible;"/>
						</clipPath>
						<g style="clip-path:url(#SVGID_00000005243175340211483570000002059270967377539203_);">
							<g>
								<g>
									
										<rect x="-16.3" y="129.7" transform="matrix(0.9216 -0.3882 0.3882 0.9216 -48.2979 21.4162)" class="st0" width="90.3" height="1.1"/>
								</g>
								<g>
									
										<rect x="-14.7" y="130.7" transform="matrix(0.9216 -0.3882 0.3882 0.9216 -48.5663 22.115)" class="st0" width="90.3" height="1.1"/>
								</g>
								<g>
									
										<rect x="-12.8" y="131.7" transform="matrix(0.9216 -0.3882 0.3882 0.9216 -48.8022 22.928)" class="st0" width="90.3" height="1.1"/>
								</g>
								<g>
									
										<rect x="-10.8" y="132.8" transform="matrix(0.9216 -0.3882 0.3882 0.9216 -49.0712 23.7959)" class="st0" width="90.3" height="1.1"/>
								</g>
								<g>
									
										<rect x="-8.9" y="133.9" transform="matrix(0.9216 -0.3882 0.3882 0.9216 -49.3514 24.6207)" class="st0" width="90.3" height="1.1"/>
								</g>
								<g>
									
										<rect x="-7" y="134.9" transform="matrix(0.9216 -0.3882 0.3882 0.9216 -49.5878 25.4333)" class="st0" width="90.3" height="1.1"/>
								</g>
								<g>
									
										<rect x="-5.1" y="136" transform="matrix(0.9216 -0.3882 0.3882 0.9216 -49.8677 26.2576)" class="st0" width="90.3" height="1.1"/>
								</g>
								<g>
									
										<rect x="-3.2" y="137.1" transform="matrix(0.9216 -0.3882 0.3882 0.9216 -50.148 27.0815)" class="st0" width="90.3" height="1.1"/>
								</g>
							</g>
							<g>
								<g>
									
										<rect x="-1.2" y="138.2" transform="matrix(0.9216 -0.3882 0.3882 0.9216 -50.4175 27.9431)" class="st0" width="90.3" height="1.1"/>
								</g>
								<g>
									
										<rect x="0.5" y="139.1" transform="matrix(0.9216 -0.3882 0.3882 0.9216 -50.6306 28.6745)" class="st0" width="90.3" height="1.1"/>
								</g>
								<g>
									
										<rect x="2.4" y="140.2" transform="matrix(0.9216 -0.3882 0.3882 0.9216 -50.9104 29.4988)" class="st0" width="90.3" height="1.1"/>
								</g>
								<g>
									
										<rect x="4.3" y="141.3" transform="matrix(0.9216 -0.3882 0.3882 0.9216 -51.1908 30.3228)" class="st0" width="90.3" height="1.1"/>
								</g>
								<g>
									
										<rect x="6.2" y="142.3" transform="matrix(0.9216 -0.3882 0.3882 0.9216 -51.4267 31.1357)" class="st0" width="90.3" height="1.1"/>
								</g>
								<g>
									
										<rect x="8.2" y="143.4" transform="matrix(0.9216 -0.3882 0.3882 0.9216 -51.6957 32.0036)" class="st0" width="90.3" height="1.1"/>
								</g>
								<g>
									
										<rect x="10.1" y="144.5" transform="matrix(0.9216 -0.3882 0.3882 0.9216 -51.9756 32.8279)" class="st0" width="90.3" height="1.1"/>
								</g>
								<g>
									
										<rect x="12" y="145.5" transform="matrix(0.9216 -0.3882 0.3882 0.9216 -52.212 33.6405)" class="st0" width="90.3" height="1.1"/>
								</g>
							</g>
							<g>
								<g>
									
										<rect x="14" y="146.6" transform="matrix(0.9216 -0.3882 0.3882 0.9216 -52.4815 34.502)" class="st0" width="90.3" height="1.1"/>
								</g>
								<g>
									
										<rect x="15.7" y="147.6" transform="matrix(0.9216 -0.3882 0.3882 0.9216 -52.7385 35.2448)" class="st0" width="90.3" height="1.1"/>
								</g>
								<g>
									
										<rect x="17.6" y="148.6" transform="matrix(0.9216 -0.3882 0.3882 0.9216 -52.9749 36.0574)" class="st0" width="90.3" height="1.1"/>
								</g>
								<g>
									
										<rect x="19.5" y="149.7" transform="matrix(0.9216 -0.3882 0.3882 0.9216 -53.2547 36.8817)" class="st0" width="90.3" height="1.1"/>
								</g>
								<g>
									
										<rect x="21.4" y="150.8" transform="matrix(0.9216 -0.3882 0.3882 0.9216 -53.5346 37.706)" class="st0" width="90.3" height="1.1"/>
								</g>
								<g>
									
										<rect x="23.3" y="151.9" transform="matrix(0.9216 -0.3882 0.3882 0.9216 -53.815 38.53)" class="st0" width="90.3" height="1.1"/>
								</g>
								<g>
									
										<rect x="25.2" y="152.9" transform="matrix(0.9216 -0.3882 0.3882 0.9216 -54.0508 39.3429)" class="st0" width="90.3" height="1.1"/>
								</g>
								<g>
									
										<rect x="27.1" y="154" transform="matrix(0.9216 -0.3882 0.3882 0.9216 -54.3312 40.1668)" class="st0" width="90.3" height="1.1"/>
								</g>
							</g>
							<g>
								<g>
									
										<rect x="29.2" y="155.1" transform="matrix(0.9216 -0.3882 0.3882 0.9216 -54.5893 41.0723)" class="st0" width="90.3" height="1.1"/>
								</g>
								<g>
									
										<rect x="30.8" y="156" transform="matrix(0.9216 -0.3882 0.3882 0.9216 -54.8138 41.7598)" class="st0" width="90.3" height="1.1"/>
								</g>
								<g>
									
										<rect x="32.7" y="157.1" transform="matrix(0.9216 -0.3882 0.3882 0.9216 -55.0941 42.5837)" class="st0" width="90.3" height="1.1"/>
								</g>
								<g>
									
										<rect x="34.6" y="158.2" transform="matrix(0.9216 -0.3882 0.3882 0.9216 -55.374 43.408)" class="st0" width="90.3" height="1.1"/>
								</g>
								<g>
									
										<rect x="36.6" y="159.3" transform="matrix(0.9216 -0.3882 0.3882 0.9216 -55.6425 44.2763)" class="st0" width="90.3" height="1.1"/>
								</g>
								<g>
									
										<rect x="38.5" y="160.3" transform="matrix(0.9216 -0.3882 0.3882 0.9216 -55.8792 45.0894)" class="st0" width="90.3" height="1.1"/>
								</g>
								<g>
									
										<rect x="40.4" y="161.4" transform="matrix(0.9216 -0.3882 0.3882 0.9216 -56.1591 45.9137)" class="st0" width="90.3" height="1.1"/>
								</g>
								<g>
									
										<rect x="42.3" y="162.5" transform="matrix(0.9216 -0.3882 0.3882 0.9216 -56.4395 46.7377)" class="st0" width="90.3" height="1.1"/>
								</g>
							</g>
							<g>
								<g>
									
										<rect x="44.3" y="163.6" transform="matrix(0.9216 -0.3882 0.3882 0.9216 -56.7086 47.5986)" class="st0" width="90.3" height="1.1"/>
								</g>
								<g>
									
										<rect x="46" y="164.5" transform="matrix(0.9216 -0.3882 0.3882 0.9216 -56.922 48.3306)" class="st0" width="90.3" height="1.1"/>
								</g>
								<g>
									
										<rect x="47.9" y="165.6" transform="matrix(0.9216 -0.3882 0.3882 0.9216 -57.2024 49.1546)" class="st0" width="90.3" height="1.1"/>
								</g>
								<g>
									
										<rect x="49.8" y="166.6" transform="matrix(0.9216 -0.3882 0.3882 0.9216 -57.4383 49.9675)" class="st0" width="90.3" height="1.1"/>
								</g>
								<g>
									
										<rect x="51.7" y="167.7" transform="matrix(0.9216 -0.3882 0.3882 0.9216 -57.7186 50.7915)" class="st0" width="90.3" height="1.1"/>
								</g>
								<g>
									
										<rect x="53.6" y="168.8" transform="matrix(0.9216 -0.3882 0.3882 0.9216 -57.9985 51.6158)" class="st0" width="90.3" height="1.1"/>
								</g>
								<g>
									
										<rect x="55.5" y="169.9" transform="matrix(0.9216 -0.3882 0.3882 0.9216 -58.2783 52.44)" class="st0" width="90.3" height="1.1"/>
								</g>
								<g>
									
										<rect x="57.5" y="170.9" transform="matrix(0.9216 -0.3882 0.3882 0.9216 -58.5034 53.2966)" class="st0" width="90.3" height="1.1"/>
								</g>
							</g>
							<g>
								<g>
									
										<rect x="59.5" y="172" transform="matrix(0.9216 -0.3882 0.3882 0.9216 -58.7728 54.1581)" class="st0" width="90.3" height="1.1"/>
								</g>
								<g>
									
										<rect x="61.1" y="173" transform="matrix(0.9216 -0.3882 0.3882 0.9216 -59.0412 54.8569)" class="st0" width="90.3" height="1.1"/>
								</g>
								<g>
									
										<rect x="63.1" y="174" transform="matrix(0.9216 -0.3882 0.3882 0.9216 -59.2663 55.7135)" class="st0" width="90.3" height="1.1"/>
								</g>
								<g>
									
										<rect x="65" y="175.1" transform="matrix(0.9216 -0.3882 0.3882 0.9216 -59.5462 56.5378)" class="st0" width="90.3" height="1.1"/>
								</g>
								<g>
									
										<rect x="66.9" y="176.2" transform="matrix(0.9216 -0.3882 0.3882 0.9216 -59.8265 57.3618)" class="st0" width="90.3" height="1.1"/>
								</g>
								<g>
									
										<rect x="68.8" y="177.3" transform="matrix(0.9216 -0.3882 0.3882 0.9216 -60.1063 58.1861)" class="st0" width="90.3" height="1.1"/>
								</g>
								<g>
									
										<rect x="70.7" y="178.3" transform="matrix(0.9216 -0.3882 0.3882 0.9216 -60.3428 58.9986)" class="st0" width="90.3" height="1.1"/>
								</g>
								<g>
									
										<rect x="72.6" y="179.4" transform="matrix(0.9216 -0.3882 0.3882 0.9216 -60.6226 59.8229)" class="st0" width="90.3" height="1.1"/>
								</g>
							</g>
							<g>
								<g>
									
										<rect x="74.6" y="180.5" transform="matrix(0.9216 -0.3882 0.3882 0.9216 -60.8921 60.6844)" class="st0" width="90.3" height="1.1"/>
								</g>
								<g>
									
										<rect x="76.3" y="181.4" transform="matrix(0.9216 -0.3882 0.3882 0.9216 -61.1052 61.4159)" class="st0" width="90.3" height="1.1"/>
								</g>
								<g>
									
										<rect x="78.2" y="182.5" transform="matrix(0.9216 -0.3882 0.3882 0.9216 -61.3855 62.2398)" class="st0" width="90.3" height="1.1"/>
								</g>
								<g>
									
										<rect x="80.1" y="183.6" transform="matrix(0.9216 -0.3882 0.3882 0.9216 -61.6654 63.0641)" class="st0" width="90.3" height="1.1"/>
								</g>
								<g>
									
										<rect x="82" y="184.7" transform="matrix(0.9216 -0.3882 0.3882 0.9216 -61.9458 63.8881)" class="st0" width="90.3" height="1.1"/>
								</g>
								<g>
									
										<rect x="84" y="185.7" transform="matrix(0.9216 -0.3882 0.3882 0.9216 -62.1707 64.7455)" class="st0" width="90.3" height="1.1"/>
								</g>
								<g>
									
										<rect x="85.9" y="186.8" transform="matrix(0.9216 -0.3882 0.3882 0.9216 -62.451 65.5695)" class="st0" width="90.3" height="1.1"/>
								</g>
								<g>
									
										<rect x="87.8" y="187.9" transform="matrix(0.9216 -0.3882 0.3882 0.9216 -62.7309 66.3938)" class="st0" width="90.3" height="1.1"/>
								</g>
							</g>
							<g>
								<g>
									
										<rect x="89.8" y="189" transform="matrix(0.9216 -0.3882 0.3882 0.9216 -63 67.2547)" class="st0" width="90.3" height="1.1"/>
								</g>
								<g>
									
										<rect x="91.5" y="189.9" transform="matrix(0.9216 -0.3882 0.3882 0.9216 -63.2134 67.9867)" class="st0" width="90.3" height="1.1"/>
								</g>
								<g>
									
										<rect x="93.4" y="191" transform="matrix(0.9216 -0.3882 0.3882 0.9216 -63.4938 68.8107)" class="st0" width="90.3" height="1.1"/>
								</g>
								<g>
									
										<rect x="95.3" y="192" transform="matrix(0.9216 -0.3882 0.3882 0.9216 -63.7297 69.6236)" class="st0" width="90.3" height="1.1"/>
								</g>
								<g>
									
										<rect x="97.2" y="193.1" transform="matrix(0.9216 -0.3882 0.3882 0.9216 -64.0101 70.4476)" class="st0" width="90.3" height="1.1"/>
								</g>
								<g>
									
										<rect x="99.1" y="194.2" transform="matrix(0.9216 -0.3882 0.3882 0.9216 -64.2899 71.2719)" class="st0" width="90.3" height="1.1"/>
								</g>
								<g>
									
										<rect x="101" y="195.3" transform="matrix(0.9216 -0.3882 0.3882 0.9216 -64.5703 72.0958)" class="st0" width="90.3" height="1.1"/>
								</g>
								<g>
									
										<rect x="102.9" y="196.3" transform="matrix(0.9216 -0.3882 0.3882 0.9216 -64.8062 72.9088)" class="st0" width="90.3" height="1.1"/>
								</g>
							</g>
							<g>
								<g>
									
										<rect x="105" y="197.4" transform="matrix(0.9216 -0.3882 0.3882 0.9216 -65.0643 73.8142)" class="st0" width="90.3" height="1.1"/>
								</g>
								<g>
									
										<rect x="106.6" y="198.4" transform="matrix(0.9216 -0.3882 0.3882 0.9216 -65.3326 74.513)" class="st0" width="90.3" height="1.1"/>
								</g>
								<g>
									
										<rect x="108.5" y="199.4" transform="matrix(0.9216 -0.3882 0.3882 0.9216 -65.569 75.3256)" class="st0" width="90.3" height="1.1"/>
								</g>
								<g>
									
										<rect x="110.4" y="200.5" transform="matrix(0.9216 -0.3882 0.3882 0.9216 -65.8489 76.15)" class="st0" width="90.3" height="1.1"/>
								</g>
								<g>
									
										<rect x="112.4" y="201.6" transform="matrix(0.9216 -0.3882 0.3882 0.9216 -66.1179 77.0179)" class="st0" width="90.3" height="1.1"/>
								</g>
								<g>
									
										<rect x="114.3" y="202.7" transform="matrix(0.9216 -0.3882 0.3882 0.9216 -66.3978 77.8421)" class="st0" width="90.3" height="1.1"/>
								</g>
								<g>
									
										<rect x="116.2" y="203.7" transform="matrix(0.9216 -0.3882 0.3882 0.9216 -66.6342 78.6547)" class="st0" width="90.3" height="1.1"/>
								</g>
								<g>
									
										<rect x="118.1" y="204.8" transform="matrix(0.9216 -0.3882 0.3882 0.9216 -66.914 79.479)" class="st0" width="90.3" height="1.1"/>
								</g>
							</g>
							<g>
								<g>
									
										<rect x="120.1" y="205.9" transform="matrix(0.9216 -0.3882 0.3882 0.9216 -67.1835 80.3405)" class="st0" width="90.3" height="1.1"/>
								</g>
								<g>
									
										<rect x="121.8" y="206.8" transform="matrix(0.9216 -0.3882 0.3882 0.9216 -67.3966 81.072)" class="st0" width="90.3" height="1.1"/>
								</g>
								<g>
									
										<rect x="123.7" y="207.9" transform="matrix(0.9216 -0.3882 0.3882 0.9216 -67.6769 81.8959)" class="st0" width="90.3" height="1.1"/>
								</g>
								<g>
									
										<rect x="125.6" y="209" transform="matrix(0.9216 -0.3882 0.3882 0.9216 -67.9568 82.7203)" class="st0" width="90.3" height="1.1"/>
								</g>
								<g>
									
										<rect x="127.5" y="210.1" transform="matrix(0.9216 -0.3882 0.3882 0.9216 -68.2372 83.5442)" class="st0" width="90.3" height="1.1"/>
								</g>
								<g>
									
										<rect x="129.4" y="211.1" transform="matrix(0.9216 -0.3882 0.3882 0.9216 -68.473 84.3572)" class="st0" width="90.3" height="1.1"/>
								</g>
								<g>
									
										<rect x="131.4" y="212.2" transform="matrix(0.9216 -0.3882 0.3882 0.9216 -68.7424 85.2255)" class="st0" width="90.3" height="1.1"/>
								</g>
								<g>
									
										<rect x="133.3" y="213.3" transform="matrix(0.9216 -0.3882 0.3882 0.9216 -69.0223 86.0499)" class="st0" width="90.3" height="1.1"/>
								</g>
							</g>
							<g>
								<g>
									
										<rect x="135.3" y="214.4" transform="matrix(0.9216 -0.3882 0.3882 0.9216 -69.2914 86.9108)" class="st0" width="90.3" height="1.1"/>
								</g>
								<g>
									
										<rect x="136.9" y="215.3" transform="matrix(0.9216 -0.3882 0.3882 0.9216 -69.5162 87.5988)" class="st0" width="90.3" height="1.1"/>
								</g>
								<g>
									
										<rect x="138.9" y="216.4" transform="matrix(0.9216 -0.3882 0.3882 0.9216 -69.7852 88.4668)" class="st0" width="90.3" height="1.1"/>
								</g>
								<g>
									
										<rect x="140.8" y="217.4" transform="matrix(0.9216 -0.3882 0.3882 0.9216 -70.0211 89.2797)" class="st0" width="90.3" height="1.1"/>
								</g>
								<g>
									
										<rect x="142.7" y="218.5" transform="matrix(0.9216 -0.3882 0.3882 0.9216 -70.3015 90.1037)" class="st0" width="90.3" height="1.1"/>
								</g>
								<g>
									
										<rect x="144.6" y="219.6" transform="matrix(0.9216 -0.3882 0.3882 0.9216 -70.5813 90.9279)" class="st0" width="90.3" height="1.1"/>
								</g>
								<g>
									
										<rect x="146.5" y="220.7" transform="matrix(0.9216 -0.3882 0.3882 0.9216 -70.8617 91.7519)" class="st0" width="90.3" height="1.1"/>
								</g>
								<g>
									
										<rect x="148.4" y="221.7" transform="matrix(0.9216 -0.3882 0.3882 0.9216 -71.0976 92.5648)" class="st0" width="90.3" height="1.1"/>
								</g>
							</g>
							<g>
								<g>
									
										<rect x="150.4" y="222.8" transform="matrix(0.9216 -0.3882 0.3882 0.9216 -71.367 93.4263)" class="st0" width="90.3" height="1.1"/>
								</g>
								<g>
									
										<rect x="152.1" y="223.8" transform="matrix(0.9216 -0.3882 0.3882 0.9216 -71.6246 94.1688)" class="st0" width="90.3" height="1.1"/>
								</g>
								<g>
									
										<rect x="154" y="224.8" transform="matrix(0.9216 -0.3882 0.3882 0.9216 -71.8605 94.9818)" class="st0" width="90.3" height="1.1"/>
								</g>
								<g>
									
										<rect x="155.9" y="225.9" transform="matrix(0.9216 -0.3882 0.3882 0.9216 -72.1403 95.806)" class="st0" width="90.3" height="1.1"/>
								</g>
								<g>
									
										<rect x="157.8" y="227" transform="matrix(0.9216 -0.3882 0.3882 0.9216 -72.4207 96.63)" class="st0" width="90.3" height="1.1"/>
								</g>
								<g>
									
										<rect x="159.8" y="228.1" transform="matrix(0.9216 -0.3882 0.3882 0.9216 -72.6892 97.4982)" class="st0" width="90.3" height="1.1"/>
								</g>
								<g>
									
										<rect x="161.7" y="229.1" transform="matrix(0.9216 -0.3882 0.3882 0.9216 -72.9256 98.3108)" class="st0" width="90.3" height="1.1"/>
								</g>
								<g>
									
										<rect x="163.6" y="230.2" transform="matrix(0.9216 -0.3882 0.3882 0.9216 -73.2054 99.1351)" class="st0" width="90.3" height="1.1"/>
								</g>
							</g>
							<g>
								<g>
									
										<rect x="165.6" y="231.3" transform="matrix(0.9216 -0.3882 0.3882 0.9216 -73.4749 99.9967)" class="st0" width="90.3" height="1.1"/>
								</g>
								<g>
									
										<rect x="167.3" y="232.2" transform="matrix(0.9216 -0.3882 0.3882 0.9216 -73.6885 100.7278)" class="st0" width="90.3" height="1.1"/>
								</g>
								<g>
									
										<rect x="169.2" y="233.3" transform="matrix(0.9216 -0.3882 0.3882 0.9216 -73.9684 101.552)" class="st0" width="90.3" height="1.1"/>
								</g>
								<g>
									
										<rect x="171.1" y="234.4" transform="matrix(0.9216 -0.3882 0.3882 0.9216 -74.2487 102.376)" class="st0" width="90.3" height="1.1"/>
								</g>
								<g>
									
										<rect x="173" y="235.5" transform="matrix(0.9216 -0.3882 0.3882 0.9216 -74.5286 103.2003)" class="st0" width="90.3" height="1.1"/>
								</g>
								<g>
									
										<rect x="174.9" y="236.5" transform="matrix(0.9216 -0.3882 0.3882 0.9216 -74.7645 104.0132)" class="st0" width="90.3" height="1.1"/>
								</g>
								<g>
									
										<rect x="176.8" y="237.6" transform="matrix(0.9216 -0.3882 0.3882 0.9216 -75.0452 104.8377)" class="st0" width="90.3" height="1.1"/>
								</g>
								<g>
									
										<rect x="178.7" y="238.7" transform="matrix(0.9216 -0.3882 0.3882 0.9216 -75.325 105.662)" class="st0" width="90.3" height="1.1"/>
								</g>
							</g>
						</g>
					</g>
				</g>
			</g>
		</g>
		<g>
			<g>
				<g>
					<polygon id="SVGID_00000022546400628492728070000003377729606229650075_" class="st0" points="115.8,144.4 126.8,150.5 
						90.7,165.7 95.4,168.4 120.5,166.4 131.7,172.6 97.7,175.4 85.8,193.1 74.6,186.9 83.6,173.2 79,170.6 59.9,178.7 48.9,172.5 
											"/>
				</g>
				<g>
					<g>
						<polygon id="SVGID_00000001653105100113984110000001012076464941041797_" class="st0" points="115.8,144.4 126.8,150.5 
							90.7,165.7 95.4,168.4 120.5,166.4 131.7,172.6 97.7,175.4 85.8,193.1 74.6,186.9 83.6,173.2 79,170.6 59.9,178.7 48.9,172.5 
													"/>
					</g>
					<g>
						<defs>
							<polygon id="SVGID_00000127755739439953835900000009258546409285658300_" points="115.8,144.4 126.8,150.5 90.7,165.7 
								95.4,168.4 120.5,166.4 131.7,172.6 97.7,175.4 85.8,193.1 74.6,186.9 83.6,173.2 79,170.6 59.9,178.7 48.9,172.5 							"/>
						</defs>
						<use xlink:href="#SVGID_00000127755739439953835900000009258546409285658300_"  style="overflow:visible;fill:#1D1D1B;"/>
						<clipPath id="SVGID_00000088822215004411978450000008051170625190000575_">
							<use xlink:href="#SVGID_00000127755739439953835900000009258546409285658300_"  style="overflow:visible;"/>
						</clipPath>
						<g style="clip-path:url(#SVGID_00000088822215004411978450000008051170625190000575_);">
							<g>
								<g>
									
										<rect x="29.2" y="155.1" transform="matrix(0.9216 -0.3882 0.3882 0.9216 -54.5893 41.0723)" class="st0" width="90.3" height="1.1"/>
								</g>
								<g>
									
										<rect x="30.8" y="156" transform="matrix(0.9216 -0.3882 0.3882 0.9216 -54.8138 41.7598)" class="st0" width="90.3" height="1.1"/>
								</g>
								<g>
									
										<rect x="32.7" y="157.1" transform="matrix(0.9216 -0.3882 0.3882 0.9216 -55.0941 42.5837)" class="st0" width="90.3" height="1.1"/>
								</g>
								<g>
									
										<rect x="34.6" y="158.2" transform="matrix(0.9216 -0.3882 0.3882 0.9216 -55.374 43.408)" class="st0" width="90.3" height="1.1"/>
								</g>
								<g>
									
										<rect x="36.6" y="159.3" transform="matrix(0.9216 -0.3882 0.3882 0.9216 -55.6425 44.2763)" class="st0" width="90.3" height="1.1"/>
								</g>
								<g>
									
										<rect x="38.5" y="160.3" transform="matrix(0.9216 -0.3882 0.3882 0.9216 -55.8792 45.0894)" class="st0" width="90.3" height="1.1"/>
								</g>
								<g>
									
										<rect x="40.4" y="161.4" transform="matrix(0.9216 -0.3882 0.3882 0.9216 -56.1591 45.9137)" class="st0" width="90.3" height="1.1"/>
								</g>
								<g>
									
										<rect x="42.3" y="162.5" transform="matrix(0.9216 -0.3882 0.3882 0.9216 -56.4395 46.7377)" class="st0" width="90.3" height="1.1"/>
								</g>
							</g>
							<g>
								<g>
									
										<rect x="44.3" y="163.6" transform="matrix(0.9216 -0.3882 0.3882 0.9216 -56.7086 47.5986)" class="st0" width="90.3" height="1.1"/>
								</g>
								<g>
									
										<rect x="46" y="164.5" transform="matrix(0.9216 -0.3882 0.3882 0.9216 -56.922 48.3306)" class="st0" width="90.3" height="1.1"/>
								</g>
								<g>
									
										<rect x="47.9" y="165.6" transform="matrix(0.9216 -0.3882 0.3882 0.9216 -57.2024 49.1546)" class="st0" width="90.3" height="1.1"/>
								</g>
								<g>
									
										<rect x="49.8" y="166.6" transform="matrix(0.9216 -0.3882 0.3882 0.9216 -57.4383 49.9675)" class="st0" width="90.3" height="1.1"/>
								</g>
								<g>
									
										<rect x="51.7" y="167.7" transform="matrix(0.9216 -0.3882 0.3882 0.9216 -57.7186 50.7915)" class="st0" width="90.3" height="1.1"/>
								</g>
								<g>
									
										<rect x="53.6" y="168.8" transform="matrix(0.9216 -0.3882 0.3882 0.9216 -57.9985 51.6158)" class="st0" width="90.3" height="1.1"/>
								</g>
								<g>
									
										<rect x="55.5" y="169.9" transform="matrix(0.9216 -0.3882 0.3882 0.9216 -58.2783 52.44)" class="st0" width="90.3" height="1.1"/>
								</g>
								<g>
									
										<rect x="57.5" y="170.9" transform="matrix(0.9216 -0.3882 0.3882 0.9216 -58.5034 53.2966)" class="st0" width="90.3" height="1.1"/>
								</g>
							</g>
							<g>
								<g>
									
										<rect x="59.5" y="172" transform="matrix(0.9216 -0.3882 0.3882 0.9216 -58.7728 54.1581)" class="st0" width="90.3" height="1.1"/>
								</g>
								<g>
									
										<rect x="61.1" y="173" transform="matrix(0.9216 -0.3882 0.3882 0.9216 -59.0412 54.8569)" class="st0" width="90.3" height="1.1"/>
								</g>
								<g>
									
										<rect x="63.1" y="174" transform="matrix(0.9216 -0.3882 0.3882 0.9216 -59.2663 55.7135)" class="st0" width="90.3" height="1.1"/>
								</g>
								<g>
									
										<rect x="65" y="175.1" transform="matrix(0.9216 -0.3882 0.3882 0.9216 -59.5462 56.5378)" class="st0" width="90.3" height="1.1"/>
								</g>
								<g>
									
										<rect x="66.9" y="176.2" transform="matrix(0.9216 -0.3882 0.3882 0.9216 -59.8265 57.3618)" class="st0" width="90.3" height="1.1"/>
								</g>
								<g>
									
										<rect x="68.8" y="177.3" transform="matrix(0.9216 -0.3882 0.3882 0.9216 -60.1063 58.1861)" class="st0" width="90.3" height="1.1"/>
								</g>
								<g>
									
										<rect x="70.7" y="178.3" transform="matrix(0.9216 -0.3882 0.3882 0.9216 -60.3428 58.9986)" class="st0" width="90.3" height="1.1"/>
								</g>
								<g>
									
										<rect x="72.6" y="179.4" transform="matrix(0.9216 -0.3882 0.3882 0.9216 -60.6226 59.8229)" class="st0" width="90.3" height="1.1"/>
								</g>
							</g>
						</g>
					</g>
				</g>
			</g>
		</g>
		<g>
			<g>
				<g>
					<g>
						<polygon id="SVGID_00000173139217962673319540000004218414697337078965_" class="st0" points="90.2,195.6 101.2,201.8 
							148.3,181.9 137.2,175.8 						"/>
					</g>
					<g>
						<g>
							<polygon id="SVGID_00000092422039462036563840000013251657809098770078_" class="st0" points="90.2,195.6 101.2,201.8 
								148.3,181.9 137.2,175.8 							"/>
						</g>
						<g>
							<defs>
								<polygon id="SVGID_00000003801150645435497850000006232691378546270612_" points="90.2,195.6 101.2,201.8 148.3,181.9 
									137.2,175.8 								"/>
							</defs>
							<use xlink:href="#SVGID_00000003801150645435497850000006232691378546270612_"  style="overflow:visible;fill:#1D1D1B;"/>
							<clipPath id="SVGID_00000101816458417835999590000005884882827632742041_">
								<use xlink:href="#SVGID_00000003801150645435497850000006232691378546270612_"  style="overflow:visible;"/>
							</clipPath>
							<g style="clip-path:url(#SVGID_00000101816458417835999590000005884882827632742041_);">
								<g>
									<g>
										<g>
											<g>
												
													<rect x="102.1" y="191.1" transform="matrix(0.9216 -0.3882 0.3882 0.9216 -62.8492 72.1943)" class="st0" width="90.3" height="1.1"/>
											</g>
											<g>
												
													<rect x="103.7" y="192" transform="matrix(0.9216 -0.3882 0.3882 0.9216 -63.0737 72.8817)" class="st0" width="90.3" height="1.1"/>
											</g>
											<g>
												
													<rect x="105.7" y="193.1" transform="matrix(0.9216 -0.3882 0.3882 0.9216 -63.3427 73.7496)" class="st0" width="90.3" height="1.1"/>
											</g>
											<g>
												
													<rect x="107.6" y="194.2" transform="matrix(0.9216 -0.3882 0.3882 0.9216 -63.6225 74.5739)" class="st0" width="90.3" height="1.1"/>
											</g>
											<g>
												
													<rect x="109.5" y="195.2" transform="matrix(0.9216 -0.3882 0.3882 0.9216 -63.8584 75.3869)" class="st0" width="90.3" height="1.1"/>
											</g>
											<g>
												
													<rect x="111.4" y="196.3" transform="matrix(0.9216 -0.3882 0.3882 0.9216 -64.1388 76.2108)" class="st0" width="90.3" height="1.1"/>
											</g>
											<g>
												
													<rect x="113.3" y="197.4" transform="matrix(0.9216 -0.3882 0.3882 0.9216 -64.4186 77.0351)" class="st0" width="90.3" height="1.1"/>
											</g>
											<g>
												
													<rect x="115.2" y="198.4" transform="matrix(0.9216 -0.3882 0.3882 0.9216 -64.6554 77.8483)" class="st0" width="90.3" height="1.1"/>
											</g>
										</g>
										<g>
											<g>
												
													<rect x="117.2" y="199.6" transform="matrix(0.9216 -0.3882 0.3882 0.9216 -64.9685 78.7206)" class="st0" width="90.3" height="1.1"/>
											</g>
											<g>
												
													<rect x="118.9" y="200.5" transform="matrix(0.9216 -0.3882 0.3882 0.9216 -65.1815 79.452)" class="st0" width="90.3" height="1.1"/>
											</g>
											<g>
												
													<rect x="120.8" y="201.6" transform="matrix(0.9216 -0.3882 0.3882 0.9216 -65.4622 80.2765)" class="st0" width="90.3" height="1.1"/>
											</g>
											<g>
												
													<rect x="122.7" y="202.6" transform="matrix(0.9216 -0.3882 0.3882 0.9216 -65.6981 81.0895)" class="st0" width="90.3" height="1.1"/>
											</g>
											<g>
												
													<rect x="124.7" y="203.7" transform="matrix(0.9216 -0.3882 0.3882 0.9216 -65.9672 81.9574)" class="st0" width="90.3" height="1.1"/>
											</g>
											<g>
												
													<rect x="126.6" y="204.8" transform="matrix(0.9216 -0.3882 0.3882 0.9216 -66.247 82.7817)" class="st0" width="90.3" height="1.1"/>
											</g>
											<g>
												
													<rect x="128.5" y="205.8" transform="matrix(0.9216 -0.3882 0.3882 0.9216 -66.4829 83.5946)" class="st0" width="90.3" height="1.1"/>
											</g>
											<g>
												
													<rect x="130.4" y="206.9" transform="matrix(0.9216 -0.3882 0.3882 0.9216 -66.7633 84.4186)" class="st0" width="90.3" height="1.1"/>
											</g>
										</g>
										<g>
											<g>
												
													<rect x="132.4" y="208" transform="matrix(0.9216 -0.3882 0.3882 0.9216 -67.0327 85.28)" class="st0" width="90.3" height="1.1"/>
											</g>
											<g>
												
													<rect x="134.1" y="209" transform="matrix(0.9216 -0.3882 0.3882 0.9216 -67.2898 86.0228)" class="st0" width="90.3" height="1.1"/>
											</g>
											<g>
												
													<rect x="136" y="210" transform="matrix(0.9216 -0.3882 0.3882 0.9216 -67.5262 86.8355)" class="st0" width="90.3" height="1.1"/>
											</g>
											<g>
												
													<rect x="137.9" y="211.1" transform="matrix(0.9216 -0.3882 0.3882 0.9216 -67.806 87.6597)" class="st0" width="90.3" height="1.1"/>
											</g>
											<g>
												
													<rect x="139.8" y="212.2" transform="matrix(0.9216 -0.3882 0.3882 0.9216 -68.0864 88.4837)" class="st0" width="90.3" height="1.1"/>
											</g>
											<g>
												
													<rect x="141.7" y="213.2" transform="matrix(0.9216 -0.3882 0.3882 0.9216 -68.3223 89.2966)" class="st0" width="90.3" height="1.1"/>
											</g>
											<g>
												
													<rect x="143.6" y="214.3" transform="matrix(0.9216 -0.3882 0.3882 0.9216 -68.6026 90.1206)" class="st0" width="90.3" height="1.1"/>
											</g>
											<g>
												
													<rect x="145.6" y="215.4" transform="matrix(0.9216 -0.3882 0.3882 0.9216 -68.8712 90.9888)" class="st0" width="90.3" height="1.1"/>
											</g>
										</g>
									</g>
								</g>
								<g>
									<g>
										<g>
											
												<rect x="56.6" y="165.7" transform="matrix(0.9216 -0.3882 0.3882 0.9216 -56.5578 52.5381)" class="st0" width="90.3" height="1.1"/>
										</g>
										<g>
											
												<rect x="58.3" y="166.6" transform="matrix(0.9216 -0.3882 0.3882 0.9216 -56.7709 53.2696)" class="st0" width="90.3" height="1.1"/>
										</g>
										<g>
											
												<rect x="60.2" y="167.7" transform="matrix(0.9216 -0.3882 0.3882 0.9216 -57.0507 54.0939)" class="st0" width="90.3" height="1.1"/>
										</g>
										<g>
											
												<rect x="62.1" y="168.8" transform="matrix(0.9216 -0.3882 0.3882 0.9216 -57.3311 54.9178)" class="st0" width="90.3" height="1.1"/>
										</g>
										<g>
											
												<rect x="64" y="169.8" transform="matrix(0.9216 -0.3882 0.3882 0.9216 -57.567 55.7308)" class="st0" width="90.3" height="1.1"/>
										</g>
										<g>
											
												<rect x="65.9" y="170.9" transform="matrix(0.9216 -0.3882 0.3882 0.9216 -57.8474 56.5547)" class="st0" width="90.3" height="1.1"/>
										</g>
										<g>
											
												<rect x="67.8" y="172" transform="matrix(0.9216 -0.3882 0.3882 0.9216 -58.1275 57.3795)" class="st0" width="90.3" height="1.1"/>
										</g>
										<g>
											<path class="st0" d="M73.5,191.6l-0.4-1c11.1-4.8,22.7-9.6,33.8-14.2c15.4-6.4,31.3-13,46.4-19.6l0.4,1
												c-15.1,6.6-31,13.2-46.4,19.6C96.2,182.1,84.6,186.9,73.5,191.6z"/>
										</g>
									</g>
									<g>
										<g>
											<path class="st0" d="M75.5,192.8l-0.4-1c11.1-4.7,22.6-9.5,33.8-14.2c15.5-6.4,31.5-13.1,46.6-19.7l0.4,1
												c-15.1,6.6-31.1,13.3-46.6,19.7C98.1,183.2,86.6,188,75.5,192.8z"/>
										</g>
										<g>
											<path class="st0" d="M77.2,193.7l-0.4-1c27.4-11.4,54.6-22.8,80.7-34l0.4,1C131.8,170.9,104.6,182.3,77.2,193.7z"/>
										</g>
										<g>
											<path class="st0" d="M79.1,194.8l-0.4-1c28.7-12.1,54.7-23,81.1-34.2l0.4,1C133.8,171.7,107.8,182.6,79.1,194.8z"/>
										</g>
										<g>
											<path class="st0" d="M81,195.8l-0.4-1c26.7-11.4,54.1-23,81.3-34.2l0.4,1C135.1,172.9,107.7,184.4,81,195.8z"/>
										</g>
										<g>
											<path class="st0" d="M82.9,196.9l-0.4-1c11.7-4.9,23.6-9.9,35.1-14.8c15.3-6.4,31.1-13,46.6-19.6l0.4,1
												c-15.4,6.6-31.3,13.2-46.6,19.6C106.5,186.9,94.6,191.9,82.9,196.9z"/>
										</g>
										<g>
											<path class="st0" d="M84.8,198l-0.4-1c27-11.4,54.6-23,81.8-34.5l0.4,1C139.4,175,111.9,186.6,84.8,198z"/>
										</g>
										<g>
											<path class="st0" d="M86.8,199l-0.4-1c27.4-11.7,55-23.3,82-34.5l0.4,1C141.7,175.7,114.1,187.3,86.8,199z"/>
										</g>
										<g>
											<path class="st0" d="M88.7,200.1l-0.4-1c11.5-4.9,23.3-9.8,34.8-14.6c15.6-6.5,31.7-13.3,47.3-20l0.4,1
												c-15.6,6.7-31.8,13.4-47.3,20C112,190.3,100.2,195.2,88.7,200.1z"/>
										</g>
									</g>
									<g>
										<g>
											<path class="st0" d="M90.7,201.2l-0.4-1c16.3-6.8,32.5-13.6,48.2-20.3c10.9-4.6,22.2-9.4,33.5-14.1l0.4,1
												c-11.2,4.7-22.5,9.5-33.5,14.1C123.2,187.6,107,194.5,90.7,201.2z"/>
										</g>
										<g>
											<path class="st0" d="M92.3,202.1l-0.4-1l23-9.7c19.3-8.1,38.7-16.3,58-24.4l0.4,1c-19.3,8.1-38.7,16.3-58,24.4
												L92.3,202.1z"/>
										</g>
										<g>
											<path class="st0" d="M94.2,203.2l-0.4-1c26.8-11.5,54.3-23.1,81.8-34.5l0.4,1C148.6,180.1,121.1,191.7,94.2,203.2z"/>
										</g>
										<g>
											
												<rect x="92.4" y="185.7" transform="matrix(0.9216 -0.3882 0.3882 0.9216 -61.5146 68.0036)" class="st0" width="90.3" height="1.1"/>
										</g>
										<g>
											
												<rect x="94.3" y="186.8" transform="matrix(0.9216 -0.3882 0.3882 0.9216 -61.7945 68.8279)" class="st0" width="90.3" height="1.1"/>
										</g>
										<g>
											
												<rect x="96.2" y="187.8" transform="matrix(0.9216 -0.3882 0.3882 0.9216 -62.0309 69.6405)" class="st0" width="90.3" height="1.1"/>
										</g>
										<g>
											
												<rect x="98.2" y="188.9" transform="matrix(0.9216 -0.3882 0.3882 0.9216 -62.2994 70.5088)" class="st0" width="90.3" height="1.1"/>
										</g>
										<g>
											
												<rect x="100.1" y="190" transform="matrix(0.9216 -0.3882 0.3882 0.9216 -62.5798 71.3327)" class="st0" width="90.3" height="1.1"/>
										</g>
									</g>
								</g>
							</g>
						</g>
					</g>
				</g>
			</g>
			<g>
				<g>
					<g>
						<path id="SVGID_00000044862310625233825590000013612854874333003421_" class="st0" d="M166.7,174c0.1-0.3-0.1-0.6-0.5-0.8
							l-8.5-4.7c-1-0.6-2.2-0.6-3.4-0.1l-8.6,3.6c-0.5,0.2-0.8,0.5-0.9,0.8c-0.1,0.3,0.2,0.6,0.7,0.9l8.5,4.7c0.9,0.5,2,0.6,3.2,0.1
							l8.6-3.6C166.3,174.6,166.6,174.3,166.7,174z"/>
					</g>
					<g>
						<g>
							<path id="SVGID_00000119108502230000360300000010040969051365438613_" class="st0" d="M166.7,174c0.1-0.3-0.1-0.6-0.5-0.8
								l-8.5-4.7c-1-0.6-2.2-0.6-3.4-0.1l-8.6,3.6c-0.5,0.2-0.8,0.5-0.9,0.8c-0.1,0.3,0.2,0.6,0.7,0.9l8.5,4.7
								c0.9,0.5,2,0.6,3.2,0.1l8.6-3.6C166.3,174.6,166.6,174.3,166.7,174z"/>
						</g>
						<g>
							<defs>
								<path id="SVGID_00000003825278047358243870000013452881934708110267_" d="M166.7,174c0.1-0.3-0.1-0.6-0.5-0.8l-8.5-4.7
									c-1-0.6-2.2-0.6-3.4-0.1l-8.6,3.6c-0.5,0.2-0.8,0.5-0.9,0.8c-0.1,0.3,0.2,0.6,0.7,0.9l8.5,4.7c0.9,0.5,2,0.6,3.2,0.1
									l8.6-3.6C166.3,174.6,166.6,174.3,166.7,174z"/>
							</defs>
							<use xlink:href="#SVGID_00000003825278047358243870000013452881934708110267_"  style="overflow:visible;fill:#1D1D1B;"/>
							<clipPath id="SVGID_00000128448988166317970940000006735701250187965861_">
								<use xlink:href="#SVGID_00000003825278047358243870000013452881934708110267_"  style="overflow:visible;"/>
							</clipPath>
							<g style="clip-path:url(#SVGID_00000128448988166317970940000006735701250187965861_);">
								<g>
									<g>
										
											<rect x="74.6" y="180.5" transform="matrix(0.9216 -0.3882 0.3882 0.9216 -60.8921 60.6844)" class="st0" width="90.3" height="1.1"/>
									</g>
									<g>
										
											<rect x="76.3" y="181.4" transform="matrix(0.9216 -0.3882 0.3882 0.9216 -61.1052 61.4159)" class="st0" width="90.3" height="1.1"/>
									</g>
									<g>
										
											<rect x="78.2" y="182.5" transform="matrix(0.9216 -0.3882 0.3882 0.9216 -61.3855 62.2398)" class="st0" width="90.3" height="1.1"/>
									</g>
									<g>
										
											<rect x="80.1" y="183.6" transform="matrix(0.9216 -0.3882 0.3882 0.9216 -61.6654 63.0641)" class="st0" width="90.3" height="1.1"/>
									</g>
									<g>
										
											<rect x="82" y="184.7" transform="matrix(0.9216 -0.3882 0.3882 0.9216 -61.9458 63.8881)" class="st0" width="90.3" height="1.1"/>
									</g>
									<g>
										
											<rect x="84" y="185.7" transform="matrix(0.9216 -0.3882 0.3882 0.9216 -62.1707 64.7455)" class="st0" width="90.3" height="1.1"/>
									</g>
									<g>
										
											<rect x="85.9" y="186.8" transform="matrix(0.9216 -0.3882 0.3882 0.9216 -62.451 65.5695)" class="st0" width="90.3" height="1.1"/>
									</g>
									<g>
										
											<rect x="87.8" y="187.9" transform="matrix(0.9216 -0.3882 0.3882 0.9216 -62.7309 66.3938)" class="st0" width="90.3" height="1.1"/>
									</g>
								</g>
								<g>
									<g>
										
											<rect x="89.8" y="189" transform="matrix(0.9216 -0.3882 0.3882 0.9216 -63 67.2547)" class="st0" width="90.3" height="1.1"/>
									</g>
									<g>
										
											<rect x="91.5" y="189.9" transform="matrix(0.9216 -0.3882 0.3882 0.9216 -63.2134 67.9867)" class="st0" width="90.3" height="1.1"/>
									</g>
									<g>
										
											<rect x="93.4" y="191" transform="matrix(0.9216 -0.3882 0.3882 0.9216 -63.4938 68.8107)" class="st0" width="90.3" height="1.1"/>
									</g>
									<g>
										
											<rect x="95.3" y="192" transform="matrix(0.9216 -0.3882 0.3882 0.9216 -63.7297 69.6236)" class="st0" width="90.3" height="1.1"/>
									</g>
									<g>
										
											<rect x="97.2" y="193.1" transform="matrix(0.9216 -0.3882 0.3882 0.9216 -64.0101 70.4476)" class="st0" width="90.3" height="1.1"/>
									</g>
									<g>
										
											<rect x="99.1" y="194.2" transform="matrix(0.9216 -0.3882 0.3882 0.9216 -64.2899 71.2719)" class="st0" width="90.3" height="1.1"/>
									</g>
									<g>
										
											<rect x="101" y="195.3" transform="matrix(0.9216 -0.3882 0.3882 0.9216 -64.5703 72.0958)" class="st0" width="90.3" height="1.1"/>
									</g>
									<g>
										
											<rect x="102.9" y="196.3" transform="matrix(0.9216 -0.3882 0.3882 0.9216 -64.8062 72.9088)" class="st0" width="90.3" height="1.1"/>
									</g>
								</g>
								<g>
									<g>
										
											<rect x="105" y="197.4" transform="matrix(0.9216 -0.3882 0.3882 0.9216 -65.0643 73.8142)" class="st0" width="90.3" height="1.1"/>
									</g>
									<g>
										
											<rect x="106.6" y="198.4" transform="matrix(0.9216 -0.3882 0.3882 0.9216 -65.3326 74.513)" class="st0" width="90.3" height="1.1"/>
									</g>
									<g>
										
											<rect x="108.5" y="199.4" transform="matrix(0.9216 -0.3882 0.3882 0.9216 -65.569 75.3256)" class="st0" width="90.3" height="1.1"/>
									</g>
									<g>
										
											<rect x="110.4" y="200.5" transform="matrix(0.9216 -0.3882 0.3882 0.9216 -65.8489 76.15)" class="st0" width="90.3" height="1.1"/>
									</g>
									<g>
										
											<rect x="112.4" y="201.6" transform="matrix(0.9216 -0.3882 0.3882 0.9216 -66.1179 77.0179)" class="st0" width="90.3" height="1.1"/>
									</g>
									<g>
										
											<rect x="114.3" y="202.7" transform="matrix(0.9216 -0.3882 0.3882 0.9216 -66.3978 77.8421)" class="st0" width="90.3" height="1.1"/>
									</g>
									<g>
										
											<rect x="116.2" y="203.7" transform="matrix(0.9216 -0.3882 0.3882 0.9216 -66.6342 78.6547)" class="st0" width="90.3" height="1.1"/>
									</g>
									<g>
										
											<rect x="118.1" y="204.8" transform="matrix(0.9216 -0.3882 0.3882 0.9216 -66.914 79.479)" class="st0" width="90.3" height="1.1"/>
									</g>
								</g>
							</g>
						</g>
					</g>
				</g>
			</g>
		</g>
		<g>
			<g>
				<g>
					<path id="SVGID_00000142885253177555251270000016032869015221967790_" class="st0" d="M116.3,206.7c0.4-2.2,3.3-4.4,8.5-6.6
						l51.7-21.8l11,6.2l-49.8,21c-2.5,1.1-4,2-4.4,2.8s0,1.7,1.2,2.6l2.5,1.9l-9.4,3.9l-5.7-3.2
						C117.8,211.2,115.9,208.9,116.3,206.7z"/>
				</g>
				<g>
					<g>
						<path id="SVGID_00000106147115591555296520000005383545615276562084_" class="st0" d="M116.3,206.7c0.4-2.2,3.3-4.4,8.5-6.6
							l51.7-21.8l11,6.2l-49.8,21c-2.5,1.1-4,2-4.4,2.8s0,1.7,1.2,2.6l2.5,1.9l-9.4,3.9l-5.7-3.2
							C117.8,211.2,115.9,208.9,116.3,206.7z"/>
					</g>
					<g>
						<defs>
							<path id="SVGID_00000114052074123775575370000005860222504464091324_" d="M116.3,206.7c0.4-2.2,3.3-4.4,8.5-6.6l51.7-21.8
								l11,6.2l-49.8,21c-2.5,1.1-4,2-4.4,2.8s0,1.7,1.2,2.6l2.5,1.9l-9.4,3.9l-5.7-3.2C117.8,211.2,115.9,208.9,116.3,206.7z"/>
						</defs>
						<use xlink:href="#SVGID_00000114052074123775575370000005860222504464091324_"  style="overflow:visible;fill:#1D1D1B;"/>
						<clipPath id="SVGID_00000100357555406947778480000006344244688029265313_">
							<use xlink:href="#SVGID_00000114052074123775575370000005860222504464091324_"  style="overflow:visible;"/>
						</clipPath>
						<g style="clip-path:url(#SVGID_00000100357555406947778480000006344244688029265313_);">
							<g>
								<g>
									<g>
										<g>
											
												<rect x="104.8" y="190" transform="matrix(0.9216 -0.3882 0.3882 0.9216 -62.2137 73.1569)" class="st0" width="90.3" height="1.1"/>
										</g>
										<g>
											
												<rect x="106.5" y="190.9" transform="matrix(0.9216 -0.3882 0.3882 0.9216 -62.4267 73.8884)" class="st0" width="90.3" height="1.1"/>
										</g>
										<g>
											
												<rect x="108.4" y="192" transform="matrix(0.9216 -0.3882 0.3882 0.9216 -62.7071 74.7123)" class="st0" width="90.3" height="1.1"/>
										</g>
										<g>
											
												<rect x="110.3" y="193" transform="matrix(0.9216 -0.3882 0.3882 0.9216 -62.943 75.5253)" class="st0" width="90.3" height="1.1"/>
										</g>
										<g>
											
												<rect x="112.2" y="194.1" transform="matrix(0.9216 -0.3882 0.3882 0.9216 -63.2228 76.3495)" class="st0" width="90.3" height="1.1"/>
										</g>
										<g>
											
												<rect x="114.1" y="195.2" transform="matrix(0.9216 -0.3882 0.3882 0.9216 -63.5032 77.1735)" class="st0" width="90.3" height="1.1"/>
										</g>
										<g>
											
												<rect x="116" y="196.2" transform="matrix(0.9216 -0.3882 0.3882 0.9216 -63.7391 77.9864)" class="st0" width="90.3" height="1.1"/>
										</g>
										<g>
											
												<rect x="118" y="197.3" transform="matrix(0.9216 -0.3882 0.3882 0.9216 -64.0081 78.8544)" class="st0" width="90.3" height="1.1"/>
										</g>
									</g>
									<g>
										<g>
											
												<rect x="120" y="198.4" transform="matrix(0.9216 -0.3882 0.3882 0.9216 -64.2776 79.7159)" class="st0" width="90.3" height="1.1"/>
										</g>
										<g>
											
												<rect x="121.6" y="199.4" transform="matrix(0.9216 -0.3882 0.3882 0.9216 -64.546 80.4147)" class="st0" width="90.3" height="1.1"/>
										</g>
										<g>
											
												<rect x="123.5" y="200.4" transform="matrix(0.9216 -0.3882 0.3882 0.9216 -64.7824 81.2273)" class="st0" width="90.3" height="1.1"/>
										</g>
										<g>
											
												<rect x="125.5" y="201.5" transform="matrix(0.9216 -0.3882 0.3882 0.9216 -65.0509 82.0955)" class="st0" width="90.3" height="1.1"/>
										</g>
										<g>
											
												<rect x="127.4" y="202.6" transform="matrix(0.9216 -0.3882 0.3882 0.9216 -65.3312 82.9195)" class="st0" width="90.3" height="1.1"/>
										</g>
										<g>
											
												<rect x="129.3" y="203.6" transform="matrix(0.9216 -0.3882 0.3882 0.9216 -65.5671 83.7324)" class="st0" width="90.3" height="1.1"/>
										</g>
										<g>
											
												<rect x="131.2" y="204.7" transform="matrix(0.9216 -0.3882 0.3882 0.9216 -65.847 84.5567)" class="st0" width="90.3" height="1.1"/>
										</g>
										<g>
											
												<rect x="133.1" y="205.8" transform="matrix(0.9216 -0.3882 0.3882 0.9216 -66.1277 85.3812)" class="st0" width="90.3" height="1.1"/>
										</g>
									</g>
									<g>
										<g>
											
												<rect x="135.1" y="206.9" transform="matrix(0.9216 -0.3882 0.3882 0.9216 -66.3968 86.2422)" class="st0" width="90.3" height="1.1"/>
										</g>
										<g>
											
												<rect x="136.8" y="207.8" transform="matrix(0.9216 -0.3882 0.3882 0.9216 -66.6099 86.9736)" class="st0" width="90.3" height="1.1"/>
										</g>
										<g>
											
												<rect x="138.7" y="208.9" transform="matrix(0.9216 -0.3882 0.3882 0.9216 -66.8903 87.7976)" class="st0" width="90.3" height="1.1"/>
										</g>
										<g>
											
												<rect x="140.6" y="210" transform="matrix(0.9216 -0.3882 0.3882 0.9216 -67.1705 88.6224)" class="st0" width="90.3" height="1.1"/>
										</g>
										<g>
											
												<rect x="142.5" y="211" transform="matrix(0.9216 -0.3882 0.3882 0.9216 -67.4069 89.435)" class="st0" width="90.3" height="1.1"/>
										</g>
										<g>
											
												<rect x="144.4" y="212.1" transform="matrix(0.9216 -0.3882 0.3882 0.9216 -67.6867 90.2593)" class="st0" width="90.3" height="1.1"/>
										</g>
										<g>
											
												<rect x="146.4" y="213.2" transform="matrix(0.9216 -0.3882 0.3882 0.9216 -67.9558 91.1272)" class="st0" width="90.3" height="1.1"/>
										</g>
										<g>
											
												<rect x="148.3" y="214.2" transform="matrix(0.9216 -0.3882 0.3882 0.9216 -68.1917 91.9402)" class="st0" width="90.3" height="1.1"/>
										</g>
									</g>
								</g>
							</g>
							<g>
								<g>
									<g>
										
											<rect x="59.3" y="164.6" transform="matrix(0.9216 -0.3882 0.3882 0.9216 -55.9223 53.5008)" class="st0" width="90.3" height="1.1"/>
									</g>
									<g>
										
											<rect x="61" y="165.5" transform="matrix(0.9216 -0.3882 0.3882 0.9216 -56.1353 54.2323)" class="st0" width="90.3" height="1.1"/>
									</g>
									<g>
										
											<rect x="62.9" y="166.6" transform="matrix(0.9216 -0.3882 0.3882 0.9216 -56.4152 55.0566)" class="st0" width="90.3" height="1.1"/>
									</g>
									<g>
										
											<rect x="64.8" y="167.6" transform="matrix(0.9216 -0.3882 0.3882 0.9216 -56.6516 55.8692)" class="st0" width="90.3" height="1.1"/>
									</g>
									<g>
										
											<rect x="66.7" y="168.7" transform="matrix(0.9216 -0.3882 0.3882 0.9216 -56.9314 56.6935)" class="st0" width="90.3" height="1.1"/>
									</g>
									<g>
										
											<rect x="68.6" y="169.8" transform="matrix(0.9216 -0.3882 0.3882 0.9216 -57.2118 57.5174)" class="st0" width="90.3" height="1.1"/>
									</g>
									<g>
										
											<rect x="70.6" y="170.8" transform="matrix(0.9216 -0.3882 0.3882 0.9216 -57.4363 58.3743)" class="st0" width="90.3" height="1.1"/>
									</g>
									<g>
										<path class="st0" d="M76.2,190.5l-0.4-1c13.7-5.9,27.8-11.8,41.4-17.4c11.9-5,24.1-10.1,36.1-15.2l0.4,1
											c-12,5.1-24.2,10.2-36.1,15.2C104,178.7,89.9,184.6,76.2,190.5z"/>
									</g>
								</g>
								<g>
									<g>
										<path class="st0" d="M78.2,191.6l-0.4-1c11.2-4.8,22.9-9.6,34.1-14.3c14.4-6,29.4-12.2,43.5-18.4l0.4,1
											c-14.1,6.2-29.1,12.4-43.5,18.4C101.1,182,89.5,186.8,78.2,191.6z"/>
									</g>
									<g>
										<path class="st0" d="M79.9,192.5l-0.4-1c14.3-6.2,29.3-12.5,43.8-18.5c11.3-4.7,22.9-9.5,34.2-14.3l0.4,1
											c-11.2,4.8-22.9,9.7-34.2,14.4C109.2,180.1,94.2,186.3,79.9,192.5z"/>
									</g>
									<g>
										<path class="st0" d="M81.8,193.6l-0.4-1c17.6-7.2,35-14.6,51.9-21.8c8.7-3.7,17.6-7.5,26.5-11.2l0.4,1
											c-8.9,3.8-17.9,7.6-26.5,11.2C116.8,179,99.4,186.4,81.8,193.6z"/>
									</g>
									<g>
										<path class="st0" d="M83.7,194.7l-0.4-1c11-4.6,22.1-9.3,32.8-13.9c14.9-6.3,30.3-12.9,45.7-19.2l0.4,1
											c-15.4,6.4-30.8,12.9-45.7,19.2C105.8,185.4,94.7,190.1,83.7,194.7z"/>
									</g>
									<g>
										<path class="st0" d="M85.6,195.8l-0.4-1c27.7-11.5,54.2-22.7,78.9-33.3l0.4,1C139.9,173.1,113.3,184.2,85.6,195.8z"/>
									</g>
									<g>
										<path class="st0" d="M87.6,196.8l-0.4-1c17.8-7.3,35.5-14.8,52.6-22.1c8.7-3.7,17.6-7.5,26.5-11.2l0.4,1
											c-8.9,3.8-17.9,7.6-26.5,11.2C123,182,105.4,189.5,87.6,196.8z"/>
									</g>
									<g>
										<path class="st0" d="M89.5,197.9l-0.4-1c11.3-4.7,22.7-9.6,33.8-14.2c14.8-6.3,30.2-12.8,45.5-19.1l0.4,1
											c-15.3,6.3-30.6,12.8-45.5,19.1C112.2,188.3,100.8,193.1,89.5,197.9z"/>
									</g>
									<g>
										<path class="st0" d="M91.4,199l-0.4-1c28.7-11.9,54.7-22.9,79.3-33.4l0.4,1C146.1,176.1,120.1,187,91.4,199z"/>
									</g>
								</g>
								<g>
									<g>
										<path class="st0" d="M93.4,200.1l-0.4-1c14.9-6.2,29.9-12.5,44.3-18.7c11.3-4.8,23-9.7,34.6-14.6l0.4,1
											c-11.6,4.9-23.3,9.8-34.6,14.6C123.3,187.5,108.3,193.9,93.4,200.1z"/>
									</g>
									<g>
										<path class="st0" d="M95.1,201l-0.4-1c20.6-8.7,41.5-17.5,61.8-26l16.5-7l0.4,1l-16.5,7C136.6,183.5,115.7,192.3,95.1,201
											z"/>
									</g>
									<g>
										<path class="st0" d="M97,202.1l-0.4-1c10.7-4.5,21.4-9,31.8-13.4c15.4-6.5,31.3-13.3,47.2-19.9l0.4,1
											c-16,6.6-31.9,13.3-47.2,19.9C118.4,193,107.7,197.6,97,202.1z"/>
									</g>
									<g>
										<path class="st0" d="M98.9,203.1l-0.4-1c15-6.6,30.9-13.2,46.3-19.6c11.3-4.7,22.9-9.5,34.1-14.3l0.4,1
											c-11.2,4.8-22.9,9.6-34.2,14.3C129.8,190,113.9,196.6,98.9,203.1z"/>
									</g>
									<g>
										
											<rect x="97" y="185.6" transform="matrix(0.9216 -0.3882 0.3882 0.9216 -61.1149 69.7793)" class="st0" width="90.3" height="1.1"/>
									</g>
									<g>
										
											<rect x="99" y="186.7" transform="matrix(0.9216 -0.3882 0.3882 0.9216 -61.384 70.6471)" class="st0" width="90.3" height="1.1"/>
									</g>
									<g>
										
											<rect x="100.9" y="187.8" transform="matrix(0.9216 -0.3882 0.3882 0.9216 -61.6638 71.4715)" class="st0" width="90.3" height="1.1"/>
									</g>
									<g>
										
											<rect x="102.8" y="188.8" transform="matrix(0.9216 -0.3882 0.3882 0.9216 -61.9002 72.2841)" class="st0" width="90.3" height="1.1"/>
									</g>
								</g>
							</g>
						</g>
					</g>
				</g>
			</g>
		</g>
		<g>
			<g>
				<g>
					<path id="SVGID_00000168804792495874412490000001358161755356296109_" class="st0" d="M139.7,219.8c0.4-2.2,3.3-4.4,8.5-6.6
						l51.7-21.8l11,6.2l-49.8,21c-2.5,1.1-4,2-4.4,2.8s0,1.7,1.2,2.6l2.5,1.9l-9.4,3.9l-5.7-3.2
						C141.1,224.2,139.2,221.9,139.7,219.8z"/>
				</g>
				<g>
					<g>
						<path id="SVGID_00000001657839510436505620000013672292364598685861_" class="st0" d="M139.7,219.8c0.4-2.2,3.3-4.4,8.5-6.6
							l51.7-21.8l11,6.2l-49.8,21c-2.5,1.1-4,2-4.4,2.8s0,1.7,1.2,2.6l2.5,1.9l-9.4,3.9l-5.7-3.2
							C141.1,224.2,139.2,221.9,139.7,219.8z"/>
					</g>
					<g>
						<defs>
							<path id="SVGID_00000021115973320878714880000009124040709018055847_" d="M139.7,219.8c0.4-2.2,3.3-4.4,8.5-6.6l51.7-21.8
								l11,6.2l-49.8,21c-2.5,1.1-4,2-4.4,2.8s0,1.7,1.2,2.6l2.5,1.9l-9.4,3.9l-5.7-3.2C141.1,224.2,139.2,221.9,139.7,219.8z"/>
						</defs>
						<use xlink:href="#SVGID_00000021115973320878714880000009124040709018055847_"  style="overflow:visible;fill:#1D1D1B;"/>
						<clipPath id="SVGID_00000071548052009554016840000007491016272650592406_">
							<use xlink:href="#SVGID_00000021115973320878714880000009124040709018055847_"  style="overflow:visible;"/>
						</clipPath>
						<g style="clip-path:url(#SVGID_00000071548052009554016840000007491016272650592406_);">
							<g>
								<g>
									<g>
										<g>
											
												<rect x="105.2" y="190.8" transform="matrix(0.9216 -0.3882 0.3882 0.9216 -62.492 73.3728)" class="st0" width="90.3" height="1.1"/>
										</g>
										<g>
											
												<rect x="106.9" y="191.7" transform="matrix(0.9216 -0.3882 0.3882 0.9216 -62.7051 74.1042)" class="st0" width="90.3" height="1.1"/>
										</g>
										<g>
											
												<rect x="108.8" y="192.8" transform="matrix(0.9216 -0.3882 0.3882 0.9216 -62.9854 74.9282)" class="st0" width="90.3" height="1.1"/>
										</g>
										<g>
											
												<rect x="110.7" y="193.9" transform="matrix(0.9216 -0.3882 0.3882 0.9216 -63.2653 75.7524)" class="st0" width="90.3" height="1.1"/>
										</g>
										<g>
											
												<rect x="112.6" y="194.9" transform="matrix(0.9216 -0.3882 0.3882 0.9216 -63.5017 76.5651)" class="st0" width="90.3" height="1.1"/>
										</g>
										<g>
											
												<rect x="114.5" y="196" transform="matrix(0.9216 -0.3882 0.3882 0.9216 -63.7815 77.3894)" class="st0" width="90.3" height="1.1"/>
										</g>
										<g>
											
												<rect x="116.5" y="197.1" transform="matrix(0.9216 -0.3882 0.3882 0.9216 -64.0505 78.2573)" class="st0" width="90.3" height="1.1"/>
										</g>
										<g>
											
												<rect x="118.4" y="198.1" transform="matrix(0.9216 -0.3882 0.3882 0.9216 -64.2864 79.0702)" class="st0" width="90.3" height="1.1"/>
										</g>
									</g>
									<g>
										<g>
											
												<rect x="120.4" y="199.3" transform="matrix(0.9216 -0.3882 0.3882 0.9216 -64.5999 79.9431)" class="st0" width="90.3" height="1.1"/>
										</g>
										<g>
											
												<rect x="122" y="200.2" transform="matrix(0.9216 -0.3882 0.3882 0.9216 -64.8243 80.6306)" class="st0" width="90.3" height="1.1"/>
										</g>
										<g>
											
												<rect x="124" y="201.3" transform="matrix(0.9216 -0.3882 0.3882 0.9216 -65.0933 81.4984)" class="st0" width="90.3" height="1.1"/>
										</g>
										<g>
											
												<rect x="125.9" y="202.3" transform="matrix(0.9216 -0.3882 0.3882 0.9216 -65.3292 82.3114)" class="st0" width="90.3" height="1.1"/>
										</g>
										<g>
											
												<rect x="127.8" y="203.4" transform="matrix(0.9216 -0.3882 0.3882 0.9216 -65.6096 83.1353)" class="st0" width="90.3" height="1.1"/>
										</g>
										<g>
											
												<rect x="129.7" y="204.5" transform="matrix(0.9216 -0.3882 0.3882 0.9216 -65.8894 83.9596)" class="st0" width="90.3" height="1.1"/>
										</g>
										<g>
											
												<rect x="131.6" y="205.5" transform="matrix(0.9216 -0.3882 0.3882 0.9216 -66.1262 84.7728)" class="st0" width="90.3" height="1.1"/>
										</g>
										<g>
											
												<rect x="133.5" y="206.6" transform="matrix(0.9216 -0.3882 0.3882 0.9216 -66.406 85.5971)" class="st0" width="90.3" height="1.1"/>
										</g>
									</g>
									<g>
										<g>
											
												<rect x="135.5" y="207.7" transform="matrix(0.9216 -0.3882 0.3882 0.9216 -66.6752 86.4581)" class="st0" width="90.3" height="1.1"/>
										</g>
										<g>
											
												<rect x="137.2" y="208.6" transform="matrix(0.9216 -0.3882 0.3882 0.9216 -66.8891 87.1897)" class="st0" width="90.3" height="1.1"/>
										</g>
										<g>
											
												<rect x="139.1" y="209.7" transform="matrix(0.9216 -0.3882 0.3882 0.9216 -67.1689 88.014)" class="st0" width="90.3" height="1.1"/>
										</g>
										<g>
											
												<rect x="141" y="210.8" transform="matrix(0.9216 -0.3882 0.3882 0.9216 -67.4488 88.8383)" class="st0" width="90.3" height="1.1"/>
										</g>
										<g>
											
												<rect x="143" y="211.9" transform="matrix(0.9216 -0.3882 0.3882 0.9216 -67.7178 89.7062)" class="st0" width="90.3" height="1.1"/>
										</g>
										<g>
											
												<rect x="144.9" y="212.9" transform="matrix(0.9216 -0.3882 0.3882 0.9216 -67.9537 90.5191)" class="st0" width="90.3" height="1.1"/>
										</g>
										<g>
											
												<rect x="146.8" y="214" transform="matrix(0.9216 -0.3882 0.3882 0.9216 -68.234 91.3431)" class="st0" width="90.3" height="1.1"/>
										</g>
										<g>
											
												<rect x="148.7" y="215.1" transform="matrix(0.9216 -0.3882 0.3882 0.9216 -68.5139 92.1674)" class="st0" width="90.3" height="1.1"/>
										</g>
									</g>
								</g>
							</g>
							<g>
								<g>
									<g>
										
											<rect x="59.7" y="165.4" transform="matrix(0.9216 -0.3882 0.3882 0.9216 -56.2006 53.7167)" class="st0" width="90.3" height="1.1"/>
									</g>
									<g>
										
											<rect x="61.4" y="166.3" transform="matrix(0.9216 -0.3882 0.3882 0.9216 -56.4137 54.4481)" class="st0" width="90.3" height="1.1"/>
									</g>
									<g>
										
											<rect x="63.3" y="167.4" transform="matrix(0.9216 -0.3882 0.3882 0.9216 -56.694 55.2721)" class="st0" width="90.3" height="1.1"/>
									</g>
									<g>
										
											<rect x="65.2" y="168.5" transform="matrix(0.9216 -0.3882 0.3882 0.9216 -56.9739 56.0964)" class="st0" width="90.3" height="1.1"/>
									</g>
									<g>
										
											<rect x="67.2" y="169.5" transform="matrix(0.9216 -0.3882 0.3882 0.9216 -57.1989 56.9529)" class="st0" width="90.3" height="1.1"/>
									</g>
									<g>
										
											<rect x="69.1" y="170.6" transform="matrix(0.9216 -0.3882 0.3882 0.9216 -57.4788 57.7772)" class="st0" width="90.3" height="1.1"/>
									</g>
									<g>
										<path class="st0" d="M74.7,190.2l-0.4-1c12.7-5.6,26.1-11.1,39.1-16.5c12.9-5.3,26.2-10.8,38.9-16.4l0.4,1
											c-12.6,5.5-26,11-38.9,16.4C100.8,179.1,87.4,184.7,74.7,190.2z"/>
									</g>
									<g>
										<path class="st0" d="M76.7,191.3l-0.4-1c26.2-11.1,52.9-22.4,78-32.9l0.4,1C129.6,169,102.8,180.2,76.7,191.3z"/>
									</g>
								</g>
								<g>
									<g>
										<path class="st0" d="M78.7,192.4l-0.4-1c27-11.4,54.4-22.9,78.5-33.1l0.4,1C133,169.5,105.6,181,78.7,192.4z"/>
									</g>
									<g>
										<path class="st0" d="M80.3,193.4l-0.4-1l16.3-6.9c20.5-8.6,41.7-17.6,62.5-26.3l0.4,1c-20.8,8.8-42,17.7-62.5,26.3
											L80.3,193.4z"/>
									</g>
									<g>
										<path class="st0" d="M82.2,194.4l-0.4-1c24.8-10.6,51.3-21.8,79-33.3l0.4,1C133.6,172.6,107,183.8,82.2,194.4z"/>
									</g>
									<g>
										<path class="st0" d="M84.1,195.5l-0.4-1c15.5-6.4,30.9-12.9,45.8-19.3c11-4.7,22.4-9.5,33.6-14.2l0.4,1
											c-11.2,4.7-22.6,9.5-33.6,14.2C115,182.6,99.6,189.1,84.1,195.5z"/>
									</g>
									<g>
										<path class="st0" d="M86.1,196.6l-0.4-1l5.8-2.4c24.3-10.2,49.4-20.8,74-31.2l0.4,1c-24.6,10.4-49.7,21-74,31.2
											L86.1,196.6z"/>
									</g>
									<g>
										<path class="st0" d="M88,197.6l-0.4-1c25.3-10.9,51.5-21.9,80-33.7l0.4,1C139.5,175.8,113.3,186.8,88,197.6z"/>
									</g>
									<g>
										<path class="st0" d="M89.9,198.7l-0.4-1c15.8-6.5,31.6-13.2,46.8-19.7c10.9-4.6,22.1-9.4,33.3-14.1l0.4,1
											c-11.2,4.7-22.4,9.4-33.3,14.1C121.5,185.5,105.7,192.2,89.9,198.7z"/>
									</g>
									<g>
										<path class="st0" d="M91.8,199.8l-0.4-1c26.2-11,53.2-22.4,79.9-33.7l0.4,1C145,177.4,118,188.8,91.8,199.8z"/>
									</g>
								</g>
								<g>
									<g>
										<path class="st0" d="M93.8,200.9l-0.4-1c23.5-9.9,51.2-21.5,78.9-33.2l0.4,1C145,179.4,117.3,191.1,93.8,200.9z"/>
									</g>
									<g>
										<path class="st0" d="M95.5,201.8l-0.4-1c11.9-5,23.8-10,35.3-14.9c14.3-6.1,29.1-12.3,43.9-18.5l0.4,1
											c-14.8,6.1-29.6,12.4-43.9,18.5C119.3,191.8,107.4,196.9,95.5,201.8z"/>
									</g>
									<g>
										<path class="st0" d="M97.4,202.9l-0.4-1c27.7-11.5,54.7-22.9,80.2-33.8l0.4,1C152.1,180,125.1,191.4,97.4,202.9z"/>
									</g>
									<g>
										
											<rect x="95.6" y="185.4" transform="matrix(0.9216 -0.3882 0.3882 0.9216 -61.146 69.2261)" class="st0" width="90.3" height="1.1"/>
									</g>
									<g>
										
											<rect x="97.5" y="186.5" transform="matrix(0.9216 -0.3882 0.3882 0.9216 -61.4264 70.0501)" class="st0" width="90.3" height="1.1"/>
									</g>
									<g>
										
											<rect x="99.4" y="187.5" transform="matrix(0.9216 -0.3882 0.3882 0.9216 -61.6623 70.863)" class="st0" width="90.3" height="1.1"/>
									</g>
									<g>
										
											<rect x="101.3" y="188.6" transform="matrix(0.9216 -0.3882 0.3882 0.9216 -61.9426 71.687)" class="st0" width="90.3" height="1.1"/>
									</g>
									<g>
										
											<rect x="103.2" y="189.7" transform="matrix(0.9216 -0.3882 0.3882 0.9216 -62.2225 72.5113)" class="st0" width="90.3" height="1.1"/>
									</g>
								</g>
							</g>
						</g>
					</g>
				</g>
			</g>
		</g>
		<g>
			<g>
				<g>
					<path id="SVGID_00000108292903771051939910000015087444332469205401_" class="st0" d="M162.3,235.8c-2.6-1.8-4.4-3.3-5.4-4.5
						l7.6-3.2l17.7,9.9c1.6,0.9,3.1,1.5,4.3,1.6c1.2,0.2,2.6-0.1,4.1-0.7l1.5-0.6c1.2-0.5,1.8-1.1,1.8-1.7c-0.1-0.6-0.9-1.4-2.6-2.4
						l-6.3-3.5c-3.7-2.1-5.7-4.2-5.8-6.2c-0.2-2.1,2-4.1,6.5-5.9l2.7-1.1c4.7-2,9.3-2.8,14-2.4s9.9,2.2,15.9,5.6
						c2.4,1.4,4.9,2.9,7.3,4.7c2.4,1.8,4.1,3.2,5,4.3l-7.6,3.2l-16.8-9.4c-1.5-0.9-2.9-1.4-4.2-1.5s-2.6,0.1-4.1,0.7l-1.4,0.6
						c-1.5,0.6-2.1,1.2-1.8,1.9c0.2,0.6,1.2,1.4,3,2.4l6.4,3.6c4,2.2,5.9,4.3,5.6,6.3s-2.3,3.8-6.3,5.5l-4.2,1.8
						c-4.6,1.9-9.2,2.6-13.8,1.9c-4.6-0.7-9.6-2.6-15.1-5.6C167.6,239.4,164.9,237.7,162.3,235.8z"/>
				</g>
				<g>
					<g>
						<path id="SVGID_00000105398923489614192280000008193104226508070786_" class="st0" d="M162.3,235.8c-2.6-1.8-4.4-3.3-5.4-4.5
							l7.6-3.2l17.7,9.9c1.6,0.9,3.1,1.5,4.3,1.6c1.2,0.2,2.6-0.1,4.1-0.7l1.5-0.6c1.2-0.5,1.8-1.1,1.8-1.7
							c-0.1-0.6-0.9-1.4-2.6-2.4l-6.3-3.5c-3.7-2.1-5.7-4.2-5.8-6.2c-0.2-2.1,2-4.1,6.5-5.9l2.7-1.1c4.7-2,9.3-2.8,14-2.4
							s9.9,2.2,15.9,5.6c2.4,1.4,4.9,2.9,7.3,4.7c2.4,1.8,4.1,3.2,5,4.3l-7.6,3.2l-16.8-9.4c-1.5-0.9-2.9-1.4-4.2-1.5
							s-2.6,0.1-4.1,0.7l-1.4,0.6c-1.5,0.6-2.1,1.2-1.8,1.9c0.2,0.6,1.2,1.4,3,2.4l6.4,3.6c4,2.2,5.9,4.3,5.6,6.3s-2.3,3.8-6.3,5.5
							l-4.2,1.8c-4.6,1.9-9.2,2.6-13.8,1.9c-4.6-0.7-9.6-2.6-15.1-5.6C167.6,239.4,164.9,237.7,162.3,235.8z"/>
					</g>
					<g>
						<defs>
							<path id="SVGID_00000028315877667649057500000016884391032446147205_" d="M162.3,235.8c-2.6-1.8-4.4-3.3-5.4-4.5l7.6-3.2
								l17.7,9.9c1.6,0.9,3.1,1.5,4.3,1.6c1.2,0.2,2.6-0.1,4.1-0.7l1.5-0.6c1.2-0.5,1.8-1.1,1.8-1.7c-0.1-0.6-0.9-1.4-2.6-2.4
								l-6.3-3.5c-3.7-2.1-5.7-4.2-5.8-6.2c-0.2-2.1,2-4.1,6.5-5.9l2.7-1.1c4.7-2,9.3-2.8,14-2.4s9.9,2.2,15.9,5.6
								c2.4,1.4,4.9,2.9,7.3,4.7c2.4,1.8,4.1,3.2,5,4.3l-7.6,3.2l-16.8-9.4c-1.5-0.9-2.9-1.4-4.2-1.5s-2.6,0.1-4.1,0.7l-1.4,0.6
								c-1.5,0.6-2.1,1.2-1.8,1.9c0.2,0.6,1.2,1.4,3,2.4l6.4,3.6c4,2.2,5.9,4.3,5.6,6.3s-2.3,3.8-6.3,5.5l-4.2,1.8
								c-4.6,1.9-9.2,2.6-13.8,1.9c-4.6-0.7-9.6-2.6-15.1-5.6C167.6,239.4,164.9,237.7,162.3,235.8z"/>
						</defs>
						<use xlink:href="#SVGID_00000028315877667649057500000016884391032446147205_"  style="overflow:visible;fill:#1D1D1B;"/>
						<clipPath id="SVGID_00000020366942052067066770000017014180909018871466_">
							<use xlink:href="#SVGID_00000028315877667649057500000016884391032446147205_"  style="overflow:visible;"/>
						</clipPath>
						<g style="clip-path:url(#SVGID_00000020366942052067066770000017014180909018871466_);">
							<g>
								<g>
									<g>
										<g>
											
												<rect x="141" y="218.8" transform="matrix(0.9216 -0.3882 0.3882 0.9216 -70.5545 89.4679)" class="st0" width="90.3" height="1.1"/>
										</g>
										<g>
											
												<rect x="142.7" y="219.7" transform="matrix(0.9216 -0.3882 0.3882 0.9216 -70.7676 90.1993)" class="st0" width="90.3" height="1.1"/>
										</g>
										<g>
											
												<rect x="144.6" y="220.8" transform="matrix(0.9216 -0.3882 0.3882 0.9216 -71.048 91.0233)" class="st0" width="90.3" height="1.1"/>
										</g>
										<g>
											
												<rect x="146.5" y="221.8" transform="matrix(0.9216 -0.3882 0.3882 0.9216 -71.2838 91.8362)" class="st0" width="90.3" height="1.1"/>
										</g>
										<g>
											
												<rect x="148.4" y="222.9" transform="matrix(0.9216 -0.3882 0.3882 0.9216 -71.5642 92.6602)" class="st0" width="90.3" height="1.1"/>
										</g>
										<g>
											
												<rect x="150.3" y="224" transform="matrix(0.9216 -0.3882 0.3882 0.9216 -71.8441 93.4845)" class="st0" width="90.3" height="1.1"/>
										</g>
										<g>
											
												<rect x="152.2" y="225" transform="matrix(0.9216 -0.3882 0.3882 0.9216 -72.0805 94.2971)" class="st0" width="90.3" height="1.1"/>
										</g>
										<g>
											
												<rect x="154.2" y="226.1" transform="matrix(0.9216 -0.3882 0.3882 0.9216 -72.3493 95.1659)" class="st0" width="90.3" height="1.1"/>
										</g>
									</g>
									<g>
										<g>
											
												<rect x="156.2" y="227.2" transform="matrix(0.9216 -0.3882 0.3882 0.9216 -72.6184 96.0269)" class="st0" width="90.3" height="1.1"/>
										</g>
										<g>
											
												<rect x="157.8" y="228.2" transform="matrix(0.9216 -0.3882 0.3882 0.9216 -72.8868 96.7257)" class="st0" width="90.3" height="1.1"/>
										</g>
										<g>
											
												<rect x="159.7" y="229.2" transform="matrix(0.9216 -0.3882 0.3882 0.9216 -73.1236 97.5388)" class="st0" width="90.3" height="1.1"/>
										</g>
										<g>
											
												<rect x="161.7" y="230.3" transform="matrix(0.9216 -0.3882 0.3882 0.9216 -73.3921 98.4071)" class="st0" width="90.3" height="1.1"/>
										</g>
										<g>
											
												<rect x="163.6" y="231.4" transform="matrix(0.9216 -0.3882 0.3882 0.9216 -73.6725 99.231)" class="st0" width="90.3" height="1.1"/>
										</g>
										<g>
											
												<rect x="165.5" y="232.4" transform="matrix(0.9216 -0.3882 0.3882 0.9216 -73.9084 100.044)" class="st0" width="90.3" height="1.1"/>
										</g>
										<g>
											
												<rect x="167.4" y="233.5" transform="matrix(0.9216 -0.3882 0.3882 0.9216 -74.1887 100.8679)" class="st0" width="90.3" height="1.1"/>
										</g>
										<g>
											
												<rect x="169.3" y="234.6" transform="matrix(0.9216 -0.3882 0.3882 0.9216 -74.4686 101.6922)" class="st0" width="90.3" height="1.1"/>
										</g>
									</g>
									<g>
										<g>
											
												<rect x="171.3" y="235.7" transform="matrix(0.9216 -0.3882 0.3882 0.9216 -74.738 102.5537)" class="st0" width="90.3" height="1.1"/>
										</g>
										<g>
											
												<rect x="173" y="236.6" transform="matrix(0.9216 -0.3882 0.3882 0.9216 -74.9511 103.2852)" class="st0" width="90.3" height="1.1"/>
										</g>
										<g>
											
												<rect x="174.9" y="237.7" transform="matrix(0.9216 -0.3882 0.3882 0.9216 -75.2315 104.1091)" class="st0" width="90.3" height="1.1"/>
										</g>
										<g>
											
												<rect x="176.8" y="238.8" transform="matrix(0.9216 -0.3882 0.3882 0.9216 -75.5113 104.9334)" class="st0" width="90.3" height="1.1"/>
										</g>
										<g>
											
												<rect x="178.7" y="239.8" transform="matrix(0.9216 -0.3882 0.3882 0.9216 -75.7477 105.746)" class="st0" width="90.3" height="1.1"/>
										</g>
										<g>
											
												<rect x="180.6" y="240.9" transform="matrix(0.9216 -0.3882 0.3882 0.9216 -76.0276 106.5703)" class="st0" width="90.3" height="1.1"/>
										</g>
										<g>
											
												<rect x="182.6" y="242" transform="matrix(0.9216 -0.3882 0.3882 0.9216 -76.2966 107.4382)" class="st0" width="90.3" height="1.1"/>
										</g>
										<g>
											
												<rect x="184.5" y="243" transform="matrix(0.9216 -0.3882 0.3882 0.9216 -76.5325 108.2512)" class="st0" width="90.3" height="1.1"/>
										</g>
									</g>
								</g>
							</g>
							<g>
								<g>
									<g>
										
											<rect x="95.5" y="193.4" transform="matrix(0.9216 -0.3882 0.3882 0.9216 -64.2631 69.8118)" class="st0" width="90.3" height="1.1"/>
									</g>
									<g>
										
											<rect x="97.2" y="194.3" transform="matrix(0.9216 -0.3882 0.3882 0.9216 -64.4762 70.5433)" class="st0" width="90.3" height="1.1"/>
									</g>
									<g>
										
											<rect x="99.1" y="195.4" transform="matrix(0.9216 -0.3882 0.3882 0.9216 -64.7565 71.3672)" class="st0" width="90.3" height="1.1"/>
									</g>
									<g>
										
											<rect x="101" y="196.4" transform="matrix(0.9216 -0.3882 0.3882 0.9216 -64.9924 72.1802)" class="st0" width="90.3" height="1.1"/>
									</g>
									<g>
										
											<rect x="102.9" y="197.5" transform="matrix(0.9216 -0.3882 0.3882 0.9216 -65.2728 73.0041)" class="st0" width="90.3" height="1.1"/>
									</g>
									<g>
										
											<rect x="104.8" y="198.6" transform="matrix(0.9216 -0.3882 0.3882 0.9216 -65.5526 73.8284)" class="st0" width="90.3" height="1.1"/>
									</g>
									<g>
										
											<rect x="106.8" y="199.6" transform="matrix(0.9216 -0.3882 0.3882 0.9216 -65.7781 74.6855)" class="st0" width="90.3" height="1.1"/>
									</g>
									<g>
										
											<rect x="108.7" y="200.7" transform="matrix(0.9216 -0.3882 0.3882 0.9216 -66.0579 75.5098)" class="st0" width="90.3" height="1.1"/>
									</g>
								</g>
								<g>
									<g>
										
											<rect x="110.7" y="201.8" transform="matrix(0.9216 -0.3882 0.3882 0.9216 -66.327 76.3708)" class="st0" width="90.3" height="1.1"/>
									</g>
									<g>
										
											<rect x="112.3" y="202.8" transform="matrix(0.9216 -0.3882 0.3882 0.9216 -66.5954 77.0696)" class="st0" width="90.3" height="1.1"/>
									</g>
									<g>
										
											<rect x="114.3" y="203.8" transform="matrix(0.9216 -0.3882 0.3882 0.9216 -66.8208 77.9267)" class="st0" width="90.3" height="1.1"/>
									</g>
									<g>
										
											<rect x="116.2" y="204.9" transform="matrix(0.9216 -0.3882 0.3882 0.9216 -67.1007 78.7509)" class="st0" width="90.3" height="1.1"/>
									</g>
									<g>
										
											<rect x="118.1" y="206" transform="matrix(0.9216 -0.3882 0.3882 0.9216 -67.3811 79.5749)" class="st0" width="90.3" height="1.1"/>
									</g>
									<g>
										
											<rect x="120" y="207" transform="matrix(0.9216 -0.3882 0.3882 0.9216 -67.617 80.3878)" class="st0" width="90.3" height="1.1"/>
									</g>
									<g>
										
											<rect x="121.9" y="208.1" transform="matrix(0.9216 -0.3882 0.3882 0.9216 -67.8973 81.2118)" class="st0" width="90.3" height="1.1"/>
									</g>
									<g>
										
											<rect x="123.8" y="209.2" transform="matrix(0.9216 -0.3882 0.3882 0.9216 -68.1772 82.0361)" class="st0" width="90.3" height="1.1"/>
									</g>
								</g>
								<g>
									<g>
										
											<rect x="125.8" y="210.3" transform="matrix(0.9216 -0.3882 0.3882 0.9216 -68.4466 82.8976)" class="st0" width="90.3" height="1.1"/>
									</g>
									<g>
										
											<rect x="127.5" y="211.2" transform="matrix(0.9216 -0.3882 0.3882 0.9216 -68.6597 83.6291)" class="st0" width="90.3" height="1.1"/>
									</g>
									<g>
										
											<rect x="129.4" y="212.3" transform="matrix(0.9216 -0.3882 0.3882 0.9216 -68.9401 84.453)" class="st0" width="90.3" height="1.1"/>
									</g>
									<g>
										
											<rect x="131.3" y="213.4" transform="matrix(0.9216 -0.3882 0.3882 0.9216 -69.2199 85.2773)" class="st0" width="90.3" height="1.1"/>
									</g>
									<g>
										
											<rect x="133.3" y="214.4" transform="matrix(0.9216 -0.3882 0.3882 0.9216 -69.445 86.1339)" class="st0" width="90.3" height="1.1"/>
									</g>
									<g>
										
											<rect x="135.2" y="215.5" transform="matrix(0.9216 -0.3882 0.3882 0.9216 -69.7248 86.9582)" class="st0" width="90.3" height="1.1"/>
									</g>
									<g>
										
											<rect x="137.1" y="216.6" transform="matrix(0.9216 -0.3882 0.3882 0.9216 -70.0052 87.7821)" class="st0" width="90.3" height="1.1"/>
									</g>
									<g>
										
											<rect x="139" y="217.6" transform="matrix(0.9216 -0.3882 0.3882 0.9216 -70.2411 88.5951)" class="st0" width="90.3" height="1.1"/>
									</g>
								</g>
							</g>
						</g>
					</g>
				</g>
			</g>
		</g>
	</g>
	<g>
		<path class="st0" d="M208.1,72.1c-1,0-2.1-0.2-3.2-0.7s-2.5-1-4-1.8c-1.6-0.8-2.7-1.6-3.5-2.2s-1.2-1.3-1.1-1.9
			c0-0.6,0.5-1.2,1.5-1.8c0.6-0.4,1.3-0.7,1.9-1s1.3-0.5,2.1-0.8l2.1,1.1c-0.4,0.2-0.9,0.4-1.5,0.7s-1.2,0.6-1.8,1
			c-0.6,0.3-0.9,0.7-0.9,1s0.2,0.7,0.8,1.1c0.5,0.4,1.4,0.9,2.5,1.6c1.2,0.6,2.1,1.1,2.9,1.3c0.7,0.3,1.3,0.4,1.8,0.4s1-0.2,1.4-0.4
			c0.3-0.2,0.6-0.4,0.9-0.7c0.3-0.2,0.5-0.5,0.6-0.7l-2.6-1.4l-1.8,1.1l-2.1-1.2c0.2-0.2,0.5-0.4,0.9-0.7c0.4-0.3,0.8-0.6,1.2-0.8
			c0.6-0.3,1.1-0.6,1.5-0.8l7.6,4.1l-1.5,0.9l-1.2-0.3c-0.1,0.3-0.2,0.7-0.5,1.1s-0.7,0.8-1.2,1.1C210,71.8,209.1,72.1,208.1,72.1z"
			/>
		<path class="st0" d="M207,62.3l1.6-0.9l1.9,0.5c-0.2-0.5-0.3-0.9-0.3-1.2c0-0.4,0.3-0.7,0.7-0.9c0.2-0.1,0.5-0.2,0.7-0.3l2.8,1.5
			c-0.5,0.2-0.9,0.4-0.9,0.5c-0.4,0.2-0.6,0.5-0.8,0.8s-0.1,0.6,0,0.9l6.1,3.3l-2,1.2L207,62.3z"/>
		<path class="st0" d="M221.9,63.8c-0.8,0-1.6-0.3-2.3-0.7l-0.9-0.5c-0.8-0.4-1.2-0.9-1.2-1.4c-0.1-0.5,0.3-1,1.1-1.5l1.9-1.1
			l-0.7-0.4c-0.3-0.2-0.6-0.3-0.9-0.3c-0.3,0-0.6,0-0.9,0.1s-0.7,0.3-1.1,0.5l-2.2,1.3l-1.6-0.8c0.5-0.7,1.3-1.4,2.4-2.1
			c1-0.6,1.9-0.9,2.9-0.9s2,0.3,3.2,0.9l6.6,3.6l-1.6,1l-1.4-0.4c0,0.1,0,0.3-0.1,0.6c-0.1,0.2-0.2,0.5-0.4,0.8s-0.5,0.5-0.9,0.8
			C223.4,63.7,222.7,63.8,221.9,63.8z M223.7,61.1c0.2-0.3,0.3-0.4,0.3-0.5l-2.3-1.2l-1.1,0.8c-0.6,0.5-0.6,0.9,0.2,1.3l0.4,0.2
			c0.7,0.4,1.3,0.4,1.9,0C223.3,61.6,223.5,61.4,223.7,61.1z"/>
		<path class="st0" d="M219.9,54.4l1.7-1l1.2,0.3c0-0.8,0.3-1.4,0.9-1.8c0.9-0.5,2-0.7,3.3-0.5s2.8,0.8,4.4,1.6
			c1.7,0.9,2.7,1.7,3.2,2.4c0.4,0.7,0.2,1.3-0.8,1.9c-0.3,0.2-0.8,0.4-1.2,0.5s-0.9,0.3-1.4,0.3l4.8,2.6l-2,1.2L219.9,54.4z
			 M231.3,55.6c-0.2-0.4-0.8-0.8-1.8-1.4s-1.9-0.9-2.6-1c-0.6-0.1-1.2,0-1.6,0.2c-0.4,0.3-0.7,0.7-0.8,1.1l4.6,2.5
			c0.3,0,0.6-0.1,1-0.2c0.3-0.1,0.6-0.2,0.9-0.4C231.4,56.3,231.5,56,231.3,55.6z"/>
		<path class="st0" d="M223.8,47.3l2-1.2l5.1,2.8c0-0.3,0-0.7,0.2-1.1s0.5-0.7,0.9-1c1.5-0.9,3.4-0.7,5.7,0.5l6.5,3.5l-2,1.2
			l-6.1-3.3c-0.4-0.2-0.9-0.4-1.3-0.4c-0.4,0-0.8,0.1-1.1,0.3c-0.5,0.3-0.8,0.7-0.8,1.3l6.8,3.7l-2,1.2L223.8,47.3z"/>
		<path class="st0" d="M234.5,43.8c-0.1,0-0.2,0-0.3-0.1l-1.8-1c-0.2-0.1-0.3-0.3-0.1-0.4l1.6-0.9c0.1,0,0.2-0.1,0.3-0.1
			s0.2,0,0.3,0.1l1.8,1c0.2,0.1,0.3,0.2,0.1,0.3l-1.6,0.9C234.7,43.8,234.6,43.8,234.5,43.8z M236,44.6l2-1.2l9.8,5.3l-2,1.2
			L236,44.6z"/>
		<path class="st0" d="M248.9,46.8c-1.3-0.1-2.8-0.6-4.6-1.6c-1.3-0.7-2.2-1.3-2.7-1.9c-0.5-0.5-0.7-1-0.5-1.5s0.6-0.9,1.3-1.3
			c0.9-0.5,1.9-1,3-1.3L247,40l-1.9,1.2c-0.4,0.3-0.7,0.5-0.8,0.8c-0.1,0.2,0.1,0.5,0.4,0.8c0.3,0.3,0.9,0.7,1.7,1.1
			c0.8,0.4,1.5,0.7,2,0.9s1,0.2,1.4,0.1c0.4-0.1,0.8-0.2,1.3-0.5l2-1.2l1.5,0.8c-0.2,0.3-0.5,0.6-0.9,1s-0.8,0.7-1.3,1
			C251.3,46.7,250.1,46.9,248.9,46.8z"/>
	</g>
	<g>
		<path class="st0" d="M217.5,78.3l2.1-1.3l11.1,4.2l-7.6-6.3l1.9-1.1l11.4,4l-7.9-6.1l2.1-1.3l11.1,8.8l-2.1,1.2l-11.5-3.9l7.4,6.4
			l-2.1,1.2L217.5,78.3z"/>
		<path class="st0" d="M245.2,76.5c-0.8,0.1-1.6,0.1-2.5-0.2c-0.9-0.3-2-0.7-3.3-1.4c-1.3-0.7-2.3-1.3-2.8-1.8s-0.7-1-0.5-1.4
			s0.7-0.9,1.5-1.4c0.7-0.4,1.4-0.8,2-0.9s1.3-0.2,1.9,0c0.7,0.1,1.5,0.5,2.4,0.9c0.9,0.5,1.4,1,1.4,1.5s-0.4,0.9-1.2,1.4l-1.8,1.1
			c0.5,0.3,1,0.4,1.4,0.6c0.4,0.1,0.8,0.1,1.1,0c0.4-0.1,0.8-0.3,1.3-0.6l2.1-1.3l1.6,0.9c-0.4,0.4-0.7,0.7-1,1s-0.7,0.6-1.2,0.9
			C246.7,76,245.9,76.3,245.2,76.5z M242.2,72.3c0.3-0.2,0.4-0.3,0.4-0.5s-0.2-0.3-0.6-0.5c-0.5-0.3-1-0.4-1.4-0.4s-0.8,0.1-1.2,0.4
			c-0.3,0.2-0.5,0.4-0.5,0.6s0.1,0.4,0.4,0.6s0.7,0.5,1.4,0.9L242.2,72.3z"/>
		<path class="st0" d="M254.5,71c-0.5,0.1-1.1,0.2-1.7,0.2l0.6,0.7l-1.7,1l-13.9-7.5l2-1.2l4.8,2.6c0.1-0.3,0.2-0.6,0.4-0.9
			s0.5-0.6,0.8-0.7c0.6-0.4,1.3-0.6,2-0.6s1.5,0.1,2.5,0.4c0.9,0.3,2,0.8,3.2,1.4c1.6,0.9,2.7,1.7,3.1,2.4s0.2,1.3-0.7,1.8
			C255.5,70.7,255,70.9,254.5,71z M253.2,68.8c-0.2-0.4-0.8-0.8-1.9-1.4c-0.8-0.4-1.4-0.7-2-0.9c-0.5-0.2-0.9-0.2-1.3-0.2
			c-0.3,0-0.6,0.1-0.8,0.3c-0.4,0.3-0.7,0.7-0.8,1.1l4.6,2.5c0.8-0.1,1.4-0.3,1.8-0.6C253.3,69.5,253.4,69.2,253.2,68.8z"/>
	</g>
	<g>
		<path class="st0" d="M260.8,91.6l-9.8-3.9l7.3,5.5l-1.8,1.2l-10.6-3.2l8.2,4.8l-1.9,1.3l-12.6-7.5l1.9-1.3l12.8,3.6l-8.3-6.6
			l1.9-1.2l14.9,5.9L260.8,91.6z"/>
		<path class="st0" d="M264.6,88.5c-0.8,0.2-1.6,0.1-2.6-0.1s-2.1-0.6-3.4-1.3c-1.4-0.7-2.3-1.2-2.8-1.7c-0.5-0.5-0.7-1-0.5-1.4
			s0.7-0.9,1.5-1.5c0.8-0.5,1.6-0.9,2.4-1.1s1.6-0.1,2.6,0.1s2.1,0.6,3.4,1.3c1.3,0.7,2.2,1.2,2.8,1.7s0.7,1,0.5,1.4s-0.6,1-1.5,1.5
			C266.2,88,265.4,88.4,264.6,88.5z M265.4,85.8c0-0.2-0.1-0.4-0.4-0.7c-0.3-0.3-0.9-0.6-1.8-1s-1.5-0.7-2-0.8s-0.9-0.2-1.2-0.1
			c-0.3,0.1-0.6,0.2-1,0.4c-0.3,0.2-0.5,0.4-0.6,0.6c0,0.2,0.1,0.4,0.4,0.7c0.3,0.3,0.9,0.6,1.8,1s1.5,0.7,2,0.8s0.9,0.2,1.2,0.1
			c0.3-0.1,0.6-0.2,1-0.4C265.1,86.2,265.3,86,265.4,85.8z"/>
		<path class="st0" d="M272.5,83.3c-0.6,0.1-1.2,0.1-1.8-0.1c-0.7-0.2-1.4-0.4-2.3-0.9l-4.2-2.1l-1.1,0.7l-1.8-0.9l0.7-1l-2.5-1.5
			l1.5-1l2.8,1.4l1.7-1.1l2.2,1.1L266,79l4.2,2c0.5,0.2,0.9,0.4,1.2,0.4c0.3,0,0.6,0,0.9-0.2l1-0.6l2,1l-1.3,0.9
			C273.6,82.9,273,83.2,272.5,83.3z"/>
		<path class="st0" d="M265,75.3c-0.1,0-0.2,0-0.3-0.1l-1.8-0.9c-0.3-0.1-0.3-0.2-0.1-0.4l1.5-1c0.1-0.1,0.2-0.1,0.3-0.1
			s0.2,0,0.4,0.1l1.8,0.9c0.2,0.1,0.3,0.2,0.1,0.3l-1.5,1C265.3,75.3,265.1,75.3,265,75.3z M266.6,76.1l2-1.3l10,4.9l-2,1.3
			L266.6,76.1z"/>
		<path class="st0" d="M280.8,77.7c-0.8,0.2-1.6,0.1-2.6-0.1s-2.1-0.6-3.4-1.3c-1.4-0.7-2.3-1.2-2.8-1.7s-0.7-1-0.5-1.4
			s0.7-0.9,1.5-1.5c0.8-0.5,1.6-0.9,2.4-1.1s1.6-0.1,2.6,0.1s2.1,0.6,3.4,1.3c1.3,0.7,2.2,1.2,2.8,1.7s0.7,1,0.5,1.4s-0.6,1-1.5,1.5
			C282.4,77.2,281.6,77.5,280.8,77.7z M281.5,74.9c0-0.2-0.1-0.4-0.4-0.7c-0.3-0.3-0.9-0.6-1.8-1s-1.5-0.7-2-0.8s-0.9-0.2-1.2-0.1
			c-0.3,0.1-0.6,0.2-1,0.4c-0.3,0.2-0.5,0.4-0.6,0.6c0,0.2,0.1,0.4,0.4,0.7c0.3,0.3,0.9,0.6,1.8,1s1.5,0.7,2,0.8s0.9,0.2,1.2,0.1
			c0.3-0.1,0.6-0.2,1-0.4C281.3,75.3,281.5,75.1,281.5,74.9z"/>
		<path class="st0" d="M277.6,68.7l1.6-1.1l1.4,0.3c0-0.4,0-0.7,0.2-1.1s0.5-0.7,0.8-1c0.8-0.5,1.7-0.8,2.7-0.7c1,0.1,2,0.4,3.1,0.9
			l6.6,3.2l-2,1.3l-6.2-3c-0.5-0.2-0.9-0.3-1.4-0.3s-0.8,0.1-1.1,0.3c-0.5,0.3-0.7,0.8-0.7,1.3l6.9,3.4l-2,1.3L277.6,68.7z"/>
	</g>
</g>
</svg>
