<?xml version="1.0" encoding="utf-8"?>
<!-- Generator: Adobe Illustrator 27.3.1, SVG Export Plug-In . SVG Version: 6.00 Build 0)  -->
<svg version="1.1" id="Layer_1" xmlns="http://www.w3.org/2000/svg" xmlns:xlink="http://www.w3.org/1999/xlink" x="0px" y="0px"
	 viewBox="0 0 350 260" style="enable-background:new 0 0 350 260;" xml:space="preserve">
<style type="text/css">
	.st0{fill:#E75653;stroke:#1A1A1A;stroke-width:0.5;stroke-linecap:round;stroke-linejoin:round;}
	.st1{fill:#FFFFFF;stroke:#000000;stroke-width:0.5;stroke-linecap:round;stroke-linejoin:round;stroke-miterlimit:10;}
	.st2{fill:#FFFFFF;stroke:#000000;stroke-width:0.5;stroke-miterlimit:10;}
	.st3{fill:none;stroke:#000000;stroke-width:0.5;stroke-miterlimit:10;}
	.st4{fill:#F9F7F7;stroke:#000000;stroke-width:0.5;stroke-miterlimit:10;}
	.st5{opacity:0.3;}
	
		.st6{clip-path:url(#XMLID_00000182490821084092049060000013649090126340054169_);fill:#FFFFFF;stroke:#000000;stroke-width:0.5;stroke-linecap:round;stroke-linejoin:round;stroke-miterlimit:10;}
	
		.st7{clip-path:url(#XMLID_00000171715841208873027620000012493521913784163501_);fill:#FFFFFF;stroke:#000000;stroke-width:0.5;stroke-linecap:round;stroke-linejoin:round;stroke-miterlimit:10;}
	
		.st8{clip-path:url(#XMLID_00000106851966454622022890000005265227163972209071_);fill:#FFFFFF;stroke:#000000;stroke-width:0.5;stroke-linecap:round;stroke-linejoin:round;stroke-miterlimit:10;}
	
		.st9{clip-path:url(#XMLID_00000125564022486541684260000015234426318463843245_);fill:#FFFFFF;stroke:#000000;stroke-width:0.5;stroke-linecap:round;stroke-linejoin:round;stroke-miterlimit:10;}
	
		.st10{clip-path:url(#XMLID_00000075864662272754439290000012947317834498124679_);fill:#FFFFFF;stroke:#000000;stroke-width:0.5;stroke-linecap:round;stroke-linejoin:round;stroke-miterlimit:10;}
	
		.st11{opacity:0.48;fill:#FFFFFF;stroke:#000000;stroke-width:0.5;stroke-linecap:round;stroke-linejoin:round;stroke-miterlimit:10;}
	
		.st12{opacity:0.3;clip-path:url(#XMLID_00000062911071183329980110000006408038320300817835_);fill:#FFFFFF;fill-opacity:0.7;stroke:#000000;stroke-width:0.5;stroke-linecap:round;stroke-linejoin:round;stroke-miterlimit:10;}
	
		.st13{opacity:0.3;clip-path:url(#XMLID_00000038373396947458893800000016377700834704244646_);fill:#FFFFFF;fill-opacity:0.7;stroke:#000000;stroke-width:0.5;stroke-linecap:round;stroke-linejoin:round;stroke-miterlimit:10;}
	
		.st14{opacity:0.2;clip-path:url(#XMLID_00000166662255451919953340000001317698042550083990_);fill:#FFFFFF;fill-opacity:0.7;stroke:#000000;stroke-width:0.5;stroke-linecap:round;stroke-linejoin:round;stroke-miterlimit:10;}
	
		.st15{opacity:0.3;clip-path:url(#XMLID_00000027565261339685734350000003559931495696859014_);fill:#FFFFFF;fill-opacity:0.7;stroke:#000000;stroke-width:0.5;stroke-linecap:round;stroke-linejoin:round;stroke-miterlimit:10;}
	
		.st16{opacity:0.3;clip-path:url(#XMLID_00000061448421005833432040000010120719139752055984_);fill:#FFFFFF;fill-opacity:0.7;stroke:#000000;stroke-width:0.5;stroke-linecap:round;stroke-linejoin:round;stroke-miterlimit:10;}
</style>
<line class="st1" x1="52.8" y1="240" x2="306.4" y2="240"/>
<g>
	<path class="st0" d="M298.7,140.1v-4.6l-3.4-0.3c-0.2-0.7-0.5-1.4-0.8-2l2.2-2.6l-3.2-3.2l-2.6,2.2c-0.6-0.4-1.3-0.6-2-0.8
		l-0.3-3.4h-4.6l-0.3,3.4c-0.7,0.2-1.4,0.5-2,0.8l-2.6-2.2l-3.2,3.2l2.2,2.6c-0.4,0.6-0.6,1.3-0.8,2l-3.4,0.3v4.6l3.4,0.3
		c0.2,0.7,0.5,1.4,0.8,2l-2.2,2.6l3.2,3.2l2.6-2.2c0.6,0.4,1.3,0.6,2,0.8l0.3,3.4h4.6l0.3-3.4c0.7-0.2,1.4-0.5,2-0.8l2.6,2.2
		l3.2-3.2l-2.2-2.6c0.4-0.6,0.6-1.3,0.8-2L298.7,140.1z M286.2,143.1c-2.9,0-5.3-2.4-5.3-5.3c0-2.9,2.4-5.3,5.3-5.3
		c2.9,0,5.3,2.4,5.3,5.3C291.5,140.7,289.1,143.1,286.2,143.1z"/>
	<g>
		<path class="st1" d="M295.3,57c0.2-0.9,0.3-1.8,0.3-2.8c0-6.9-5.6-12.4-12.4-12.4c-1.1,0-2.2,0.2-3.2,0.4c-2-3.6-5.9-6.1-10.4-6.1
			c-6.3,0-11.5,4.9-11.9,11.2c-0.6-0.1-1.2-0.2-1.8-0.2c-5,0-9.1,3.8-9.7,8.7c-2.9,0.1-5.3,2.5-5.3,5.4c0,3,2.4,5.4,5.4,5.4h45.6
			c3,0,5.4-2.4,5.4-5.4C297.3,59.5,296.5,58,295.3,57z"/>
		<g>
			<line class="st1" x1="270.2" y1="62.5" x2="270.2" y2="75"/>
			<line class="st1" x1="270.2" y1="54.9" x2="270.2" y2="60"/>
			<line class="st1" x1="270.2" y1="50.2" x2="270.2" y2="52.9"/>
			<polyline class="st1" points="267.8,73.6 270.2,76.5 272.6,73.6 			"/>
		</g>
	</g>
	<g>
		<path class="st1" d="M156.2,204.5c0.2-0.9,0.3-1.8,0.3-2.8c0-6.9-5.6-12.4-12.4-12.4c-1.1,0-2.2,0.2-3.2,0.4
			c-2-3.6-5.9-6.1-10.4-6.1c-6.3,0-11.5,4.9-11.9,11.2c-0.6-0.1-1.2-0.2-1.8-0.2c-5,0-9.1,3.8-9.7,8.7c-2.9,0.1-5.3,2.5-5.3,5.4
			c0,3,2.4,5.4,5.4,5.4h45.6c3,0,5.4-2.4,5.4-5.4C158.3,207,157.5,205.5,156.2,204.5z"/>
		<g>
			<line class="st1" x1="131.2" y1="211.8" x2="131.2" y2="199.2"/>
			<line class="st1" x1="131.2" y1="219.3" x2="131.2" y2="214.3"/>
			<line class="st1" x1="131.2" y1="224" x2="131.2" y2="221.3"/>
			<polyline class="st1" points="133.5,200.7 131.2,197.7 128.8,200.7 			"/>
		</g>
	</g>
</g>
<path class="st1" d="M214.8,54.7H57.2v-5.5c0-2.3,1.9-4.2,4.2-4.2h149.1c2.3,0,4.2,1.9,4.2,4.2V54.7z"/>
<rect x="64.1" y="56.5" class="st1" width="159.2" height="112.1"/>
<path class="st1" d="M225.8,49.8c0,1.3-1.1,2.4-2.4,2.4c-1.3,0-2.4-1.1-2.4-2.4c0-1.3,1.1-2.4,2.4-2.4
	C224.7,47.4,225.8,48.5,225.8,49.8z"/>
<path class="st1" d="M217.2,49.8c0,1.3-1.1,2.4-2.4,2.4c-1.3,0-2.4-1.1-2.4-2.4c0-1.3,1.1-2.4,2.4-2.4
	C216.1,47.4,217.2,48.5,217.2,49.8z"/>
<path class="st1" d="M208.6,49.8c0,1.3-1.1,2.4-2.4,2.4c-1.3,0-2.4-1.1-2.4-2.4c0-1.3,1.1-2.4,2.4-2.4
	C207.5,47.4,208.6,48.5,208.6,49.8z"/>
<line class="st1" x1="218.5" y1="61.3" x2="212.2" y2="61.3"/>
<line class="st1" x1="218.5" y1="63.9" x2="212.2" y2="63.9"/>
<line class="st1" x1="218.5" y1="66.4" x2="212.2" y2="66.4"/>
<line class="st1" x1="75.1" y1="127.4" x2="122.9" y2="127.4"/>
<line class="st1" x1="75.1" y1="131.2" x2="122.9" y2="131.2"/>
<line class="st1" x1="75.1" y1="135" x2="112.8" y2="135"/>
<line class="st1" x1="176.3" y1="57.8" x2="176.3" y2="166.7"/>
<line class="st1" x1="66" y1="143.4" x2="220.9" y2="143.4"/>
<rect x="175.3" y="142.4" class="st1" width="2.1" height="2.1"/>
<path class="st1" d="M49.6,68.5H19.7c-0.7,0-1.3,0.6-1.3,1.3v13.9c0,0.7,0.6,1.3,1.3,1.3h13.4l1.5,5.5l1.5-5.5h13.4
	c0.7,0,1.3-0.6,1.3-1.3V69.8C50.9,69.1,50.3,68.5,49.6,68.5z"/>
<line class="st1" x1="23.3" y1="72.5" x2="45.9" y2="72.5"/>
<line class="st1" x1="23.3" y1="75.3" x2="45.9" y2="75.3"/>
<line class="st1" x1="23.3" y1="78.2" x2="45.9" y2="78.2"/>
<line class="st1" x1="23.3" y1="81" x2="40.4" y2="81"/>
<rect x="83.9" y="161.1" class="st1" width="32.5" height="20.4"/>
<rect x="83.9" y="161.1" class="st1" width="32.5" height="3.1"/>
<line class="st1" x1="87.2" y1="166.8" x2="95.5" y2="166.8"/>
<line class="st1" x1="91.3" y1="169.2" x2="105.7" y2="169.2"/>
<line class="st1" x1="89.5" y1="171.3" x2="93.7" y2="171.3"/>
<line class="st1" x1="91.3" y1="173.9" x2="101" y2="173.9"/>
<line class="st1" x1="87.2" y1="176.2" x2="95.5" y2="176.2"/>
<line class="st1" x1="168" y1="123.3" x2="140.1" y2="123.3"/>
<path class="st1" d="M168.5,136.2c0,0,0-13-14.5-13c-14.5,0-14.5,13-14.5,13"/>
<circle class="st1" cx="168.5" cy="136.2" r="1.2"/>
<path class="st1" d="M138.3,136.2c0-0.7,0.5-1.2,1.2-1.2c0.7,0,1.2,0.5,1.2,1.2c0,0.7-0.5,1.2-1.2,1.2
	C138.8,137.5,138.3,136.9,138.3,136.2z"/>
<rect x="167.4" y="122.2" transform="matrix(-1 -1.224647e-16 1.224647e-16 -1 337.0399 246.5419)" class="st1" width="2.1" height="2.1"/>
<rect x="152.9" y="122.2" transform="matrix(-1 -1.224647e-16 1.224647e-16 -1 308.0425 246.5419)" class="st1" width="2.1" height="2.1"/>
<rect x="138.4" y="122.2" transform="matrix(-1 -1.224647e-16 1.224647e-16 -1 279.0451 246.5419)" class="st1" width="2.1" height="2.1"/>
<path class="st0" d="M92.5,84.3V80l-3.2-0.3c-0.2-0.7-0.5-1.3-0.8-1.9l2.1-2.5l-3-3l-2.5,2.1c-0.6-0.3-1.2-0.6-1.9-0.8l-0.3-3.2
	h-4.3l-0.3,3.2c-0.7,0.2-1.3,0.5-1.9,0.8l-2.5-2.1l-3,3l2.1,2.5c-0.3,0.6-0.6,1.2-0.8,1.9L68.9,80v4.3l3.2,0.3
	c0.2,0.7,0.5,1.3,0.8,1.9L70.9,89l3,3l2.5-2.1c0.6,0.3,1.2,0.6,1.9,0.8l0.3,3.2h4.3l0.3-3.2c0.7-0.2,1.3-0.5,1.9-0.8l2.5,2.1l3-3
	l-2.1-2.5c0.3-0.6,0.6-1.2,0.8-1.9L92.5,84.3z M80.7,87.2c-2.8,0-5-2.2-5-5c0-2.8,2.2-5,5-5c2.8,0,5,2.2,5,5
	C85.7,84.9,83.5,87.2,80.7,87.2z"/>
<path class="st0" d="M107,93.9V91l-2.2-0.2c-0.1-0.5-0.3-0.9-0.5-1.3l1.4-1.7l-2.1-2.1l-1.7,1.4c-0.4-0.2-0.9-0.4-1.3-0.5l-0.2-2.2
	h-2.9l-0.2,2.2c-0.5,0.1-0.9,0.3-1.3,0.5l-1.7-1.4l-2.1,2.1l1.4,1.7c-0.2,0.4-0.4,0.9-0.5,1.3L90.9,91v2.9l2.2,0.2
	c0.1,0.5,0.3,0.9,0.5,1.3l-1.4,1.7l2.1,2.1l1.7-1.4c0.4,0.2,0.9,0.4,1.3,0.5l0.2,2.2h2.9l0.2-2.2c0.5-0.1,0.9-0.3,1.3-0.5l1.7,1.4
	l2.1-2.1l-1.4-1.7c0.2-0.4,0.4-0.9,0.5-1.3L107,93.9z M99,95.9c-1.9,0-3.4-1.5-3.4-3.4s1.5-3.4,3.4-3.4s3.4,1.5,3.4,3.4
	S100.9,95.9,99,95.9z"/>
<line class="st1" x1="182.3" y1="150.6" x2="205.8" y2="150.6"/>
<line class="st1" x1="182.3" y1="154.3" x2="205.8" y2="154.3"/>
<line class="st1" x1="182.3" y1="158.2" x2="195.7" y2="158.2"/>
<path class="st0" d="M151.4,159.7H139c-1.7,0-3-1.4-3-3l0,0c0-1.7,1.4-3,3-3h12.4c1.7,0,3,1.4,3,3l0,0
	C154.4,158.3,153.1,159.7,151.4,159.7z"/>
<path class="st0" d="M174.4,159.7h-12.4c-1.7,0-3-1.4-3-3l0,0c0-1.7,1.4-3,3-3h12.4c1.7,0,3,1.4,3,3l0,0
	C177.5,158.3,176.1,159.7,174.4,159.7z"/>
<rect x="184" y="94.7" class="st1" width="26.2" height="26.2"/>
<line class="st1" x1="184" y1="94.7" x2="210.2" y2="120.9"/>
<line class="st1" x1="210.2" y1="94.7" x2="184" y2="120.9"/>
<rect x="206.2" y="79.1" class="st1" width="32.5" height="20.4"/>
<rect x="206.2" y="79.1" class="st1" width="32.5" height="3.1"/>
<line class="st1" x1="209.5" y1="84.8" x2="217.8" y2="84.8"/>
<line class="st1" x1="213.7" y1="87.1" x2="228" y2="87.1"/>
<line class="st1" x1="211.8" y1="89.3" x2="216.1" y2="89.3"/>
<line class="st1" x1="213.7" y1="91.9" x2="223.3" y2="91.9"/>
<line class="st1" x1="209.5" y1="94.2" x2="217.8" y2="94.2"/>
<polygon class="st1" points="194.3,64.9 194.3,71 191.6,73.7 185.5,73.7 185.5,64.9 "/>
<polygon class="st1" points="194.3,71 191.6,73.7 191.6,71 "/>
<polygon class="st1" points="100.6,112.2 100.6,118.3 97.9,121 91.8,121 91.8,112.2 "/>
<polygon class="st1" points="100.6,118.3 97.9,121 97.9,118.3 "/>
<polygon class="st1" points="67.3,149.9 67.3,156 64.6,158.7 58.5,158.7 58.5,149.9 "/>
<polygon class="st1" points="67.3,156 64.6,158.7 64.6,156 "/>
<path class="st1" d="M177.6,112.6c-3.2,0.3-7.3-3.6-7.3-3.6s-0.6,0.6-1.1-0.1c-0.5-0.7-2.8-2.5-2.9-4c-0.1-1.5,2.5-3.9,2.5-3.9
	c-2.1,0.6-2.3-0.6-2.3-0.6s3.5-2.9,4.7-2.9c0.5,0,2.5,1.2,4.5,2.8c2.1,1.7,6,7.6,6,7.6s13.2,9.6,16.6,12.1c4.4,3.2,9.7,9,9.7,9
	s17.6,7.9,22.4,12.3l-6.6,15.5c0,0-16-10.7-17.6-13.4c-1.6-2.7-3.2-1.1-4.8-2.9c-1.6-1.8-3.1-3.8-3.1-3.8s-3.9-1.7-7.6-5.5
	c-3.7-3.8-7-9.7-9.1-13.2C179.6,114.3,177.6,112.6,177.6,112.6z"/>
<path class="st1" d="M178.6,110.4c0,0-4.8-1.2-5.2-4.3c-0.1-1-1-2.2-1-2.2s-4.5-0.2-4.2-2l5.9-0.5c0,0,3.3,1.1,5.2,4.3"/>
<path class="st1" d="M170.3,109.1c0,0,0.3-0.4,0.2-1.3c0,0,1.3-0.2,1.2-1.4c0,0,1.9-0.2,0.7-2.5"/>
<path class="st1" d="M171.7,106.4c0,0-2.6-1.9-2.9-2.8"/>
<path class="st1" d="M170.5,107.8c0,0-2.8-1.7-2.8-2.7"/>
<path class="st1" d="M171.2,99.1c0,0-0.9,1.6-2.3,1.9"/>
<path class="st1" d="M170.7,99.7c0,0,0.7,0.4,1.3,0.9"/>
<path class="st1" d="M272.3,153.4c0,0-10.5-4.6-21.2-7.1c-10.6-2.5-27.9-4.7-27.9-4.7s4.7,48.4,3.5,51.3c-1.2,2.9-8.7,12.7-8.7,12.7
	s40.5,15.8,47.6,17.2c7.1,1.3,3.4-23.2,3.4-23.2S276.5,168.3,272.3,153.4z"/>
<path class="st1" d="M257.8,148.2c0,0,1,1.8-1.6,2.8c-6.6,2.4-13.6,0.3-12.8-2.3c0.3-1,1.9,0,1.8-3.7c0-0.5-0.2-1-0.4-1.6
	c-0.4-0.9-1-1.9-1.7-2.8c-1.1-1.6-2.2-2.8-2.2-2.8s10.4-6.6,18.1,0C259,137.8,256.1,139.2,257.8,148.2z"/>
<g>
	<defs>
		<path id="XMLID_529_" d="M270.7,234.3c-4.1,6.7-24.9,9.8-36.3,9.5c-11.4-0.3-44.1-15.8-46.3-19.1c-2.1-3-7.1-13.1,0.7-19.1
			c0.6-0.5,1.3-0.9,2.1-1.4c5.3-2.9,40.8,6.2,40.8,6.2s2.2-1.4,3-1.3c2.5,0.3,4.2,2.3,9.2,3.7c3.5,1,13-2.8,19.1,0.5
			c0.7,0.4,1.3,0.8,1.9,1.3C270.6,220.2,274.8,227.7,270.7,234.3z"/>
	</defs>
	<use xlink:href="#XMLID_529_"  style="overflow:visible;fill:#FFFFFF;"/>
	<clipPath id="XMLID_00000164500016987206376580000009905768435425644170_">
		<use xlink:href="#XMLID_529_"  style="overflow:visible;"/>
	</clipPath>
	
		<path style="opacity:0.3;clip-path:url(#XMLID_00000164500016987206376580000009905768435425644170_);fill:#FFFFFF;fill-opacity:0.7;stroke:#000000;stroke-width:0.5;stroke-linecap:round;stroke-linejoin:round;stroke-miterlimit:10;" d="
		M263,213.4c-6.2-0.4-11.8,0.9-15.7,3.2c-4.6,2.7-26.4,13.2-26.4,13.2c0-1.1,1.3-3.4,1.3-3.4c-2-1.8-7.4-3.2-7.4-3.2
		c-4.2-3.5-20.6-14.1-26-17.5c0.6-0.5,1.3-0.9,2.1-1.4c5.3-2.9,40.8,6.2,40.8,6.2s2.2-1.4,3-1.3c2.5,0.3,4.2,2.3,9.2,3.7
		C247.4,214,256.9,210.1,263,213.4z"/>
	
		<use xlink:href="#XMLID_529_"  style="overflow:visible;fill:none;stroke:#000000;stroke-width:0.5;stroke-linecap:round;stroke-linejoin:round;stroke-miterlimit:10;"/>
</g>
<path class="st1" d="M264.3,240.4l0.5,2.3c0,0-1.4,4-7.5,4.6c-6.1,0.6-9.8,2-12.7,2.2s-4.7-0.1-4.7-0.1l-0.6-0.9L264.3,240.4z"/>
<g>
	<defs>
		<path id="XMLID_528_" d="M228.7,240.1l10.6,8.3c0,0,8.2-0.7,15.2-2.3l0,0c5-1.2,9.4-2.8,9.7-5.1c0.4-3.5-3.4-4.4-7.8-4.3
			c-0.8,0-1.7,0.1-2.5,0.2c-7.1,0.8-16.1-3.2-16.1-3.2L228.7,240.1z"/>
	</defs>
	<use xlink:href="#XMLID_528_"  style="overflow:visible;fill:#FFFFFF;"/>
	<clipPath id="XMLID_00000122687056761199720930000005207722577260779668_">
		<use xlink:href="#XMLID_528_"  style="overflow:visible;"/>
	</clipPath>
	
		<path style="opacity:0.3;clip-path:url(#XMLID_00000122687056761199720930000005207722577260779668_);fill:#FFFFFF;fill-opacity:0.7;stroke:#000000;stroke-width:0.5;stroke-linecap:round;stroke-linejoin:round;stroke-miterlimit:10;" d="
		M264.2,241c-1.9,0.8-4.3,1.8-5.9,2.9c0,0-9.9,5.1-25-0.2l-4.6-3.6l9.1-6.3c0,0,9,3.9,16.1,3.1c0.9-0.1,1.7-0.2,2.5-0.2
		C260.8,236.6,264.5,237.6,264.2,241z"/>
	
		<use xlink:href="#XMLID_528_"  style="overflow:visible;fill:none;stroke:#000000;stroke-width:0.5;stroke-linecap:round;stroke-linejoin:round;stroke-miterlimit:10;"/>
</g>
<g>
	<defs>
		<path id="XMLID_527_" d="M238.6,243.4c-1.9,0.3,0.2,4.2,2.8,3C244,245.3,240.5,243.1,238.6,243.4z"/>
	</defs>
	<use xlink:href="#XMLID_527_"  style="overflow:visible;fill:#FFFFFF;"/>
	<clipPath id="XMLID_00000049224030743977586760000018149626279088819585_">
		<use xlink:href="#XMLID_527_"  style="overflow:visible;"/>
	</clipPath>
	
		<path style="opacity:0.2;clip-path:url(#XMLID_00000049224030743977586760000018149626279088819585_);fill:#FFFFFF;fill-opacity:0.7;stroke:#000000;stroke-width:0.5;stroke-linecap:round;stroke-linejoin:round;stroke-miterlimit:10;" d="
		M242.2,245.8c-1.3-0.2-2.7-0.4-4.1-0.7c-0.4-0.8-0.3-1.6,0.5-1.7C240.2,243.2,242.9,244.6,242.2,245.8z"/>
	
		<use xlink:href="#XMLID_527_"  style="overflow:visible;fill:none;stroke:#000000;stroke-width:0.5;stroke-linecap:round;stroke-linejoin:round;stroke-miterlimit:10;"/>
</g>
<g>
	<defs>
		<path id="XMLID_526_" d="M254.5,246.2c5-1.2,9.4-2.8,9.7-5.1c0.4-3.5-3.4-4.4-7.8-4.3C256.2,236.9,252,241.1,254.5,246.2z"/>
	</defs>
	<use xlink:href="#XMLID_526_"  style="overflow:visible;fill:#FFFFFF;"/>
	<clipPath id="XMLID_00000024708163902168336300000014584593354905558937_">
		<use xlink:href="#XMLID_526_"  style="overflow:visible;"/>
	</clipPath>
	
		<path style="opacity:0.3;clip-path:url(#XMLID_00000024708163902168336300000014584593354905558937_);fill:#FFFFFF;fill-opacity:0.7;stroke:#000000;stroke-width:0.5;stroke-linecap:round;stroke-linejoin:round;stroke-miterlimit:10;" d="
		M264.2,241c-1.9,0.8-4.3,1.8-5.9,2.9c0,0-1.5,0.8-4.2,1.4c-1.7-4.7,2.1-8.3,2.3-8.5C260.8,236.6,264.5,237.6,264.2,241z"/>
	
		<use xlink:href="#XMLID_526_"  style="overflow:visible;fill:none;stroke:#000000;stroke-width:0.5;stroke-linecap:round;stroke-linejoin:round;stroke-miterlimit:10;"/>
</g>
<path class="st1" d="M251,241.9C251,241.9,251,241.9,251,241.9c0.3,0,0.6-0.2,0.6-0.5c0.1-2.2,1.8-4,1.8-4c0.2-0.2,0.2-0.5,0-0.7
	c-0.2-0.2-0.5-0.2-0.7,0c-0.1,0.1-2,2.1-2.1,4.7C250.5,241.6,250.7,241.8,251,241.9z"/>
<path class="st1" d="M248.9,242C248.9,242,248.9,242,248.9,242c0.3,0,0.6-0.2,0.6-0.5c0-2.2,1.6-4.1,1.6-4.2
	c0.2-0.2,0.2-0.6-0.1-0.7c-0.2-0.2-0.6-0.2-0.7,0.1c-0.1,0.1-1.8,2.2-1.8,4.8C248.4,241.7,248.6,242,248.9,242z"/>
<path class="st1" d="M246.3,241.7C246.3,241.7,246.3,241.7,246.3,241.7c0.3,0,0.6-0.2,0.6-0.5c0.2-1.8,1.7-4.2,1.7-4.2
	c0.2-0.2,0.1-0.6-0.1-0.7c-0.2-0.2-0.6-0.1-0.7,0.1c-0.1,0.1-1.7,2.6-1.9,4.7C245.8,241.4,246.1,241.7,246.3,241.7z"/>
<path class="st1" d="M244,241.5c0,0,0.1,0,0.1,0c0.3,0,0.5-0.3,0.4-0.6c-0.4-2.2,1.7-4.1,1.7-4.2c0.2-0.2,0.2-0.5,0-0.7
	c-0.2-0.2-0.5-0.2-0.7,0c-0.1,0.1-2.5,2.3-2.1,5.1C243.5,241.3,243.7,241.4,244,241.5z"/>
<path class="st1" d="M241.4,240.9c0.1,0,0.1,0,0.2,0c0.3-0.1,0.5-0.3,0.4-0.6c-0.5-2,1.5-4.2,1.5-4.3c0.2-0.2,0.2-0.5,0-0.7
	c-0.2-0.2-0.5-0.2-0.7,0c-0.1,0.1-2.3,2.7-1.8,5.2C241,240.7,241.2,240.8,241.4,240.9z"/>
<path class="st1" d="M186.8,237l-0.8,2.2c0,0,1,4.1,7,5.4c6,1.3,9.5,3,12.4,3.5c2.9,0.5,4.6,0.4,4.6,0.4l0.7-0.8L186.8,237z"/>
<g>
	<defs>
		<path id="XMLID_525_" d="M222.2,240.5l-11.4,7.2c0,0-8.1-1.5-14.9-3.9v0c-4.9-1.7-9.1-3.8-9.1-6.1c0-3.5,3.8-4.1,8.2-3.5
			c0.8,0.1,1.7,0.3,2.5,0.4c7,1.5,16.3-1.4,16.3-1.4L222.2,240.5z"/>
	</defs>
	<use xlink:href="#XMLID_525_"  style="overflow:visible;fill:#FFFFFF;"/>
	<clipPath id="XMLID_00000119810305837976924560000015022086482432723331_">
		<use xlink:href="#XMLID_525_"  style="overflow:visible;"/>
	</clipPath>
	
		<path style="opacity:0.3;clip-path:url(#XMLID_00000119810305837976924560000015022086482432723331_);fill:#FFFFFF;fill-opacity:0.7;stroke:#000000;stroke-width:0.5;stroke-linecap:round;stroke-linejoin:round;stroke-miterlimit:10;" d="
		M222.2,240.5l-6.7,4.2c-6.8-2-11.1-6.3-13.7-9.6c6,0,12-1.9,12-1.9L222.2,240.5z"/>
	
		<use xlink:href="#XMLID_525_"  style="overflow:visible;fill:none;stroke:#000000;stroke-width:0.5;stroke-linecap:round;stroke-linejoin:round;stroke-miterlimit:10;"/>
</g>
<path class="st1" d="M195.8,243.8c-4.9-1.7-9.1-3.8-9.1-6.1c0-3.5,3.8-4.1,8.2-3.5C195.1,234.4,198.9,239,195.8,243.8z"/>
<path class="st1" d="M199.9,239.8C199.8,239.8,199.8,239.8,199.9,239.8c-0.3,0-0.5-0.3-0.5-0.6c0.1-2.2-1.4-4.1-1.4-4.2
	c-0.2-0.2-0.1-0.6,0.1-0.7c0.2-0.2,0.6-0.1,0.7,0.1c0.1,0.1,1.7,2.3,1.6,4.9C200.4,239.6,200.1,239.8,199.9,239.8z"/>
<path class="st1" d="M201.9,240.2C201.9,240.2,201.9,240.2,201.9,240.2c-0.3,0-0.5-0.3-0.5-0.6c0.2-2.2-1.1-4.3-1.2-4.3
	c-0.2-0.2-0.1-0.6,0.2-0.7c0.2-0.2,0.6-0.1,0.7,0.1c0.1,0.1,1.6,2.4,1.3,5C202.4,240,202.2,240.2,201.9,240.2z"/>
<path class="st1" d="M204.5,240.2C204.5,240.2,204.5,240.2,204.5,240.2c-0.3,0-0.5-0.2-0.5-0.5c0-1.8-1.3-4.4-1.3-4.4
	c-0.1-0.3,0-0.6,0.2-0.7c0.3-0.1,0.6,0,0.7,0.2c0.1,0.1,1.5,2.8,1.4,4.9C205,240,204.8,240.2,204.5,240.2z"/>
<path class="st1" d="M206.9,240.2c0,0-0.1,0-0.1,0c-0.3-0.1-0.4-0.4-0.4-0.6c0.6-2.2-1.3-4.3-1.3-4.3c-0.2-0.2-0.2-0.5,0-0.7
	c0.2-0.2,0.5-0.2,0.7,0c0.1,0.1,2.3,2.6,1.5,5.3C207.3,240,207.1,240.2,206.9,240.2z"/>
<path class="st1" d="M209.5,239.8c-0.1,0-0.1,0-0.2,0c-0.3-0.1-0.4-0.4-0.3-0.7c0.7-1.9-1.1-4.4-1.1-4.4c-0.2-0.2-0.1-0.6,0.1-0.7
	c0.2-0.2,0.6-0.1,0.7,0.1c0.1,0.1,2,2.9,1.2,5.3C209.9,239.7,209.7,239.8,209.5,239.8z"/>
<path class="st1" d="M212,242.7c1.9,0.5-0.6,4.2-3.1,2.7C206.4,244,210.1,242.2,212,242.7z"/>
<path class="st1" d="M190.4,223.2c2.8,3.9,11.1,8.3,19.4,11.9c0.9,1.5,2.7,4.2,5.2,6.8c5.1,5.3,7.2,2.3,7.2,2.3s3.2-0.4,8-1
	c0.3,0.6,1,1.6,2.4,1.4c0.6-0.1,1.8-1,3.2-2.2c12-1.8,28.3-4.8,32.7-8.4"/>
<path class="st1" d="M263.7,215.7c-2.1-2.3-4.2-2.4-8.5-2.1c0,0-11.4,3.6-19.3,8.4c-7.9,4.8-19.5,9.9-19.5,9.9s-3.5-1-6,0
	c0,0-1.7,0.1-0.6,3.2"/>
<path class="st1" d="M269,229.4c0,0,0.1,3.5-4.9,6"/>
<path class="st1" d="M214,214.7c0,0,7.9,5.7,9.5,9.5c0,0,3,1.3,4.5,2.3"/>
<path class="st1" d="M224,219.4c0.5,1.6,0.7,3.4,0.3,5.1"/>
<path class="st1" d="M222.2,215.7c0.4,0.6,0.8,1.3,1.1,2"/>
<path class="st1" d="M233.4,215.2c0,0,2.6,3.5,3.3,6.4"/>
<path class="st1" d="M248.1,236.5c1-0.1,2-0.2,2.9-0.4"/>
<path class="st1" d="M223.3,234c7.2,1.4,15.1,2.4,22.7,2.6"/>
<path class="st1" d="M276.7,180.5c0,0-1.4,24.8-3.1,26.3c-1.7,1.5-4.3,1.9-9.3,2.3s-27.2,1.8-27.2,1.8l-2.4-7.1c0,0,11.8-1.2,17-3.1
	c5.2-1.9,12-3.2,12-3.2s-1-6.3-1-8.9c0-2.7,0-9.5,0-12.7"/>
<path class="st1" d="M272.3,153.4c5.4,3.3,7,11,5.1,27.4c0,0,1.6,1.9-0.8,2.9c0,0-8.8-3.3-12.9-1c-4.1,2.3-3-3.1-3-3.1
	s-1.7-15.1,2.1-17.8"/>
<path class="st1" d="M262.3,159.4c0,0-5.2,5.4-0.6,19.1c0,0-0.6,2.5-0.6,3.4c0,0.9,1.3,1.4,1.3,1.4"/>
<path class="st1" d="M256.2,168.6c0,0,0.4,6.7,4.5,9.6"/>
<path class="st1" d="M257.5,153.1c0,0-8.1,3.1-14.5-0.3c-3.8-2-2.2-5.3-2.2-5.3"/>
<path class="st1" d="M199.6,215.7h43.8c1,0,2-0.1,2.9-0.4l8.6-2.3c0.2-0.1,0.4-0.3,0.4-0.5l0,0c0-0.3-0.3-0.6-0.6-0.6h-57.1
	c-0.3,0-0.6,0.3-0.6,0.6v0.8C197.2,214.7,198.3,215.7,199.6,215.7z"/>
<path class="st1" d="M195.3,213.5h44c0.8,0,1.2-0.6,1-1.4l-8.2-31.7c-0.2-0.8-1-1.4-1.8-1.4h-44c-0.8,0-1.2,0.6-1,1.4l8.2,31.7
	C193.7,212.9,194.5,213.5,195.3,213.5z"/>
<line class="st1" x1="187.9" y1="180.1" x2="187.1" y2="180.1"/>
<line class="st1" x1="194.4" y1="180.1" x2="190.1" y2="180.1"/>
<path class="st1" d="M238.2,209.5l-7.2-28c-0.2-0.8-1-1.4-1.8-1.4h-33.9"/>
<line class="st1" x1="238.8" y1="212" x2="238.6" y2="211.3"/>
<path class="st0" d="M208.5,197.1c0,0.3,0.1,0.5,0.2,0.8c0.6,1.9,2.3,3.1,4,2.6c1.6-0.5,2.5-2.4,2-4.3c-0.6-1.9-2.4-3.1-4-2.6
	c-0.2,0.1-0.4,0.1-0.6,0.2C210.2,195.1,209.6,196.5,208.5,197.1z"/>
<path class="st1" d="M227.9,137.6c-3.8-0.4-5.9-4-8.2-4.6c-2.3-0.6-3.7-1.2-3.7-1.2s-0.8-2.8-2-1.8c-1.2,1-2.7,21.5-1.2,20.9
	c1.5-0.6,1.5,1.8,1.5,1.8l14.1,12.5l11.8-21C240.3,144.2,231.7,138,227.9,137.6z"/>
<rect x="112.8" y="64" class="st1" width="54.6" height="36.4"/>
<circle class="st1" cx="140" cy="64" r="0.9"/>
<circle class="st1" cx="112.8" cy="82.2" r="0.9"/>
<circle class="st1" cx="140" cy="100.4" r="0.9"/>
<circle class="st1" cx="167.3" cy="82.2" r="0.9"/>
<rect x="166.3" y="99.4" class="st1" width="2.1" height="2.1"/>
<rect x="166.3" y="63" class="st1" width="2.1" height="2.1"/>
<rect x="111.7" y="99.4" class="st1" width="2.1" height="2.1"/>
<rect x="111.7" y="63" class="st1" width="2.1" height="2.1"/>
<rect x="116.4" y="67.2" class="st1" width="47.5" height="30.2"/>
<polygon class="st0" points="163.9,88.5 158.6,93.8 144.3,79.5 138.3,85.5 128.7,75.9 116.4,88.3 116.4,97.4 163.9,97.4 "/>
<circle class="st0" cx="154" cy="75.8" r="3.4"/>
<path class="st1" d="M230.4,143.2c0,0-3.6,6.8-4.1,17.1"/>
<path class="st1" d="M219.7,147.9c0,0,1.1,5.8,4.3,9.9"/>
<path class="st1" d="M234.7,171.6c0,0,5.4,17.9,17.3,23.2"/>
<path class="st1" d="M249,139.2c0,0-0.5,3.9-4.3,4.2c-0.4-0.9-1-1.9-1.7-2.8C245.6,139.8,249,139.2,249,139.2z"/>
<path class="st1" d="M257,139.5c0,0,6.3,0.8,8.9-7.7c2.6-8.4,0.6-14.8-9.8-17.9c-5.8-1.7-11.5-0.3-13.6,4c-1.8,3.7-0.9,6.9-1.4,8.1
	c-0.5,1.4-4.7,2.6-4.7,3.6c0,0.8,2.4,2.2,2.4,2.2l-0.7,2.1l0.7,0.3c0,0-1.2,4.7-0.7,6.4c0.4,1.2,11.1,1.7,11.9-1.3"/>
<path class="st1" d="M242.5,121.1c0,0,2.1,0.5,2.7,1.6"/>
<path class="st1" d="M242.9,125.8c-0.1,0.6,0.1,1.1,0.3,1.2c0.3,0,0.5-0.4,0.6-1c0.1-0.6-0.1-1.1-0.3-1.2S243,125.2,242.9,125.8z"/>
<path class="st1" d="M238.7,134.3c0,0,3.4,1.3,4.6,0.5"/>
<path class="st1" d="M239.9,125.4c-0.3,1.4,0.1,2.5,0.7,2.7c0.6,0.1,1.3-0.9,1.6-2.2c0.3-1.4-0.1-2.5-0.7-2.7
	C240.9,123,240.2,124,239.9,125.4z"/>
<path class="st1" d="M266.2,118.5c0,0-0.5-3.5-3.9-6.1c-3.5-2.6-7.6-3.1-7.6-3.1s2,0.9,2.8,2c0,0-5.2-3.9-11.4-1.3
	c-6.2,2.6-5.4,9.2-5.4,9.2l0.9-1.7c0,0-0.1,2.1,1,2.8c0,0,0.7-2,1.3-2.9c0,0,1.6,4.9,6.1,6.6c0,0-0.5-1-0.1-2.4c0,0,2.5,5.4,1.8,8
	l0.8,1.4c0,0,2.9-2.9,5.2-0.5c1.3,1.4-2.6,6.7-3.1,6.7l2.4,3.5c0,0,5.9,0.8,9.3-5.5c3.4-6.4,2.6-9.1,2.6-9.1s1.1,1.6,1.2,2.5
	C270,128.4,271,121.5,266.2,118.5z"/>
<path class="st1" d="M252.4,131.6c0,0,1.8-6.1,5.7-4c3.9,2.2,1.1,5.4-0.3,6.7c-1.4,1.2-2.4,3.5-3.3,3.5c-0.9,0-1.1-1.1-1.1-1.1"/>
<line class="st1" x1="242.2" y1="125.8" x2="253" y2="128"/>
</svg>
