<?xml version="1.0" encoding="utf-8"?>
<!-- Generator: Adobe Illustrator 27.3.1, SVG Export Plug-In . SVG Version: 6.00 Build 0)  -->
<svg version="1.1" id="Layer_1" xmlns="http://www.w3.org/2000/svg" xmlns:xlink="http://www.w3.org/1999/xlink" x="0px" y="0px"
	 viewBox="0 0 60 60" style="enable-background:new 0 0 60 60;" xml:space="preserve">
<style type="text/css">
	.st0{fill:#FFFFFF;}
	.st1{fill-rule:evenodd;clip-rule:evenodd;fill:none;stroke:#000000;stroke-width:3;stroke-miterlimit:10;}
	
		.st2{fill-rule:evenodd;clip-rule:evenodd;fill:none;stroke:#000000;stroke-width:3;stroke-linecap:round;stroke-linejoin:round;stroke-miterlimit:10;}
</style>
<g>
	<g>
		<path class="st0" d="M30,32.5c-8,0-14.5-6.5-14.5-14.5S22,3.5,30,3.5S44.5,10,44.5,18S38,32.5,30,32.5z M30,6.5
			c-6.3,0-11.5,5.2-11.5,11.5S23.7,29.5,30,29.5S41.5,24.3,41.5,18S36.3,6.5,30,6.5z"/>
	</g>
	<g>
		<path class="st0" d="M55.5,56.5h-51V55c0-14.1,11.4-25.5,25.5-25.5S55.5,40.9,55.5,55V56.5z M7.5,53.5h44.9
			c-0.8-11.7-10.5-21-22.5-21S8.3,41.8,7.5,53.5z"/>
	</g>
</g>
</svg>
