<?xml version="1.0" encoding="utf-8"?>
<!-- Generator: Adobe Illustrator 27.3.1, SVG Export Plug-In . SVG Version: 6.00 Build 0)  -->
<svg version="1.1" id="Layer_1" xmlns="http://www.w3.org/2000/svg" xmlns:xlink="http://www.w3.org/1999/xlink" x="0px" y="0px"
	 viewBox="0 0 60 60" style="enable-background:new 0 0 60 60;" xml:space="preserve">
<style type="text/css">
	.st0{fill:#FFFFFF;}
	.st1{fill-rule:evenodd;clip-rule:evenodd;fill:none;stroke:#000000;stroke-width:3;stroke-miterlimit:10;}
	
		.st2{fill-rule:evenodd;clip-rule:evenodd;fill:none;stroke:#000000;stroke-width:3;stroke-linecap:round;stroke-linejoin:round;stroke-miterlimit:10;}
</style>
<g>
	<path class="st0" d="M18.4,57.5c-0.1,0-0.1,0-0.2,0c-0.6-0.1-1.2-0.6-1.3-1.2L6,4.3C5.9,3.7,6.1,3.1,6.6,2.8
		c0.5-0.3,1.1-0.4,1.6-0.1l48.5,28.4c0.6,0.3,0.9,1,0.7,1.7c-0.2,0.7-0.8,1.1-1.4,1.1L30.5,34L19.8,56.6
		C19.5,57.2,19,57.5,18.4,57.5z M9.7,7L19,51.3l9.2-19.5c0.2-0.5,0.8-0.9,1.3-0.9l21-0.1L9.7,7z"/>
</g>
</svg>
