<?xml version="1.0" encoding="utf-8"?>
<!-- Generator: Adobe Illustrator 27.3.1, SVG Export Plug-In . SVG Version: 6.00 Build 0)  -->
<svg version="1.1" id="Layer_1" xmlns="http://www.w3.org/2000/svg" xmlns:xlink="http://www.w3.org/1999/xlink" x="0px" y="0px"
	 viewBox="0 0 300 300" style="enable-background:new 0 0 300 300;" xml:space="preserve">
<style type="text/css">
	.st0{fill:#FFFFFF;}
	.st1{clip-path:url(#SVGID_00000019649377120399319720000001920414645610068141_);}
	.st2{clip-path:url(#SVGID_00000077320182985776624970000018308258224347008176_);}
	.st3{fill:#FCFCFC;}
	.st4{clip-path:url(#SVGID_00000140004251487635151930000009453484194244172453_);}
	.st5{clip-path:url(#SVGID_00000157308020008975050220000001995449577319335047_);}
	.st6{clip-path:url(#SVGID_00000053508944291105284100000004178039169051846314_);}
	.st7{clip-path:url(#SVGID_00000137125444534816516190000014979008276045468294_);}
	.st8{clip-path:url(#SVGID_00000177486524411697673100000016078619792360205456_);}
</style>
<g>
	<g>
		<g>
			<g>
				<polygon class="st0" points="159.27,166.21 158.16,166.21 158.16,89.99 188.81,70.56 189.4,71.49 159.27,90.6 				"/>
			</g>
			<g>
				<polygon class="st0" points="161.32,167.4 160.22,167.4 160.22,91.19 190.86,71.76 191.46,72.69 161.32,91.8 				"/>
			</g>
			<g>
				<polygon class="st0" points="163.38,168.6 162.27,168.6 162.27,92.39 192.92,72.96 193.51,73.89 163.38,93 				"/>
			</g>
			<g>
				<polygon class="st0" points="165.43,169.8 164.33,169.8 164.33,93.59 194.98,74.16 195.57,75.09 165.43,94.2 				"/>
			</g>
			<g>
				<polygon class="st0" points="167.49,171 166.38,171 166.38,94.79 197.03,75.36 197.62,76.29 167.49,95.4 				"/>
			</g>
			<g>
				<polygon class="st0" points="169.54,172.2 168.44,172.2 168.44,95.99 199.09,76.56 199.68,77.49 169.54,96.59 				"/>
			</g>
		</g>
		<g>
			<g>
				<polygon class="st0" points="180.6,177.34 179.5,177.34 179.5,101.13 210.15,81.69 210.74,82.63 180.6,101.73 				"/>
			</g>
			<g>
				<polygon class="st0" points="182.39,178.54 181.29,178.54 181.29,102.33 211.93,82.89 212.52,83.83 182.39,102.93 				"/>
			</g>
			<g>
				<polygon class="st0" points="184.44,179.74 183.34,179.74 183.34,103.52 213.99,84.09 214.58,85.02 184.44,104.13 				"/>
			</g>
			<g>
				<polygon class="st0" points="186.5,180.94 185.4,180.94 185.4,104.72 216.04,85.29 216.63,86.22 186.5,105.33 				"/>
			</g>
			<g>
				<polygon class="st0" points="188.56,182.14 187.45,182.14 187.45,105.92 218.1,86.49 218.69,87.42 188.56,106.53 				"/>
			</g>
			<g>
				<polygon class="st0" points="190.61,183.33 189.51,183.33 189.51,107.12 220.15,87.69 220.74,88.62 190.61,107.73 				"/>
			</g>
		</g>
		<g>
			<g>
				<polygon class="st0" points="203.73,189.67 202.62,189.67 202.62,113.46 233.27,94.03 233.86,94.96 203.73,114.07 				"/>
			</g>
			<g>
				<polygon class="st0" points="205.51,190.87 204.41,190.87 204.41,114.66 235.06,95.23 235.65,96.16 205.51,115.26 				"/>
			</g>
			<g>
				<polygon class="st0" points="207.57,192.07 206.46,192.07 206.46,115.86 237.11,96.42 237.7,97.36 207.57,116.46 				"/>
			</g>
			<g>
				<polygon class="st0" points="209.62,193.27 208.52,193.27 208.52,117.06 239.17,97.62 239.76,98.56 209.62,117.66 				"/>
			</g>
			<g>
				<polygon class="st0" points="211.68,194.47 210.58,194.47 210.58,118.25 241.22,98.82 241.81,99.75 211.68,118.86 				"/>
			</g>
			<g>
				<polygon class="st0" points="213.73,195.67 212.63,195.67 212.63,119.45 243.28,100.02 243.87,100.95 213.73,120.06 				"/>
			</g>
		</g>
	</g>
	<g>
		<g>
			<defs>
				<path id="SVGID_1_" d="M13.15,152.49c-2.82-1.98-5.03-3.72-6.62-5.24l10.26-4.32c3.9,2.69,9.22,5.92,15.98,9.7
					c3.03,1.69,5.8,2.77,8.3,3.22c2.5,0.45,4.98,0.16,7.44-0.87l2.37-1c1.93-0.81,2.92-1.7,2.97-2.68c0.05-0.97-0.81-1.96-2.6-2.96
					l-4.69-2.62c-5.47-3.05-8.15-5.92-8.05-8.62c0.1-2.69,3.33-5.38,9.7-8.07l3.16-1.33c12.15-5.12,24.17-4.37,36.04,2.27
					c2.78,1.55,5.44,3.26,7.99,5.1c2.54,1.85,4.71,3.56,6.51,5.14l-10.25,4.32c-6.28-4.02-11.16-7.01-14.64-8.95
					c-2.83-1.58-5.48-2.56-7.94-2.93c-2.46-0.37-5.07,0.02-7.81,1.17l-1.75,0.74c-2.22,0.94-3.31,1.92-3.26,2.94
					c0.04,1.03,1.16,2.15,3.35,3.37l5.44,3.04c4.77,2.66,6.87,5.34,6.32,8.04c-0.56,2.69-3.32,5.09-8.29,7.18l-3.68,1.55
					c-4.91,2.07-9.49,3.24-13.75,3.53c-4.26,0.28-8.29-0.13-12.09-1.26c-3.8-1.12-7.77-2.84-11.89-5.14
					C18.79,156.24,15.97,154.46,13.15,152.49z"/>
			</defs>
			<clipPath id="SVGID_00000128485214012814957890000011339945489075884424_">
				<use xlink:href="#SVGID_1_"  style="overflow:visible;"/>
			</clipPath>
			<g style="clip-path:url(#SVGID_00000128485214012814957890000011339945489075884424_);">
				<g>
					<g>
						
							<rect x="-16.33" y="129.72" transform="matrix(0.9216 -0.3882 0.3882 0.9216 -48.3087 21.3904)" class="st0" width="90.25" height="1.1"/>
					</g>
					<g>
						
							<rect x="-14.67" y="130.65" transform="matrix(0.9216 -0.3882 0.3882 0.9216 -48.5389 22.109)" class="st0" width="90.25" height="1.1"/>
					</g>
					<g>
						
							<rect x="-12.76" y="131.72" transform="matrix(0.9216 -0.3882 0.3882 0.9216 -48.8038 22.936)" class="st0" width="90.25" height="1.1"/>
					</g>
					<g>
						
							<rect x="-10.84" y="132.79" transform="matrix(0.9216 -0.3882 0.3882 0.9216 -49.0687 23.763)" class="st0" width="90.25" height="1.1"/>
					</g>
					<g>
						
							<rect x="-8.93" y="133.85" transform="matrix(0.9216 -0.3882 0.3882 0.9216 -49.3337 24.5901)" class="st0" width="90.25" height="1.1"/>
					</g>
					<g>
						
							<rect x="-7.01" y="134.92" transform="matrix(0.9216 -0.3882 0.3882 0.9216 -49.5986 25.4171)" class="st0" width="90.25" height="1.1"/>
					</g>
					<g>
						
							<rect x="-5.1" y="135.99" transform="matrix(0.9216 -0.3882 0.3882 0.9216 -49.8635 26.2442)" class="st0" width="90.25" height="1.1"/>
					</g>
					<g>
						
							<rect x="-3.18" y="137.06" transform="matrix(0.9216 -0.3882 0.3882 0.9216 -50.1284 27.0712)" class="st0" width="90.25" height="1.1"/>
					</g>
				</g>
				<g>
					<g>
						
							<rect x="-1.17" y="138.18" transform="matrix(0.9216 -0.3882 0.3882 0.9216 -50.4065 27.9391)" class="st0" width="90.25" height="1.1"/>
					</g>
					<g>
						
							<rect x="0.49" y="139.11" transform="matrix(0.9216 -0.3882 0.3882 0.9216 -50.6366 28.6577)" class="st0" width="90.25" height="1.1"/>
					</g>
					<g>
						
							<rect x="2.4" y="140.18" transform="matrix(0.9216 -0.3882 0.3882 0.9216 -50.9016 29.4847)" class="st0" width="90.25" height="1.1"/>
					</g>
					<g>
						
							<rect x="4.32" y="141.25" transform="matrix(0.9216 -0.3882 0.3882 0.9216 -51.1665 30.3117)" class="st0" width="90.25" height="1.1"/>
					</g>
					<g>
						
							<rect x="6.23" y="142.32" transform="matrix(0.9216 -0.3882 0.3882 0.9216 -51.4314 31.1388)" class="st0" width="90.25" height="1.1"/>
					</g>
					<g>
						
							<rect x="8.15" y="143.39" transform="matrix(0.9216 -0.3882 0.3882 0.9216 -51.6963 31.9658)" class="st0" width="90.25" height="1.1"/>
					</g>
					<g>
						
							<rect x="10.06" y="144.46" transform="matrix(0.9216 -0.3882 0.3882 0.9216 -51.9613 32.7929)" class="st0" width="90.25" height="1.1"/>
					</g>
					<g>
						
							<rect x="11.98" y="145.53" transform="matrix(0.9216 -0.3882 0.3882 0.9216 -52.2262 33.6199)" class="st0" width="90.25" height="1.1"/>
					</g>
				</g>
				<g>
					<g>
						
							<rect x="13.99" y="146.65" transform="matrix(0.9216 -0.3882 0.3882 0.9216 -52.5042 34.4878)" class="st0" width="90.25" height="1.1"/>
					</g>
					<g>
						
							<rect x="15.65" y="147.58" transform="matrix(0.9216 -0.3882 0.3882 0.9216 -52.7344 35.2064)" class="st0" width="90.25" height="1.1"/>
					</g>
					<g>
						
							<rect x="17.57" y="148.65" transform="matrix(0.9216 -0.3882 0.3882 0.9216 -52.9993 36.0334)" class="st0" width="90.25" height="1.1"/>
					</g>
					<g>
						
							<rect x="19.48" y="149.72" transform="matrix(0.9216 -0.3882 0.3882 0.9216 -53.2643 36.8604)" class="st0" width="90.25" height="1.1"/>
					</g>
					<g>
						
							<rect x="21.39" y="150.79" transform="matrix(0.9216 -0.3882 0.3882 0.9216 -53.5292 37.6875)" class="st0" width="90.25" height="1.1"/>
					</g>
					<g>
						
							<rect x="23.31" y="151.86" transform="matrix(0.9216 -0.3882 0.3882 0.9216 -53.7941 38.5145)" class="st0" width="90.25" height="1.1"/>
					</g>
					<g>
						
							<rect x="25.22" y="152.93" transform="matrix(0.9216 -0.3882 0.3882 0.9216 -54.0591 39.3416)" class="st0" width="90.25" height="1.1"/>
					</g>
					<g>
						
							<rect x="27.14" y="154" transform="matrix(0.9216 -0.3882 0.3882 0.9216 -54.324 40.1686)" class="st0" width="90.25" height="1.1"/>
					</g>
				</g>
				<g>
					<g>
						
							<rect x="29.15" y="155.12" transform="matrix(0.9216 -0.3882 0.3882 0.9216 -54.602 41.0365)" class="st0" width="90.25" height="1.1"/>
					</g>
					<g>
						
							<rect x="30.81" y="156.05" transform="matrix(0.9216 -0.3882 0.3882 0.9216 -54.8322 41.7551)" class="st0" width="90.25" height="1.1"/>
					</g>
					<g>
						
							<rect x="32.73" y="157.12" transform="matrix(0.9216 -0.3882 0.3882 0.9216 -55.0971 42.5821)" class="st0" width="90.25" height="1.1"/>
					</g>
					<g>
						
							<rect x="34.64" y="158.19" transform="matrix(0.9216 -0.3882 0.3882 0.9216 -55.362 43.4091)" class="st0" width="90.25" height="1.1"/>
					</g>
					<g>
						
							<rect x="36.55" y="159.26" transform="matrix(0.9216 -0.3882 0.3882 0.9216 -55.627 44.2362)" class="st0" width="90.25" height="1.1"/>
					</g>
					<g>
						
							<rect x="38.47" y="160.32" transform="matrix(0.9216 -0.3882 0.3882 0.9216 -55.8919 45.0632)" class="st0" width="90.25" height="1.1"/>
					</g>
					<g>
						
							<rect x="40.38" y="161.39" transform="matrix(0.9216 -0.3882 0.3882 0.9216 -56.1568 45.8903)" class="st0" width="90.25" height="1.1"/>
					</g>
					<g>
						
							<rect x="42.3" y="162.46" transform="matrix(0.9216 -0.3882 0.3882 0.9216 -56.4218 46.7173)" class="st0" width="90.25" height="1.1"/>
					</g>
				</g>
				<g>
					<g>
						
							<rect x="44.31" y="163.59" transform="matrix(0.9216 -0.3882 0.3882 0.9216 -56.6998 47.5852)" class="st0" width="90.25" height="1.1"/>
					</g>
					<g>
						
							<rect x="45.97" y="164.51" transform="matrix(0.9216 -0.3882 0.3882 0.9216 -56.93 48.3037)" class="st0" width="90.25" height="1.1"/>
					</g>
					<g>
						
							<rect x="47.89" y="165.58" transform="matrix(0.9216 -0.3882 0.3882 0.9216 -57.1949 49.1308)" class="st0" width="90.25" height="1.1"/>
					</g>
					<g>
						
							<rect x="49.8" y="166.65" transform="matrix(0.9216 -0.3882 0.3882 0.9216 -57.4598 49.9579)" class="st0" width="90.25" height="1.1"/>
					</g>
					<g>
						
							<rect x="51.72" y="167.72" transform="matrix(0.9216 -0.3882 0.3882 0.9216 -57.7248 50.7849)" class="st0" width="90.25" height="1.1"/>
					</g>
					<g>
						
							<rect x="53.63" y="168.79" transform="matrix(0.9216 -0.3882 0.3882 0.9216 -57.9897 51.6119)" class="st0" width="90.25" height="1.1"/>
					</g>
					<g>
						
							<rect x="55.54" y="169.86" transform="matrix(0.9216 -0.3882 0.3882 0.9216 -58.2546 52.439)" class="st0" width="90.25" height="1.1"/>
					</g>
					<g>
						
							<rect x="57.46" y="170.93" transform="matrix(0.9216 -0.3882 0.3882 0.9216 -58.5195 53.266)" class="st0" width="90.25" height="1.1"/>
					</g>
				</g>
				<g>
					<g>
						
							<rect x="59.47" y="172.05" transform="matrix(0.9216 -0.3882 0.3882 0.9216 -58.7976 54.1339)" class="st0" width="90.25" height="1.1"/>
					</g>
					<g>
						
							<rect x="61.13" y="172.98" transform="matrix(0.9216 -0.3882 0.3882 0.9216 -59.0277 54.8524)" class="st0" width="90.25" height="1.1"/>
					</g>
					<g>
						
							<rect x="63.05" y="174.05" transform="matrix(0.9216 -0.3882 0.3882 0.9216 -59.2927 55.6795)" class="st0" width="90.25" height="1.1"/>
					</g>
					<g>
						
							<rect x="64.96" y="175.12" transform="matrix(0.9216 -0.3882 0.3882 0.9216 -59.5576 56.5065)" class="st0" width="90.25" height="1.1"/>
					</g>
					<g>
						
							<rect x="66.88" y="176.19" transform="matrix(0.9216 -0.3882 0.3882 0.9216 -59.8225 57.3335)" class="st0" width="90.25" height="1.1"/>
					</g>
					<g>
						
							<rect x="68.79" y="177.26" transform="matrix(0.9216 -0.3882 0.3882 0.9216 -60.0875 58.1606)" class="st0" width="90.25" height="1.1"/>
					</g>
					<g>
						
							<rect x="70.71" y="178.33" transform="matrix(0.9216 -0.3882 0.3882 0.9216 -60.3524 58.9877)" class="st0" width="90.25" height="1.1"/>
					</g>
					<g>
						
							<rect x="72.62" y="179.4" transform="matrix(0.9216 -0.3882 0.3882 0.9216 -60.6173 59.8147)" class="st0" width="90.25" height="1.1"/>
					</g>
				</g>
				<g>
					<g>
						
							<rect x="74.63" y="180.52" transform="matrix(0.9216 -0.3882 0.3882 0.9216 -60.8953 60.6826)" class="st0" width="90.25" height="1.1"/>
					</g>
					<g>
						
							<rect x="76.29" y="181.45" transform="matrix(0.9216 -0.3882 0.3882 0.9216 -61.1255 61.4011)" class="st0" width="90.25" height="1.1"/>
					</g>
					<g>
						
							<rect x="78.21" y="182.52" transform="matrix(0.9216 -0.3882 0.3882 0.9216 -61.3905 62.2282)" class="st0" width="90.25" height="1.1"/>
					</g>
					<g>
						
							<rect x="80.12" y="183.59" transform="matrix(0.9216 -0.3882 0.3882 0.9216 -61.6554 63.0552)" class="st0" width="90.25" height="1.1"/>
					</g>
					<g>
						
							<rect x="82.04" y="184.66" transform="matrix(0.9216 -0.3882 0.3882 0.9216 -61.9203 63.8822)" class="st0" width="90.25" height="1.1"/>
					</g>
					<g>
						
							<rect x="83.95" y="185.72" transform="matrix(0.9216 -0.3882 0.3882 0.9216 -62.1852 64.7093)" class="st0" width="90.25" height="1.1"/>
					</g>
					<g>
						
							<rect x="85.87" y="186.79" transform="matrix(0.9216 -0.3882 0.3882 0.9216 -62.4501 65.5363)" class="st0" width="90.25" height="1.1"/>
					</g>
					<g>
						
							<rect x="87.78" y="187.86" transform="matrix(0.9216 -0.3882 0.3882 0.9216 -62.7151 66.3634)" class="st0" width="90.25" height="1.1"/>
					</g>
				</g>
				<g>
					<g>
						
							<rect x="89.79" y="188.99" transform="matrix(0.9216 -0.3882 0.3882 0.9216 -62.9931 67.2313)" class="st0" width="90.25" height="1.1"/>
					</g>
					<g>
						
							<rect x="91.45" y="189.91" transform="matrix(0.9216 -0.3882 0.3882 0.9216 -63.2233 67.9498)" class="st0" width="90.25" height="1.1"/>
					</g>
					<g>
						
							<rect x="93.37" y="190.98" transform="matrix(0.9216 -0.3882 0.3882 0.9216 -63.4882 68.7769)" class="st0" width="90.25" height="1.1"/>
					</g>
					<g>
						
							<rect x="95.28" y="192.05" transform="matrix(0.9216 -0.3882 0.3882 0.9216 -63.7531 69.6039)" class="st0" width="90.25" height="1.1"/>
					</g>
					<g>
						
							<rect x="97.2" y="193.12" transform="matrix(0.9216 -0.3882 0.3882 0.9216 -64.0181 70.431)" class="st0" width="90.25" height="1.1"/>
					</g>
					<g>
						
							<rect x="99.11" y="194.19" transform="matrix(0.9216 -0.3882 0.3882 0.9216 -64.283 71.258)" class="st0" width="90.25" height="1.1"/>
					</g>
					<g>
						
							<rect x="101.03" y="195.26" transform="matrix(0.9216 -0.3882 0.3882 0.9216 -64.5479 72.085)" class="st0" width="90.25" height="1.1"/>
					</g>
					<g>
						
							<rect x="102.94" y="196.33" transform="matrix(0.9216 -0.3882 0.3882 0.9216 -64.8129 72.9121)" class="st0" width="90.25" height="1.1"/>
					</g>
				</g>
				<g>
					<g>
						
							<rect x="104.95" y="197.45" transform="matrix(0.9216 -0.3882 0.3882 0.9216 -65.0909 73.78)" class="st0" width="90.25" height="1.1"/>
					</g>
					<g>
						
							<rect x="106.61" y="198.38" transform="matrix(0.9216 -0.3882 0.3882 0.9216 -65.3211 74.4986)" class="st0" width="90.25" height="1.1"/>
					</g>
					<g>
						
							<rect x="108.53" y="199.45" transform="matrix(0.9216 -0.3882 0.3882 0.9216 -65.586 75.3256)" class="st0" width="90.25" height="1.1"/>
					</g>
					<g>
						
							<rect x="110.44" y="200.52" transform="matrix(0.9216 -0.3882 0.3882 0.9216 -65.8509 76.1526)" class="st0" width="90.25" height="1.1"/>
					</g>
					<g>
						
							<rect x="112.36" y="201.59" transform="matrix(0.9216 -0.3882 0.3882 0.9216 -66.1159 76.9797)" class="st0" width="90.25" height="1.1"/>
					</g>
					<g>
						
							<rect x="114.27" y="202.66" transform="matrix(0.9216 -0.3882 0.3882 0.9216 -66.3808 77.8067)" class="st0" width="90.25" height="1.1"/>
					</g>
					<g>
						
							<rect x="116.19" y="203.73" transform="matrix(0.9216 -0.3882 0.3882 0.9216 -66.6457 78.6337)" class="st0" width="90.25" height="1.1"/>
					</g>
					<g>
						
							<rect x="118.1" y="204.8" transform="matrix(0.9216 -0.3882 0.3882 0.9216 -66.9106 79.4608)" class="st0" width="90.25" height="1.1"/>
					</g>
				</g>
				<g>
					<g>
						
							<rect x="120.11" y="205.92" transform="matrix(0.9216 -0.3882 0.3882 0.9216 -67.1887 80.3287)" class="st0" width="90.25" height="1.1"/>
					</g>
					<g>
						
							<rect x="121.77" y="206.85" transform="matrix(0.9216 -0.3882 0.3882 0.9216 -67.4188 81.0473)" class="st0" width="90.25" height="1.1"/>
					</g>
					<g>
						
							<rect x="123.69" y="207.92" transform="matrix(0.9216 -0.3882 0.3882 0.9216 -67.6838 81.8743)" class="st0" width="90.25" height="1.1"/>
					</g>
					<g>
						
							<rect x="125.6" y="208.99" transform="matrix(0.9216 -0.3882 0.3882 0.9216 -67.9487 82.7013)" class="st0" width="90.25" height="1.1"/>
					</g>
					<g>
						
							<rect x="127.52" y="210.06" transform="matrix(0.9216 -0.3882 0.3882 0.9216 -68.2136 83.5284)" class="st0" width="90.25" height="1.1"/>
					</g>
					<g>
						
							<rect x="129.43" y="211.13" transform="matrix(0.9216 -0.3882 0.3882 0.9216 -68.4786 84.3554)" class="st0" width="90.25" height="1.1"/>
					</g>
					<g>
						
							<rect x="131.35" y="212.19" transform="matrix(0.9216 -0.3882 0.3882 0.9216 -68.7435 85.1824)" class="st0" width="90.25" height="1.1"/>
					</g>
					<g>
						
							<rect x="133.26" y="213.26" transform="matrix(0.9216 -0.3882 0.3882 0.9216 -69.0084 86.0095)" class="st0" width="90.25" height="1.1"/>
					</g>
				</g>
				<g>
					<g>
						
							<rect x="135.27" y="214.39" transform="matrix(0.9216 -0.3882 0.3882 0.9216 -69.2864 86.8774)" class="st0" width="90.25" height="1.1"/>
					</g>
					<g>
						
							<rect x="136.93" y="215.31" transform="matrix(0.9216 -0.3882 0.3882 0.9216 -69.5166 87.596)" class="st0" width="90.25" height="1.1"/>
					</g>
					<g>
						
							<rect x="138.85" y="216.38" transform="matrix(0.9216 -0.3882 0.3882 0.9216 -69.7815 88.423)" class="st0" width="90.25" height="1.1"/>
					</g>
					<g>
						
							<rect x="140.76" y="217.45" transform="matrix(0.9216 -0.3882 0.3882 0.9216 -70.0465 89.25)" class="st0" width="90.25" height="1.1"/>
					</g>
					<g>
						
							<rect x="142.68" y="218.52" transform="matrix(0.9216 -0.3882 0.3882 0.9216 -70.3114 90.0771)" class="st0" width="90.25" height="1.1"/>
					</g>
					<g>
						
							<rect x="144.59" y="219.59" transform="matrix(0.9216 -0.3882 0.3882 0.9216 -70.5763 90.9041)" class="st0" width="90.25" height="1.1"/>
					</g>
					<g>
						
							<rect x="146.51" y="220.66" transform="matrix(0.9216 -0.3882 0.3882 0.9216 -70.8413 91.7312)" class="st0" width="90.25" height="1.1"/>
					</g>
					<g>
						
							<rect x="148.42" y="221.73" transform="matrix(0.9216 -0.3882 0.3882 0.9216 -71.1062 92.5582)" class="st0" width="90.25" height="1.1"/>
					</g>
				</g>
				<g>
					<g>
						
							<rect x="150.43" y="222.85" transform="matrix(0.9216 -0.3882 0.3882 0.9216 -71.3842 93.426)" class="st0" width="90.25" height="1.1"/>
					</g>
					<g>
						
							<rect x="152.1" y="223.78" transform="matrix(0.9216 -0.3882 0.3882 0.9216 -71.6144 94.1447)" class="st0" width="90.25" height="1.1"/>
					</g>
					<g>
						
							<rect x="154.01" y="224.85" transform="matrix(0.9216 -0.3882 0.3882 0.9216 -71.8793 94.9717)" class="st0" width="90.25" height="1.1"/>
					</g>
					<g>
						
							<rect x="155.92" y="225.92" transform="matrix(0.9216 -0.3882 0.3882 0.9216 -72.1443 95.7987)" class="st0" width="90.25" height="1.1"/>
					</g>
					<g>
						
							<rect x="157.84" y="226.99" transform="matrix(0.9216 -0.3882 0.3882 0.9216 -72.4092 96.6258)" class="st0" width="90.25" height="1.1"/>
					</g>
					<g>
						
							<rect x="159.75" y="228.06" transform="matrix(0.9216 -0.3882 0.3882 0.9216 -72.6741 97.4528)" class="st0" width="90.25" height="1.1"/>
					</g>
					<g>
						
							<rect x="161.67" y="229.13" transform="matrix(0.9216 -0.3882 0.3882 0.9216 -72.939 98.2799)" class="st0" width="90.25" height="1.1"/>
					</g>
					<g>
						
							<rect x="163.58" y="230.2" transform="matrix(0.9216 -0.3882 0.3882 0.9216 -73.204 99.1069)" class="st0" width="90.25" height="1.1"/>
					</g>
				</g>
				<g>
					<g>
						
							<rect x="165.59" y="231.32" transform="matrix(0.9216 -0.3882 0.3882 0.9216 -73.482 99.9748)" class="st0" width="90.25" height="1.1"/>
					</g>
					<g>
						
							<rect x="167.26" y="232.25" transform="matrix(0.9216 -0.3882 0.3882 0.9216 -73.7122 100.6934)" class="st0" width="90.25" height="1.1"/>
					</g>
					<g>
						
							<rect x="169.17" y="233.32" transform="matrix(0.9216 -0.3882 0.3882 0.9216 -73.9771 101.5204)" class="st0" width="90.25" height="1.1"/>
					</g>
					<g>
						
							<rect x="171.09" y="234.39" transform="matrix(0.9216 -0.3882 0.3882 0.9216 -74.242 102.3474)" class="st0" width="90.25" height="1.1"/>
					</g>
					<g>
						
							<rect x="173" y="235.46" transform="matrix(0.9216 -0.3882 0.3882 0.9216 -74.5069 103.1744)" class="st0" width="90.25" height="1.1"/>
					</g>
					<g>
						
							<rect x="174.91" y="236.53" transform="matrix(0.9216 -0.3882 0.3882 0.9216 -74.7719 104.0015)" class="st0" width="90.25" height="1.1"/>
					</g>
					<g>
						
							<rect x="176.83" y="237.59" transform="matrix(0.9216 -0.3882 0.3882 0.9216 -75.0368 104.8286)" class="st0" width="90.25" height="1.1"/>
					</g>
					<g>
						
							<rect x="178.74" y="238.66" transform="matrix(0.9216 -0.3882 0.3882 0.9216 -75.3018 105.6555)" class="st0" width="90.25" height="1.1"/>
					</g>
				</g>
			</g>
		</g>
		<g>
			<defs>
				<path id="SVGID_00000076581301971083886960000017400851668633334656_" d="M115.78,144.36l11.03,6.16l-36.11,15.21l4.69,2.62
					l25.1-1.96l11.18,6.24l-33.95,2.77l-11.93,17.73l-11.18-6.24l8.97-13.71l-4.55-2.54l-19.11,8.05l-11.03-6.16L115.78,144.36z"/>
			</defs>
			<clipPath id="SVGID_00000013159158217153181580000014288975446355739306_">
				<use xlink:href="#SVGID_00000076581301971083886960000017400851668633334656_"  style="overflow:visible;"/>
			</clipPath>
			<g style="clip-path:url(#SVGID_00000013159158217153181580000014288975446355739306_);">
				<g>
					<g>
						
							<rect x="29.15" y="155.12" transform="matrix(0.9216 -0.3882 0.3882 0.9216 -54.602 41.0365)" class="st3" width="90.25" height="1.1"/>
					</g>
					<g>
						
							<rect x="30.81" y="156.05" transform="matrix(0.9216 -0.3882 0.3882 0.9216 -54.8322 41.7551)" class="st3" width="90.25" height="1.1"/>
					</g>
					<g>
						
							<rect x="32.73" y="157.12" transform="matrix(0.9216 -0.3882 0.3882 0.9216 -55.0971 42.5821)" class="st3" width="90.25" height="1.1"/>
					</g>
					<g>
						
							<rect x="34.64" y="158.19" transform="matrix(0.9216 -0.3882 0.3882 0.9216 -55.362 43.4091)" class="st3" width="90.25" height="1.1"/>
					</g>
					<g>
						
							<rect x="36.55" y="159.26" transform="matrix(0.9216 -0.3882 0.3882 0.9216 -55.627 44.2362)" class="st3" width="90.25" height="1.1"/>
					</g>
					<g>
						
							<rect x="38.47" y="160.32" transform="matrix(0.9216 -0.3882 0.3882 0.9216 -55.8919 45.0632)" class="st3" width="90.25" height="1.1"/>
					</g>
					<g>
						
							<rect x="40.38" y="161.39" transform="matrix(0.9216 -0.3882 0.3882 0.9216 -56.1568 45.8903)" class="st3" width="90.25" height="1.1"/>
					</g>
					<g>
						
							<rect x="42.3" y="162.46" transform="matrix(0.9216 -0.3882 0.3882 0.9216 -56.4218 46.7173)" class="st3" width="90.25" height="1.1"/>
					</g>
				</g>
				<g>
					<g>
						
							<rect x="44.31" y="163.59" transform="matrix(0.9216 -0.3882 0.3882 0.9216 -56.6998 47.5852)" class="st3" width="90.25" height="1.1"/>
					</g>
					<g>
						
							<rect x="45.97" y="164.51" transform="matrix(0.9216 -0.3882 0.3882 0.9216 -56.93 48.3037)" class="st3" width="90.25" height="1.1"/>
					</g>
					<g>
						
							<rect x="47.89" y="165.58" transform="matrix(0.9216 -0.3882 0.3882 0.9216 -57.1949 49.1308)" class="st3" width="90.25" height="1.1"/>
					</g>
					<g>
						
							<rect x="49.8" y="166.65" transform="matrix(0.9216 -0.3882 0.3882 0.9216 -57.4598 49.9579)" class="st3" width="90.25" height="1.1"/>
					</g>
					<g>
						
							<rect x="51.72" y="167.72" transform="matrix(0.9216 -0.3882 0.3882 0.9216 -57.7248 50.7849)" class="st3" width="90.25" height="1.1"/>
					</g>
					<g>
						
							<rect x="53.63" y="168.79" transform="matrix(0.9216 -0.3882 0.3882 0.9216 -57.9897 51.6119)" class="st3" width="90.25" height="1.1"/>
					</g>
					<g>
						
							<rect x="55.54" y="169.86" transform="matrix(0.9216 -0.3882 0.3882 0.9216 -58.2546 52.439)" class="st3" width="90.25" height="1.1"/>
					</g>
					<g>
						
							<rect x="57.46" y="170.93" transform="matrix(0.9216 -0.3882 0.3882 0.9216 -58.5195 53.266)" class="st3" width="90.25" height="1.1"/>
					</g>
				</g>
				<g>
					<g>
						
							<rect x="59.47" y="172.05" transform="matrix(0.9216 -0.3882 0.3882 0.9216 -58.7976 54.1339)" class="st3" width="90.25" height="1.1"/>
					</g>
					<g>
						
							<rect x="61.13" y="172.98" transform="matrix(0.9216 -0.3882 0.3882 0.9216 -59.0277 54.8524)" class="st3" width="90.25" height="1.1"/>
					</g>
					<g>
						
							<rect x="63.05" y="174.05" transform="matrix(0.9216 -0.3882 0.3882 0.9216 -59.2927 55.6795)" class="st3" width="90.25" height="1.1"/>
					</g>
					<g>
						
							<rect x="64.96" y="175.12" transform="matrix(0.9216 -0.3882 0.3882 0.9216 -59.5576 56.5065)" class="st3" width="90.25" height="1.1"/>
					</g>
					<g>
						
							<rect x="66.88" y="176.19" transform="matrix(0.9216 -0.3882 0.3882 0.9216 -59.8225 57.3335)" class="st3" width="90.25" height="1.1"/>
					</g>
					<g>
						
							<rect x="68.79" y="177.26" transform="matrix(0.9216 -0.3882 0.3882 0.9216 -60.0875 58.1606)" class="st3" width="90.25" height="1.1"/>
					</g>
					<g>
						
							<rect x="70.71" y="178.33" transform="matrix(0.9216 -0.3882 0.3882 0.9216 -60.3524 58.9877)" class="st3" width="90.25" height="1.1"/>
					</g>
					<g>
						
							<rect x="72.62" y="179.4" transform="matrix(0.9216 -0.3882 0.3882 0.9216 -60.6173 59.8147)" class="st3" width="90.25" height="1.1"/>
					</g>
				</g>
			</g>
		</g>
		<g>
			<g>
				<defs>
					<polygon id="SVGID_00000072960629070675206050000015589504090865402285_" points="90.18,195.59 101.21,201.75 148.28,181.92 
						137.25,175.76 					"/>
				</defs>
				<clipPath id="SVGID_00000134221891993706916100000003746384120371063432_">
					<use xlink:href="#SVGID_00000072960629070675206050000015589504090865402285_"  style="overflow:visible;"/>
				</clipPath>
				<g style="clip-path:url(#SVGID_00000134221891993706916100000003746384120371063432_);">
					<g>
						<g>
							<g>
								<g>
									
										<rect x="102.08" y="191.11" transform="matrix(0.9216 -0.3882 0.3882 0.9216 -62.8542 72.1675)" class="st0" width="90.25" height="1.1"/>
								</g>
								<g>
									
										<rect x="103.74" y="192.04" transform="matrix(0.9216 -0.3882 0.3882 0.9216 -63.0843 72.8861)" class="st0" width="90.25" height="1.1"/>
								</g>
								<g>
									
										<rect x="105.66" y="193.11" transform="matrix(0.9216 -0.3882 0.3882 0.9216 -63.3493 73.7131)" class="st0" width="90.25" height="1.1"/>
								</g>
								<g>
									
										<rect x="107.57" y="194.18" transform="matrix(0.9216 -0.3882 0.3882 0.9216 -63.6142 74.5401)" class="st0" width="90.25" height="1.1"/>
								</g>
								<g>
									
										<rect x="109.48" y="195.25" transform="matrix(0.9216 -0.3882 0.3882 0.9216 -63.8791 75.3672)" class="st0" width="90.25" height="1.1"/>
								</g>
								<g>
									
										<rect x="111.4" y="196.32" transform="matrix(0.9216 -0.3882 0.3882 0.9216 -64.1441 76.1942)" class="st0" width="90.25" height="1.1"/>
								</g>
								<g>
									
										<rect x="113.31" y="197.39" transform="matrix(0.9216 -0.3882 0.3882 0.9216 -64.409 77.0213)" class="st0" width="90.25" height="1.1"/>
								</g>
								<g>
									
										<rect x="115.23" y="198.45" transform="matrix(0.9216 -0.3882 0.3882 0.9216 -64.6739 77.8483)" class="st0" width="90.25" height="1.1"/>
								</g>
							</g>
							<g>
								<g>
									
										<rect x="117.24" y="199.58" transform="matrix(0.9216 -0.3882 0.3882 0.9216 -64.9519 78.7162)" class="st0" width="90.25" height="1.1"/>
								</g>
								<g>
									
										<rect x="118.9" y="200.51" transform="matrix(0.9216 -0.3882 0.3882 0.9216 -65.1821 79.4348)" class="st0" width="90.25" height="1.1"/>
								</g>
								<g>
									
										<rect x="120.82" y="201.57" transform="matrix(0.9216 -0.3882 0.3882 0.9216 -65.4471 80.2618)" class="st0" width="90.25" height="1.1"/>
								</g>
								<g>
									
										<rect x="122.73" y="202.64" transform="matrix(0.9216 -0.3882 0.3882 0.9216 -65.712 81.0888)" class="st0" width="90.25" height="1.1"/>
								</g>
								<g>
									
										<rect x="124.65" y="203.71" transform="matrix(0.9216 -0.3882 0.3882 0.9216 -65.9769 81.9159)" class="st0" width="90.25" height="1.1"/>
								</g>
								<g>
									
										<rect x="126.56" y="204.78" transform="matrix(0.9216 -0.3882 0.3882 0.9216 -66.2418 82.7429)" class="st0" width="90.25" height="1.1"/>
								</g>
								<g>
									
										<rect x="128.47" y="205.85" transform="matrix(0.9216 -0.3882 0.3882 0.9216 -66.5068 83.57)" class="st0" width="90.25" height="1.1"/>
								</g>
								<g>
									
										<rect x="130.39" y="206.92" transform="matrix(0.9216 -0.3882 0.3882 0.9216 -66.7717 84.397)" class="st0" width="90.25" height="1.1"/>
								</g>
							</g>
							<g>
								<g>
									
										<rect x="132.4" y="208.04" transform="matrix(0.9216 -0.3882 0.3882 0.9216 -67.0497 85.2649)" class="st0" width="90.25" height="1.1"/>
								</g>
								<g>
									
										<rect x="134.06" y="208.97" transform="matrix(0.9216 -0.3882 0.3882 0.9216 -67.2799 85.9835)" class="st0" width="90.25" height="1.1"/>
								</g>
								<g>
									
										<rect x="135.98" y="210.04" transform="matrix(0.9216 -0.3882 0.3882 0.9216 -67.5448 86.8105)" class="st0" width="90.25" height="1.1"/>
								</g>
								<g>
									
										<rect x="137.89" y="211.11" transform="matrix(0.9216 -0.3882 0.3882 0.9216 -67.8098 87.6375)" class="st0" width="90.25" height="1.1"/>
								</g>
								<g>
									
										<rect x="139.81" y="212.18" transform="matrix(0.9216 -0.3882 0.3882 0.9216 -68.0747 88.4646)" class="st0" width="90.25" height="1.1"/>
								</g>
								<g>
									
										<rect x="141.72" y="213.25" transform="matrix(0.9216 -0.3882 0.3882 0.9216 -68.3396 89.2916)" class="st0" width="90.25" height="1.1"/>
								</g>
								<g>
									
										<rect x="143.64" y="214.32" transform="matrix(0.9216 -0.3882 0.3882 0.9216 -68.6045 90.1187)" class="st0" width="90.25" height="1.1"/>
								</g>
								<g>
									
										<rect x="145.55" y="215.39" transform="matrix(0.9216 -0.3882 0.3882 0.9216 -68.8695 90.9456)" class="st0" width="90.25" height="1.1"/>
								</g>
							</g>
						</g>
					</g>
					<g>
						<g>
							<g>
								
									<rect x="56.6" y="165.71" transform="matrix(0.9216 -0.3882 0.3882 0.9216 -56.5608 52.5214)" class="st0" width="90.25" height="1.1"/>
							</g>
							<g>
								
									<rect x="58.26" y="166.64" transform="matrix(0.9216 -0.3882 0.3882 0.9216 -56.791 53.24)" class="st0" width="90.25" height="1.1"/>
							</g>
							<g>
								
									<rect x="60.17" y="167.71" transform="matrix(0.9216 -0.3882 0.3882 0.9216 -57.056 54.067)" class="st0" width="90.25" height="1.1"/>
							</g>
							<g>
								
									<rect x="62.09" y="168.78" transform="matrix(0.9216 -0.3882 0.3882 0.9216 -57.3209 54.894)" class="st0" width="90.25" height="1.1"/>
							</g>
							<g>
								
									<rect x="64" y="169.85" transform="matrix(0.9216 -0.3882 0.3882 0.9216 -57.5858 55.7211)" class="st0" width="90.25" height="1.1"/>
							</g>
							<g>
								
									<rect x="65.92" y="170.92" transform="matrix(0.9216 -0.3882 0.3882 0.9216 -57.8507 56.5481)" class="st0" width="90.25" height="1.1"/>
							</g>
							<g>
								
									<rect x="67.83" y="171.98" transform="matrix(0.9216 -0.3882 0.3882 0.9216 -58.1157 57.3751)" class="st0" width="90.25" height="1.1"/>
							</g>
							<g>
								<path class="st0" d="M73.5,191.63l-0.43-1.01c11.14-4.76,22.68-9.55,33.84-14.19c15.37-6.39,31.26-12.99,46.36-19.6
									l0.44,1.01c-15.11,6.61-31,13.22-46.38,19.61C96.18,182.08,84.64,186.88,73.5,191.63z"/>
							</g>
						</g>
						<g>
							<g>
								<path class="st0" d="M75.51,192.76l-0.43-1.01c11.1-4.74,22.64-9.53,33.8-14.17c15.49-6.44,31.5-13.1,46.6-19.7l0.44,1.01
									c-15.1,6.61-31.12,13.27-46.62,19.71C98.14,183.23,86.61,188.02,75.51,192.76z"/>
							</g>
							<g>
								<path class="st0" d="M77.17,193.69l-0.42-1.02c27.45-11.37,54.6-22.81,80.68-33.99l0.43,1.01
									C131.78,170.88,104.63,182.32,77.17,193.69z"/>
							</g>
							<g>
								<path class="st0" d="M79.09,194.76l-0.43-1.02c28.74-12.1,54.68-23.03,81.13-34.18l0.43,1.02
									C133.77,171.73,107.83,182.65,79.09,194.76z"/>
							</g>
							<g>
								<path class="st0" d="M81.01,195.82l-0.43-1.01c26.74-11.44,54.08-22.96,81.26-34.24l0.42,1.02
									C135.08,172.87,107.74,184.39,81.01,195.82z"/>
							</g>
							<g>
								<path class="st0" d="M82.92,196.89l-0.43-1.02c11.67-4.95,23.6-9.95,35.14-14.78c15.3-6.4,31.12-13.03,46.56-19.65
									l0.43,1.01c-15.44,6.62-31.27,13.24-46.57,19.65C106.52,186.95,94.59,191.94,82.92,196.89z"/>
							</g>
							<g>
								<path class="st0" d="M84.83,197.96l-0.43-1.02c27.04-11.38,54.57-22.98,81.84-34.48l0.43,1.02
									C139.4,174.99,111.87,186.59,84.83,197.96z"/>
							</g>
							<g>
								<path class="st0" d="M86.75,199.03l-0.43-1.01c27.37-11.7,54.95-23.32,81.97-34.54l0.42,1.02
									C141.69,175.71,114.12,187.33,86.75,199.03z"/>
							</g>
							<g>
								<path class="st0" d="M88.66,200.1l-0.43-1.02c11.54-4.89,23.34-9.83,34.75-14.61c15.59-6.53,31.72-13.28,47.33-19.97
									l0.43,1.01c-15.62,6.7-31.75,13.45-47.34,19.98C112,190.27,100.2,195.21,88.66,200.1z"/>
							</g>
						</g>
						<g>
							<g>
								<path class="st0" d="M90.67,201.23l-0.42-1.02c16.34-6.76,32.54-13.63,48.2-20.27c10.93-4.64,22.24-9.43,33.47-14.14
									l0.43,1.02c-11.23,4.71-22.54,9.5-33.47,14.14C123.21,187.59,107.02,194.46,90.67,201.23z"/>
							</g>
							<g>
								<path class="st0" d="M92.33,202.15l-0.43-1.02l23.01-9.69c19.33-8.14,38.68-16.29,58.02-24.45l0.43,1.02
									c-19.33,8.15-38.68,16.3-58.02,24.45L92.33,202.15z"/>
							</g>
							<g>
								<path class="st0" d="M94.25,203.22l-0.43-1.01c26.82-11.48,54.33-23.08,81.79-34.46l0.42,1.02
									C148.58,180.15,121.06,191.74,94.25,203.22z"/>
							</g>
							<g>
								
									<rect x="92.41" y="185.71" transform="matrix(0.9216 -0.3882 0.3882 0.9216 -61.5164 67.9914)" class="st0" width="90.25" height="1.1"/>
							</g>
							<g>
								
									<rect x="94.32" y="186.78" transform="matrix(0.9216 -0.3882 0.3882 0.9216 -61.7814 68.8185)" class="st0" width="90.25" height="1.1"/>
							</g>
							<g>
								
									<rect x="96.24" y="187.85" transform="matrix(0.9216 -0.3882 0.3882 0.9216 -62.0463 69.6455)" class="st0" width="90.25" height="1.1"/>
							</g>
							<g>
								
									<rect x="98.15" y="188.92" transform="matrix(0.9216 -0.3882 0.3882 0.9216 -62.3112 70.4725)" class="st0" width="90.25" height="1.1"/>
							</g>
							<g>
								
									<rect x="100.07" y="189.99" transform="matrix(0.9216 -0.3882 0.3882 0.9216 -62.5762 71.2996)" class="st0" width="90.25" height="1.1"/>
							</g>
						</g>
					</g>
				</g>
			</g>
			<g>
				<defs>
					<path id="SVGID_00000124843884189398822850000004622546716212633216_" d="M166.71,174.01c0.1-0.29-0.07-0.55-0.52-0.8
						l-8.49-4.74c-1.04-0.58-2.18-0.62-3.41-0.1l-8.59,3.62c-0.53,0.22-0.81,0.48-0.86,0.76c-0.05,0.29,0.18,0.57,0.67,0.85
						l8.49,4.74c0.94,0.53,2,0.55,3.17,0.05l8.59-3.62C166.3,174.55,166.61,174.3,166.71,174.01z"/>
				</defs>
				<clipPath id="SVGID_00000149379821437014706390000014049234010255770295_">
					<use xlink:href="#SVGID_00000124843884189398822850000004622546716212633216_"  style="overflow:visible;"/>
				</clipPath>
				<g style="clip-path:url(#SVGID_00000149379821437014706390000014049234010255770295_);">
					<g>
						<g>
							
								<rect x="74.63" y="180.52" transform="matrix(0.9216 -0.3882 0.3882 0.9216 -60.8953 60.6826)" class="st0" width="90.25" height="1.1"/>
						</g>
						<g>
							
								<rect x="76.29" y="181.45" transform="matrix(0.9216 -0.3882 0.3882 0.9216 -61.1255 61.4011)" class="st0" width="90.25" height="1.1"/>
						</g>
						<g>
							
								<rect x="78.21" y="182.52" transform="matrix(0.9216 -0.3882 0.3882 0.9216 -61.3905 62.2282)" class="st0" width="90.25" height="1.1"/>
						</g>
						<g>
							
								<rect x="80.12" y="183.59" transform="matrix(0.9216 -0.3882 0.3882 0.9216 -61.6554 63.0552)" class="st0" width="90.25" height="1.1"/>
						</g>
						<g>
							
								<rect x="82.04" y="184.66" transform="matrix(0.9216 -0.3882 0.3882 0.9216 -61.9203 63.8822)" class="st0" width="90.25" height="1.1"/>
						</g>
						<g>
							
								<rect x="83.95" y="185.72" transform="matrix(0.9216 -0.3882 0.3882 0.9216 -62.1852 64.7093)" class="st0" width="90.25" height="1.1"/>
						</g>
						<g>
							
								<rect x="85.87" y="186.79" transform="matrix(0.9216 -0.3882 0.3882 0.9216 -62.4501 65.5363)" class="st0" width="90.25" height="1.1"/>
						</g>
						<g>
							
								<rect x="87.78" y="187.86" transform="matrix(0.9216 -0.3882 0.3882 0.9216 -62.7151 66.3634)" class="st0" width="90.25" height="1.1"/>
						</g>
					</g>
					<g>
						<g>
							
								<rect x="89.79" y="188.99" transform="matrix(0.9216 -0.3882 0.3882 0.9216 -62.9931 67.2313)" class="st0" width="90.25" height="1.1"/>
						</g>
						<g>
							
								<rect x="91.45" y="189.91" transform="matrix(0.9216 -0.3882 0.3882 0.9216 -63.2233 67.9498)" class="st0" width="90.25" height="1.1"/>
						</g>
						<g>
							
								<rect x="93.37" y="190.98" transform="matrix(0.9216 -0.3882 0.3882 0.9216 -63.4882 68.7769)" class="st0" width="90.25" height="1.1"/>
						</g>
						<g>
							
								<rect x="95.28" y="192.05" transform="matrix(0.9216 -0.3882 0.3882 0.9216 -63.7531 69.6039)" class="st0" width="90.25" height="1.1"/>
						</g>
						<g>
							
								<rect x="97.2" y="193.12" transform="matrix(0.9216 -0.3882 0.3882 0.9216 -64.0181 70.431)" class="st0" width="90.25" height="1.1"/>
						</g>
						<g>
							
								<rect x="99.11" y="194.19" transform="matrix(0.9216 -0.3882 0.3882 0.9216 -64.283 71.258)" class="st0" width="90.25" height="1.1"/>
						</g>
						<g>
							
								<rect x="101.03" y="195.26" transform="matrix(0.9216 -0.3882 0.3882 0.9216 -64.5479 72.085)" class="st0" width="90.25" height="1.1"/>
						</g>
						<g>
							
								<rect x="102.94" y="196.33" transform="matrix(0.9216 -0.3882 0.3882 0.9216 -64.8129 72.9121)" class="st0" width="90.25" height="1.1"/>
						</g>
					</g>
					<g>
						<g>
							
								<rect x="104.95" y="197.45" transform="matrix(0.9216 -0.3882 0.3882 0.9216 -65.0909 73.78)" class="st0" width="90.25" height="1.1"/>
						</g>
						<g>
							
								<rect x="106.61" y="198.38" transform="matrix(0.9216 -0.3882 0.3882 0.9216 -65.3211 74.4986)" class="st0" width="90.25" height="1.1"/>
						</g>
						<g>
							
								<rect x="108.53" y="199.45" transform="matrix(0.9216 -0.3882 0.3882 0.9216 -65.586 75.3256)" class="st0" width="90.25" height="1.1"/>
						</g>
						<g>
							
								<rect x="110.44" y="200.52" transform="matrix(0.9216 -0.3882 0.3882 0.9216 -65.8509 76.1526)" class="st0" width="90.25" height="1.1"/>
						</g>
						<g>
							
								<rect x="112.36" y="201.59" transform="matrix(0.9216 -0.3882 0.3882 0.9216 -66.1159 76.9797)" class="st0" width="90.25" height="1.1"/>
						</g>
						<g>
							
								<rect x="114.27" y="202.66" transform="matrix(0.9216 -0.3882 0.3882 0.9216 -66.3808 77.8067)" class="st0" width="90.25" height="1.1"/>
						</g>
						<g>
							
								<rect x="116.19" y="203.73" transform="matrix(0.9216 -0.3882 0.3882 0.9216 -66.6457 78.6337)" class="st0" width="90.25" height="1.1"/>
						</g>
						<g>
							
								<rect x="118.1" y="204.8" transform="matrix(0.9216 -0.3882 0.3882 0.9216 -66.9106 79.4608)" class="st0" width="90.25" height="1.1"/>
						</g>
					</g>
				</g>
			</g>
		</g>
		<g>
			<defs>
				<path id="SVGID_00000114032695122165832320000016733582055039813520_" d="M116.35,206.73c0.42-2.2,3.26-4.4,8.52-6.62
					l51.71-21.79l11.03,6.16l-49.78,20.98c-2.51,1.06-3.99,2-4.42,2.81c-0.44,0.82-0.03,1.69,1.23,2.62l2.53,1.93l-9.38,3.95
					l-5.74-3.2C117.83,211.2,115.92,208.93,116.35,206.73z"/>
			</defs>
			<clipPath id="SVGID_00000165945294147081675740000004536871340806485149_">
				<use xlink:href="#SVGID_00000114032695122165832320000016733582055039813520_"  style="overflow:visible;"/>
			</clipPath>
			<g style="clip-path:url(#SVGID_00000165945294147081675740000004536871340806485149_);">
				<g>
					<g>
						<g>
							<g>
								
									<rect x="104.8" y="189.96" transform="matrix(0.9216 -0.3882 0.3882 0.9216 -62.196 73.1335)" class="st0" width="90.25" height="1.1"/>
							</g>
							<g>
								
									<rect x="106.46" y="190.89" transform="matrix(0.9216 -0.3882 0.3882 0.9216 -62.4262 73.8521)" class="st0" width="90.25" height="1.1"/>
							</g>
							<g>
								
									<rect x="108.38" y="191.96" transform="matrix(0.9216 -0.3882 0.3882 0.9216 -62.6911 74.6791)" class="st0" width="90.25" height="1.1"/>
							</g>
							<g>
								
									<rect x="110.29" y="193.03" transform="matrix(0.9216 -0.3882 0.3882 0.9216 -62.9561 75.5061)" class="st0" width="90.25" height="1.1"/>
							</g>
							<g>
								
									<rect x="112.2" y="194.1" transform="matrix(0.9216 -0.3882 0.3882 0.9216 -63.221 76.3332)" class="st0" width="90.25" height="1.1"/>
							</g>
							<g>
								
									<rect x="114.12" y="195.17" transform="matrix(0.9216 -0.3882 0.3882 0.9216 -63.4859 77.1602)" class="st0" width="90.25" height="1.1"/>
							</g>
							<g>
								
									<rect x="116.03" y="196.24" transform="matrix(0.9216 -0.3882 0.3882 0.9216 -63.7508 77.9872)" class="st0" width="90.25" height="1.1"/>
							</g>
							<g>
								
									<rect x="117.95" y="197.31" transform="matrix(0.9216 -0.3882 0.3882 0.9216 -64.0158 78.8143)" class="st0" width="90.25" height="1.1"/>
							</g>
						</g>
						<g>
							<g>
								
									<rect x="119.96" y="198.43" transform="matrix(0.9216 -0.3882 0.3882 0.9216 -64.2938 79.6822)" class="st0" width="90.25" height="1.1"/>
							</g>
							<g>
								
									<rect x="121.62" y="199.36" transform="matrix(0.9216 -0.3882 0.3882 0.9216 -64.524 80.4008)" class="st0" width="90.25" height="1.1"/>
							</g>
							<g>
								
									<rect x="123.54" y="200.43" transform="matrix(0.9216 -0.3882 0.3882 0.9216 -64.7889 81.2278)" class="st0" width="90.25" height="1.1"/>
							</g>
							<g>
								
									<rect x="125.45" y="201.5" transform="matrix(0.9216 -0.3882 0.3882 0.9216 -65.0538 82.0548)" class="st0" width="90.25" height="1.1"/>
							</g>
							<g>
								
									<rect x="127.37" y="202.57" transform="matrix(0.9216 -0.3882 0.3882 0.9216 -65.3188 82.8819)" class="st0" width="90.25" height="1.1"/>
							</g>
							<g>
								
									<rect x="129.28" y="203.64" transform="matrix(0.9216 -0.3882 0.3882 0.9216 -65.5837 83.7089)" class="st0" width="90.25" height="1.1"/>
							</g>
							<g>
								
									<rect x="131.19" y="204.71" transform="matrix(0.9216 -0.3882 0.3882 0.9216 -65.8486 84.5359)" class="st0" width="90.25" height="1.1"/>
							</g>
							<g>
								
									<rect x="133.11" y="205.77" transform="matrix(0.9216 -0.3882 0.3882 0.9216 -66.1135 85.363)" class="st0" width="90.25" height="1.1"/>
							</g>
						</g>
						<g>
							<g>
								
									<rect x="135.12" y="206.9" transform="matrix(0.9216 -0.3882 0.3882 0.9216 -66.3916 86.2309)" class="st0" width="90.25" height="1.1"/>
							</g>
							<g>
								
									<rect x="136.78" y="207.83" transform="matrix(0.9216 -0.3882 0.3882 0.9216 -66.6217 86.9495)" class="st0" width="90.25" height="1.1"/>
							</g>
							<g>
								
									<rect x="138.7" y="208.9" transform="matrix(0.9216 -0.3882 0.3882 0.9216 -66.8867 87.7765)" class="st0" width="90.25" height="1.1"/>
							</g>
							<g>
								
									<rect x="140.61" y="209.96" transform="matrix(0.9216 -0.3882 0.3882 0.9216 -67.1516 88.6035)" class="st0" width="90.25" height="1.1"/>
							</g>
							<g>
								
									<rect x="142.53" y="211.03" transform="matrix(0.9216 -0.3882 0.3882 0.9216 -67.4165 89.4306)" class="st0" width="90.25" height="1.1"/>
							</g>
							<g>
								
									<rect x="144.44" y="212.1" transform="matrix(0.9216 -0.3882 0.3882 0.9216 -67.6814 90.2576)" class="st0" width="90.25" height="1.1"/>
							</g>
							<g>
								
									<rect x="146.36" y="213.17" transform="matrix(0.9216 -0.3882 0.3882 0.9216 -67.9464 91.0846)" class="st0" width="90.25" height="1.1"/>
							</g>
							<g>
								
									<rect x="148.27" y="214.24" transform="matrix(0.9216 -0.3882 0.3882 0.9216 -68.2113 91.9117)" class="st0" width="90.25" height="1.1"/>
							</g>
						</g>
					</g>
				</g>
				<g>
					<g>
						<g>
							
								<rect x="59.32" y="164.56" transform="matrix(0.9216 -0.3882 0.3882 0.9216 -55.9027 53.4874)" class="st0" width="90.25" height="1.1"/>
						</g>
						<g>
							
								<rect x="60.98" y="165.49" transform="matrix(0.9216 -0.3882 0.3882 0.9216 -56.1329 54.206)" class="st0" width="90.25" height="1.1"/>
						</g>
						<g>
							
								<rect x="62.89" y="166.56" transform="matrix(0.9216 -0.3882 0.3882 0.9216 -56.3978 55.033)" class="st0" width="90.25" height="1.1"/>
						</g>
						<g>
							
								<rect x="64.81" y="167.63" transform="matrix(0.9216 -0.3882 0.3882 0.9216 -56.6627 55.86)" class="st0" width="90.25" height="1.1"/>
						</g>
						<g>
							
								<rect x="66.72" y="168.7" transform="matrix(0.9216 -0.3882 0.3882 0.9216 -56.9276 56.6871)" class="st0" width="90.25" height="1.1"/>
						</g>
						<g>
							
								<rect x="68.64" y="169.77" transform="matrix(0.9216 -0.3882 0.3882 0.9216 -57.1926 57.5141)" class="st0" width="90.25" height="1.1"/>
						</g>
						<g>
							
								<rect x="70.55" y="170.84" transform="matrix(0.9216 -0.3882 0.3882 0.9216 -57.4575 58.3412)" class="st0" width="90.25" height="1.1"/>
						</g>
						<g>
							<path class="st0" d="M76.22,190.49l-0.43-1.01c13.68-5.87,27.76-11.75,41.36-17.44c11.86-4.96,24.13-10.09,36.1-15.19
								l0.43,1.02c-11.97,5.1-24.24,10.23-36.11,15.2C103.97,178.74,89.91,184.62,76.22,190.49z"/>
						</g>
					</g>
					<g>
						<g>
							<path class="st0" d="M78.23,191.61l-0.43-1.01c11.23-4.81,22.87-9.65,34.14-14.33c14.44-6,29.38-12.21,43.52-18.39l0.44,1.01
								c-14.15,6.19-29.09,12.4-43.54,18.4C101.1,181.96,89.46,186.8,78.23,191.61z"/>
						</g>
						<g>
							<path class="st0" d="M79.9,192.54l-0.44-1.01c14.29-6.25,29.29-12.48,43.8-18.51c11.27-4.68,22.93-9.53,34.17-14.34
								l0.43,1.01c-11.25,4.82-22.91,9.66-34.18,14.35C109.18,180.06,94.18,186.29,79.9,192.54z"/>
						</g>
						<g>
							<path class="st0" d="M81.81,193.61l-0.42-1.02c17.6-7.25,35.03-14.65,51.88-21.8c8.67-3.68,17.63-7.48,26.52-11.23l0.43,1.02
								c-8.89,3.75-17.85,7.55-26.52,11.23C116.84,178.96,99.41,186.36,81.81,193.61z"/>
						</g>
						<g>
							<path class="st0" d="M83.72,194.68l-0.43-1.02c11.01-4.61,22.11-9.32,32.84-13.87c14.91-6.32,30.34-12.86,45.71-19.23
								l0.42,1.02c-15.37,6.36-30.79,12.9-45.7,19.22C105.83,185.36,94.73,190.07,83.72,194.68z"/>
						</g>
						<g>
							<path class="st0" d="M85.64,195.75l-0.42-1.02c27.68-11.49,54.24-22.68,78.95-33.26l0.43,1.01
								C139.89,173.06,113.32,184.25,85.64,195.75z"/>
						</g>
						<g>
							<path class="st0" d="M87.55,196.82l-0.42-1.02c17.8-7.33,35.47-14.83,52.56-22.09c8.67-3.68,17.63-7.49,26.53-11.23
								l0.43,1.02c-8.9,3.75-17.86,7.55-26.53,11.23C123.03,181.98,105.36,189.49,87.55,196.82z"/>
						</g>
						<g>
							<path class="st0" d="M89.47,197.89l-0.43-1.02c11.3-4.73,22.72-9.57,33.76-14.25c14.84-6.29,30.18-12.79,45.46-19.13
								l0.42,1.02c-15.28,6.33-30.62,12.83-45.46,19.12C112.19,188.31,100.77,193.15,89.47,197.89z"/>
						</g>
						<g>
							<path class="st0" d="M91.38,198.96l-0.42-1.02c28.7-11.92,54.66-22.85,79.35-33.43l0.43,1.01
								C146.05,176.1,120.09,187.04,91.38,198.96z"/>
						</g>
					</g>
					<g>
						<g>
							<path class="st0" d="M93.39,200.08l-0.42-1.02c14.95-6.2,29.89-12.53,44.34-18.66c11.29-4.78,22.96-9.73,34.57-14.59
								l0.43,1.02c-11.61,4.86-23.28,9.8-34.56,14.59C123.29,187.54,108.35,193.88,93.39,200.08z"/>
						</g>
						<g>
							<path class="st0" d="M95.06,201.01l-0.43-1.02c20.61-8.72,41.54-17.52,61.77-26.03l16.54-6.96l0.43,1.02l-16.54,6.96
								C136.59,183.49,115.67,192.29,95.06,201.01z"/>
						</g>
						<g>
							<path class="st0" d="M96.97,202.08l-0.43-1.02c10.68-4.48,21.42-9.03,31.81-13.44c15.37-6.52,31.27-13.26,47.23-19.87
								l0.42,1.02c-15.96,6.6-31.86,13.34-47.23,19.86C118.4,193.04,107.65,197.6,96.97,202.08z"/>
						</g>
						<g>
							<path class="st0" d="M98.89,203.14l-0.44-1.01c15.01-6.56,30.92-13.17,46.3-19.57c11.27-4.69,22.93-9.53,34.14-14.32
								l0.43,1.01c-11.22,4.79-22.87,9.64-34.15,14.32C129.79,189.97,113.89,196.59,98.89,203.14z"/>
						</g>
						<g>
							
								<rect x="97.04" y="185.63" transform="matrix(0.9216 -0.3882 0.3882 0.9216 -61.1232 69.7845)" class="st0" width="90.25" height="1.1"/>
						</g>
						<g>
							
								<rect x="98.96" y="186.7" transform="matrix(0.9216 -0.3882 0.3882 0.9216 -61.3881 70.6115)" class="st0" width="90.25" height="1.1"/>
						</g>
						<g>
							
								<rect x="100.87" y="187.77" transform="matrix(0.9216 -0.3882 0.3882 0.9216 -61.6531 71.4385)" class="st0" width="90.25" height="1.1"/>
						</g>
						<g>
							
								<rect x="102.79" y="188.84" transform="matrix(0.9216 -0.3882 0.3882 0.9216 -61.918 72.2656)" class="st0" width="90.25" height="1.1"/>
						</g>
					</g>
				</g>
			</g>
		</g>
		<g>
			<defs>
				<path id="SVGID_00000121986807502160900560000009426727880535029179_" d="M139.67,219.75c0.42-2.2,3.26-4.4,8.52-6.62
					l51.71-21.79l11.03,6.16l-49.78,20.98c-2.51,1.06-3.99,2-4.42,2.81c-0.44,0.82-0.03,1.69,1.23,2.62l2.53,1.93l-9.38,3.95
					l-5.74-3.2C141.15,224.23,139.25,221.95,139.67,219.75z"/>
			</defs>
			<clipPath id="SVGID_00000174575054869076295190000002162849318373682335_">
				<use xlink:href="#SVGID_00000121986807502160900560000009426727880535029179_"  style="overflow:visible;"/>
			</clipPath>
			<g style="clip-path:url(#SVGID_00000174575054869076295190000002162849318373682335_);">
				<g>
					<g>
						<g>
							<g>
								
									<rect x="105.22" y="190.79" transform="matrix(0.9216 -0.3882 0.3882 0.9216 -62.4845 73.3628)" class="st0" width="90.25" height="1.1"/>
							</g>
							<g>
								
									<rect x="106.88" y="191.72" transform="matrix(0.9216 -0.3882 0.3882 0.9216 -62.7147 74.0814)" class="st0" width="90.25" height="1.1"/>
							</g>
							<g>
								
									<rect x="108.8" y="192.79" transform="matrix(0.9216 -0.3882 0.3882 0.9216 -62.9796 74.9084)" class="st0" width="90.25" height="1.1"/>
							</g>
							<g>
								
									<rect x="110.71" y="193.86" transform="matrix(0.9216 -0.3882 0.3882 0.9216 -63.2445 75.7355)" class="st0" width="90.25" height="1.1"/>
							</g>
							<g>
								
									<rect x="112.63" y="194.93" transform="matrix(0.9216 -0.3882 0.3882 0.9216 -63.5095 76.5625)" class="st0" width="90.25" height="1.1"/>
							</g>
							<g>
								
									<rect x="114.54" y="196" transform="matrix(0.9216 -0.3882 0.3882 0.9216 -63.7744 77.3895)" class="st0" width="90.25" height="1.1"/>
							</g>
							<g>
								
									<rect x="116.46" y="197.07" transform="matrix(0.9216 -0.3882 0.3882 0.9216 -64.0393 78.2166)" class="st0" width="90.25" height="1.1"/>
							</g>
							<g>
								
									<rect x="118.37" y="198.14" transform="matrix(0.9216 -0.3882 0.3882 0.9216 -64.3043 79.0436)" class="st0" width="90.25" height="1.1"/>
							</g>
						</g>
						<g>
							<g>
								
									<rect x="120.38" y="199.26" transform="matrix(0.9216 -0.3882 0.3882 0.9216 -64.5823 79.9115)" class="st0" width="90.25" height="1.1"/>
							</g>
							<g>
								
									<rect x="122.04" y="200.19" transform="matrix(0.9216 -0.3882 0.3882 0.9216 -64.8124 80.6301)" class="st0" width="90.25" height="1.1"/>
							</g>
							<g>
								
									<rect x="123.96" y="201.26" transform="matrix(0.9216 -0.3882 0.3882 0.9216 -65.0774 81.4571)" class="st0" width="90.25" height="1.1"/>
							</g>
							<g>
								
									<rect x="125.87" y="202.33" transform="matrix(0.9216 -0.3882 0.3882 0.9216 -65.3423 82.2842)" class="st0" width="90.25" height="1.1"/>
							</g>
							<g>
								
									<rect x="127.79" y="203.4" transform="matrix(0.9216 -0.3882 0.3882 0.9216 -65.6072 83.1112)" class="st0" width="90.25" height="1.1"/>
							</g>
							<g>
								
									<rect x="129.7" y="204.47" transform="matrix(0.9216 -0.3882 0.3882 0.9216 -65.8722 83.9382)" class="st0" width="90.25" height="1.1"/>
							</g>
							<g>
								
									<rect x="131.62" y="205.53" transform="matrix(0.9216 -0.3882 0.3882 0.9216 -66.1371 84.7653)" class="st0" width="90.25" height="1.1"/>
							</g>
							<g>
								
									<rect x="133.53" y="206.6" transform="matrix(0.9216 -0.3882 0.3882 0.9216 -66.402 85.5923)" class="st0" width="90.25" height="1.1"/>
							</g>
						</g>
						<g>
							<g>
								
									<rect x="135.54" y="207.73" transform="matrix(0.9216 -0.3882 0.3882 0.9216 -66.68 86.4602)" class="st0" width="90.25" height="1.1"/>
							</g>
							<g>
								
									<rect x="137.21" y="208.65" transform="matrix(0.9216 -0.3882 0.3882 0.9216 -66.9102 87.1788)" class="st0" width="90.25" height="1.1"/>
							</g>
							<g>
								
									<rect x="139.12" y="209.72" transform="matrix(0.9216 -0.3882 0.3882 0.9216 -67.1752 88.0058)" class="st0" width="90.25" height="1.1"/>
							</g>
							<g>
								
									<rect x="141.03" y="210.79" transform="matrix(0.9216 -0.3882 0.3882 0.9216 -67.4401 88.8329)" class="st0" width="90.25" height="1.1"/>
							</g>
							<g>
								
									<rect x="142.95" y="211.86" transform="matrix(0.9216 -0.3882 0.3882 0.9216 -67.705 89.6599)" class="st0" width="90.25" height="1.1"/>
							</g>
							<g>
								
									<rect x="144.86" y="212.93" transform="matrix(0.9216 -0.3882 0.3882 0.9216 -67.9699 90.4869)" class="st0" width="90.25" height="1.1"/>
							</g>
							<g>
								
									<rect x="146.78" y="214" transform="matrix(0.9216 -0.3882 0.3882 0.9216 -68.2349 91.314)" class="st0" width="90.25" height="1.1"/>
							</g>
							<g>
								
									<rect x="148.69" y="215.07" transform="matrix(0.9216 -0.3882 0.3882 0.9216 -68.4998 92.141)" class="st0" width="90.25" height="1.1"/>
							</g>
						</g>
					</g>
				</g>
				<g>
					<g>
						<g>
							
								<rect x="59.74" y="165.39" transform="matrix(0.9216 -0.3882 0.3882 0.9216 -56.1912 53.7167)" class="st0" width="90.25" height="1.1"/>
						</g>
						<g>
							
								<rect x="61.4" y="166.32" transform="matrix(0.9216 -0.3882 0.3882 0.9216 -56.4213 54.4353)" class="st0" width="90.25" height="1.1"/>
						</g>
						<g>
							
								<rect x="63.32" y="167.39" transform="matrix(0.9216 -0.3882 0.3882 0.9216 -56.6863 55.2623)" class="st0" width="90.25" height="1.1"/>
						</g>
						<g>
							
								<rect x="65.23" y="168.46" transform="matrix(0.9216 -0.3882 0.3882 0.9216 -56.9512 56.0893)" class="st0" width="90.25" height="1.1"/>
						</g>
						<g>
							
								<rect x="67.15" y="169.53" transform="matrix(0.9216 -0.3882 0.3882 0.9216 -57.2161 56.9164)" class="st0" width="90.25" height="1.1"/>
						</g>
						<g>
							
								<rect x="69.06" y="170.6" transform="matrix(0.9216 -0.3882 0.3882 0.9216 -57.4811 57.7434)" class="st0" width="90.25" height="1.1"/>
						</g>
						<g>
							<path class="st0" d="M74.74,190.25l-0.44-1.01c12.7-5.57,26.11-11.11,39.07-16.46c12.9-5.33,26.24-10.84,38.85-16.37
								l0.44,1.01c-12.62,5.53-25.96,11.04-38.87,16.38C100.83,179.15,87.43,184.68,74.74,190.25z"/>
						</g>
						<g>
							<path class="st0" d="M76.65,191.32l-0.43-1.02c26.16-11.08,52.95-22.35,78.02-32.87l0.43,1.02
								C129.6,168.97,102.8,180.24,76.65,191.32z"/>
						</g>
					</g>
					<g>
						<g>
							<path class="st0" d="M78.66,192.44l-0.43-1.02c26.97-11.42,54.37-22.94,78.54-33.09l0.43,1.02
								C133.02,169.5,105.63,181.02,78.66,192.44z"/>
						</g>
						<g>
							<path class="st0" d="M80.32,193.37l-0.43-1.02l16.34-6.88c20.52-8.64,41.73-17.57,62.48-26.33l0.43,1.02
								c-20.75,8.76-41.97,17.69-62.48,26.33L80.32,193.37z"/>
						</g>
						<g>
							<path class="st0" d="M82.24,194.44l-0.43-1.01c24.75-10.6,51.32-21.79,78.96-33.27l0.42,1.02
								C133.55,172.65,106.98,183.84,82.24,194.44z"/>
						</g>
						<g>
							<path class="st0" d="M84.14,195.51l-0.42-1.02c15.46-6.4,30.88-12.94,45.8-19.27c10.99-4.66,22.36-9.48,33.6-14.18l0.43,1.02
								c-11.24,4.7-22.6,9.52-33.59,14.18C115.03,182.56,99.6,189.1,84.14,195.51z"/>
						</g>
						<g>
							<path class="st0" d="M86.06,196.58l-0.43-1.02l5.81-2.45c24.31-10.23,49.44-20.81,74.04-31.2l0.43,1.02
								c-24.6,10.38-49.74,20.97-74.04,31.2L86.06,196.58z"/>
						</g>
						<g>
							<path class="st0" d="M87.98,197.64l-0.43-1.01c25.34-10.85,51.5-21.87,79.98-33.7l0.42,1.02
								C139.47,175.78,113.31,186.8,87.98,197.64z"/>
						</g>
						<g>
							<path class="st0" d="M89.89,198.72l-0.42-1.02c15.81-6.54,31.57-13.23,46.8-19.69c10.85-4.6,22.08-9.36,33.29-14.06
								l0.43,1.02c-11.21,4.69-22.43,9.45-33.28,14.05C121.46,185.49,105.7,192.17,89.89,198.72z"/>
						</g>
						<g>
							<path class="st0" d="M91.81,199.78l-0.43-1.02c26.16-11.01,53.22-22.39,79.93-33.68l0.43,1.02
								C145.02,177.4,117.97,188.78,91.81,199.78z"/>
						</g>
					</g>
					<g>
						<g>
							<path class="st0" d="M93.81,200.91l-0.43-1.02c23.46-9.85,51.17-21.51,78.86-33.23l0.43,1.02
								C144.98,179.4,117.27,191.05,93.81,200.91z"/>
						</g>
						<g>
							<path class="st0" d="M95.48,201.84l-0.43-1.02c11.89-4.97,23.79-10.01,35.3-14.89c14.29-6.06,29.07-12.32,43.88-18.47
								l0.42,1.02c-14.8,6.14-29.58,12.41-43.87,18.46C119.27,191.82,107.36,196.87,95.48,201.84z"/>
						</g>
						<g>
							<path class="st0" d="M97.39,202.91l-0.42-1.02c27.73-11.5,54.73-22.88,80.24-33.81l0.43,1.01
								C152.13,180.03,125.13,191.4,97.39,202.91z"/>
						</g>
						<g>
							
								<rect x="95.55" y="185.39" transform="matrix(0.9216 -0.3882 0.3882 0.9216 -61.1467 69.1868)" class="st0" width="90.25" height="1.1"/>
						</g>
						<g>
							
								<rect x="97.47" y="186.46" transform="matrix(0.9216 -0.3882 0.3882 0.9216 -61.4117 70.0138)" class="st0" width="90.25" height="1.1"/>
						</g>
						<g>
							
								<rect x="99.38" y="187.53" transform="matrix(0.9216 -0.3882 0.3882 0.9216 -61.6766 70.8408)" class="st0" width="90.25" height="1.1"/>
						</g>
						<g>
							
								<rect x="101.3" y="188.6" transform="matrix(0.9216 -0.3882 0.3882 0.9216 -61.9415 71.6679)" class="st0" width="90.25" height="1.1"/>
						</g>
						<g>
							
								<rect x="103.21" y="189.67" transform="matrix(0.9216 -0.3882 0.3882 0.9216 -62.2065 72.4949)" class="st0" width="90.25" height="1.1"/>
						</g>
					</g>
				</g>
			</g>
		</g>
		<g>
			<defs>
				<path id="SVGID_00000165227536119473658540000009990441929882634642_" d="M162.32,235.84c-2.63-1.84-4.41-3.34-5.36-4.5
					l7.63-3.21l17.74,9.9c1.64,0.92,3.07,1.46,4.29,1.62c1.22,0.17,2.59-0.07,4.11-0.71l1.49-0.63c1.23-0.52,1.81-1.09,1.75-1.73
					c-0.06-0.63-0.93-1.42-2.62-2.36l-6.26-3.5c-3.73-2.08-5.67-4.16-5.84-6.23c-0.17-2.07,1.99-4.05,6.49-5.95l2.72-1.14
					c4.67-1.97,9.34-2.76,14-2.36c4.66,0.4,9.94,2.25,15.86,5.55c2.43,1.36,4.87,2.94,7.32,4.73c2.44,1.79,4.12,3.23,5.02,4.31
					l-7.63,3.21l-16.77-9.36c-1.54-0.86-2.95-1.36-4.23-1.5c-1.28-0.14-2.65,0.09-4.11,0.71l-1.4,0.59
					c-1.46,0.62-2.07,1.24-1.82,1.86c0.25,0.63,1.24,1.42,2.98,2.39l6.41,3.58c3.97,2.22,5.85,4.31,5.63,6.28
					c-0.22,1.97-2.32,3.79-6.29,5.46l-4.21,1.77c-4.62,1.95-9.22,2.57-13.8,1.87c-4.58-0.7-9.61-2.57-15.07-5.62
					C167.62,239.36,164.95,237.68,162.32,235.84z"/>
			</defs>
			<clipPath id="SVGID_00000068636081568186941050000011171148904528531078_">
				<use xlink:href="#SVGID_00000165227536119473658540000009990441929882634642_"  style="overflow:visible;"/>
			</clipPath>
			<g style="clip-path:url(#SVGID_00000068636081568186941050000011171148904528531078_);">
				<g>
					<g>
						<g>
							<g>
								
									<rect x="141" y="218.77" transform="matrix(0.9216 -0.3882 0.3882 0.9216 -70.5389 89.4449)" class="st0" width="90.25" height="1.1"/>
							</g>
							<g>
								
									<rect x="142.66" y="219.7" transform="matrix(0.9216 -0.3882 0.3882 0.9216 -70.7691 90.1635)" class="st0" width="90.25" height="1.1"/>
							</g>
							<g>
								
									<rect x="144.58" y="220.77" transform="matrix(0.9216 -0.3882 0.3882 0.9216 -71.0341 90.9905)" class="st0" width="90.25" height="1.1"/>
							</g>
							<g>
								
									<rect x="146.49" y="221.84" transform="matrix(0.9216 -0.3882 0.3882 0.9216 -71.299 91.8176)" class="st0" width="90.25" height="1.1"/>
							</g>
							<g>
								
									<rect x="148.41" y="222.91" transform="matrix(0.9216 -0.3882 0.3882 0.9216 -71.5639 92.6446)" class="st0" width="90.25" height="1.1"/>
							</g>
							<g>
								
									<rect x="150.32" y="223.98" transform="matrix(0.9216 -0.3882 0.3882 0.9216 -71.8289 93.4716)" class="st0" width="90.25" height="1.1"/>
							</g>
							<g>
								
									<rect x="152.24" y="225.05" transform="matrix(0.9216 -0.3882 0.3882 0.9216 -72.0938 94.2987)" class="st0" width="90.25" height="1.1"/>
							</g>
							<g>
								
									<rect x="154.15" y="226.11" transform="matrix(0.9216 -0.3882 0.3882 0.9216 -72.3587 95.1257)" class="st0" width="90.25" height="1.1"/>
							</g>
						</g>
						<g>
							<g>
								
									<rect x="156.16" y="227.24" transform="matrix(0.9216 -0.3882 0.3882 0.9216 -72.6367 95.9936)" class="st0" width="90.25" height="1.1"/>
							</g>
							<g>
								
									<rect x="157.82" y="228.17" transform="matrix(0.9216 -0.3882 0.3882 0.9216 -72.8669 96.7122)" class="st0" width="90.25" height="1.1"/>
							</g>
							<g>
								
									<rect x="159.74" y="229.23" transform="matrix(0.9216 -0.3882 0.3882 0.9216 -73.1318 97.5392)" class="st0" width="90.25" height="1.1"/>
							</g>
							<g>
								
									<rect x="161.65" y="230.3" transform="matrix(0.9216 -0.3882 0.3882 0.9216 -73.3968 98.3662)" class="st0" width="90.25" height="1.1"/>
							</g>
							<g>
								
									<rect x="163.57" y="231.37" transform="matrix(0.9216 -0.3882 0.3882 0.9216 -73.6617 99.1933)" class="st0" width="90.25" height="1.1"/>
							</g>
							<g>
								
									<rect x="165.48" y="232.44" transform="matrix(0.9216 -0.3882 0.3882 0.9216 -73.9266 100.0203)" class="st0" width="90.25" height="1.1"/>
							</g>
							<g>
								
									<rect x="167.4" y="233.51" transform="matrix(0.9216 -0.3882 0.3882 0.9216 -74.1915 100.8474)" class="st0" width="90.25" height="1.1"/>
							</g>
							<g>
								
									<rect x="169.31" y="234.58" transform="matrix(0.9216 -0.3882 0.3882 0.9216 -74.4565 101.6744)" class="st0" width="90.25" height="1.1"/>
							</g>
						</g>
						<g>
							<g>
								
									<rect x="171.32" y="235.7" transform="matrix(0.9216 -0.3882 0.3882 0.9216 -74.7345 102.5423)" class="st0" width="90.25" height="1.1"/>
							</g>
							<g>
								
									<rect x="172.98" y="236.63" transform="matrix(0.9216 -0.3882 0.3882 0.9216 -74.9647 103.2608)" class="st0" width="90.25" height="1.1"/>
							</g>
							<g>
								
									<rect x="174.9" y="237.7" transform="matrix(0.9216 -0.3882 0.3882 0.9216 -75.2296 104.0879)" class="st0" width="90.25" height="1.1"/>
							</g>
							<g>
								
									<rect x="176.81" y="238.77" transform="matrix(0.9216 -0.3882 0.3882 0.9216 -75.4945 104.9149)" class="st0" width="90.25" height="1.1"/>
							</g>
							<g>
								
									<rect x="178.73" y="239.84" transform="matrix(0.9216 -0.3882 0.3882 0.9216 -75.7595 105.742)" class="st0" width="90.25" height="1.1"/>
							</g>
							<g>
								
									<rect x="180.64" y="240.91" transform="matrix(0.9216 -0.3882 0.3882 0.9216 -76.0244 106.569)" class="st0" width="90.25" height="1.1"/>
							</g>
							<g>
								
									<rect x="182.56" y="241.98" transform="matrix(0.9216 -0.3882 0.3882 0.9216 -76.2893 107.396)" class="st0" width="90.25" height="1.1"/>
							</g>
							<g>
								
									<rect x="184.47" y="243.05" transform="matrix(0.9216 -0.3882 0.3882 0.9216 -76.5543 108.2231)" class="st0" width="90.25" height="1.1"/>
							</g>
						</g>
					</g>
				</g>
				<g>
					<g>
						<g>
							
								<rect x="95.52" y="193.37" transform="matrix(0.9216 -0.3882 0.3882 0.9216 -64.2456 69.7988)" class="st0" width="90.25" height="1.1"/>
						</g>
						<g>
							
								<rect x="97.18" y="194.3" transform="matrix(0.9216 -0.3882 0.3882 0.9216 -64.4758 70.5174)" class="st0" width="90.25" height="1.1"/>
						</g>
						<g>
							
								<rect x="99.1" y="195.37" transform="matrix(0.9216 -0.3882 0.3882 0.9216 -64.7407 71.3444)" class="st0" width="90.25" height="1.1"/>
						</g>
						<g>
							
								<rect x="101.01" y="196.44" transform="matrix(0.9216 -0.3882 0.3882 0.9216 -65.0057 72.1715)" class="st0" width="90.25" height="1.1"/>
						</g>
						<g>
							
								<rect x="102.93" y="197.51" transform="matrix(0.9216 -0.3882 0.3882 0.9216 -65.2706 72.9985)" class="st0" width="90.25" height="1.1"/>
						</g>
						<g>
							
								<rect x="104.84" y="198.58" transform="matrix(0.9216 -0.3882 0.3882 0.9216 -65.5355 73.8255)" class="st0" width="90.25" height="1.1"/>
						</g>
						<g>
							
								<rect x="106.76" y="199.64" transform="matrix(0.9216 -0.3882 0.3882 0.9216 -65.8005 74.6526)" class="st0" width="90.25" height="1.1"/>
						</g>
						<g>
							
								<rect x="108.67" y="200.71" transform="matrix(0.9216 -0.3882 0.3882 0.9216 -66.0654 75.4796)" class="st0" width="90.25" height="1.1"/>
						</g>
					</g>
					<g>
						<g>
							
								<rect x="110.68" y="201.84" transform="matrix(0.9216 -0.3882 0.3882 0.9216 -66.3434 76.3475)" class="st0" width="90.25" height="1.1"/>
						</g>
						<g>
							
								<rect x="112.34" y="202.77" transform="matrix(0.9216 -0.3882 0.3882 0.9216 -66.5736 77.0661)" class="st0" width="90.25" height="1.1"/>
						</g>
						<g>
							
								<rect x="114.26" y="203.83" transform="matrix(0.9216 -0.3882 0.3882 0.9216 -66.8385 77.8931)" class="st0" width="90.25" height="1.1"/>
						</g>
						<g>
							
								<rect x="116.17" y="204.9" transform="matrix(0.9216 -0.3882 0.3882 0.9216 -67.1034 78.7202)" class="st0" width="90.25" height="1.1"/>
						</g>
						<g>
							
								<rect x="118.09" y="205.97" transform="matrix(0.9216 -0.3882 0.3882 0.9216 -67.3684 79.5472)" class="st0" width="90.25" height="1.1"/>
						</g>
						<g>
							
								<rect x="120" y="207.04" transform="matrix(0.9216 -0.3882 0.3882 0.9216 -67.6333 80.3742)" class="st0" width="90.25" height="1.1"/>
						</g>
						<g>
							
								<rect x="121.92" y="208.11" transform="matrix(0.9216 -0.3882 0.3882 0.9216 -67.8982 81.2013)" class="st0" width="90.25" height="1.1"/>
						</g>
						<g>
							
								<rect x="123.83" y="209.18" transform="matrix(0.9216 -0.3882 0.3882 0.9216 -68.1632 82.0283)" class="st0" width="90.25" height="1.1"/>
						</g>
					</g>
					<g>
						<g>
							
								<rect x="125.84" y="210.3" transform="matrix(0.9216 -0.3882 0.3882 0.9216 -68.4412 82.8962)" class="st0" width="90.25" height="1.1"/>
						</g>
						<g>
							
								<rect x="127.5" y="211.23" transform="matrix(0.9216 -0.3882 0.3882 0.9216 -68.6714 83.6148)" class="st0" width="90.25" height="1.1"/>
						</g>
						<g>
							
								<rect x="129.42" y="212.3" transform="matrix(0.9216 -0.3882 0.3882 0.9216 -68.9363 84.4418)" class="st0" width="90.25" height="1.1"/>
						</g>
						<g>
							
								<rect x="131.33" y="213.37" transform="matrix(0.9216 -0.3882 0.3882 0.9216 -69.2012 85.2689)" class="st0" width="90.25" height="1.1"/>
						</g>
						<g>
							
								<rect x="133.25" y="214.44" transform="matrix(0.9216 -0.3882 0.3882 0.9216 -69.4662 86.0959)" class="st0" width="90.25" height="1.1"/>
						</g>
						<g>
							
								<rect x="135.16" y="215.51" transform="matrix(0.9216 -0.3882 0.3882 0.9216 -69.7311 86.9229)" class="st0" width="90.25" height="1.1"/>
						</g>
						<g>
							
								<rect x="137.08" y="216.58" transform="matrix(0.9216 -0.3882 0.3882 0.9216 -69.996 87.75)" class="st0" width="90.25" height="1.1"/>
						</g>
						<g>
							
								<rect x="138.99" y="217.65" transform="matrix(0.9216 -0.3882 0.3882 0.9216 -70.2609 88.577)" class="st0" width="90.25" height="1.1"/>
						</g>
					</g>
				</g>
			</g>
		</g>
	</g>
	<g>
		<path class="st0" d="M208.06,72.06c-1-0.02-2.08-0.24-3.24-0.67c-1.16-0.43-2.49-1.04-3.97-1.84c-1.55-0.84-2.72-1.59-3.5-2.25
			c-0.78-0.66-1.16-1.29-1.15-1.91c0.01-0.61,0.51-1.22,1.5-1.82c0.64-0.39,1.27-0.72,1.89-0.98c0.62-0.26,1.32-0.51,2.1-0.77
			l2.07,1.12c-0.41,0.18-0.92,0.43-1.52,0.73c-0.6,0.3-1.19,0.63-1.76,0.98c-0.58,0.35-0.88,0.69-0.89,1.02
			c-0.02,0.32,0.23,0.69,0.75,1.09c0.52,0.4,1.36,0.93,2.54,1.56c1.18,0.64,2.13,1.09,2.85,1.35c0.72,0.27,1.33,0.39,1.81,0.37
			c0.49-0.02,0.96-0.16,1.41-0.44c0.34-0.21,0.65-0.44,0.91-0.68c0.26-0.24,0.46-0.47,0.6-0.68l-2.62-1.42l-1.81,1.1l-2.13-1.15
			c0.22-0.19,0.54-0.43,0.94-0.72c0.4-0.29,0.8-0.55,1.2-0.8c0.56-0.34,1.05-0.62,1.47-0.83l7.64,4.14l-1.51,0.92l-1.18-0.33
			c-0.07,0.35-0.24,0.72-0.51,1.12c-0.28,0.4-0.67,0.75-1.19,1.07C209.96,71.84,209.06,72.08,208.06,72.06z"/>
		<path class="st0" d="M207.02,62.28l1.55-0.94l1.95,0.53c-0.22-0.45-0.31-0.86-0.26-1.21c0.04-0.36,0.28-0.66,0.71-0.92
			c0.24-0.14,0.46-0.25,0.69-0.32l2.76,1.5c-0.53,0.25-0.85,0.41-0.95,0.47c-0.39,0.24-0.64,0.49-0.75,0.75
			c-0.11,0.26-0.11,0.57,0,0.92l6.08,3.29l-2.01,1.23L207.02,62.28z"/>
		<path class="st0" d="M221.9,63.82c-0.78-0.03-1.56-0.26-2.32-0.67l-0.87-0.47c-0.78-0.42-1.19-0.88-1.25-1.37
			c-0.06-0.5,0.31-0.99,1.11-1.47l1.86-1.13l-0.67-0.36c-0.33-0.18-0.63-0.29-0.9-0.34c-0.27-0.05-0.56-0.03-0.88,0.06
			c-0.32,0.09-0.7,0.27-1.14,0.54l-2.19,1.33l-1.56-0.85c0.53-0.74,1.32-1.44,2.37-2.08c0.96-0.59,1.92-0.89,2.88-0.92
			c0.96-0.03,2.04,0.28,3.24,0.93l6.64,3.6l-1.59,0.97l-1.36-0.36c0.03,0.13,0.01,0.33-0.06,0.58c-0.07,0.25-0.21,0.52-0.43,0.81
			c-0.21,0.28-0.5,0.54-0.87,0.76C223.35,63.69,222.68,63.85,221.9,63.82z M223.67,61.12c0.18-0.26,0.28-0.43,0.3-0.51l-2.27-1.23
			l-1.11,0.8c-0.62,0.46-0.56,0.89,0.17,1.28l0.4,0.22c0.69,0.37,1.34,0.38,1.93,0.01C223.29,61.57,223.49,61.38,223.67,61.12z"/>
		<path class="st0" d="M219.95,54.39l1.68-1.03l1.25,0.3c-0.04-0.8,0.28-1.41,0.95-1.82c0.88-0.54,1.96-0.7,3.26-0.48
			c1.29,0.22,2.75,0.76,4.36,1.63c1.67,0.91,2.73,1.7,3.18,2.39c0.45,0.68,0.19,1.32-0.76,1.9c-0.34,0.21-0.75,0.39-1.22,0.55
			c-0.47,0.16-0.95,0.27-1.44,0.34l4.82,2.61l-2.01,1.23L219.95,54.39z M231.29,55.61c-0.18-0.36-0.8-0.82-1.84-1.38
			c-1.04-0.56-1.89-0.9-2.55-1c-0.65-0.1-1.17-0.04-1.55,0.19c-0.45,0.28-0.73,0.65-0.83,1.13l4.64,2.51
			c0.32-0.03,0.64-0.09,0.98-0.2c0.33-0.11,0.62-0.23,0.87-0.38C231.38,56.26,231.47,55.97,231.29,55.61z"/>
		<path class="st0" d="M223.8,47.33l2.01-1.23l5.09,2.76c-0.04-0.34,0.03-0.7,0.23-1.09c0.2-0.39,0.51-0.71,0.92-0.96
			c1.49-0.91,3.4-0.74,5.71,0.52l6.46,3.5l-2.01,1.23l-6.11-3.31c-0.45-0.24-0.89-0.37-1.32-0.39c-0.43-0.02-0.81,0.07-1.12,0.27
			c-0.5,0.3-0.76,0.74-0.78,1.31l6.79,3.67l-2.01,1.23L223.8,47.33z"/>
		<path class="st0" d="M234.46,43.77c-0.12-0.01-0.23-0.04-0.34-0.1l-1.78-0.97c-0.25-0.14-0.29-0.26-0.1-0.38l1.55-0.94
			c0.08-0.05,0.18-0.07,0.3-0.06c0.12,0.01,0.23,0.05,0.34,0.11l1.78,0.97c0.24,0.13,0.28,0.25,0.11,0.35l-1.55,0.94
			C234.68,43.75,234.58,43.77,234.46,43.77z M235.97,44.62l2.01-1.23l9.77,5.29l-2.01,1.23L235.97,44.62z"/>
		<path class="st0" d="M248.88,46.84c-1.27-0.07-2.82-0.61-4.64-1.59c-1.3-0.7-2.2-1.33-2.7-1.87c-0.5-0.54-0.68-1.04-0.53-1.48
			c0.15-0.44,0.57-0.87,1.27-1.3c0.88-0.54,1.88-0.97,2.99-1.3l1.55,0.84l-1.91,1.17c-0.43,0.26-0.69,0.52-0.76,0.76
			c-0.07,0.24,0.05,0.51,0.37,0.82c0.32,0.31,0.9,0.68,1.72,1.13c0.81,0.44,1.48,0.74,2.02,0.9c0.53,0.16,1,0.2,1.39,0.14
			c0.4-0.07,0.82-0.24,1.27-0.51l2-1.22l1.53,0.83c-0.2,0.29-0.5,0.61-0.9,0.97c-0.4,0.36-0.83,0.68-1.29,0.96
			C251.27,46.66,250.15,46.92,248.88,46.84z"/>
	</g>
	<g>
		<path class="st0" d="M217.47,78.27l2.08-1.27l11.11,4.16l-7.61-6.29l1.85-1.13l11.37,4l-7.88-6.13l2.08-1.27l11.06,8.76
			l-2.05,1.25l-11.53-3.9l7.45,6.39l-2.05,1.25L217.47,78.27z"/>
		<path class="st0" d="M245.16,76.48c-0.76,0.13-1.61,0.07-2.53-0.19c-0.93-0.26-2.04-0.74-3.34-1.44
			c-1.33-0.72-2.26-1.34-2.79-1.85c-0.52-0.51-0.7-0.99-0.54-1.42c0.17-0.44,0.66-0.91,1.5-1.42c0.74-0.45,1.42-0.76,2.04-0.91
			c0.62-0.15,1.27-0.16,1.95-0.02c0.68,0.14,1.46,0.46,2.35,0.94c0.95,0.51,1.42,1,1.42,1.46c0,0.46-0.39,0.93-1.16,1.4l-1.83,1.12
			c0.54,0.27,1,0.45,1.39,0.55c0.38,0.09,0.77,0.1,1.15,0.01c0.38-0.09,0.82-0.28,1.3-0.58l2.13-1.3l1.58,0.86
			c-0.35,0.37-0.68,0.69-0.99,0.96s-0.73,0.57-1.25,0.89C246.71,76.03,245.92,76.35,245.16,76.48z M242.25,72.28
			c0.28-0.17,0.41-0.33,0.38-0.49c-0.03-0.16-0.23-0.33-0.59-0.53c-0.53-0.29-1-0.44-1.39-0.44c-0.39,0-0.81,0.13-1.24,0.39
			c-0.32,0.19-0.49,0.38-0.53,0.56c-0.04,0.18,0.08,0.39,0.35,0.63c0.27,0.24,0.73,0.53,1.37,0.88L242.25,72.28z"/>
		<path class="st0" d="M254.47,71.01c-0.51,0.1-1.09,0.16-1.72,0.17l0.6,0.7l-1.68,1.03l-13.88-7.52l2.01-1.23l4.78,2.59
			c0.09-0.32,0.23-0.63,0.44-0.94c0.2-0.31,0.46-0.55,0.77-0.74c0.62-0.38,1.3-0.59,2.02-0.63c0.72-0.04,1.54,0.09,2.46,0.39
			c0.92,0.3,2,0.78,3.23,1.45c1.65,0.89,2.67,1.68,3.07,2.37c0.4,0.69,0.18,1.28-0.66,1.8C255.46,70.72,254.98,70.9,254.47,71.01z
			 M253.22,68.81c-0.21-0.36-0.83-0.82-1.86-1.38c-0.79-0.43-1.45-0.72-1.97-0.88c-0.53-0.16-0.95-0.22-1.26-0.19
			c-0.31,0.04-0.59,0.13-0.83,0.28c-0.44,0.27-0.72,0.65-0.83,1.13l4.64,2.51c0.75-0.09,1.36-0.29,1.84-0.58
			C253.34,69.47,253.43,69.17,253.22,68.81z"/>
	</g>
	<g>
		<path class="st0" d="M260.76,91.55L251,87.68l7.3,5.52l-1.83,1.23l-10.6-3.18l8.17,4.81l-1.89,1.27l-12.63-7.46l1.87-1.26
			l12.79,3.62l-8.32-6.63l1.86-1.25l14.92,5.92L260.76,91.55z"/>
		<path class="st0" d="M264.6,88.53c-0.78,0.16-1.65,0.13-2.6-0.08c-0.95-0.21-2.08-0.64-3.38-1.27c-1.35-0.66-2.29-1.24-2.81-1.74
			c-0.52-0.5-0.7-0.98-0.52-1.44c0.17-0.45,0.66-0.95,1.46-1.49c0.81-0.54,1.6-0.9,2.37-1.06c0.77-0.17,1.63-0.14,2.59,0.07
			c0.95,0.21,2.09,0.64,3.42,1.29c1.33,0.65,2.25,1.22,2.78,1.72c0.53,0.5,0.71,0.98,0.55,1.44c-0.16,0.46-0.65,0.97-1.47,1.52
			C266.17,88.02,265.38,88.37,264.6,88.53z M265.36,85.8c0.05-0.18-0.1-0.4-0.42-0.66c-0.33-0.26-0.92-0.6-1.78-1.02
			c-0.86-0.42-1.54-0.7-2.04-0.84c-0.5-0.14-0.91-0.19-1.21-0.13c-0.31,0.05-0.63,0.2-0.97,0.43c-0.33,0.22-0.52,0.43-0.57,0.61
			c-0.05,0.18,0.1,0.4,0.42,0.66c0.33,0.26,0.92,0.6,1.78,1.02c0.86,0.42,1.54,0.7,2.04,0.84c0.5,0.14,0.91,0.19,1.21,0.13
			c0.31-0.05,0.63-0.19,0.96-0.42C265.12,86.19,265.32,85.98,265.36,85.8z"/>
		<path class="st0" d="M272.46,83.3c-0.56,0.12-1.17,0.1-1.84-0.05c-0.67-0.15-1.44-0.45-2.3-0.89l-4.16-2.1l-1.11,0.74l-1.77-0.86
			l0.73-1.01l-2.53-1.53l1.54-1.04l2.79,1.36l1.66-1.12l2.21,1.08L266.03,79l4.21,2.04c0.5,0.24,0.91,0.37,1.23,0.38
			c0.32,0.01,0.62-0.04,0.89-0.17l1.01-0.55l2.05,0.99l-1.28,0.86C273.57,82.94,273.02,83.19,272.46,83.3z"/>
		<path class="st0" d="M265.04,75.29c-0.12,0-0.23-0.03-0.34-0.08l-1.82-0.89c-0.26-0.13-0.3-0.25-0.11-0.38l1.5-1.01
			c0.08-0.05,0.18-0.08,0.3-0.07c0.12,0.01,0.23,0.04,0.35,0.09l1.82,0.89c0.25,0.12,0.29,0.24,0.12,0.35l-1.5,1.01
			C265.26,75.26,265.15,75.29,265.04,75.29z M266.58,76.07l1.95-1.31l9.99,4.86l-1.95,1.31L266.58,76.07z"/>
		<path class="st0" d="M280.78,77.66c-0.78,0.16-1.65,0.13-2.6-0.08c-0.95-0.21-2.08-0.64-3.38-1.27c-1.35-0.66-2.29-1.24-2.81-1.74
			c-0.52-0.5-0.7-0.98-0.52-1.44c0.17-0.45,0.66-0.95,1.46-1.49c0.81-0.54,1.6-0.9,2.37-1.06c0.77-0.17,1.63-0.14,2.59,0.07
			c0.95,0.21,2.09,0.64,3.42,1.29c1.33,0.65,2.25,1.22,2.78,1.72c0.53,0.5,0.71,0.98,0.55,1.44c-0.16,0.46-0.65,0.97-1.47,1.52
			C282.35,77.15,281.56,77.5,280.78,77.66z M281.54,74.93c0.05-0.18-0.1-0.4-0.42-0.66c-0.33-0.26-0.92-0.6-1.78-1.02
			c-0.86-0.42-1.54-0.7-2.04-0.84c-0.5-0.14-0.91-0.19-1.21-0.13c-0.31,0.05-0.63,0.2-0.97,0.43c-0.33,0.22-0.52,0.43-0.57,0.61
			c-0.05,0.18,0.09,0.4,0.42,0.66c0.33,0.26,0.92,0.6,1.78,1.02c0.86,0.42,1.54,0.7,2.04,0.84c0.5,0.14,0.91,0.19,1.21,0.13
			c0.31-0.05,0.63-0.19,0.96-0.42C281.3,75.31,281.5,75.11,281.54,74.93z"/>
		<path class="st0" d="M277.62,68.65l1.61-1.08l1.37,0.27c-0.04-0.36,0.02-0.73,0.2-1.11c0.18-0.38,0.46-0.71,0.84-0.97
			c0.8-0.54,1.69-0.76,2.67-0.67c0.98,0.09,2.02,0.4,3.11,0.93l6.59,3.2l-1.95,1.31l-6.23-3.03c-0.47-0.23-0.92-0.34-1.35-0.34
			c-0.43,0-0.8,0.11-1.12,0.32c-0.48,0.33-0.72,0.77-0.72,1.35l6.94,3.37l-1.95,1.31L277.62,68.65z"/>
	</g>
</g>
</svg>
